<?xml version="1.0" encoding="UTF-8" standalone="no"?>
<!-- Created with Inkscape (http://www.inkscape.org/) -->

<svg
   xmlns:dc="http://purl.org/dc/elements/1.1/"
   xmlns:cc="http://creativecommons.org/ns#"
   xmlns:rdf="http://www.w3.org/1999/02/22-rdf-syntax-ns#"
   xmlns:svg="http://www.w3.org/2000/svg"
   xmlns="http://www.w3.org/2000/svg"
   xmlns:xlink="http://www.w3.org/1999/xlink"
   xmlns:sodipodi="http://sodipodi.sourceforge.net/DTD/sodipodi-0.dtd"
   xmlns:inkscape="http://www.inkscape.org/namespaces/inkscape"
   width="100"
   height="100"
   viewBox="0 0 93.750004 93.750002"
   id="svg2"
   version="1.1"
   inkscape:version="0.92.1 r15371"
   sodipodi:docname="bww-logo.svg"
   inkscape:export-filename="c:\tmp\BWW_Logo_Final_2015-fixed.png"
   inkscape:export-xdpi="90"
   inkscape:export-ydpi="90">
  <defs
     id="defs4">
    <linearGradient
       inkscape:collect="always"
       id="linearGradient4232">
      <stop
         style="stop-color:#ffffff;stop-opacity:1;"
         offset="0"
         id="stop4234" />
      <stop
         style="stop-color:#fef11e;stop-opacity:1"
         offset="1"
         id="stop4236" />
    </linearGradient>
    <linearGradient
       inkscape:collect="always"
       id="linearGradient4216">
      <stop
         style="stop-color:#508d81;stop-opacity:1"
         offset="0"
         id="stop4218" />
      <stop
         style="stop-color:#f5f8f7;stop-opacity:1"
         offset="1"
         id="stop4220" />
    </linearGradient>
    <linearGradient
       inkscape:collect="always"
       xlink:href="#linearGradient4216"
       id="linearGradient4222"
       x1="2038.6689"
       y1="587.51758"
       x2="2038.6689"
       y2="1069.2422"
       gradientUnits="userSpaceOnUse"
       gradientTransform="matrix(1.251053,0,0,1.251053,-1774.4989,-250.25969)" />
    <linearGradient
       inkscape:collect="always"
       xlink:href="#linearGradient4232"
       id="linearGradient4238"
       x1="2038.6699"
       y1="215"
       x2="2038.8223"
       y2="559.67188"
       gradientUnits="userSpaceOnUse"
       gradientTransform="matrix(1.251053,0,0,1.251053,-1774.6908,-252.42712)" />
  </defs>
  <sodipodi:namedview
     id="base"
     pagecolor="#ffffff"
     bordercolor="#666666"
     borderopacity="1.0"
     inkscape:pageopacity="0.0"
     inkscape:pageshadow="2"
     inkscape:zoom="2.8"
     inkscape:cx="35.325513"
     inkscape:cy="29.745966"
     inkscape:document-units="px"
     inkscape:current-layer="svg2"
     showgrid="false"
     fit-margin-top="0"
     fit-margin-left="0"
     fit-margin-right="0"
     fit-margin-bottom="0"
     inkscape:window-width="1640"
     inkscape:window-height="1050"
     inkscape:window-x="1920"
     inkscape:window-y="0"
     inkscape:window-maximized="1"
     showguides="true"
     inkscape:guide-bbox="true"
     inkscape:snap-global="true"
     inkscape:object-paths="false"
     inkscape:object-nodes="true"
     inkscape:snap-smooth-nodes="true"
     inkscape:snap-object-midpoints="true"
     inkscape:snap-center="true"
     inkscape:snap-bbox="true"
     inkscape:snap-bbox-edge-midpoints="true"
     inkscape:bbox-nodes="true"
     inkscape:bbox-paths="true"
     inkscape:snap-others="true"
     units="px" />
  <g
     id="g5028"
     transform="matrix(0.04832572,0,0,0.04832572,9.3749996,11.476412)">
    <path
       inkscape:connector-curvature="0"
       id="path4211"
       d="M 107.3633,484.75594 A 714.00353,714.00353 0 0 0 61.980852,732.721 714.00353,714.00353 0 0 0 156.98269,1087.4191 H 1394.6237 a 714.00353,714.00353 0 0 0 95.3634,-354.6981 714.00353,714.00353 0 0 0 -44.95,-247.96506 z"
       style="opacity:1;fill:url(#linearGradient4222);fill-opacity:1;fill-rule:nonzero;stroke:none;stroke-width:3;stroke-linecap:round;stroke-linejoin:round;stroke-miterlimit:4;stroke-dasharray:none;stroke-dashoffset:0;stroke-opacity:1" />
    <path
       inkscape:connector-curvature="0"
       id="path4203"
       d="M 775.79327,16.549272 A 714.00353,714.00353 0 0 0 122.04237,447.75206 H 1429.9256 A 714.00353,714.00353 0 0 0 775.79327,16.549272 Z"
       style="opacity:1;fill:url(#linearGradient4238);fill-opacity:1;fill-rule:nonzero;stroke:none;stroke-width:3;stroke-linecap:round;stroke-linejoin:round;stroke-miterlimit:4;stroke-dasharray:none;stroke-dashoffset:0;stroke-opacity:1" />
    <path
       id="rect4274"
       transform="translate(-6.103516e-5)"
       d="M 775.98438,0 C 581.70584,-8.7573705e-4 395.38399,77.17273 258.00781,214.54297 120.63163,351.91321 43.455591,538.22654 43.455078,732.49805 43.527768,856.68794 75.174919,978.82214 135.42383,1087.4199 H 93.828125 C 41.846876,1087.4199 0,1129.2667 0,1181.248 v 135.9278 c 0,51.9812 41.846876,93.8281 93.828125,93.8281 H 501.12695 c 87.2929,35.5107 180.61771,53.8448 274.85743,53.9961 94.21173,-0.162 187.50839,-18.4959 274.77542,-53.9961 h 407.3789 c 51.9813,0 93.8301,-41.8469 93.8301,-93.8281 V 1181.248 c 0,-51.9813 -41.8488,-93.8281 -93.8301,-93.8281 h -42.3184 c 60.501,-108.53046 92.3996,-230.66853 92.6934,-354.92185 -5e-4,-194.27114 -77.1772,-380.58497 -214.5528,-517.95508 C 1156.5852,77.172851 970.26248,-2.5021059e-4 775.98438,0 Z m -0.002,26.806641 h 0.002 C 1055.2677,27.184959 1308.0554,192.22227 1420.7461,447.75195 h -75.4023 c -1.6267,-0.0588 -2.6972,-0.12292 -2.7286,-0.19336 -0.077,-0.17252 -1.2108,-18.55124 -2.5175,-40.84375 l -2.375,-40.5332 -17.4766,-7.26953 c -35.5232,-14.78006 -55.7807,-26.45668 -65.0996,-37.52149 l -4.7578,-5.65039 -3,7.2168 c -6.4275,15.45626 -11.2968,23.50858 -17.961,29.7168 -9.0509,8.43172 -24.3612,19.50422 -41.6777,30.13867 l -14.2559,8.75391 -14.2597,-7.33985 c -16.9826,-8.7416 -49.1797,-22.34524 -59.3223,-25.0664 -14.3663,-3.85437 -28.4928,-1.82607 -32.0625,4.60546 -0.8064,1.45272 -1.5334,7.42723 -1.6172,13.2754 -0.1378,9.65037 -0.3654,10.59398 -2.4726,10.21679 -3.377,-0.60464 -21.2856,3.08796 -28.5313,5.88281 -7.4516,2.87429 -7.318,2.9279 -26.4199,-10.4082 l -12.68946,-8.86133 -0.46484,15.21289 c -0.42427,13.92284 -0.67178,15.26895 -2.92969,15.8418 -3.05754,0.77578 -3.63476,7.83225 -0.64258,7.85352 1.55932,0.0125 1.85982,2.44802 1.77149,14.40234 l -0.10547,14.38477 -14.78711,-0.10938 -14.78711,-0.10937 0.75781,-27.2168 c 0.79117,-28.46934 -0.16895,-41.62758 -4.23633,-58.11133 -2.46348,-9.98441 -2.09263,-10.99298 4.04492,-10.98047 1.89211,0 3.43764,-0.13657 3.4375,-0.30859 -10e-4,-0.17202 -1.57713,-4.26318 -3.5039,-9.09375 -9.70921,-24.34249 -10.82339,-44.94773 -3.34961,-61.97656 l 2.77539,-6.31836 2.18164,4.97265 c 1.2005,2.73455 3.29345,5.57811 4.65234,6.31836 2.05479,1.11906 2.82805,0.80757 4.5918,-1.84179 1.27169,-1.90998 2.83444,-2.89084 3.90039,-2.44922 0.97804,0.40535 2.55108,1.05702 3.4961,1.44922 1.19575,0.49642 1.9817,-0.6389 2.58593,-3.73438 0.71483,-3.66271 1.40872,-4.44259 3.9375,-4.42383 2.74873,0.02 3.07734,-0.5034 3.10938,-4.98242 0.0326,-4.47152 0.36113,-5.00049 3.08984,-4.98047 3.88407,0.0288 4.96397,-1.69618 3.18359,-5.08203 -1.18338,-2.2509 -0.89303,-3.18854 1.85348,-6.01367 3.0233,-3.10987 3.1067,-3.49033 1.2012,-5.42383 -1.90551,-1.93363 -1.8251,-2.3731 1.1348,-6.19531 3.0917,-3.99261 3.1158,-4.16478 0.8398,-6.00196 -1.9318,-1.55942 -2.1342,-2.58726 -1.1523,-5.84374 1.0891,-3.61129 0.9225,-4.02283 -1.9551,-4.76758 -2.71669,-0.70284 -3.04528,-1.31795 -2.38477,-4.5 0.70771,-3.40837 0.48992,-3.69108 -2.87695,-3.71485 -3.19511,-0.0238 -3.68639,-0.52487 -4.0039,-4.09375 -0.19941,-2.23789 -0.9262,-3.98118 -1.61524,-3.87109 -0.68892,0.11009 -2.05925,0.38134 -3.04687,0.60351 -0.98801,0.22219 -2.57764,-1.19255 -3.53125,-3.14257 -1.58949,-3.25024 -1.91316,-3.38405 -3.89454,-1.61719 -1.91766,1.71019 -2.37066,1.71462 -4.01757,0.043 -2.96002,-3.00365 -6.99068,3.41527 -7.90625,12.59375 -1.70951,17.1358 -1.8382,17.45308 -8.53516,20.65039 -3.3609,1.60461 -6.13846,3.49628 -6.16992,4.20312 -0.032,0.7071 -1.23913,2.28078 -2.68164,3.49805 -1.4425,1.21678 -2.31605,3.02499 -1.94336,4.01758 1.12646,3.0014 -0.94303,2.08252 -10.22656,-4.53906 l -8.87305,-6.33008 4.40625,-9.48242 4.40625,-9.48243 -3.04492,-3.67382 c -3.15164,-3.80158 -5.20284,-11.21047 -3.7461,-13.5293 0.5954,-0.94792 0.61604,-1.40376 0.23243,-1.45117 -0.84396,-0.10384 -3.65073,1.7644 -6.62305,4.69336 l -4.6543,4.58789 5.21289,4.55469 5.20899,4.55468 -7.02735,10.67383 -7.02539,10.67578 4.32617,6.67188 c 6.36276,9.81726 11.92841,26.51941 11.91602,35.75781 -0.008,6.16532 -1.04193,10.0471 -5.48828,20.59961 -5.35027,12.69731 -5.49374,13.40023 -6.11133,29.70508 l -0.63281,16.69922 3.67578,-0.7793 c 3.53823,-0.75001 3.81438,-0.46098 7.49023,7.74805 13.11502,29.28902 12.31716,71.53712 -1.66797,88.24218 -2.1472,2.56466 -4.4247,4.66876 -5.0625,4.65625 -0.63805,0 -1.12924,-4.42459 -1.08984,-9.82226 0.0601,-8.21979 0.48221,-10.17893 2.58789,-12.05664 1.84184,-1.64288 2.16155,-2.67445 1.19922,-3.85157 -2.16281,-2.6451 -21.07021,-9.06848 -36.89453,-12.53515 -8.15482,-1.78663 -21.56621,-5.54475 -29.80274,-8.34961 -24.56354,-8.36454 -42.95122,-11.78979 -83.08398,-15.48828 l -10.62695,-0.98047 0.4414,-5.14453 c 0.5691,-6.63258 0.16054,-6.73699 -23.5332,-6 l -18.64258,0.58203 -0.27734,-11.76367 c -0.36002,-15.33028 -2.63626,-15.47916 -3.22266,-0.21094 l -0.44336,11.56836 -19.73242,-0.14258 c -21.93385,-0.16051 -25.54915,0.77497 -22.84375,5.91992 0.80234,1.52566 1.10664,3.85658 0.67578,5.17969 -0.84705,2.60295 -1.67066,2.79604 -20.67773,4.83789 -26.41911,2.83814 -59.9028,11.24044 -75.27735,18.89063 -3.21457,1.59947 -10.92152,3.75138 -17.12695,4.78125 -11.66104,1.9355 -22.07024,4.99038 -29.00391,8.51171 -3.354,1.70356 -3.79021,2.4078 -2.73632,4.41211 0.68996,1.31248 1.24298,3.72545 1.23046,5.36133 -0.0135,1.85443 1.38568,4.02854 3.7129,5.77539 3.35624,2.51962 3.72618,3.49563 3.68164,9.64844 l -0.0391,5.06445 h -25.01757 l 0.0801,-11.23047 c 0.0485,-7.05256 -0.22978,-19.1582 -0.61914,-26.90234 l -0.70703,-14.08203 -9.04883,-0.0664 -9.04882,-0.0664 -0.47071,-36.59766 c -0.25929,-20.12895 -0.79371,-74.01041 -1.1875,-119.73828 -0.3939,-45.72023 -0.91128,-83.32682 -1.15039,-83.58203 -0.23932,-0.24283 -2.48188,3.15939 -4.98437,7.55859 -4.13491,7.26862 -7.04633,9.96211 -31.9043,29.54297 -24.52222,19.31613 -28.13611,21.74057 -34.91992,23.42773 l -7.56836,1.88086 -1.47266,111.90235 c -0.81089,61.54541 -1.603,112.04004 -1.75976,112.21094 -0.15662,0.17077 -1.97494,0.29821 -4.03907,0.2832 l -3.7539,-0.0234 0.0625,-8.17187 c 0.0485,-6.64346 -0.35171,-8.32365 -2.12695,-8.98633 -1.20081,-0.44825 -3.77621,-2.15134 -5.72657,-3.78321 -3.04377,-2.54664 -4.40342,-2.85928 -9.5957,-2.20898 l -6.05078,0.75781 -0.60742,-4.2207 c -0.33514,-2.32108 -1.33451,-28.71547 -2.22071,-58.6543 l -1.61132,-54.43554 3.21093,-2.72852 c 3.13449,-2.66762 3.21166,-3.11435 3.32813,-19.05664 0.10058,-13.74294 -0.17882,-16.32538 -1.77344,-16.33789 -1.04176,-0.0125 -3.84016,-1.29382 -6.21875,-2.85938 -4.08311,-2.68739 -4.32367,-3.23751 -4.29102,-9.8457 0.0586,-11.47503 0.0553,-11.47664 -30.94335,-11.18164 -19.81191,0.18866 -26.6646,0.66026 -28.24024,1.94922 -1.49267,1.22103 -2.09565,3.7313 -2.13281,8.88476 -0.0505,6.90618 -0.23535,7.30805 -4.83399,10.44532 -2.6304,1.79451 -5.82399,3.26055 -7.0957,3.24804 -2.16623,-0.0163 -2.27073,0.98108 -1.67969,15.78516 0.54307,13.60333 0.98533,16.18219 3.18164,18.55469 2.38511,2.57004 2.54056,4.27712 2.38672,25.30469 -0.0907,12.40081 -0.65666,38.67813 -1.25586,58.39648 l -1.08789,35.85352 -7.0664,-0.0527 c -4.27578,-0.0313 -8.02998,0.6669 -9.50782,1.76758 -1.34287,1.00059 -3.74432,1.82038 -5.33789,1.83789 -6.88848,0.0438 -7.74721,1.62555 -7.84179,14.41406 h -0.008 l -0.0801,10.80664 H 130.77323 C 243.53028,192.07416 496.53687,27.00806 775.98242,26.806641 Z M 116.17773,484.5332 H 1436.3184 c 29.8888,79.26134 45.262,163.25592 45.3847,247.96485 -0.2482,124.76275 -33.5697,247.23123 -96.5683,354.92185 H 1139.002 c 0.6166,-2.7558 17.5111,-17.6194 28.3496,-24.7656 21.5397,-14.2019 43.747,-24.6203 105.4922,-49.4922 62.9943,-25.37471 84.8508,-36.18822 99.2089,-49.08007 13.3957,-12.02762 15.8755,-22.33579 8.9942,-37.37695 -13.0286,-28.47772 -52.8348,-45.05169 -134.6817,-56.07422 -10.867,-1.46348 -30.7261,-3.91836 -44.1308,-5.45703 -51.4453,-5.90509 -78.3211,-11.02379 -93.1641,-17.74219 -8.6815,-3.92956 -14.1958,-8.89128 -14.1621,-12.74414 0.087,-9.88182 31.7128,-21.23708 83.2988,-29.90625 11.8047,-1.98392 22.0301,-3.84034 22.7207,-4.12695 2.7509,-1.14197 -24.8444,0.8094 -41.9375,2.96484 -62.4866,7.88 -123.5449,29.71444 -128.6113,45.99414 -1.3009,4.17939 5.3202,9.99457 19.4453,17.08203 25.1666,12.62763 50.2895,19.7492 123.9375,35.11914 65.9861,13.77084 78.1666,17.81119 74.4102,24.6836 -2.1682,3.96684 -13.725,8.18333 -52.9043,19.30468 -63.9332,18.14815 -128.2446,38.5197 -168.5821,53.40235 -4.742,1.74972 -8.974,3.17382 -9.4082,3.17382 -0.4351,0 -0.6528,-17.87871 -0.4824,-39.7246 0.2411,-31.00109 -0.1433,-43.15863 -1.7558,-55.37891 -4.2153,-31.94201 -11.4596,-57.65991 -19.9434,-70.79297 -5.45222,-8.44023 -10.42767,-11.43051 -17.53515,-10.54101 l -5.1875,0.65039 0.0781,-9.16407 c 0.0589,-6.67511 1.27035,-13.17248 4.45703,-23.92578 6.3611,-21.46445 8.75019,-35.9259 9.69336,-58.66992 0.93579,-22.56737 -0.70144,-34.35096 -6.25586,-45.02344 -2.42454,-4.65855 -2.7323,-6.20346 -1.51953,-7.63867 1.6624,-1.96753 1.70594,-3.69378 0.97656,-38.5625 -0.55609,-26.58363 -1.04467,-30.98501 -3.68164,-33.21289 -1.32186,-1.11694 -1.80544,-4.2186 -1.74414,-11.17383 0.1495,-16.94126 -2.30672,-22.19962 -16.08593,-34.41015 -3.00353,-2.66161 -6.86336,-6.21386 -8.57618,-7.89453 -1.76786,-1.73471 -4.61241,-3.06843 -6.58007,-3.08594 -1.90623,-0.0163 -3.77529,-0.85406 -4.15235,-1.86328 -0.3772,-1.00935 -1.72241,-2.17707 -2.99023,-2.5918 -2.70315,-0.88449 -2.74662,-7.82826 -0.0684,-10.99805 3.87176,-4.58248 0.36392,-20.47537 -4.83008,-21.88281 -1.24905,-0.33841 -2.26233,-1.25317 -2.27734,-2.0332 -0.013,-2.78647 -2.20931,-4.88352 -5.52735,-5.27735 -1.85431,-0.22018 -4.34636,-1.2976 -5.53711,-2.39453 -1.65383,-1.52341 -5.17571,-2.21876 -8.65429,-2.13281 -3.47857,0.0863 -6.91431,0.952 -8.38868,2.55273 -1.2797,1.38917 -3.14494,2.20426 -4.14453,1.81055 -1.88159,-0.74125 -6.48834,2.5405 -6.50586,4.63477 -0.006,0.65442 -1.32718,2.20693 -2.93554,3.44922 -3.17955,2.45607 -5.94034,9.80231 -5.99414,15.95312 -0.0229,2.6212 1.17143,5.13034 3.68554,7.74805 3.19056,3.32217 3.7102,4.81921 3.66016,10.53515 -0.0444,5.03899 0.69169,7.79079 3.01953,11.28711 3.35119,5.03374 3.28849,5.10999 -5.04102,6.20703 -2.75043,0.36231 -5.1985,1.23138 -5.43945,1.9336 -0.24096,0.70221 -2.09825,1.26165 -4.12695,1.24414 -12.66992,-0.11134 -22.49015,13.20539 -22.64453,30.70312 -0.0219,2.47771 -1.83749,11.86468 -4.03321,20.85938 -2.19573,8.9947 -4.55575,18.83186 -5.24609,21.86328 -0.69029,3.0313 -3.25739,8.69376 -5.70508,12.58203 -6.08624,9.66927 -11.05207,22.59093 -16.57422,43.13672 -2.56341,9.53728 -5.77081,19.72005 -7.12695,22.625 -1.35589,2.90507 -2.47786,5.70898 -2.49414,6.23242 -0.035,1.07103 -5.16844,8.62576 -10.49805,15.45313 -5.25042,6.72616 -5.84744,12.45157 -1.81054,17.33593 1.89647,2.29456 3.23361,5.4626 3.21484,7.61329 -0.0512,5.81151 3.38849,6.69713 20.22266,5.20312 7.85461,-0.69671 17.44932,-1.23886 21.32031,-1.20508 l 7.03711,0.0645 2,7.11132 c 1.10017,3.91279 5.04379,13.3191 8.76367,20.90235 8.17963,16.67504 14.09618,31.51198 17.42773,43.69336 l 2.48633,9.07812 -7.5039,6.66992 c -14.95034,13.29131 -20.59037,31.03886 -20.91602,65.82227 -0.51055,54.54128 10.79353,103.6387 29.66016,128.8125 l 4.35156,5.8046 -16.2832,12.8887 -15.36719,12.1582 H 511.29486 l 1.0957,-3.2851 c 0.78141,-2.3365 1.55856,-10.4402 1.72657,-18.0078 l 0.30469,-13.7598 7.12109,-14.9512 c 3.91554,-8.2227 10.08794,-19.9915 13.71875,-26.1523 14.48093,-24.57278 18.51477,-34.89763 21.66992,-55.48046 0.9433,-6.15468 4.16455,-14.15629 13.30274,-33.03906 6.63195,-13.70353 16.31254,-35.42815 21.51367,-48.27734 5.20075,-12.84919 10.09517,-23.36083 10.87695,-23.36133 2.2539,0 5.31048,7.82452 10.39062,26.61133 2.59531,9.59808 5.73974,19.53666 6.98829,22.08593 1.24868,2.54914 4.62415,11.12968 7.50195,19.06836 10.01355,27.62488 14.2869,35.34988 33.72852,60.97657 28.30081,37.3047 45.23693,64.0904 45.17187,71.457 -0.01,1.2368 -2.74507,4.9284 -6.07813,8.2031 -5.43093,5.336 -6.96293,6.1142 -14.76562,7.4844 -10.70013,1.8793 -13.10013,3.0268 -13.12891,6.2871 -0.0505,5.7372 1.94902,7.069 13.14844,8.7598 13.12693,1.9817 22.16131,1.0427 28.36328,-2.9493 2.57505,-1.6576 9.50416,-5.1882 15.39649,-7.8476 13.49974,-6.093 13.81109,-7.6905 3.58398,-18.3106 -10.63958,-11.0486 -15.6879,-19.6518 -19.94336,-33.9902 -6.9521,-23.42321 -10.80671,-31.91979 -22.41211,-49.40425 -6.79322,-10.23462 -12.06076,-19.67896 -13.33008,-23.89063 -1.15435,-3.83035 -4.05498,-20.21084 -6.44335,-36.40234 -4.94466,-33.52134 -8.72216,-51.47751 -13.21094,-62.81055 -3.13702,-7.91954 -2.82378,-9.82091 1.61133,-9.83593 5.08015,-0.0175 -4.3501,-41.48692 -13.83008,-60.82032 -11.28349,-23.01098 -13.04122,-29.29135 -12.98242,-46.40625 0.0497,-14.45454 0.29074,-15.78955 6.43554,-35.91211 3.51007,-11.49479 6.82912,-20.89062 7.37696,-20.89062 0.54783,0 0.98437,0.59958 0.98437,1.32031 -0.021,2.38801 12.05743,27.54251 18.25586,38.01758 3.35357,5.66802 6.75339,12.56282 7.55469,15.32227 0.80118,2.75957 7.98277,19.14883 15.95898,36.42187 l 14.50195,31.40625 -0.0937,10.63477 c -0.0967,11.81695 2.23692,21.91443 5.07031,21.93945 1.37115,0.0125 1.78166,-1.47252 1.66406,-6.00195 -0.1415,-5.46811 0.0875,-5.98144 2.49023,-5.60938 1.45423,0.22532 3.73061,2.31537 5.0586,4.64258 2.12166,3.71788 2.21948,4.75858 0.80078,8.57617 -2.13867,5.75497 -0.32757,7.83901 4.25391,4.89453 3.96596,-2.54877 5.7012,-6.65079 5.75,-13.60351 0.0604,-8.0738 -1.80879,-13.19722 -8.5586,-23.44922 -6.64397,-10.09112 -13.41325,-29.67245 -22.45898,-64.97266 -4.97857,-19.42861 -7.11745,-24.67703 -26.50977,-65.05664 -19.63227,-40.87966 -22.08316,-43.61537 -42.23437,-47.10156 -11.27149,-1.95001 -17.10403,-4.62068 -18.53711,-8.49219 -2.0491,-5.53641 -1.26289,-9.41377 2.83594,-14 5.32672,-5.95977 9.95713,-16.00528 10.02343,-21.74023 0.0422,-3.67885 0.53871,-4.68689 2.30469,-4.67188 1.23842,0.0125 2.845,-0.56064 3.56836,-1.27148 2.2948,-2.25465 3.74061,1.40191 5.23437,13.23437 1.35614,10.74341 4.51991,20.76584 7.06055,22.36719 0.6523,0.41109 0.5247,-1.89395 -0.28711,-5.1582 -0.80706,-3.24586 -1.30869,-6.08007 -1.11328,-6.29688 0.19529,-0.21681 2.64588,2.05917 5.44336,5.05469 3.20695,3.43389 5.60866,7.5275 6.50391,11.07812 l 1.41992,5.63086 1.6289,-3.72851 c 2.97988,-6.82174 2.22186,-14.49784 -2.29882,-23.27735 -2.27854,-4.42448 -5.07807,-12.4999 -6.22266,-17.94335 -2.40215,-11.42586 -6.14552,-16.61769 -10.875,-15.0879 -1.54118,0.49892 -3.926,0.7711 -5.30078,0.60547 -1.37453,-0.16577 -4.30416,-0.33636 -6.50977,-0.3789 -2.77884,-0.0538 -4.2324,-0.78856 -4.72656,-2.39453 -1.41131,-4.58624 -9.99781,-11.03091 -16.69531,-12.5293 -8.88887,-1.98867 -25.5634,-1.96892 -30.48242,0.0352 -5.35663,2.18296 -12.22669,9.98546 -12.26172,13.92578 -0.0153,1.71907 1.35412,5.91517 3.04492,9.32617 2.41378,4.86934 3.01644,7.89236 2.80664,14.06055 -0.23057,6.78207 0.3482,9.0969 4.23047,16.9375 2.47358,4.99545 5.89616,10.01662 7.60547,11.1582 2.3107,1.5433 3.09908,3.17131 3.07031,6.34961 -0.0343,3.87902 -0.74036,4.6985 -7.62891,8.85937 -25.74053,15.54822 -28.72998,19.83169 -30.49609,43.67188 -1.24968,16.87083 -3.75861,30.35856 -7.21289,38.77539 -3.96772,9.66814 -34.90437,33.99743 -54.64648,42.97461 -6.54251,2.97513 -12.98636,6.35743 -14.31836,7.51953 -3.68948,3.21871 -9.69787,16.5013 -9.74414,21.53515 -0.0492,5.4327 5.1472,11.46427 7.70898,8.94727 1.15585,-1.13658 1.1854,-2.3898 0.11719,-5.29687 -1.78238,-4.85171 0.20741,-11.18112 3.50781,-11.15235 1.89547,0.0163 2.22767,0.9795 2.01562,5.83008 -0.31126,7.12625 1.67121,8.21997 4.47657,2.46875 1.15334,-2.36486 5.24358,-6.58085 9.08593,-9.36719 3.84236,-2.78647 6.99414,-5.54416 6.99414,-6.1289 0.0255,-2.88806 8.71737,-8.96055 16.25196,-11.35157 14.23323,-4.5168 32.44055,-14.38054 40.91406,-22.16796 7.56912,-6.95648 7.86005,-7.4551 10.07617,-17.3418 1.25481,-5.59896 2.55146,-9.90571 2.88086,-9.57031 0.32953,0.33503 1.91376,9.23588 3.52149,19.78125 1.60747,10.54562 4.54199,25.68625 6.51953,33.64257 1.97729,7.95645 3.57189,16.8349 3.54687,19.73047 -0.0274,3.10323 -2.3256,11.3107 -5.59961,19.99414 -6.95923,18.45816 -11.05005,31.48689 -10.89843,34.71485 0.0643,1.36978 -6.60275,24.38674 -14.81641,51.15039 -17.60945,57.38016 -24.08241,82.00182 -41.7793,158.90428 -0.36418,1.583 -3.62417,5.8447 -7.24609,9.4688 -9.01309,9.0186 -13.13379,9.5757 -29.25586,3.9629 -11.62178,-4.0462 -11.98093,-4.0933 -13.70313,-1.7813 -2.89682,3.8892 -2.08803,7.4551 2.83399,12.4961 6.52099,6.6789 15.4225,11.5759 25.74219,14.1602 4.85809,1.2165 11.07232,3.3667 13.8125,4.7793 2.73981,1.4126 7.50855,3.2613 10.59765,4.1074 0.29595,0.4599 0.59254,0.9032 0.88867,1.3613 H 167.0156 C 103.95332,979.74715 70.567477,857.27756 70.263672,732.49805 70.555029,647.75684 86.108932,563.76126 116.17773,484.5332 Z m 528.375,105.82618 v 0.006 c 0.39212,0.0763 1.28793,0.78465 2.6836,2.11915 1.68892,1.61472 3.95747,5.31701 5.04101,8.23046 1.08316,2.91333 1.70111,6.63517 1.37696,8.26954 -0.5008,2.52349 -0.60826,2.40387 -0.72461,-0.79883 -0.0754,-2.07424 -2.0822,-6.71534 -4.45899,-10.3125 -3.17821,-4.81055 -4.52801,-7.3007 -4.05468,-7.5 0.0355,-0.015 0.0807,-0.0187 0.13671,-0.0137 z m 232.33789,26.96874 c 0.86348,0.16764 1.59096,3.68048 1.5586,9.85743 -0.0538,10.34183 1.79493,15.16632 7.77734,20.29101 7.4778,6.40564 9.95466,28.22675 4.6836,41.26172 -1.46236,3.61605 -2.45682,8.04453 -2.20899,9.8418 0.39246,2.8499 -0.40149,3.70596 -6.21289,6.68359 -7.21369,3.69611 -27.79978,23.80108 -31.49414,30.75781 -1.17313,2.20949 -2.56009,8.38835 -3.08203,13.73047 -0.52169,5.34199 -1.32444,10.08233 -1.7832,10.53321 -0.45889,0.45075 -3.69318,1.1592 -7.1875,1.57617 -7.01027,0.83658 -6.52996,1.21156 -12.64649,-9.85938 -2.75056,-4.97856 -2.85412,-5.8171 -1.38476,-11.2832 2.25878,-8.40182 8.39786,-21.18437 17.79101,-37.04297 10.55476,-17.81975 15.34182,-27.97644 17.90235,-37.97461 1.14296,-4.4625 4.65202,-14.38383 7.79492,-22.05078 3.14252,-7.66708 6.08059,-16.81091 6.52734,-20.31836 0.54023,-4.24069 1.29325,-6.13439 1.96484,-6.00391 z m 43.33594,155.2168 c 4.76294,-0.0138 8.84684,0.60386 8.89063,1.67188 0.035,0.86035 0.95889,9.02919 2.05469,18.15625 1.09578,9.12705 1.70059,16.59649 1.34179,16.58398 -0.35893,-0.0125 -5.98112,-2.58246 -12.49023,-5.72461 l -11.83203,-5.71289 -0.25586,-11.73828 -0.25,-11.73828 3.96093,-0.75586 c 2.62139,-0.50029 5.72233,-0.73406 8.58008,-0.74219 z m -9.59179,41.39453 c 0.0438,-0.0238 0.10244,-0.0221 0.17773,0.0117 0.60201,0.25372 5.6132,2.46137 11.13672,4.9043 l 10.04297,4.44336 0.52539,23.14844 h -0.002 c 0.28924,12.73296 0.34556,23.33197 0.12305,23.55078 -0.22256,0.21856 -0.9765,-1.18551 -1.67383,-3.11914 -4.90125,-13.58869 -17.53187,-46.04469 -19.20703,-49.35547 -0.98204,-1.94064 -1.42953,-3.41402 -1.12304,-3.58203 z m 68.2207,24.46875 v 0.004 c 3.06096,0.37106 10.36103,13.90859 14.41211,26.91016 4.26947,13.70177 7.57262,30.44723 10.35742,52.48828 2.5727,20.36452 2.5452,68.07072 -0.047,81.5039 l -1.7207,8.92576 -6.35545,2.5762 c -9.98935,4.0489 -9.9708,4.0603 -14.19336,-9.8906 -2.38726,-7.88691 -2.16133,-8.68205 2.73829,-9.55667 2.4124,-0.43048 4.39648,-1.29187 4.39648,-1.91602 0.006,-0.62414 -1.32027,-3.80994 -2.94727,-7.08007 -2.24676,-4.51605 -2.97846,-8.13619 -3.04101,-15.05664 -0.0457,-5.01134 -0.61431,-10.54242 -1.26172,-12.29102 -0.64717,-1.74859 -1.15994,-5.06698 -1.13867,-7.37305 0.0278,-3.13113 -0.82834,-4.83653 -3.38086,-6.73437 l -3.41992,-2.54102 0.63281,-33.55859 c 0.37181,-19.73286 0.10213,-37.42677 -0.65625,-42.95117 -1.12169,-8.17162 -0.98388,-10.28528 1.05859,-16.24805 1.33187,-3.88865 3.18624,-7.00443 4.28516,-7.19922 0.0897,-0.0163 0.18252,-0.018 0.28125,-0.0117 z m -31.4375,50.59766 3.10351,13.24219 3.10352,13.24414 -3.57227,-0.0312 c -4.78703,-0.0425 -5.25871,-1.90576 -3.83789,-15.20508 z m -47.08594,9.9707 c 1.13934,-0.035 1.32627,0.78309 1.30469,3.23828 -0.046,5.24091 4.45957,10.81387 7.90234,9.77149 2.77096,-0.84583 12.22041,-0.75801 13.07813,0.11523 0.88237,0.89813 4.81217,22.40636 6.88867,37.70899 2.45832,18.11975 2.4988,57.29735 0.0723,69.31055 -0.90188,4.4648 -2.77687,11.5203 -4.16992,15.6777 -2.24326,6.6955 -3.14134,7.8573 -7.85156,10.1778 v 0.014 c -2.92471,1.4409 -8.25486,4.3076 -11.84375,6.3711 l -6.52344,3.752 -3.85937,-4.709 c -11.5531,-14.0998 -21.4345,-46.3722 -26.21289,-85.59961 -1.82579,-14.99211 -1.7772,-61.23145 0.0664,-63.04297 0.3862,-0.37932 2.84331,-0.0764 5.46289,0.67187 4.50642,1.28721 11.40779,0.38583 24.20118,-3.16015 0.61908,-0.17165 1.10459,-0.27951 1.48437,-0.29102 z m 383.21877,37.04883 10.3496,0.84375 c 5.6938,0.46514 10.597,1.24762 10.8945,1.73828 0.5612,0.92603 -30.8898,13.33339 -55.6582,21.95703 -7.8225,2.72354 -15.1624,4.8779 -16.3086,4.78907 -3.0018,-0.23344 -18.6354,-4.3054 -19.3535,-5.04102 -0.3329,-0.34128 15.2996,-5.94648 34.7363,-12.45508 z m -163.9492,63.50391 c 1.2699,0.0125 6.7151,2.0773 12.1015,4.5898 l 9.7949,4.5664 -15.6738,5.8399 c -33.4958,12.4795 -60.7902,25.0182 -77.9902,35.8281 -5.2585,3.3049 -10.0686,5.9755 -10.6875,5.9317 -0.619,-0.043 -9.5041,-2.7777 -19.7461,-6.0762 l -18.6211,-5.9961 13.7285,-6.4922 c 7.5503,-3.5709 22.4815,-9.8676 33.1836,-13.9922 21.3177,-8.2162 70.2331,-24.23048 73.9102,-24.1992 z"
       style="opacity:1;fill:#282828;fill-opacity:1;fill-rule:nonzero;stroke:none;stroke-width:3;stroke-linecap:round;stroke-linejoin:round;stroke-miterlimit:4;stroke-dasharray:none;stroke-dashoffset:0;stroke-opacity:1"
       inkscape:connector-curvature="0"
       sodipodi:nodetypes="ssccsssscccssssccsscccccccccccsccsscccscccccccccccccsccccccccccccsccccccccccscccsccccccccccccccccccccccscccccccccsccccccccscccccccccccccccsccscccccccscsccsccccscsccscscscccccccccccccccssssssscscscsssscsccscccssscsccsscccccccccccccccccccccsscscccscccccscccsccccccccccccccsccsccccscsscscsccssssccccccccccsccsssscccccccccscccccccccscccccccsssccccccccccsccccccccscscccccccccccccccccccccsccscccsscsccccccsccccccccccccccccccccccccccccccccccccccccccccccccccsccccccccsccccccsccccccccscccccc" />
  </g>
  <g
     inkscape:label="Layer 1"
     inkscape:groupmode="layer"
     id="layer1"
     transform="translate(0,-1371.25)" />
  <metadata
     id="metadata4195">
    <rdf:RDF>
      <cc:Work
         rdf:about="">
        <dc:title></dc:title>
        <dc:format>image/svg+xml</dc:format>
        <dc:type
           rdf:resource="http://purl.org/dc/dcmitype/StillImage" />
      </cc:Work>
    </rdf:RDF>
  </metadata>
  <path
     style="fill:#ffffff;stroke:none;stroke-width:0.04832571"
     d="m 12.5728,68.880056 v 5.8352 h 1.986167 c 0.750949,-0.0089 1.224623,-0.01867 1.420985,-0.04 0.313117,-0.03467 0.575753,-0.125955 0.788033,-0.274489 0.214938,-0.151289 0.383464,-0.351644 0.50553,-0.601066 0.124714,-0.252089 0.187074,-0.510845 0.187074,-0.776178 0,-0.336978 -0.09551,-0.630222 -0.286557,-0.879645 -0.191055,-0.249422 -0.464362,-0.425955 -0.819933,-0.529422 0.252086,-0.114133 0.451048,-0.285244 0.596992,-0.513511 0.148597,-0.228178 0.222941,-0.478933 0.222941,-0.752178 0,-0.252089 -0.05973,-0.479022 -0.179143,-0.680622 -0.119408,-0.204356 -0.269315,-0.367556 -0.449753,-0.4896 -0.177786,-0.122044 -0.380774,-0.201689 -0.608977,-0.238844 -0.22555,-0.04 -0.569171,-0.05956 -1.030884,-0.05956 z m 5.878843,0 v 1.034933 h 1.118479 v -1.034933 z m 2.221098,0 v 5.8352 h 1.118378 v -1.353333 l 0.521488,-0.545245 1.062692,1.898578 h 1.206065 l -1.548308,-2.682755 1.444765,-1.544356 h -1.377186 l -1.309516,1.488622 v -3.096711 z m 10.818349,0 1.393143,5.8352 h 1.277703 l 1.158214,-4.362489 1.162272,4.362489 h 1.249862 l 1.416924,-5.8352 h -1.18615 l -0.895538,4.075911 -1.022959,-4.075911 h -1.401064 l -1.066659,4.008267 -0.879678,-4.008267 z m 12.530046,0 v 5.8352 h 1.11848 v -5.8352 z m 2.221003,0 v 5.8352 h 1.118479 v -1.353333 l 0.521386,-0.545245 1.062698,1.898578 h 1.206065 l -1.548313,-2.682755 1.444866,-1.544356 h -1.377191 l -1.309511,1.488622 v -3.096711 z m 6.280835,0 1.393138,5.8352 h 1.277708 l 1.158213,-4.362489 1.162268,4.362489 h 1.249865 l 1.416924,-5.8352 h -1.186149 l -0.895534,4.075911 -1.022962,-4.075911 h -1.401069 l -1.066659,4.008267 -0.879678,-4.008267 z m 8.215375,0 v 1.034933 h 1.118474 v -1.034933 z m 6.794387,0 v 5.8352 h 1.118475 v -2.117511 c 0,-0.355556 0.03315,-0.623644 0.09948,-0.804089 0.069,-0.183022 0.17648,-0.319644 0.322424,-0.409867 0.145944,-0.09022 0.311764,-0.135377 0.497509,-0.135377 0.161867,0 0.29585,0.03556 0.401993,0.107377 0.108795,0.06933 0.184449,0.1632 0.226903,0.282667 0.04246,0.119378 0.06371,0.400711 0.06371,0.843911 v 2.232889 h 1.11848 v -2.479733 c 0,-0.379467 -0.01995,-0.659467 -0.05975,-0.839822 -0.03715,-0.180445 -0.108771,-0.344978 -0.214913,-0.4936 -0.103486,-0.148623 -0.258732,-0.270667 -0.465706,-0.366223 -0.206969,-0.09556 -0.439174,-0.143289 -0.696566,-0.143289 -0.501515,0 -0.932687,0.210934 -1.293564,0.632889 v -2.145422 z m 4.987267,0 v 1.034933 h 1.11848 v -1.034933 z m 3.434996,0.115467 -1.122436,0.6528 v 0.839822 h -0.513461 v 0.891556 h 0.513461 v 1.842933 c 0,0.395378 0.01198,0.658044 0.03587,0.788089 0.02919,0.183111 0.08087,0.329066 0.155169,0.437866 0.07695,0.106134 0.196424,0.193689 0.358292,0.262667 0.161867,0.06667 0.3436,0.09947 0.545268,0.09947 0.32904,0 0.623591,-0.056 0.883641,-0.167111 l -0.09552,-0.867734 c -0.196362,0.072 -0.346268,0.107556 -0.449753,0.107556 -0.0743,0 -0.138061,-0.01867 -0.191133,-0.056 -0.05042,-0.03733 -0.08356,-0.08356 -0.09948,-0.139289 -0.01327,-0.05867 -0.01992,-0.260089 -0.01992,-0.605067 v -1.703558 h 0.764247 v -0.891556 h -0.764249 z m -62.204071,0.855822 h 0.676656 c 0.554592,0 0.890252,0.0089 1.007008,0.01956 0.196361,0.024 0.343643,0.09289 0.441822,0.206933 0.100836,0.111467 0.151298,0.257333 0.151298,0.437778 0,0.188444 -0.05843,0.341066 -0.175181,0.457777 -0.114101,0.114134 -0.271962,0.183112 -0.47363,0.207023 -0.111449,0.01333 -0.39674,0.01955 -0.8558,0.01955 h -0.772173 z m 13.11109,0.541244 c -0.559891,0 -1.022896,0.199112 -1.389083,0.597156 -0.366189,0.395289 -0.549328,0.943289 -0.549328,1.643822 0,0.5864 0.139327,1.072 0.417945,1.456711 0.352922,0.480267 0.896905,0.720445 1.631935,0.720445 0.464366,0 0.850498,-0.106045 1.158309,-0.318311 0.310464,-0.214934 0.537329,-0.526756 0.68062,-0.935378 l -1.114518,-0.187111 c -0.06102,0.212266 -0.151196,0.366133 -0.270604,0.461689 -0.119408,0.09547 -0.266686,0.1432 -0.441818,0.1432 -0.257392,0 -0.472369,-0.09147 -0.644849,-0.274489 -0.172479,-0.185778 -0.262741,-0.444445 -0.270696,-0.776178 h 2.802133 c 0.01592,-0.857067 -0.157851,-1.492622 -0.521386,-1.906578 -0.363535,-0.416622 -0.859773,-0.624978 -1.48866,-0.624978 z m 14.265428,0 c -0.54928,0 -0.963214,0.09822 -1.241836,0.294578 -0.278622,0.196356 -0.475056,0.498934 -0.589158,0.907556 l 1.015028,0.183022 c 0.069,-0.196356 0.159248,-0.332978 0.270697,-0.409956 0.111449,-0.08 0.266594,-0.119377 0.465608,-0.119377 0.294546,0 0.494914,0.04622 0.601052,0.139289 0.106142,0.09022 0.159228,0.242755 0.159228,0.457688 v 0.111467 c -0.201668,0.08533 -0.563918,0.176533 -1.086666,0.274667 -0.387413,0.07467 -0.684597,0.161866 -0.891571,0.262666 -0.204321,0.09822 -0.363492,0.241512 -0.477594,0.429956 -0.114101,0.185778 -0.171126,0.398044 -0.171126,0.6368 0,0.360889 0.124715,0.659378 0.374148,0.895556 0.252086,0.236177 0.595711,0.354222 1.030888,0.354222 0.246781,0 0.478889,-0.04622 0.696476,-0.139289 0.217591,-0.09289 0.42198,-0.232178 0.613035,-0.417956 0.008,0.02133 0.02117,0.06489 0.03973,0.131378 0.04246,0.145956 0.07832,0.256089 0.107506,0.3304 h 1.106489 c -0.09818,-0.201689 -0.165781,-0.390133 -0.202929,-0.565244 -0.0345,-0.177778 -0.05182,-0.452356 -0.05182,-0.823911 l 0.01198,-1.305512 c 0,-0.4856 -0.05037,-0.818666 -0.151207,-0.999111 -0.09818,-0.183022 -0.269338,-0.332977 -0.51346,-0.449689 -0.244127,-0.119466 -0.615651,-0.1792 -1.114512,-0.1792 z m 23.674791,0 c -0.628887,0 -1.127743,0.195023 -1.496585,0.585156 -0.368841,0.387378 -0.553291,0.930044 -0.553291,1.627911 0,0.689956 0.183135,1.229956 0.549324,1.62 0.368841,0.390045 0.862362,0.585067 1.480636,0.585067 0.543974,0 0.977852,-0.128622 1.301586,-0.386045 0.323729,-0.257333 0.54264,-0.638133 0.656742,-1.142311 l -1.098564,-0.187111 c -0.05573,0.294578 -0.151226,0.502845 -0.286558,0.624978 -0.135331,0.119378 -0.309202,0.179022 -0.521482,0.179022 -0.283928,0 -0.510793,-0.103467 -0.68062,-0.3104 -0.167173,-0.207022 -0.250781,-0.561333 -0.250781,-1.062844 0,-0.451111 0.0823,-0.772178 0.246818,-0.9632 0.167168,-0.193689 0.39011,-0.290489 0.668727,-0.290489 0.209632,0 0.379376,0.056 0.509401,0.167111 0.132673,0.111467 0.217597,0.277244 0.254749,0.497511 l 1.102619,-0.198933 C 66.55228,71.284234 66.333278,70.947167 66.028125,70.726901 65.72562,70.504056 65.317022,70.392589 64.802237,70.392589 Z m 14.352926,0 c -0.54928,0 -0.963214,0.09822 -1.241837,0.294578 -0.278621,0.196356 -0.474964,0.498934 -0.589065,0.907556 l 1.014937,0.183022 c 0.069,-0.196356 0.159247,-0.332978 0.270696,-0.409956 0.111448,-0.08 0.266685,-0.119377 0.4657,-0.119377 0.29454,0 0.494821,0.04622 0.600959,0.139289 0.106143,0.09022 0.159229,0.242755 0.159229,0.457688 v 0.111467 c -0.201668,0.08533 -0.563831,0.176533 -1.086575,0.274667 -0.387417,0.07467 -0.684596,0.161866 -0.89157,0.262666 -0.204322,0.09822 -0.363584,0.241512 -0.477686,0.429956 -0.114102,0.185778 -0.171126,0.398044 -0.171126,0.6368 0,0.360889 0.124714,0.659378 0.374148,0.895556 0.252086,0.236177 0.595711,0.354222 1.030889,0.354222 0.246779,0 0.478975,-0.04622 0.696566,-0.139289 0.217586,-0.09289 0.421889,-0.232178 0.612944,-0.417956 0.008,0.02133 0.02125,0.06489 0.03983,0.131378 0.04245,0.145956 0.07822,0.256089 0.107414,0.3304 h 1.106581 c -0.09818,-0.201689 -0.165873,-0.390133 -0.203021,-0.565244 -0.0345,-0.177778 -0.05172,-0.452356 -0.05172,-0.823911 l 0.01189,-1.305512 c 0,-0.4856 -0.05037,-0.818666 -0.151206,-0.999111 -0.09818,-0.183022 -0.269339,-0.332977 -0.513462,-0.449689 -0.244127,-0.119466 -0.615649,-0.1792 -1.114511,-0.1792 z m -60.70352,0.09556 v 4.227111 h 1.118479 v -4.227111 z m 42.286706,0 v 4.227111 h 1.118474 v -4.227111 z m 11.781654,0 v 4.227111 h 1.11848 v -4.227111 z m -45.590309,0.760267 c 0.228203,0 0.421922,0.08444 0.581136,0.254755 0.159214,0.1672 0.242818,0.412534 0.250781,0.736267 h -1.671765 c -0.0027,-0.305156 0.07562,-0.546578 0.234829,-0.724356 0.159209,-0.177777 0.360897,-0.266666 0.605019,-0.266666 z m -13.178766,0.923373 h 0.951321 c 0.536014,0 0.883664,0.02756 1.042873,0.08356 0.161868,0.056 0.285175,0.144533 0.370088,0.266667 0.08492,0.122044 0.127421,0.270577 0.127421,0.445777 0,0.206934 -0.05571,0.372889 -0.167158,0.4976 -0.108792,0.122045 -0.250734,0.199023 -0.425871,0.230845 -0.114102,0.024 -0.383474,0.03556 -0.80804,0.03556 h -1.090634 z m 28.057137,0.513423 v 0.223022 c 0,0.268 -0.0146,0.449689 -0.04379,0.545244 -0.04245,0.145956 -0.131311,0.269334 -0.266642,0.370134 -0.183092,0.132711 -0.375506,0.199111 -0.577173,0.199111 -0.180439,0 -0.329031,-0.05689 -0.445786,-0.1712 -0.116755,-0.114134 -0.175181,-0.249422 -0.175181,-0.405956 0,-0.1592 0.07303,-0.290578 0.218978,-0.394133 0.09553,-0.064 0.298513,-0.128622 0.608977,-0.194933 0.310464,-0.06667 0.537329,-0.123467 0.68062,-0.171289 z m 38.027717,0 v 0.223022 c 0,0.268 -0.01461,0.449689 -0.0438,0.545244 -0.04245,0.145956 -0.13131,0.269334 -0.266642,0.370134 -0.183091,0.132711 -0.375505,0.199111 -0.577173,0.199111 -0.180444,0 -0.32903,-0.05689 -0.445785,-0.1712 -0.116756,-0.114134 -0.175084,-0.249422 -0.175084,-0.405956 0,-0.1592 0.07293,-0.290578 0.218881,-0.394133 0.09553,-0.064 0.298513,-0.128622 0.608977,-0.194933 0.310463,-0.06667 0.537328,-0.123467 0.680619,-0.171289 z"
     id="rect3357"
     inkscape:connector-curvature="0" />
</svg>
