<?xml version="1.0" encoding="UTF-8" standalone="no"?>
<!-- Created with Inkscape (http://www.inkscape.org/) -->

<svg
   xmlns:dc="http://purl.org/dc/elements/1.1/"
   xmlns:cc="http://creativecommons.org/ns#"
   xmlns:rdf="http://www.w3.org/1999/02/22-rdf-syntax-ns#"
   xmlns:svg="http://www.w3.org/2000/svg"
   xmlns="http://www.w3.org/2000/svg"
   xmlns:sodipodi="http://sodipodi.sourceforge.net/DTD/sodipodi-0.dtd"
   xmlns:inkscape="http://www.inkscape.org/namespaces/inkscape"
   version="1.1"
   id="svg834"
   xml:space="preserve"
   width="100"
   height="100"
   viewBox="0 0 100 100"
   sodipodi:docname="epic-mega-grants.svg"
   inkscape:version="0.92.4 (5da689c313, 2019-01-14)"><metadata
     id="metadata840"><rdf:RDF><cc:Work
         rdf:about=""><dc:format>image/svg+xml</dc:format><dc:type
           rdf:resource="http://purl.org/dc/dcmitype/StillImage" /><dc:title></dc:title></cc:Work></rdf:RDF></metadata><defs
     id="defs838" /><sodipodi:namedview
     pagecolor="#ffffff"
     bordercolor="#666666"
     borderopacity="1"
     objecttolerance="10"
     gridtolerance="10"
     guidetolerance="10"
     inkscape:pageopacity="0"
     inkscape:pageshadow="2"
     inkscape:window-width="1878"
     inkscape:window-height="1080"
     id="namedview836"
     showgrid="false"
     inkscape:zoom="3.6021544"
     inkscape:cx="52.594076"
     inkscape:cy="58.105239"
     inkscape:window-x="42"
     inkscape:window-y="0"
     inkscape:window-maximized="1"
     inkscape:current-layer="g842" /><g
     id="g842"
     inkscape:groupmode="layer"
     inkscape:label="ink_ext_XXXXXX"
     transform="matrix(1.3333333,0,0,-1.3333333,0,100.00004)"><g
       id="g844"
       transform="matrix(0.00591716,0,0,0.00591716,7.4999997,6.5216273)"><path
         d="M 393.523,2848.35 5070,442.5 9746.47,2848.35 V 7622.33 L 5070,10028.1 393.523,7622.33 Z M 5070,0 0,2608.25 V 7862.42 L 5070,10470.7 10140,7862.42 V 2608.25 L 5070,0"
         style="fill:#1f1e21;fill-opacity:1;fill-rule:nonzero;stroke:none"
         id="path846"
         inkscape:connector-curvature="0" /><path
         d="M 5123.21,3781.17 H 5019.54 V 3636.25 H 5123.21 C 5161.2,3636.25 5187.8,3661.75 5187.8,3708.43 5187.8,3755.66 5161.2,3781.17 5123.21,3781.17"
         style="fill:#1f1e21;fill-opacity:1;fill-rule:nonzero;stroke:none"
         id="path848"
         inkscape:connector-curvature="0" /><path
         d="M 3845.79,4588.46 H 3989.99 L 3918.84,4801.94 Z"
         style="fill:#1f1e21;fill-opacity:1;fill-rule:nonzero;stroke:none"
         id="path850"
         inkscape:connector-curvature="0" /><path
         d="M 5688.43,4863.74 H 5562.02 V 4683.03 H 5688.43 C 5746.48,4683.03 5780.2,4707.37 5780.2,4773.85 5780.2,4839.39 5746.48,4863.74 5688.43,4863.74"
         style="fill:#1f1e21;fill-opacity:1;fill-rule:nonzero;stroke:none"
         id="path852"
         inkscape:connector-curvature="0" /><path
         d="M 4957.29,6163.75 C 4957.29,6285.59 4882.72,6338.32 4806.36,6338.32 H 4542.68 V 5987.37 H 4806.36 C 4882.72,5987.37 4957.29,6040.1 4957.29,6163.75"
         style="fill:#1f1e21;fill-opacity:1;fill-rule:nonzero;stroke:none"
         id="path854"
         inkscape:connector-curvature="0" /><path
         d="M 3278.8,3708.43 C 3278.8,3757.29 3253.29,3781.17 3208.78,3781.17 H 3105.11 V 3635.16 H 3208.78 C 3253.29,3635.16 3278.8,3660.12 3278.8,3708.43"
         style="fill:#1f1e21;fill-opacity:1;fill-rule:nonzero;stroke:none"
         id="path856"
         inkscape:connector-curvature="0" /><path
         d="M 6296.08,4588.46 H 6440.28 L 6369.13,4801.94 Z"
         style="fill:#1f1e21;fill-opacity:1;fill-rule:nonzero;stroke:none"
         id="path858"
         inkscape:connector-curvature="0" /><path
         d="M 8432.73,4310.37 C 8292.29,4310.37 8176.18,4385.27 8176.18,4536.96 H 8309.13 C 8309.13,4451.75 8385.92,4432.1 8440.22,4432.1 8510.45,4432.1 8547.9,4462.06 8547.9,4503.26 8547.9,4550.06 8494.53,4563.19 8395.28,4600.64 L 8368.13,4610.93 C 8284.79,4642.78 8193.04,4684.9 8193.04,4796.32 8193.04,4915.24 8284.79,4993.88 8435.54,4993.88 8576.93,4993.88 8682.73,4931.16 8682.73,4772.93 H 8549.78 C 8549.78,4847.83 8493.59,4872.16 8433.66,4872.16 8368.13,4872.16 8326.93,4845.95 8326.93,4803.81 8326.93,4755.11 8374.69,4743.89 8437.42,4721.42 L 8463.62,4712.05 C 8580.67,4669.92 8688.34,4629.65 8688.34,4509.8 8688.34,4395.57 8602.21,4310.37 8432.73,4310.37 Z M 8035.73,4863.74 H 7852.22 V 4324.42 H 7719.27 V 4863.74 H 7534.8 V 4979.84 H 8035.73 Z M 7352.26,4324.42 H 7230.54 L 6979.59,4732.66 V 4324.42 H 6846.64 V 4979.84 H 6968.36 L 7219.29,4571.61 V 4979.84 H 7352.26 Z M 7136.42,3781.17 H 7021.34 V 3443 H 6974.11 V 3781.17 H 6858.5 V 3822.97 H 7136.42 Z M 6664.07,4324.42 H 6532.98 L 6480.55,4477.98 H 6256.77 L 6202.46,4324.42 H 6079.8 V 4368.43 L 6306.4,4979.84 H 6436.54 L 6664.07,4368.43 Z M 6611,3443 H 6567.58 L 6378.68,3735.04 V 3443 H 6331.46 V 3822.97 H 6374.88 L 6563.78,3530.4 V 3822.97 H 6611 Z M 6067.12,3443 H 5829.91 V 3822.97 H 6066.57 V 3781.17 H 5877.14 V 3655.24 H 6041.06 V 3613.44 H 5877.14 V 3484.8 H 6067.12 Z M 5663.15,4570.68 H 5562.02 V 4324.42 H 5429.07 V 4979.84 H 5712.78 C 5846.66,4979.84 5915.96,4903.07 5915.96,4775.73 5915.96,4683.03 5872.89,4618.42 5808.28,4586.59 L 5929.06,4368.43 V 4324.42 H 5799.86 Z M 5544.4,3443 H 5497.18 V 3822.97 H 5544.4 Z M 5733.7,6563.8 V 5290.93 H 5475.49 V 6563.8 Z M 5113.18,7882.04 C 5093.07,7872.82 5084.66,7869.23 5070.05,7869.51 5070.03,7869.51 5070.01,7869.51 5070,7869.51 5069.98,7869.51 5069.96,7869.51 5069.94,7869.51 5055.33,7869.23 5046.92,7872.82 5026.82,7882.04 L 4639.45,8044.33 C 4631.43,8047.56 4626.57,8050.13 4619.46,8053.61 4619.46,8053.61 4606.24,8063.46 4604.98,8064.96 4592.03,8080.32 4591.75,8093.81 4590.3,8107.74 4589.66,8113.95 4589.37,8120.66 4589.37,8127.88 V 8897.63 C 4589.37,8961.42 4612.91,8984.95 4676.67,8984.95 H 5463.33 C 5527.09,8984.95 5550.63,8961.42 5550.63,8897.63 V 8127.88 C 5550.63,8120.66 5550.33,8113.95 5549.7,8107.74 5548.24,8093.81 5547.97,8080.32 5535.02,8064.96 5533.76,8063.46 5520.54,8053.61 5520.54,8053.61 5513.42,8050.13 5508.56,8047.56 5500.55,8044.33 Z M 5131.35,3594.45 H 5019.54 V 3443 H 4972.31 V 3822.97 H 5131.35 C 5197.03,3822.97 5236.11,3778.45 5236.11,3708.43 5236.11,3638.96 5197.03,3594.45 5131.35,3594.45 Z M 4680.02,4543.52 V 4757.95 C 4680.02,4906.8 4776.47,4993.88 4941.26,4993.88 5082.66,4993.88 5190.33,4916.18 5190.33,4766.36 H 5057.38 C 5057.38,4832.85 5006.8,4872.16 4933.77,4872.16 4852.32,4872.16 4812.99,4830.03 4812.99,4763.55 V 4544.45 C 4812.99,4473.3 4855.13,4432.1 4931.9,4432.1 4982.47,4432.1 5032.1,4457.37 5057.38,4496.71 V 4567.87 H 4941.26 V 4678.36 H 5190.33 V 4324.42 H 5119.16 L 5082.66,4378.73 C 5042.4,4333.79 4985.28,4310.37 4919.72,4310.37 4768.98,4310.37 4680.02,4398.39 4680.02,4543.52 Z M 4686.8,3443 H 4639.58 V 3822.97 H 4686.8 Z M 4542.68,5290.93 H 4284.48 V 6563.8 H 4853.63 C 5082.74,6563.8 5219.13,6407.41 5219.13,6161.94 5219.13,5918.27 5082.74,5761.9 4853.63,5761.9 H 4542.68 Z M 4370.35,3696.49 H 4323.13 V 3701.92 C 4323.13,3761.09 4275.36,3787.68 4231.4,3787.68 4167.34,3787.68 4133.69,3754.03 4133.69,3697.58 V 3568.39 C 4133.69,3511.94 4167.34,3478.29 4231.4,3478.29 4275.36,3478.29 4323.13,3504.89 4323.13,3564.05 V 3569.48 H 4370.35 V 3564.05 C 4370.35,3475.57 4305.21,3434.87 4231.94,3434.87 4140.21,3434.87 4086.47,3485.35 4086.47,3571.65 V 3694.32 C 4086.47,3780.63 4140.21,3831.11 4231.94,3831.11 4305.21,3831.11 4370.35,3790.4 4370.35,3701.92 Z M 4030.25,4477.98 H 3806.48 L 3752.17,4324.42 H 3629.51 V 4368.43 L 3856.09,4979.84 H 3986.25 L 4213.78,4368.43 V 4324.42 H 4082.69 Z M 3832.98,3443 H 3595.78 V 3822.97 H 3832.44 V 3781.17 H 3643 V 3655.24 H 3806.93 V 3613.44 H 3643 V 3484.8 H 3832.98 Z M 3197.88,4432.1 C 3248.45,4432.1 3298.07,4457.37 3323.36,4496.71 V 4567.87 H 3207.25 V 4678.36 H 3456.31 V 4324.42 H 3385.15 L 3348.64,4378.73 C 3308.38,4333.79 3251.26,4310.37 3185.72,4310.37 3034.96,4310.37 2946.02,4398.39 2946.02,4543.52 V 4757.95 C 2946.02,4906.8 3042.45,4993.88 3207.25,4993.88 3348.64,4993.88 3456.31,4916.18 3456.31,4766.36 H 3323.36 C 3323.36,4832.85 3272.78,4872.16 3199.76,4872.16 3118.29,4872.16 3078.97,4830.03 3078.97,4763.55 V 4544.45 C 3078.97,4473.3 3121.11,4432.1 3197.88,4432.1 Z M 3333.08,3443 H 3286.4 L 3202.27,3593.37 H 3105.11 V 3443 H 3057.89 V 3822.97 H 3216.92 C 3288.03,3822.97 3327.11,3779.54 3327.11,3708.43 3327.11,3648.19 3298.89,3614.53 3254.38,3599.33 L 3333.08,3458.75 Z M 2754.07,4324.42 H 2325.23 V 4979.84 H 2752.2 V 4863.74 H 2458.19 V 4708.32 H 2709.13 V 4597.83 H 2458.19 V 4440.51 H 2754.07 Z M 2077.11,4324.42 H 1948.84 V 4743.89 L 1819.62,4528.54 H 1737.23 L 1608.01,4743.89 V 4324.42 H 1479.74 V 4979.84 H 1608.01 L 1780.3,4690.52 1952.58,4979.84 H 2077.11 Z M 3283.83,7876.55 3327.8,7965.18 3371.4,7876.38 3469.28,7861.95 3398.3,7793.04 3414.82,7695.49 3327.35,7741.72 3239.68,7695.85 3256.61,7793.33 3185.9,7862.53 Z M 3931.74,6036.46 V 5821.9 H 3444.43 V 5516.41 H 4019.02 V 5290.93 H 3186.22 V 6563.8 H 4015.39 V 6338.32 H 3444.43 V 6036.46 Z M 3903.58,8153.79 3967.9,8283.43 4031.67,8153.53 4174.85,8132.43 4071.02,8031.62 4095.19,7888.94 3967.23,7956.54 3838.99,7889.46 3863.75,8032.05 3760.33,8133.27 Z M 6108.32,8153.53 6172.1,8283.43 6236.42,8153.79 6379.67,8133.27 6276.25,8032.05 6301.01,7889.46 6172.77,7956.54 6044.8,7888.94 6068.98,8031.62 5965.15,8132.43 Z M 7008.34,6145.56 V 6127.38 H 6750.13 V 6145.56 C 6750.13,6296.49 6637.39,6354.68 6519.21,6354.68 6366.45,6354.68 6293.71,6276.49 6293.71,6151.02 V 5703.71 C 6293.71,5578.23 6366.45,5500.05 6519.21,5500.05 6637.39,5500.05 6750.13,5554.6 6750.13,5709.15 V 5727.34 H 7008.34 V 5709.15 C 7008.34,5394.58 6786.49,5263.66 6535.57,5263.66 6211.88,5263.66 6035.51,5432.76 6035.51,5721.89 V 6132.84 C 6035.51,6421.95 6211.88,6591.08 6535.57,6591.08 6786.49,6591.08 7008.34,6460.15 7008.34,6145.56 Z M 6768.59,7876.38 6812.19,7965.18 6856.16,7876.55 6954.09,7862.53 6883.39,7793.33 6900.31,7695.85 6812.65,7741.72 6725.18,7695.49 6741.7,7793.04 6670.71,7861.95 Z M 5070,9760.06 683.355,7508.2 V 2962.21 L 4375.73,1062.66 V 1266.07 H 4461.33 V 1018.63 L 4701.46,895.078 V 1522.39 H 4787.07 V 851.051 L 5027.2,727.52 V 1766.65 H 5112.8 V 727.52 L 5352.94,851.051 V 1522.39 H 5438.54 V 895.09 L 5678.67,1018.63 V 1266.07 H 5764.27 V 1062.66 L 9456.64,2962.21 V 7508.2 L 5070,9760.06"
         style="fill:#1f1e21;fill-opacity:1;fill-rule:nonzero;stroke:none"
         id="path860"
         inkscape:connector-curvature="0" /></g></g></svg>