<?xml version="1.0" encoding="UTF-8" standalone="no"?>
<!-- Generator: Adobe Illustrator 22.1.0, SVG Export Plug-In . SVG Version: 6.00 Build 0)  -->

<svg
   xmlns:dc="http://purl.org/dc/elements/1.1/"
   xmlns:cc="http://creativecommons.org/ns#"
   xmlns:rdf="http://www.w3.org/1999/02/22-rdf-syntax-ns#"
   xmlns:svg="http://www.w3.org/2000/svg"
   xmlns="http://www.w3.org/2000/svg"
   xmlns:sodipodi="http://sodipodi.sourceforge.net/DTD/sodipodi-0.dtd"
   xmlns:inkscape="http://www.inkscape.org/namespaces/inkscape"
   version="1.1"
   id="图层_1"
   x="0px"
   y="0px"
   viewBox="0 0 100 100"
   xml:space="preserve"
   sodipodi:docname="esp32-icon.svg"
   width="100"
   height="100"
   inkscape:version="0.92.4 (5da689c313, 2019-01-14)"><metadata
   id="metadata36"><rdf:RDF><cc:Work
       rdf:about=""><dc:format>image/svg+xml</dc:format><dc:type
         rdf:resource="http://purl.org/dc/dcmitype/StillImage" /><dc:title /></cc:Work></rdf:RDF></metadata><defs
   id="defs34" /><sodipodi:namedview
   pagecolor="#ffffff"
   bordercolor="#666666"
   borderopacity="1"
   objecttolerance="10"
   gridtolerance="10"
   guidetolerance="10"
   inkscape:pageopacity="0"
   inkscape:pageshadow="2"
   inkscape:window-width="1640"
   inkscape:window-height="1050"
   id="namedview32"
   showgrid="false"
   inkscape:zoom="5.758874"
   inkscape:cx="39.766662"
   inkscape:cy="29.189994"
   inkscape:window-x="1920"
   inkscape:window-y="0"
   inkscape:window-maximized="1"
   inkscape:current-layer="图层_1" />
<style
   type="text/css"
   id="style2">
	.st0{fill:#FF3034;}
	.st1{fill:#666565;}
	.st2{enable-background:new    ;}
	.st3{fill:#FFFEFE;}
	.st4{fill:none;stroke:#E71D16;stroke-width:3;stroke-miterlimit:10;}
</style>
<g
   id="XMLID_230_"
   transform="matrix(0.79052967,0,0,0.79052967,-11.226523,-11.759229)">
	<path
   id="XMLID_28_"
   class="st0"
   d="m 61.7,90.5 c 0,3.6 -2.9,6.5 -6.5,6.5 -3.6,0 -6.5,-2.9 -6.5,-6.5 0,-3.6 2.9,-6.5 6.5,-6.5 3.6,0 6.5,2.9 6.5,6.5"
   inkscape:connector-curvature="0"
   style="fill:#ff3034" />
	<path
   id="XMLID_27_"
   class="st0"
   d="M 118.9,83.7 C 114.7,54 91.1,30.4 61.4,26.2 57.9,28 54.7,30.4 51.9,33.1 v 6.3 c 29.7,0 53.8,24.1 53.8,53.8 h 6.3 c 2.7,-2.8 5,-6 6.9,-9.5"
   inkscape:connector-curvature="0"
   style="fill:#ff3034" />
	<path
   id="XMLID_26_"
   class="st0"
   d="m 123.8,63.8 c 0,-23.5 -19.1,-42.6 -42.6,-42.6 -1.5,0 -2.9,0.1 -4.4,0.2 l -1,2.8 c 20.9,7.3 37.5,23.9 44.9,44.8 l 2.8,-1 c 0.2,-1.3 0.3,-2.7 0.3,-4.2"
   inkscape:connector-curvature="0"
   style="fill:#ff3034" />
	<path
   id="XMLID_25_"
   class="st0"
   d="M 81.1,96.1 C 82.1,85.5 77.4,75.7 69.5,69.7 65.3,66.5 60.3,64.5 54.7,63.9 53.2,63.7 52.2,62.5 52.3,61 c 0.1,-1.3 1.2,-2.3 2.6,-2.4 0.1,0 0.2,0 0.3,0 6,0.6 11.6,2.7 16.2,6 10,6.9 16.1,19 14.8,32 -0.2,2.1 -0.6,4 -1.2,6 l 7.7,2.2 c 2.3,-0.7 4.5,-1.5 6.7,-2.5 0.5,-2.9 0.9,-6 0.9,-9.1 0,-24.4 -18,-44.6 -41.4,-48 -2.8,-0.4 -5.7,-0.4 -7.7,0.1 -7.2,1.8 -12.5,8.3 -12.5,16.1 0,7.4 4.8,13.7 11.5,15.8 1.3,0.4 3.2,0.6 4.2,0.7 v 0 c 7.3,1.3 12.9,7.7 12.9,15.3 0,3.1 -0.9,6 -2.5,8.4 l 5.3,3.4 c 2.6,0.7 5.2,1.1 7.9,1.3 1.7,-3.1 2.8,-6.5 3.1,-10.2"
   inkscape:connector-curvature="0"
   style="fill:#ff3034" />
	<path
   id="XMLID_24_"
   class="st0"
   d="M 81.7,114.4 C 68.2,114.4 55.5,109.1 45.9,99.6 36.3,90 31.1,77.3 31.1,63.8 31.1,50.3 36.4,37.6 45.9,28 c 0.7,-0.7 2,-0.7 2.7,0 0.7,0.7 0.7,2 0,2.7 -8.8,8.8 -13.7,20.6 -13.7,33.1 0,12.5 4.9,24.2 13.7,33.1 8.8,8.8 20.6,13.7 33.1,13.7 12.5,0 24.2,-4.9 33.1,-13.7 0.7,-0.7 2,-0.7 2.7,0 0.7,0.7 0.7,2 0,2.7 -9.6,9.5 -22.3,14.8 -35.8,14.8"
   inkscape:connector-curvature="0"
   style="fill:#ff3034" />
</g>

<path
   id="path838"
   style="color:#000000;font-style:normal;font-variant:normal;font-weight:normal;font-stretch:normal;font-size:29.29389954px;line-height:18.30868721px;font-family:sans-serif;font-variant-ligatures:normal;font-variant-position:normal;font-variant-caps:normal;font-variant-numeric:normal;font-variant-alternates:normal;font-feature-settings:normal;text-indent:0;text-align:start;text-decoration:none;text-decoration-line:none;text-decoration-style:solid;text-decoration-color:#000000;letter-spacing:0px;word-spacing:0px;text-transform:none;writing-mode:lr-tb;direction:ltr;text-orientation:mixed;dominant-baseline:auto;baseline-shift:baseline;text-anchor:start;white-space:normal;shape-padding:0;clip-rule:nonzero;display:inline;overflow:visible;visibility:visible;opacity:1;isolation:auto;mix-blend-mode:normal;color-interpolation:sRGB;color-interpolation-filters:linearRGB;solid-color:#000000;solid-opacity:1;vector-effect:none;fill:#000000;fill-opacity:1;fill-rule:nonzero;stroke:#ffffff;stroke-width:4.26528454;stroke-linecap:butt;stroke-linejoin:miter;stroke-miterlimit:4;stroke-dasharray:none;stroke-dashoffset:0;stroke-opacity:1;paint-order:stroke markers fill;color-rendering:auto;image-rendering:auto;shape-rendering:auto;text-rendering:auto;enable-background:accumulate"
   d="m 42.43785,71.317689 v 23.369506 h 0.53316 3.34475 v -8.588887 h 2.622067 c 2.078602,0 3.762895,-0.338312 5.044199,-1.07048 h 0.0021 v -0.0021 c 1.263072,-0.731262 2.196361,-1.713472 2.744944,-2.919897 5.89e-4,-0.0011 -5.88e-4,-0.0032 0,-0.0043 0.552006,-1.171653 0.833064,-2.419152 0.833064,-3.721717 0,-2.185436 -0.666688,-3.965328 -2.013931,-5.200395 -1.36931,-1.276482 -3.462344,-1.861893 -6.204241,-1.861893 z m 3.87791,3.503025 h 2.778266 c 1.662054,0 2.812192,0.322978 3.480123,0.853889 l 0.0021,0.0021 0.0021,0.0021 c 0.670622,0.519736 1.043412,1.41246 1.043412,2.85741 0,1.546145 -0.410186,2.521455 -1.168371,3.107324 -0.77865,0.601683 -2.042442,0.951777 -3.827927,0.951777 h -2.309667 z m 21.59092,-3.815425 c -1.492811,0 -2.853246,0.240637 -4.069514,0.726847 -1.182878,0.452355 -2.19838,1.00488 -3.038598,1.668206 l -0.406118,0.320729 2.013929,2.730368 0.422781,-0.283247 c 0.587197,-0.391457 1.305321,-0.762579 2.153468,-1.105892 h 0.0042 l 0.0021,-0.0021 c 0.826196,-0.34584 1.731042,-0.520663 2.730365,-0.520663 1.188716,0 1.999383,0.270782 2.515852,0.737265 l 0.0042,0.0043 0.0042,0.0021 c 0.548022,0.479514 0.816402,1.107279 0.816402,2.034754 0,1.082188 -0.352515,1.880671 -1.099644,2.536682 -0.729453,0.640497 -1.813941,0.991338 -3.334336,0.991338 h -2.844912 v 3.565511 h 2.844912 c 1.730975,0 3.020752,0.29921 3.875827,0.826815 h 0.0021 l 0.0021,0.0021 c 0.841707,0.508528 1.241265,1.283552 1.241265,2.574163 0,1.130983 -0.3513,1.963705 -1.078817,2.63665 -0.69153,0.639664 -1.868935,1.014252 -3.605081,1.014252 -0.933815,0 -1.91358,-0.108701 -2.938631,-0.329066 l -0.0042,-0.0021 C 63.097589,90.893256 62.149471,90.553803 61.273551,90.115844 L 60.502967,89.73055 v 3.846679 l 0.293656,0.147867 c 0.962269,0.481135 1.991773,0.809871 3.080252,0.985099 0.0022,3.95e-4 0.0041,-4.05e-4 0.0063,0 0.0016,2.45e-4 0.0027,0.0021 0.0042,0.0021 1.063231,0.190797 2.059236,0.287405 2.988615,0.287405 1.968009,0 3.605308,-0.285688 4.910908,-0.893459 1.285367,-0.598367 2.276934,-1.44285 2.919888,-2.522095 0.634142,-1.064445 0.949693,-2.281021 0.949693,-3.613421 0,-1.682623 -0.48892,-3.091809 -1.487019,-4.113249 -0.664582,-0.680132 -1.604187,-1.116918 -2.659555,-1.447446 0.769789,-0.330741 1.473442,-0.75342 2.034758,-1.355806 0.952685,-1.022389 1.424538,-2.385648 1.424538,-3.986218 0,-1.724145 -0.619466,-3.216099 -1.820244,-4.350665 -1.210881,-1.164305 -2.990863,-1.711946 -5.242052,-1.711946 z m 18.781416,0 c -1.520442,0 -2.890706,0.274013 -4.094507,0.830974 -1.163715,0.517954 -2.198647,1.159037 -3.092748,1.922299 l -0.393622,0.335305 2.222196,2.755363 0.414449,-0.335315 c 0.716977,-0.577562 1.481165,-1.0536 2.29509,-1.430779 0.805332,-0.363626 1.650078,-0.543579 2.555422,-0.543579 1.029079,0 1.815749,0.26513 2.440876,0.783085 l 0.0042,0.0043 0.0021,0.0021 c 0.574124,0.459318 0.89346,1.221962 0.89346,2.45754 0,1.283829 -0.39511,2.488228 -1.216272,3.66132 v 0.0021 l -0.0021,0.0021 c -0.827109,1.210402 -2.005228,2.586298 -3.530106,4.111169 l -6.089694,5.993898 v 3.130228 H 79.63 95.000021 V 91.12195 H 84.590859 l 3.967464,-3.861512 c 1.627426,-1.564016 2.904255,-3.083843 3.830009,-4.569356 h 0.0021 v -0.0021 c 0.943458,-1.535865 1.422455,-3.215172 1.422455,-4.996301 0,-2.086833 -0.662002,-3.790431 -1.993103,-4.960889 -1.297479,-1.159134 -3.039968,-1.726523 -5.131671,-1.726523 z m -55.125889,0 c -2.289549,0 -4.162441,0.534632 -5.550285,1.64946 -1.397305,1.122431 -2.105568,2.785583 -2.105568,4.819271 0,1.36278 0.274682,2.515089 0.868469,3.417645 l 0.0042,0.0043 0.0021,0.0021 c 0.585081,0.855126 1.337075,1.550751 2.236775,2.068077 0.847887,0.487543 1.717165,0.932221 2.607489,1.334992 l 0.0021,0.0021 h 0.0021 c 1.324891,0.579642 2.347561,1.066492 3.053177,1.449536 l 0.0083,0.0043 0.0063,0.0043 c 0.703759,0.351886 1.152626,0.71209 1.364142,1.014253 0.210146,0.300212 0.341556,0.748024 0.341556,1.382891 0,1.19204 -0.339219,1.972609 -1.005924,2.513767 -0.666707,0.541158 -1.740499,0.855968 -3.271857,0.855968 -1.099766,0 -2.177513,-0.128503 -3.236451,-0.387374 l -0.01045,-0.0021 c -1.079619,-0.285646 -1.991514,-0.592427 -2.7262,-0.910127 L 23.406589,89.90792 v 3.732124 l 0.295737,0.147867 c 0.727978,0.363989 1.651361,0.654124 2.784514,0.889301 h 0.0063 l 0.0083,0.0021 C 27.659061,94.893634 28.846769,95 30.064943,95 c 2.636726,0 4.6996,-0.565022 6.123016,-1.780671 l 0.0021,-0.0021 c 1.430501,-1.204633 2.155551,-2.93249 2.155551,-5.027544 0,-1.360839 -0.2741,-2.494424 -0.874716,-3.361407 -0.552683,-0.827177 -1.332648,-1.510167 -2.309669,-2.043093 -0.914923,-0.531166 -1.968385,-1.04589 -3.163558,-1.549492 l -0.0083,-0.0043 c -1.027104,-0.45197 -1.868908,-0.840996 -2.520016,-1.166288 l -0.0042,-0.0043 c -0.60638,-0.323084 -1.017801,-0.677103 -1.266256,-1.039236 -0.219992,-0.349551 -0.351969,-0.831709 -0.351969,-1.484938 0,-1.182187 0.325346,-1.862788 0.947609,-2.272181 0.68728,-0.452152 1.574158,-0.693525 2.705373,-0.693525 0.810457,0 1.633435,0.09864 2.470034,0.297813 l 0.0042,0.0021 0.0063,0.0021 c 0.840156,0.180037 1.593336,0.42785 2.259685,0.741423 l 0.516499,0.243676 1.291248,-3.340582 -0.44777,-0.210353 c -0.790997,-0.373521 -1.700734,-0.674341 -2.728283,-0.910126 -1.043497,-0.26031 -2.147494,-0.391532 -3.309345,-0.391532 z m -26.5622276,0.3124 V 94.687195 H 5.5331401 19.187049 V 91.121683 H 8.8778896 V 84.286405 H 18.593492 V 80.720893 H 8.8778896 V 74.883201 H 19.187049 v -3.565512 z"
   inkscape:connector-curvature="0" /></svg>