<?xml version="1.0" encoding="UTF-8" standalone="no"?>
<svg
   width="100"
   height="100"
   version="1.1"
   viewBox="0 0 93.75 93.743961"
   xml:space="preserve"
   id="svg807"
   sodipodi:docname="godot-icon.svg"
   inkscape:version="1.2.1 (9c6d41e410, 2022-07-14)"
   xmlns:inkscape="http://www.inkscape.org/namespaces/inkscape"
   xmlns:sodipodi="http://sodipodi.sourceforge.net/DTD/sodipodi-0.dtd"
   xmlns="http://www.w3.org/2000/svg"
   xmlns:svg="http://www.w3.org/2000/svg"
   xmlns:rdf="http://www.w3.org/1999/02/22-rdf-syntax-ns#"
   xmlns:cc="http://creativecommons.org/ns#"
   xmlns:dc="http://purl.org/dc/elements/1.1/"><sodipodi:namedview
     id="namedview809"
     pagecolor="#505050"
     bordercolor="#ffffff"
     borderopacity="1"
     inkscape:showpageshadow="0"
     inkscape:pageopacity="0"
     inkscape:pagecheckerboard="1"
     inkscape:deskcolor="#505050"
     showgrid="false"
     inkscape:zoom="3.2246802"
     inkscape:cx="152.26316"
     inkscape:cy="58.610463"
     inkscape:window-width="2512"
     inkscape:window-height="1440"
     inkscape:window-x="48"
     inkscape:window-y="0"
     inkscape:window-maximized="1"
     inkscape:current-layer="svg807" /><title
     id="title702">Godot Game engine logo</title><desc
     id="desc704">A free and open source cross-platform game engine</desc><metadata
     id="metadata706"><rdf:RDF><cc:Work
         rdf:about=""><dc:format>image/svg+xml</dc:format><dc:type
           rdf:resource="http://purl.org/dc/dcmitype/StillImage" /><dc:title>Godot Game engine logo</dc:title></cc:Work></rdf:RDF></metadata><defs
     id="defs711"><clipPath
       clipPathUnits="userSpaceOnUse"
       id="clipPath1592"><g
         id="g1596"
         style="stroke-width:1.41375"
         transform="matrix(0.70733866,0,0,-0.70733866,-525.46419,195.57913)"><path
           d="M -94.25,-146.625 H 958.125 V 597.5 H -94.25 Z"
           id="path1594"
           style="stroke-width:1.41375" /></g></clipPath><clipPath
       clipPathUnits="userSpaceOnUse"
       id="clipPath1598"><g
         id="g1602"
         style="stroke-width:1.41375"
         transform="matrix(0.70733866,0,0,-0.70733866,-497.61273,193.54553)"><path
           d="M -94.25,-146.625 H 958.125 V 597.5 H -94.25 Z"
           id="path1600"
           style="stroke-width:1.41375" /></g></clipPath><clipPath
       clipPathUnits="userSpaceOnUse"
       id="clipPath1604"><g
         id="g1608"
         style="stroke-width:1"><path
           d="M -94.25,-146.625 H 958.125 V 597.5 H -94.25 Z"
           id="path1606"
           style="stroke-width:1" /></g></clipPath><clipPath
       clipPathUnits="userSpaceOnUse"
       id="clipPath1610"><g
         id="g1614"
         style="stroke-width:1.41375"
         transform="matrix(0.70733866,0,0,-0.70733866,-464.63307,208.39965)"><path
           d="M -94.25,-146.625 H 958.125 V 597.5 H -94.25 Z"
           id="path1612"
           style="stroke-width:1.41375" /></g></clipPath><clipPath
       clipPathUnits="userSpaceOnUse"
       id="clipPath1616"><g
         id="g1620"
         style="stroke-width:1.41375"
         transform="matrix(0.70733866,0,0,-0.70733866,-442.52874,193.54553)"><path
           d="M -94.25,-146.625 H 958.125 V 597.5 H -94.25 Z"
           id="path1618"
           style="stroke-width:1.41375" /></g></clipPath><clipPath
       clipPathUnits="userSpaceOnUse"
       id="clipPath1622"><g
         id="g1626"
         style="stroke-width:1.41375"
         transform="matrix(0.70733866,0,0,-0.70733866,-426.79045,195.57913)"><path
           d="M -94.25,-146.625 H 958.125 V 597.5 H -94.25 Z"
           id="path1624"
           style="stroke-width:1.41375" /></g></clipPath><clipPath
       clipPathUnits="userSpaceOnUse"
       id="clipPath1628"><g
         id="g1632"
         style="stroke-width:1.41375"
         transform="matrix(0.70733866,0,0,-0.70733866,-395.57913,195.57913)"><path
           d="M -94.25,-146.625 H 958.125 V 597.5 H -94.25 Z"
           id="path1630"
           style="stroke-width:1.41375" /></g></clipPath><clipPath
       clipPathUnits="userSpaceOnUse"
       id="clipPath1634"><g
         id="g1638"
         style="stroke-width:1.41375"
         transform="matrix(0.70733866,0,0,-0.70733866,-354.81874,193.54553)"><path
           d="M -94.25,-146.625 H 958.125 V 597.5 H -94.25 Z"
           id="path1636"
           style="stroke-width:1.41375" /></g></clipPath><clipPath
       clipPathUnits="userSpaceOnUse"
       id="clipPath1640"><g
         id="g1644"
         style="stroke-width:1.41375"
         transform="matrix(0.70733866,0,0,-0.70733866,-336.51636,216.79929)"><path
           d="M -94.25,-146.625 H 958.125 V 597.5 H -94.25 Z"
           id="path1642"
           style="stroke-width:1.41375" /></g></clipPath><clipPath
       clipPathUnits="userSpaceOnUse"
       id="clipPath1646"><g
         id="g1650"
         style="stroke-width:1.41375"
         transform="matrix(0.70733866,0,0,-0.70733866,-323.51901,214.14677)"><path
           d="M -94.25,-146.625 H 958.125 V 597.5 H -94.25 Z"
           id="path1648"
           style="stroke-width:1.41375" /></g></clipPath><clipPath
       clipPathUnits="userSpaceOnUse"
       id="clipPath1652"><g
         id="g1656"
         style="stroke-width:1.41375"
         transform="matrix(0.70733866,0,0,-0.70733866,-347.39169,124.93369)"><path
           d="M -94.25,-146.625 H 958.125 V 597.5 H -94.25 Z"
           id="path1654"
           style="stroke-width:1.41375" /></g></clipPath><clipPath
       clipPathUnits="userSpaceOnUse"
       id="clipPath1658"><g
         id="g1662"
         style="stroke-width:1.41375"
         transform="matrix(0.70733866,0,0,-0.70733866,-630.94607,165.07515)"><path
           d="M -94.25,-146.625 H 958.125 V 597.5 H -94.25 Z"
           id="path1660"
           style="stroke-width:1.41375" /></g></clipPath><clipPath
       clipPathUnits="userSpaceOnUse"
       id="clipPath1664"><g
         id="g1668"
         style="stroke-width:1.41375"
         transform="matrix(0.70733866,0,0,-0.70733866,-552.96198,108.48806)"><path
           d="M -94.25,-146.625 H 958.125 V 597.5 H -94.25 Z"
           id="path1666"
           style="stroke-width:1.41375" /></g></clipPath><clipPath
       clipPathUnits="userSpaceOnUse"
       id="clipPath1670"><g
         id="g1674"
         style="stroke-width:1.41375"
         transform="matrix(0.70733866,0,0,-0.70733866,-470.82228,109.28382)"><path
           d="M -94.25,-146.625 H 958.125 V 597.5 H -94.25 Z"
           id="path1672"
           style="stroke-width:1.41375" /></g></clipPath><clipPath
       clipPathUnits="userSpaceOnUse"
       id="clipPath1676"><g
         id="g1680"
         style="stroke-width:1.41375"
         transform="matrix(0.70733866,0,0,-0.70733866,-403.18302,108.48806)"><path
           d="M -94.25,-146.625 H 958.125 V 597.5 H -94.25 Z"
           id="path1678"
           style="stroke-width:1.41375" /></g></clipPath></defs><path
     d="m 58.859598,-56.174964 c 0,0 -0.459469,-2.819018 -0.728081,-2.79357 l -51.1494753,4.935401 c -4.0701862,0.393023 -7.2313312,3.638993 -7.5169087,7.717662 l -1.4052675,20.145937 -39.5708625,2.823259 -2.69178,-18.251513 c -0.59943,-4.06029 -4.145115,-7.121059 -8.249231,-7.121059 h -53.991112 c -4.1027,0 -7.64839,3.060769 -8.24782,7.121059 l -2.69319,18.251513 -39.57086,-2.823259 -1.40527,-20.145937 c -0.28558,-4.080083 -3.44672,-7.326053 -7.51691,-7.719076 l -51.17775,-4.933987 c -0.26437,-0.02545 -0.45806,2.796398 -0.72243,2.796398 l -0.0693,11.069662 43.34557,6.98958 1.41941,20.315588 c 0.28699,4.114012 3.60648,7.440566 7.72332,7.73604 l 54.50006,3.887812 c 0.20641,0.014138 0.40999,0.02262 0.61357,0.02262 4.09563,0 7.63566,-3.0621825 8.23509,-7.122473 l 2.769535,-18.788737 h 39.585 l 2.769537,18.788737 c 0.598016,4.0588767 4.142287,7.1210593 8.243576,7.1210593 0.200752,0 0.401505,-0.00707 0.598016,-0.021206 L 6.4702342,-10.061266 c 4.1154258,-0.295474 7.4363248,-3.622028 7.7233158,-7.73604 l 1.417992,-20.315588 43.3173,-7.020683 z"
     style="fill:#ffffff;stroke-width:4.37744"
     id="path771"
     clip-path="none"
     transform="matrix(0.28553189,0,0,0.28553189,69.555999,78.285848)" /><path
     d="m -217.7654,-139.54996 v 83.4678 c 0.15269,0.0014 0.30537,0.0071 0.45664,0.02121 l 51.17775,4.933988 c 2.68047,0.258716 4.7813,2.416099 4.96792,5.102223 l 1.57774,22.591726 44.63209,3.185178 3.07491,-20.852812 c 0.39868,-2.70309 2.71723,-4.706374 5.45142,-4.706374 h 53.99111 c 2.732779,0 5.051329,2.003284 5.450006,4.706374 l 3.074907,20.852812 44.6462245,-3.185178 1.5763313,-22.591726 c 0.1880287,-2.686125 2.2874475,-4.842093 4.9679175,-5.102223 L 58.429041,-56.06095 c 0.151272,-0.01414 0.302543,-0.01979 0.455228,-0.02121 v -6.660176 l 0.02121,-0.0071 V -139.5443 h 0.189443 c 6.778931,-8.65216 13.05174,-17.77084 19.071487,-27.49744 -7.989101,-13.60028 -17.784975,-25.75853 -28.246725,-37.01198 -9.70398,4.88451 -19.128037,10.41793 -28.034662,16.30054 -4.454727,-4.42786 -9.472125,-8.04989 -14.406113,-11.83592 -4.8420937,-3.88922 -10.2991687,-6.74075 -15.4805625,-10.06307 1.5409875,-11.47541 2.3029988,-22.77551 2.6097825,-34.56618 -13.354282,-6.72097 -27.5964,-11.17711 -42.002512,-14.37784 -5.751135,9.66581 -11.010285,20.1318 -15.593663,30.36735 -5.431627,-0.90763 -10.888702,-1.2441 -16.357087,-1.30914 v -0.008 c -0.03817,0 -0.07352,0.008 -0.106032,0.008 -0.03393,0 -0.06927,-0.008 -0.103203,-0.008 v 0.008 c -5.47404,0.065 -10.926874,0.40151 -16.357088,1.30914 -4.577724,-10.23272 -9.834044,-20.6973 -15.593664,-30.36735 -14.39198,3.20073 -28.64258,7.65687 -41.98838,14.37784 0.30537,11.79067 1.06738,23.08653 2.61261,34.56618 -5.18563,3.32232 -10.63564,6.17385 -15.48056,10.06308 -4.92126,3.78602 -9.94714,7.40805 -14.40611,11.83591 -8.90239,-5.88827 -18.3222,-11.42169 -28.03466,-16.30054 -10.46317,11.26052 -20.2449,23.4117 -28.23259,37.01198 6.01268,9.7266 12.28973,18.84529 19.07149,27.49744 z"
     style="fill:#478cbf;stroke-width:4.37744"
     id="path775"
     clip-path="none"
     transform="matrix(0.28553189,0,0,0.28553189,69.555999,78.285848)" /><path
     d="m 12.984598,-40.674964 -1.584814,22.704825 c -0.190856,2.73702 -2.368031,4.915609 -5.105051,5.11212 l -54.5142,3.8892262 c -0.132893,0.0099 -0.265785,0.014138 -0.397264,0.014138 -2.708745,0 -5.045674,-1.9877332 -5.445765,-4.7077882 l -3.125801,-21.192112 h -44.476573 l -3.1258,21.192112 c -0.41989,2.852948 -2.97029,4.9042994 -5.84303,4.6936506 l -54.5142,-3.8892266 c -2.73702,-0.196511 -4.9142,-2.3751 -5.10505,-5.11212 l -1.58482,-22.704825 -46.01756,-4.436347 c 0.0212,4.945297 0.0848,10.362787 0.0848,11.441478 0,48.590588 61.6395,71.959875 138.236471,72.228488 h 0.188028 C -2.7490257,38.290042 58.876337,14.934892 58.876337,-33.669833 c 0,-1.098484 0.06645,-6.493354 0.08907,-11.441479 z"
     style="fill:#478cbf;stroke-width:4.37744"
     id="path779"
     clip-path="none"
     transform="matrix(0.28553189,0,0,0.28553189,69.555999,78.285848)" /><path
     d="m -121.1404,-105.67496 c 0,17.035687 -13.80527,30.848025 -30.83389,30.848025 -17.02155,0 -30.83388,-13.802441 -30.83388,-30.848025 0,-17.02155 13.80951,-30.81975 30.83388,-30.81975 17.03569,0 30.83389,13.79537 30.83389,30.81975"
     style="fill:#ffffff;stroke-width:4.37744"
     id="path783"
     clip-path="none"
     transform="matrix(0.28553189,0,0,0.28553189,69.555999,78.285848)" /><path
     d="m -128.5154,-103.92496 c 0,11.301518 -9.15969,20.456963 -20.4711,20.456963 -11.30434,0 -20.4711,-9.159687 -20.4711,-20.456963 0,-11.29728 9.16534,-20.4711 20.4711,-20.4711 11.31,0 20.4711,9.16817 20.4711,20.4711"
     style="fill:#414042;stroke-width:4.37744"
     id="path787"
     clip-path="none"
     transform="matrix(0.28553189,0,0,0.28553189,69.555999,78.285848)" /><path
     d="m -79.390402,-72.049964 c -5.482522,0 -9.925939,-4.040498 -9.925939,-9.021139 V -109.4592 c 0,-4.9764 4.443417,-9.02114 9.925939,-9.02114 5.482523,0 9.935835,4.04474 9.935835,9.02114 v 28.388097 c 0,4.980641 -4.453312,9.021139 -9.935835,9.021139"
     style="fill:#ffffff;stroke-width:4.37744"
     id="path791"
     clip-path="none"
     transform="matrix(0.28553189,0,0,0.28553189,69.555999,78.285848)" /><path
     d="m 58.772772,48.112277 c 0,4.864232 3.941845,8.808095 8.808095,8.808095 4.860196,0 8.804059,-3.941038 8.804059,-8.808095 0,-4.860195 -3.942653,-8.800022 -8.804059,-8.800022 -4.864232,0 -8.808095,3.939019 -8.808095,8.800022"
     style="fill:#ffffff;stroke-width:4.37744"
     id="path2145" /><path
     d="m 60.914261,48.611958 c 0,3.226944 2.614576,5.841115 5.841116,5.841115 3.230173,0 5.845152,-2.615383 5.845152,-5.841115 0,-3.225734 -2.614575,-5.845152 -5.845152,-5.845152 -3.226944,0 -5.841116,2.617805 -5.841116,5.845152"
     style="fill:#414042;stroke-width:4.37744"
     id="path2160" /></svg>
