<?xml version="1.0" encoding="UTF-8" standalone="no"?>
<svg
   xmlns:dc="http://purl.org/dc/elements/1.1/"
   xmlns:cc="http://creativecommons.org/ns#"
   xmlns:rdf="http://www.w3.org/1999/02/22-rdf-syntax-ns#"
   xmlns:svg="http://www.w3.org/2000/svg"
   xmlns="http://www.w3.org/2000/svg"
   xmlns:sodipodi="http://sodipodi.sourceforge.net/DTD/sodipodi-0.dtd"
   xmlns:inkscape="http://www.inkscape.org/namespaces/inkscape"
   width="100pt"
   height="100pt"
   viewBox="0 0 100 100"
   version="1.1"
   id="svg2"
   inkscape:version="0.92.4 (5da689c313, 2019-01-14)"
   sodipodi:docname="google-apps-script-icon.svg">
  <title
     id="title4154">Google Apps Script logo</title>
  <metadata
     id="metadata23">
    <rdf:RDF>
      <cc:Work
         rdf:about="">
        <dc:format>image/svg+xml</dc:format>
        <dc:type
           rdf:resource="http://purl.org/dc/dcmitype/StillImage" />
        <dc:title>Google Apps Script logo</dc:title>
        <cc:license
           rdf:resource="" />
        <dc:source>http://blog.kupriyanov.com/</dc:source>
      </cc:Work>
    </rdf:RDF>
  </metadata>
  <defs
     id="defs21" />
  <sodipodi:namedview
     pagecolor="#ffffff"
     bordercolor="#666666"
     borderopacity="1"
     objecttolerance="10"
     gridtolerance="10"
     guidetolerance="10"
     inkscape:pageopacity="0"
     inkscape:pageshadow="2"
     inkscape:window-width="1882"
     inkscape:window-height="1080"
     id="namedview19"
     showgrid="false"
     inkscape:zoom="2.085965"
     inkscape:cx="-27.477914"
     inkscape:cy="70.892506"
     inkscape:window-x="38"
     inkscape:window-y="0"
     inkscape:window-maximized="1"
     inkscape:current-layer="svg2" />
  <g
     id="#3a80f7ff"
     style="fill:#3a80f7;fill-opacity:1"
     transform="matrix(3.0560329,0,0,3.0560329,1.1034769,-292.2763)">
    <path
       style="fill:#3a80f7;fill-opacity:1;stroke-width:0.16349418"
       d="m 19.682377,100.95647 c -0.465957,0.009 -0.929937,0.01 -1.393852,0.009 -3.220835,0.002 -6.441734,-0.002 -9.6605251,0 -0.8460838,0.0225 -1.6021803,0.7828 -1.6205725,1.62887 -0.00209,2.8632 0,5.72633 0,8.58952 h 7.3572386 c 0.0021,-1.09745 -0.004,-2.19287 0.0042,-3.29033 0.30042,0.30043 0.600712,0.59892 0.901133,0.89731 1.479623,1.47757 2.959181,2.95286 4.430629,4.43861 -1.771868,1.78208 -3.553763,3.55408 -5.331762,5.33209 -0.01227,-1.09542 -0.0022,-2.19095 -0.0083,-3.28842 -2.450369,0.002 -4.9027171,0.004 -7.3530862,0.004 -0.00209,1.97215 0.00417,3.94449 -0.00196,5.91869 -0.085832,0.98709 0.8499781,1.92488 1.8370741,1.84314 4.7719871,-0.006 9.5441011,-0.007 14.3140431,-0.004 0.980966,0.0838 1.910902,-0.84205 1.833243,-1.82302 -0.0061,-3.20244 0.004,-6.40686 0,-9.61135 l -0.02108,-5.296 z"
       id="path5"
       inkscape:connector-curvature="0" />
  </g>
  <g
     id="#a0c3ffff"
     transform="matrix(0.62455451,0,0,0.62455451,10.027313,10.029821)">
    <path
       d="m 82.02,9.96 c 8.74,8.6 17.39,17.29 26.02,26 C 99.36,36.02 90.68,36.02 82,36.03 81.91,27.34 81.86,18.65 82.02,9.96 Z"
       id="path11"
       inkscape:connector-curvature="0"
       style="opacity:1;fill:#a0c3ff" />
  </g>
  <g
     id="#2256afff"
     transform="matrix(0.62455451,0,0,0.62455451,10.027313,10.029821)">
    <path
       d="m 82,36.03 c 8.68,-0.01 17.36,-0.01 26.04,-0.07 -0.11,8.69 0,17.39 -0.05,26.08 C 99.22,53.48 90.64,44.72 82,36.03 Z"
       id="path14"
       inkscape:connector-curvature="0"
       style="opacity:1;fill:#2256af" />
  </g>
  <g
     id="#ebf2feff"
     transform="matrix(0.62455451,0,0,0.62455451,10.027313,10.029821)">
    <path
       d="m 56.02,43.9 c 1.47,1.47 2.94,2.93 4.41,4.39 7.24,7.23 14.48,14.45 21.68,21.72 C 73.44,78.73 64.72,87.4 56.02,96.1 55.96,90.74 56.01,85.38 55.98,80.01 43.99,80.02 31.99,80.03 20,80.03 20,73.35 20,66.68 20,60 c 12,0 24,0 36,0 0.01,-5.37 -0.02,-10.73 0.02,-16.1 z"
       id="path17"
       inkscape:connector-curvature="0"
       style="opacity:1;fill:#ebf2fe" />
  </g>
</svg>
