<?xml version="1.0" encoding="UTF-8" standalone="no"?>
<!-- Created with Inkscape (http://www.inkscape.org/) -->

<svg
   xmlns:dc="http://purl.org/dc/elements/1.1/"
   xmlns:cc="http://creativecommons.org/ns#"
   xmlns:rdf="http://www.w3.org/1999/02/22-rdf-syntax-ns#"
   xmlns:svg="http://www.w3.org/2000/svg"
   xmlns="http://www.w3.org/2000/svg"
   xmlns:sodipodi="http://sodipodi.sourceforge.net/DTD/sodipodi-0.dtd"
   xmlns:inkscape="http://www.inkscape.org/namespaces/inkscape"
   version="1.1"
   id="svg2"
   width="100"
   height="100"
   viewBox="0 0 100 100"
   sodipodi:docname="hfes-wsu-logo.svg"
   inkscape:version="0.92.1 r15371">
  <metadata
     id="metadata8">
    <rdf:RDF>
      <cc:Work
         rdf:about="">
        <dc:format>image/svg+xml</dc:format>
        <dc:type
           rdf:resource="http://purl.org/dc/dcmitype/StillImage" />
        <dc:title></dc:title>
      </cc:Work>
    </rdf:RDF>
  </metadata>
  <defs
     id="defs6">
    <inkscape:path-effect
       effect="mirror_symmetry"
       start_point="287.88867,74.767574"
       end_point="287.88867,486.14453"
       center_point="287.88867,280.45605"
       id="path-effect4868"
       is_visible="true"
       mode="free"
       discard_orig_path="false"
       fuse_paths="false"
       oposite_fuse="false" />
  </defs>
  <sodipodi:namedview
     pagecolor="#ffffff"
     bordercolor="#666666"
     borderopacity="1"
     objecttolerance="10"
     gridtolerance="10"
     guidetolerance="10"
     inkscape:pageopacity="0"
     inkscape:pageshadow="2"
     inkscape:window-width="1640"
     inkscape:window-height="1050"
     id="namedview4"
     showgrid="false"
     inkscape:snap-object-midpoints="true"
     inkscape:snap-center="true"
     inkscape:zoom="4"
     inkscape:cx="28.199937"
     inkscape:cy="71.086475"
     inkscape:window-x="1920"
     inkscape:window-y="0"
     inkscape:window-maximized="1"
     inkscape:current-layer="svg2"
     showguides="true"
     inkscape:guide-bbox="true"
     inkscape:snap-nodes="true"
     inkscape:snap-others="true"
     inkscape:snap-global="true"
     inkscape:snap-bbox="true" />
  <g
     id="g1056"
     transform="matrix(0.125,0,0,0.125,13.597874,14.836853)">
    <g
       transform="translate(36.217027,-98.694834)"
       id="g1038">
      <g
         id="g1024">
        <g
           id="g1016">
          <path
             inkscape:connector-curvature="0"
             style="opacity:1;fill:#000000;fill-opacity:1;stroke:none;stroke-width:1;stroke-miterlimit:4;stroke-dasharray:none;stroke-opacity:1"
             d="M 254.99382,105.74066 A 274.26123,274.26123 0 0 0 -19.256186,380.00043 274.26123,274.26123 0 0 0 254.99382,654.26215 Z"
             id="path4870-7" />
          <path
             inkscape:connector-curvature="0"
             style="opacity:1;fill:#ffcc00;fill-opacity:1;stroke:none;stroke-width:1.01460803;stroke-miterlimit:4;stroke-dasharray:none;stroke-opacity:1"
             d="m 254.99374,164.83054 c -26.80293,0.33935 -48.35704,22.1557 -48.37222,48.96078 0.0224,20.1983 12.4383,38.31261 31.26855,45.61971 -43.64604,-6.66415 -90.0019,-38.01181 -159.778966,-93.62533 A 278.26763,278.26763 0 0 0 57.565292,184.52821 C 263.51212,349.48287 263.58341,350.0915 48.257453,566.09413 a 278.26763,278.26763 0 0 0 14.864403,15.32018 C 182.7371,465.86165 223.7032,447.75079 254.99374,442.48238 Z"
             id="path4870" />
        </g>
        <g
           id="g1012">
          <path
             inkscape:connector-curvature="0"
             style="opacity:1;fill:#ffcc00;fill-opacity:1;stroke:none;stroke-width:1;stroke-miterlimit:4;stroke-dasharray:none;stroke-opacity:1"
             d="M 254.99449,105.73785 V 654.26129 A 274.26123,274.26123 0 0 0 529.25619,379.99957 274.26123,274.26123 0 0 0 254.99449,105.73785 Z"
             id="path4870-7-7" />
          <path
             inkscape:connector-curvature="0"
             style="opacity:1;fill:#000000;fill-opacity:1;stroke:none;stroke-width:1.01460803;stroke-miterlimit:4;stroke-dasharray:none;stroke-opacity:1"
             d="m 254.99442,164.82769 v 277.65383 c 31.3032,5.27289 72.29285,23.40208 192.01852,139.08055 a 278.26763,278.26763 0 0 0 14.72764,-15.45098 C 246.37182,350.06547 246.45838,349.48737 452.4764,184.47582 a 278.26763,278.26763 0 0 0 -20.54581,-18.74251 c -69.81294,55.6455 -116.18295,87.00867 -159.8424,93.67488 18.83027,-7.3071 31.24613,-25.42142 31.26856,-45.61972 -0.0152,-26.80175 -21.56401,-48.61616 -48.36233,-48.96078 z"
             id="path4870-4" />
        </g>
      </g>
      <g
         id="g982">
        <path
           inkscape:connector-curvature="0"
           id="path5043"
           d="m 5.965828,318.87457 h 23.334524 v 26.1875 h 46.492274 v -26.1875 h 23.33453 v 73.125 h -23.33453 v -27.5625 H 29.300352 v 27.5625 H 5.965828 Z"
           style="fill:#ffcc00;fill-opacity:1;stroke:none;stroke-width:1px;stroke-linecap:butt;stroke-linejoin:miter;stroke-opacity:1" />
        <path
           inkscape:connector-curvature="0"
           id="path5045"
           d="m 109.73376,318.87457 h 77.60497 v 17.2036 H 132.8915 v 13.6714 h 52.32591 v 17.25 H 132.8915 v 25 h -23.15774 z"
           style="fill:#ffcc00;fill-opacity:1;stroke:none;stroke-width:1px;stroke-linecap:butt;stroke-linejoin:miter;stroke-opacity:1" />
        <path
           inkscape:connector-curvature="0"
           id="path5047"
           d="m 322.21934,318.87457 h 80.61018 v 16.14294 h -57.98276 v 11.84404 h 54.97755 v 15.73312 h -54.97755 v 11.84404 h 57.98276 v 17.56086 h -80.61018 z"
           style="fill:#110e00;fill-opacity:1;stroke:none;stroke-width:1px;stroke-linecap:butt;stroke-linejoin:miter;stroke-opacity:1" />
        <path
           sodipodi:nodetypes="cscccccccccccccccccscc"
           inkscape:connector-curvature="0"
           id="path5049"
           d="m 412.37546,368.40582 c 0,12.72792 -0.0182,23.59375 21.38998,23.59375 h 45.69677 c 11.64721,-0.30218 23.62779,-0.069 24.57197,-17.56086 v -11.84404 c -0.99415,-9.12091 -7.65448,-15.57738 -24.57197,-15.73312 H 440.5486 c -8.48813,0 -8.31613,-13.23698 0,-13.23698 h 30.875 c 8.03861,0 8.03861,4.31514 8.03861,7.84529 h 21.56676 v -6.45235 c -1.10316,-10.9733 -8.1307,-16.50258 -21.56676,-16.14294 h -45.69677 c -11.12877,-0.21731 -20.1809,2.47269 -21.38998,16.14294 v 14.73206 c 0,9.21847 6.21059,12.8451 21.38998,12.8451 h 40.78316 c 8.85717,0 8.88971,14.1549 0,14.1549 h -33.375 c -7.40816,0 -7.40816,-8.34375 -7.40816,-8.34375 z"
           style="fill:#110e00;fill-opacity:1;stroke:none;stroke-width:1px;stroke-linecap:butt;stroke-linejoin:miter;stroke-opacity:1" />
      </g>
    </g>
    <circle
       transform="scale(1,-1)"
       r="280"
       cy="-281.30518"
       cx="291.21701"
       id="path1040"
       style="opacity:1;fill:none;fill-opacity:1;stroke:#000000;stroke-width:20;stroke-miterlimit:4;stroke-dasharray:none;stroke-opacity:0.98469388" />
  </g>
</svg>
