<?xml version="1.0" encoding="UTF-8" standalone="no"?>
<svg
   xmlns:dc="http://purl.org/dc/elements/1.1/"
   xmlns:cc="http://creativecommons.org/ns#"
   xmlns:rdf="http://www.w3.org/1999/02/22-rdf-syntax-ns#"
   xmlns:svg="http://www.w3.org/2000/svg"
   xmlns="http://www.w3.org/2000/svg"
   xmlns:sodipodi="http://sodipodi.sourceforge.net/DTD/sodipodi-0.dtd"
   xmlns:inkscape="http://www.inkscape.org/namespaces/inkscape"
   viewBox="0 0 100 100"
   version="1.1"
   id="svg725"
   sodipodi:docname="javascript-icon.svg"
   width="100"
   height="100"
   inkscape:version="0.92.4 (5da689c313, 2019-01-14)">
  <metadata
     id="metadata731">
    <rdf:RDF>
      <cc:Work
         rdf:about="">
        <dc:format>image/svg+xml</dc:format>
        <dc:type
           rdf:resource="http://purl.org/dc/dcmitype/StillImage" />
        <dc:title></dc:title>
      </cc:Work>
    </rdf:RDF>
  </metadata>
  <defs
     id="defs729" />
  <sodipodi:namedview
     pagecolor="#ffffff"
     bordercolor="#666666"
     borderopacity="1"
     objecttolerance="10"
     gridtolerance="10"
     guidetolerance="10"
     inkscape:pageopacity="0"
     inkscape:pageshadow="2"
     inkscape:window-width="1882"
     inkscape:window-height="1080"
     id="namedview727"
     showgrid="false"
     fit-margin-top="0"
     fit-margin-left="0"
     fit-margin-right="0"
     fit-margin-bottom="0"
     inkscape:zoom="6.3106227"
     inkscape:cx="17.813538"
     inkscape:cy="25.513722"
     inkscape:window-x="38"
     inkscape:window-y="0"
     inkscape:window-maximized="1"
     inkscape:current-layer="svg725" />
  <rect
     width="90"
     height="90"
     id="rect721"
     x="5"
     y="5"
     style="fill:#f7df1e;stroke-width:3.74999952" />
  <path
     d="m 65.457136,75.312875 c 1.812859,2.959988 4.171433,5.135696 8.342861,5.135696 3.504285,0 5.742855,-1.751437 5.742855,-4.171425 0,-2.899987 -2.300002,-3.927146 -6.157143,-5.614312 L 71.271425,69.755713 C 65.16857,67.155725 61.114284,63.898584 61.114284,57.012875 c 0,-6.3429 4.832854,-11.171438 12.38571,-11.171438 5.377144,0 9.242857,1.871401 12.028571,6.771413 l -6.585709,4.228571 c -1.450001,-2.600021 -3.014291,-3.624258 -5.442862,-3.624258 -2.477145,0 -4.047143,1.571437 -4.047143,3.624258 0,2.537179 1.571434,3.564304 5.200002,5.135704 l 2.114287,0.905737 c 7.185713,3.081409 11.242856,6.222859 11.242856,13.285725 0,7.614259 -5.98143,11.785725 -14.01429,11.785725 -7.854281,0 -12.928571,-3.742878 -15.411424,-8.648587 z m -29.87571,0.732863 c 1.328573,2.357099 2.537145,4.349958 5.442859,4.349958 2.77857,0 4.531429,-1.087125 4.531429,-5.314275 V 46.324287 h 8.457142 v 28.871397 c 0,8.757191 -5.134286,12.742875 -12.628571,12.742875 -6.771431,0 -10.692859,-3.504263 -12.687143,-7.724959 z"
     id="path723"
     inkscape:connector-curvature="0"
     style="stroke-width:3.74999952" />
</svg>
