<?xml version="1.0" encoding="UTF-8" standalone="no"?>
<!-- Created with Inkscape (http://www.inkscape.org/) -->

<svg
   xmlns:dc="http://purl.org/dc/elements/1.1/"
   xmlns:cc="http://creativecommons.org/ns#"
   xmlns:rdf="http://www.w3.org/1999/02/22-rdf-syntax-ns#"
   xmlns:svg="http://www.w3.org/2000/svg"
   xmlns="http://www.w3.org/2000/svg"
   xmlns:sodipodi="http://sodipodi.sourceforge.net/DTD/sodipodi-0.dtd"
   xmlns:inkscape="http://www.inkscape.org/namespaces/inkscape"
   version="1.1"
   viewBox="0 0 100 99.999998"
   id="svg56"
   sodipodi:docname="karaoke-icon.svg"
   width="100"
   height="100"
   inkscape:version="0.92.4 (5da689c313, 2019-01-14)">
  <defs
     id="defs60" />
  <sodipodi:namedview
     pagecolor="#ffffff"
     bordercolor="#666666"
     borderopacity="1"
     objecttolerance="10"
     gridtolerance="10"
     guidetolerance="10"
     inkscape:pageopacity="0"
     inkscape:pageshadow="2"
     inkscape:window-width="1888"
     inkscape:window-height="1033"
     id="namedview58"
     showgrid="false"
     inkscape:zoom="1.825962"
     inkscape:cx="85.47615"
     inkscape:cy="127.23192"
     inkscape:window-x="38"
     inkscape:window-y="0"
     inkscape:window-maximized="0"
     inkscape:current-layer="svg56" />
  <metadata
     id="metadata2">
    <rdf:RDF>
      <cc:Work
         rdf:about="">
        <dc:format>image/svg+xml</dc:format>
        <dc:type
           rdf:resource="http://purl.org/dc/dcmitype/StillImage" />
        <dc:title></dc:title>
      </cc:Work>
    </rdf:RDF>
  </metadata>
  <path
     style="fill:#000000;stroke-width:0.56338775"
     d="m 17.095682,93.923378 c -1.09378,-0.578441 -3.18897,-2.33491 -4.65599,-3.903268 -4.9322403,-5.27296 -6.2263803,-2.778201 14.5904,-28.12635 10.10071,-12.299411 18.52962,-22.417754 18.73091,-22.485208 0.20128,-0.06745 1.25299,1.42496 2.33711,3.316466 2.37111,4.136945 8.66874,10.13596 12.47226,11.880862 1.50801,0.691812 2.67802,1.412463 2.60003,1.60144 -0.22236,0.538808 -43.41608,38.82058 -43.77016,38.792664 -0.17374,-0.01369 -1.21079,-0.498165 -2.30456,-1.076606 z m 49.0501,-42.021061 c -5.87747,-1.643317 -12.3907,-7.194501 -15.28706,-13.029062 -1.14122,-2.298955 -1.35142,-3.557185 -1.35142,-8.089606 0,-4.652794 0.19193,-5.740184 1.4419,-8.169124 0.79306,-1.54104 1.71501,-2.8019 2.0488,-2.8019 0.33378,0 1.82676,1.64791 3.31773,3.66202 4.11711,5.5617 15.65247,16.739084 21.50742,20.839989 l 5.21696,3.654048 -1.27324,0.980847 c -4.23794,3.264713 -10.36389,4.422678 -15.62109,2.952788 z M 82.090142,40.244101 C 76.594372,36.571776 65.422422,25.797585 60.934512,19.841685 l -3.37897,-4.48424 1.21031,-0.98005 c 0.66568,-0.53903 2.65769,-1.52332 4.4267,-2.18731 4.35956,-1.63634 11.01866,-1.41096 14.92706,0.50522 4.25144,2.08435 8.56973,6.40348 10.6704,10.67244 1.63013,3.31275 1.84171,4.2738 1.8198,8.265853 -0.0205,3.728686 -0.30436,5.131967 -1.62625,8.038445 -0.88081,1.936645 -1.79913,3.521173 -2.04072,3.521173 -0.24159,0 -2.4253,-1.327099 -4.8527,-2.949115 z m -68.48992,0.178087 c -1.58925,-1.42025 -1.83263,-1.992207 -1.78651,-4.198405 0.0948,-4.538161 4.0899,-8.242038 8.88997,-8.242038 1.55506,0 1.89284,-0.19449 1.71229,-0.98593 -2.53871,-11.12787 -4.12328,-19.3430701 -3.86217,-20.0235001 0.45325,-1.18114 3.3277,-2.28729 4.91108,-1.88988 0.71707,0.17997 2.94033,1.40832 4.94058,2.72968 3.14048,2.07458 4.04049,2.3997801 6.5946,2.3828801 3.30205,-0.0219 3.61229,0.46449 1.78127,2.79226 -2.11804,2.69265 -4.12803,3.33757 -9.06089,2.90727 -2.42587,-0.21161 -4.41067,-0.22321 -4.41067,-0.0257 0,0.19743 0.87745,4.37077 1.94988,9.27409 2.12147,9.699594 2.07626,11.330906 -0.38711,13.968704 -1.91041,2.045678 -4.02678,2.95489 -6.87809,2.95489 -2.02642,0 -2.93459,-0.339824 -4.39423,-1.644253 z"
     id="path939"
     inkscape:connector-curvature="0" />
</svg>
