<?xml version="1.0" encoding="UTF-8" standalone="no"?>
<!-- Created with Inkscape (http://www.inkscape.org/) -->

<svg
   xmlns:dc="http://purl.org/dc/elements/1.1/"
   xmlns:cc="http://creativecommons.org/ns#"
   xmlns:rdf="http://www.w3.org/1999/02/22-rdf-syntax-ns#"
   xmlns:svg="http://www.w3.org/2000/svg"
   xmlns="http://www.w3.org/2000/svg"
   xmlns:sodipodi="http://sodipodi.sourceforge.net/DTD/sodipodi-0.dtd"
   xmlns:inkscape="http://www.inkscape.org/namespaces/inkscape"
   width="100"
   height="100"
   viewBox="0 0 100 100"
   id="svg2"
   version="1.1"
   inkscape:version="0.92.4 (5da689c313, 2019-01-14)"
   sodipodi:docname="klf-logo.svg"
   inkscape:export-filename="/tmp/LinuxFestLogo-250.png"
   inkscape:export-xdpi="90"
   inkscape:export-ydpi="90">
  <defs
     id="defs4" />
  <sodipodi:namedview
     id="base"
     pagecolor="#ffffff"
     bordercolor="#666666"
     borderopacity="1.0"
     inkscape:pageopacity="0.0"
     inkscape:pageshadow="2"
     inkscape:zoom="11.023062"
     inkscape:cx="65.235717"
     inkscape:cy="45.876534"
     inkscape:document-units="px"
     inkscape:current-layer="layer1"
     showgrid="false"
     inkscape:window-width="2498"
     inkscape:window-height="1417"
     inkscape:window-x="1974"
     inkscape:window-y="-8"
     inkscape:window-maximized="1"
     units="px"
     inkscape:snap-page="true"
     inkscape:pagecheckerboard="true"
     inkscape:snap-global="false" />
  <metadata
     id="metadata7">
    <rdf:RDF>
      <cc:Work
         rdf:about="">
        <dc:format>image/svg+xml</dc:format>
        <dc:type
           rdf:resource="http://purl.org/dc/dcmitype/StillImage" />
        <dc:title />
      </cc:Work>
    </rdf:RDF>
  </metadata>
  <g
     inkscape:groupmode="layer"
     id="layer2"
     inkscape:label="Black"
     style="display:inline"
     transform="translate(0,-150)" />
  <g
     inkscape:label="White"
     inkscape:groupmode="layer"
     id="layer1"
     transform="translate(0,-952.36222)"
     style="display:inline">
    <path
       sodipodi:type="inkscape:offset"
       inkscape:radius="-0.51662368"
       inkscape:original="M 48.376953 957.36133 C 44.665908 957.36133 41.636696 958.63812 39.638672 960.93945 C 37.643752 963.23722 36.722659 966.41787 36.722656 970.05273 C 36.722656 974.66318 34.657947 978.96766 32.447266 983.49609 C 30.236549 988.02457 27.878906 992.78607 27.878906 998.29883 C 27.878906 1000.8608 28.26736 1003.2236 28.927734 1005.4062 C 28.834794 1005.4882 28.736272 1005.5567 28.646484 1005.6465 C 27.400239 1006.8922 26.561291 1008.6322 26.205078 1010.4492 C 26.07775 1011.0987 26.049535 1011.779 26.083984 1012.4629 C 21.633303 1012.9477 17.894531 1016.115 17.894531 1020.375 L 17.894531 1039.3496 C 17.894531 1043.98 22.299528 1047.3613 27.25 1047.3613 L 72.75 1047.3613 C 77.700474 1047.3613 82.105469 1043.98 82.105469 1039.3496 L 82.105469 1020.4961 C 82.105389 1019.3914 81.188754 1018.4747 80.083984 1018.4746 L 76.421875 1018.4746 C 76.213992 1018.4746 75.935547 1018.2999 75.935547 1017.8086 L 75.935547 1014.4648 C 75.935704 1013.4568 75.175334 1012.5913 74.175781 1012.4609 C 73.734272 1012.4029 73.25817 1012.3613 72.75 1012.3613 L 70.679688 1012.3613 C 70.703298 1011.7119 70.669833 1011.0667 70.548828 1010.4492 C 70.192754 1008.632 69.353621 1006.8922 68.107422 1005.6465 C 68.017902 1005.5575 67.920924 1005.4886 67.828125 1005.4062 C 68.48833 1003.2236 68.876953 1000.8607 68.876953 998.29883 C 68.876953 992.84172 66.507789 988.30856 64.302734 983.89844 C 62.097375 979.48772 60.033203 975.19369 60.033203 970.05273 C 60.033203 966.41776 59.112211 963.23714 57.117188 960.93945 C 55.119017 958.63815 52.088509 957.36328 48.376953 957.36328 L 48.376953 957.36133 z "
       style="opacity:1;fill:#000000;fill-opacity:1;stroke:none;stroke-width:0;stroke-linecap:round;stroke-linejoin:round;stroke-miterlimit:10;stroke-dasharray:none;stroke-dashoffset:0;stroke-opacity:1"
       id="rect4600"
       d="m 48.365234,957.88086 c -3.586721,0.003 -6.44755,1.22143 -8.335937,3.39648 -1.891802,2.179 -2.78906,5.22781 -2.789063,8.77539 0,4.76469 -2.116456,9.13947 -4.328125,13.66993 -2.21161,4.53031 -4.515625,9.2107 -4.515625,14.57617 0,2.50977 0.378684,4.81957 1.025391,6.95707 a 0.51667534,0.51667534 0 0 1 -0.152344,0.5371 c -0.121729,0.1074 -0.208749,0.1696 -0.257812,0.2187 -1.158111,1.1576 -1.960098,2.8093 -2.298828,4.5371 -0.116998,0.5968 -0.146152,1.2361 -0.113282,1.8887 a 0.51667534,0.51667534 0 0 1 -0.458984,0.5391 c -4.240841,0.4619 -7.728516,3.4407 -7.728516,7.3984 v 18.9746 c 0,4.3028 4.122664,7.4942 8.837891,7.4942 h 45.5 c 4.715229,0 8.837891,-3.1914 8.837891,-7.4942 v -18.8535 c -6e-5,-0.8189 -0.684895,-1.5038 -1.503907,-1.5039 h -3.662109 c -0.497322,0 -1.003906,-0.4971 -1.003906,-1.1836 v -3.3438 c 1.16e-4,-0.7481 -0.566486,-1.3953 -1.308594,-1.4921 -0.425585,-0.056 -0.8794,-0.096 -1.359375,-0.096 h -2.070312 a 0.51667534,0.51667534 0 0 1 -0.515626,-0.5352 c 0.02251,-0.6193 -0.01164,-1.2245 -0.123046,-1.793 -0.338405,-1.727 -1.139778,-3.3776 -2.296875,-4.5351 l -0.002,-0 c -0.05191,-0.051 -0.139272,-0.1135 -0.257813,-0.2187 a 0.51667534,0.51667534 0 0 1 -0.150391,-0.5371 c 0.646555,-2.1375 1.025391,-4.4474 1.025391,-6.95707 0,-5.30759 -2.31161,-9.75407 -4.519531,-14.16992 -2.207674,-4.41535 -4.324219,-8.79693 -4.324219,-14.07618 0,-3.5477 -0.897176,-6.59648 -2.789063,-8.77539 -1.890557,-2.17736 -4.756355,-3.39648 -8.349609,-3.39648 a 0.51667534,0.51667534 0 0 1 -0.01172,0 z" />
    <path
       inkscape:connector-curvature="0"
       style="fill:#ffffff;fill-opacity:1;fill-rule:nonzero;stroke:none;stroke-width:0.38459611"
       d="m 34.504933,1026.5106 2.404609,-2.4644 h 1.245742 l -2.79391,2.7962 2.808582,3.3818 h -1.247999 l -2.224079,-2.7499 -0.192945,0.1929 v 2.557 h -0.93205 v -6.178 h 0.93205 z m 0,0"
       id="path4326" />
    <path
       inkscape:connector-curvature="0"
       style="fill:#ffffff;fill-opacity:1;fill-rule:nonzero;stroke:none;stroke-width:0.38459611"
       d="m 42.251345,1027.8466 -0.915135,-2.0999 -0.960244,2.0999 z m 0.380267,0.8768 h -2.643816 l -0.689448,1.5008 h -1.004267 l 3.057934,-6.5673 2.949625,6.5673 h -1.021207 z m 0,0"
       id="path4328" />
    <path
       inkscape:connector-curvature="0"
       style="fill:#ffffff;fill-opacity:1;fill-rule:nonzero;stroke:none;stroke-width:0.38459611"
       d="m 45.073451,1030.2242 v -6.5989 l 4.50454,4.7133 v -4.2924 h 0.932053 v 6.5537 l -4.504543,-4.702 v 4.3263 z m 0,0"
       id="path4330" />
    <path
       inkscape:connector-curvature="0"
       style="fill:#ffffff;fill-opacity:1;fill-rule:nonzero;stroke:none;stroke-width:0.38459611"
       d="m 55.483991,1024.9625 -0.756008,0.4479 c -0.141058,-0.246 -0.276459,-0.4051 -0.405107,-0.4807 -0.133135,-0.085 -0.303546,-0.1286 -0.515666,-0.1286 -0.25841,0 -0.472796,0.075 -0.643183,0.2212 -0.171519,0.1444 -0.257276,0.3261 -0.257276,0.5439 0,0.3024 0.225689,0.545 0.671397,0.7289 l 0.617231,0.2527 c 0.50099,0.202 0.868849,0.4503 1.101306,0.7425 0.231323,0.2923 0.347544,0.6511 0.347544,1.0754 0,0.5687 -0.189567,1.0381 -0.567594,1.4094 -0.381373,0.3746 -0.856434,0.5607 -1.420629,0.5607 -0.537112,0 -0.980582,-0.1601 -1.329257,-0.4784 -0.344148,-0.3193 -0.558556,-0.7662 -0.643183,-1.3416 l 0.943353,-0.2088 c 0.044,0.3622 0.117348,0.6139 0.224531,0.7527 0.191833,0.2662 0.472796,0.3994 0.841785,0.3994 0.290001,0 0.530339,-0.097 0.723306,-0.2911 0.190698,-0.1941 0.287732,-0.4412 0.287732,-0.7402 0,-0.1197 -0.01688,-0.2302 -0.05077,-0.3307 -0.03158,-0.098 -0.08463,-0.1906 -0.154604,-0.2753 -0.07109,-0.083 -0.162484,-0.1625 -0.275328,-0.2347 -0.112822,-0.074 -0.24598,-0.1444 -0.399446,-0.2099 l -0.595785,-0.2482 c -0.846296,-0.3577 -1.269452,-0.8802 -1.269452,-1.5674 0,-0.4648 0.177155,-0.8519 0.533738,-1.1645 0.353183,-0.3137 0.795518,-0.4716 1.322484,-0.4716 0.713138,0 1.268294,0.3464 1.668878,1.037"
       id="path4332" />
    <path
       inkscape:connector-curvature="0"
       style="fill:#ffffff;fill-opacity:1;fill-rule:nonzero;stroke:none;stroke-width:0.38459611"
       d="m 59.952432,1027.8466 -0.915135,-2.0999 -0.960263,2.0999 z m 0.380267,0.8768 h -2.643815 l -0.688334,1.5008 h -1.003139 l 3.056825,-6.5673 2.948475,6.5673 H 60.98152 Z m 0,0"
       id="path4334" />
    <path
       inkscape:connector-curvature="0"
       style="fill:#ffffff;fill-opacity:1;fill-rule:nonzero;stroke:none;stroke-width:0.38459611"
       d="m 66.268047,1024.9625 -0.756027,0.4479 c -0.141058,-0.246 -0.276459,-0.4051 -0.403976,-0.4807 -0.13314,-0.085 -0.305785,-0.1286 -0.516801,-0.1286 -0.258387,0 -0.472796,0.075 -0.64431,0.2212 -0.171522,0.1444 -0.256149,0.3261 -0.256149,0.5439 0,0.3024 0.224554,0.545 0.672532,0.7289 l 0.614965,0.2527 c 0.502144,0.202 0.870007,0.4503 1.102437,0.7425 0.230193,0.2923 0.346433,0.6511 0.346433,1.0754 0,0.5687 -0.189591,1.0381 -0.567591,1.4094 -0.381396,0.3746 -0.854196,0.5607 -1.420652,0.5607 -0.535977,0 -0.980562,-0.1601 -1.328102,-0.4784 -0.343033,-0.3193 -0.558557,-0.7662 -0.644311,-1.3416 l 0.944453,-0.2088 c 0.04288,0.3622 0.116221,0.6139 0.223427,0.7527 0.192964,0.2662 0.472796,0.3994 0.841781,0.3994 0.290004,0 0.531478,-0.097 0.723305,-0.2911 0.191806,-0.1941 0.288867,-0.4412 0.288867,-0.7402 0,-0.1197 -0.018,-0.2302 -0.05192,-0.3307 -0.03158,-0.098 -0.08463,-0.1906 -0.15571,-0.2753 -0.06995,-0.083 -0.161354,-0.1625 -0.27306,-0.2347 -0.112844,-0.074 -0.246003,-0.1444 -0.40058,-0.2099 l -0.59579,-0.2482 c -0.84518,-0.3577 -1.269447,-0.8802 -1.269447,-1.5674 0,-0.4648 0.177156,-0.8519 0.533734,-1.1645 0.354317,-0.3137 0.795503,-0.4716 1.323599,-0.4716 0.712023,0 1.268317,0.3464 1.668897,1.037"
       id="path4336" />
    <path
       inkscape:connector-curvature="0"
       style="fill:#ffffff;fill-opacity:1;fill-rule:nonzero;stroke:none;stroke-width:0.38459611"
       d="m 29.218416,1032.2643 v 5.3012 h 1.81784 v 0.8756 H 28.28749 v -6.1768 z m 0,0"
       id="path4338" />
    <path
       inkscape:connector-curvature="0"
       style="fill:#ffffff;fill-opacity:1;fill-rule:nonzero;stroke:none;stroke-width:0.38459611"
       d="m 32.854087,1038.4411 h -0.9343 v -6.1768 h 0.9343 z m 0,0"
       id="path4340" />
    <path
       inkscape:connector-curvature="0"
       style="fill:#ffffff;fill-opacity:1;fill-rule:nonzero;stroke:none;stroke-width:0.38459611"
       d="m 34.337922,1038.4411 v -6.5977 l 4.505676,4.7133 v -4.2924 h 0.929788 v 6.5537 l -4.503413,-4.702 v 4.3251 z m 0,0"
       id="path4342" />
    <path
       inkscape:connector-curvature="0"
       style="fill:#ffffff;fill-opacity:1;fill-rule:nonzero;stroke:none;stroke-width:0.38459611"
       d="m 42.188164,1032.2643 v 3.718 c 0,0.5304 0.08687,0.9174 0.259518,1.1623 0.260652,0.3554 0.622869,0.5326 1.0934,0.5326 0.470552,0 0.83615,-0.1772 1.095691,-0.5326 0.173761,-0.2359 0.258387,-0.624 0.258387,-1.1623 v -3.718 h 0.934319 v 3.9764 c 0,0.6511 -0.203109,1.1871 -0.608197,1.6091 -0.457015,0.4694 -1.01781,0.7042 -1.6802,0.7042 -0.665736,0 -1.224294,-0.2348 -1.676778,-0.7042 -0.406215,-0.422 -0.609323,-0.958 -0.609323,-1.6091 v -3.9764 z m 0,0"
       id="path4344" />
    <path
       inkscape:connector-curvature="0"
       style="fill:#ffffff;fill-opacity:1;fill-rule:nonzero;stroke:none;stroke-width:0.38459611"
       d="m 48.600808,1035.2128 -1.699357,-2.9485 h 1.059551 l 1.181425,2.092 1.238992,-2.092 h 1.069712 l -1.780607,2.9485 1.867476,3.2283 h -1.042629 l -1.368728,-2.364 -1.409379,2.364 h -1.057305 z m 0,0"
       id="path4346" />
    <path
       inkscape:connector-curvature="0"
       style="fill:#ffffff;fill-opacity:1;fill-rule:nonzero;stroke:none;stroke-width:0.38459611"
       d="m 57.985635,1033.1399 h -2.151838 v 1.485 h 2.073981 v 0.8756 h -2.073981 v 2.9406 h -0.934319 v -6.1768 h 3.086157 z m 0,0"
       id="path4348" />
    <path
       inkscape:connector-curvature="0"
       style="fill:#ffffff;fill-opacity:1;fill-rule:nonzero;stroke:none;stroke-width:0.38459611"
       d="M 62.473261,1033.1399 H 59.9987 v 1.485 h 2.404587 v 0.8756 H 59.9987 v 2.065 h 2.474561 v 0.8756 h -3.408872 v -6.1768 h 3.408872 z m 0,0"
       id="path4350" />
    <path
       inkscape:connector-curvature="0"
       style="fill:#ffffff;fill-opacity:1;fill-rule:nonzero;stroke:none;stroke-width:0.38459611"
       d="m 67.192189,1033.1794 -0.756023,0.4491 c -0.141036,-0.246 -0.276456,-0.4062 -0.405085,-0.4807 -0.132028,-0.086 -0.304672,-0.1286 -0.515688,-0.1286 -0.259518,0 -0.472796,0.074 -0.644295,0.2211 -0.171514,0.1445 -0.256146,0.325 -0.256146,0.5439 0,0.3013 0.224531,0.5451 0.67251,0.729 l 0.616103,0.2527 c 0.501009,0.202 0.867738,0.4503 1.100195,0.7425 0.2313,0.2923 0.348671,0.6511 0.348671,1.0754 0,0.5675 -0.189587,1.0381 -0.56759,1.4093 -0.3814,0.3735 -0.857569,0.5609 -1.420653,0.5609 -0.537111,0 -0.980563,-0.1591 -1.329234,-0.4785 -0.344171,-0.3193 -0.559691,-0.7662 -0.644317,-1.3416 l 0.943325,-0.2088 c 0.04403,0.3622 0.118487,0.6127 0.225694,0.7515 0.191833,0.2675 0.471661,0.4006 0.84065,0.4006 0.290004,0 0.530338,-0.097 0.723305,-0.2923 0.191829,-0.1941 0.287736,-0.44 0.287736,-0.7391 0,-0.1196 -0.01688,-0.2301 -0.05077,-0.3295 -0.03161,-0.1004 -0.08463,-0.1918 -0.155735,-0.2764 -0.06882,-0.085 -0.16135,-0.1625 -0.274194,-0.2358 -0.11171,-0.073 -0.244865,-0.1434 -0.399445,-0.2099 l -0.59579,-0.2471 c -0.846288,-0.3577 -1.268313,-0.8802 -1.268313,-1.5685 0,-0.4638 0.176026,-0.8519 0.532608,-1.1634 0.354313,-0.3148 0.795514,-0.4716 1.323591,-0.4716 0.712026,0 1.268317,0.3452 1.668897,1.0358"
       id="path4352" />
    <path
       inkscape:connector-curvature="0"
       style="fill:#ffffff;fill-opacity:1;fill-rule:nonzero;stroke:none;stroke-width:0.38459611"
       d="m 70.296396,1033.1399 v 5.3012 h -0.932051 v -5.3012 h -1.420636 v -0.8756 h 3.768807 v 0.8756 z m 0,0"
       id="path4354" />
    <path
       style="color:#000000;font-style:normal;font-variant:normal;font-weight:normal;font-stretch:normal;font-size:medium;line-height:normal;font-family:sans-serif;font-variant-ligatures:normal;font-variant-position:normal;font-variant-caps:normal;font-variant-numeric:normal;font-variant-alternates:normal;font-feature-settings:normal;text-indent:0;text-align:start;text-decoration:none;text-decoration-line:none;text-decoration-style:solid;text-decoration-color:#000000;letter-spacing:normal;word-spacing:normal;text-transform:none;writing-mode:lr-tb;direction:ltr;text-orientation:mixed;dominant-baseline:auto;baseline-shift:baseline;text-anchor:start;white-space:normal;shape-padding:0;clip-rule:nonzero;display:inline;overflow:visible;visibility:visible;opacity:1;isolation:auto;mix-blend-mode:normal;color-interpolation:sRGB;color-interpolation-filters:linearRGB;solid-color:#000000;solid-opacity:1;vector-effect:none;fill:#ffffff;fill-opacity:1;fill-rule:nonzero;stroke:none;stroke-width:2.02220631;stroke-linecap:round;stroke-linejoin:round;stroke-miterlimit:10;stroke-dasharray:none;stroke-dashoffset:0;stroke-opacity:1;color-rendering:auto;image-rendering:auto;shape-rendering:auto;text-rendering:auto;enable-background:accumulate"
       d="m 48.377486,957.36224 c -3.711045,0 -6.741024,1.27571 -8.739046,3.57705 -1.99492,2.29776 -2.916015,5.47901 -2.916021,9.11387 0,4.61045 -2.064943,8.91441 -4.275627,13.44284 -2.210715,4.52848 -4.56783,9.29043 -4.56783,14.80319 0,2.56201 0.387501,4.92421 1.047874,7.10681 -0.09294,0.082 -0.190398,0.1505 -0.280183,0.2403 -1.246244,1.2457 -2.085071,2.9852 -2.441285,4.8022 -0.127325,0.6495 -0.155386,1.33 -0.120937,2.0139 -4.450681,0.4848 -8.190696,3.652 -8.190696,7.912 v 18.9744 c 0,4.6304 4.406033,8.0134 9.356503,8.0134 H 72.74976 c 4.950474,0 9.356504,-3.3831 9.356504,-8.0134 v -18.852 c -8e-5,-1.1047 -0.91736,-2.022 -2.02213,-2.0221 h -3.661929 c -0.207883,0 -0.486003,-0.1742 -0.486003,-0.6655 v -3.3435 c 1.57e-4,-1.008 -0.761174,-1.8752 -1.760728,-2.0056 -0.441508,-0.058 -0.917542,-0.099 -1.425713,-0.099 h -2.069458 c 0.02361,-0.6494 -0.0097,-1.295 -0.130701,-1.9125 -0.356074,-1.8172 -1.195086,-3.5565 -2.441285,-4.8022 -0.08952,-0.089 -0.187383,-0.1579 -0.280182,-0.2403 0.660205,-2.1827 1.047874,-4.5449 1.047874,-7.10681 0,-5.45711 -2.368785,-9.9912 -4.57384,-14.40132 -2.205359,-4.41072 -4.268117,-8.70375 -4.268117,-13.84471 0,-3.63497 -0.921746,-6.81694 -2.916769,-9.11463 -1.998171,-2.3013 -5.028241,-3.57629 -8.739797,-3.57629 z m 0,1.01107 c 3.486436,0 6.184371,1.16437 7.976612,3.2285 1.792241,2.06414 2.668889,4.98695 2.668889,8.45135 0,5.41076 2.165696,9.87874 4.374781,14.29691 2.209082,4.41817 4.467172,8.78686 4.467172,13.94912 0,2.72331 -0.402783,5.22651 -1.163553,7.47031 0.24668,0.1864 0.481645,0.3818 0.691823,0.5919 1.066505,1.0661 1.843719,2.6466 2.164103,4.2817 0.177592,0.9063 0.210244,1.8568 0.0038,2.7289 h 3.188691 c 0.452735,0 0.883978,0.037 1.295008,0.091 0.503678,0.066 0.880444,0.4949 0.880363,1.0028 v 3.3435 c 0,0.9738 0.697058,1.6766 1.49707,1.6766 h 3.66193 c 0.55838,0 1.01102,0.4527 1.01106,1.011 v 18.852 c 0,3.9783 -3.84823,7.0024 -8.345431,7.0024 H 27.250239 c -4.497209,0 -8.345436,-3.0241 -8.345436,-7.0024 v -18.9744 c 0,-3.9618 3.816795,-6.9751 8.289849,-7.0001 -0.207069,-0.8726 -0.174855,-1.824 0.003,-2.7312 0.320528,-1.635 1.097596,-3.2156 2.164105,-4.2817 0.210163,-0.2101 0.445183,-0.4055 0.691822,-0.5919 -0.760924,-2.2439 -1.163554,-4.7468 -1.163554,-7.47031 0,-5.2217 2.254699,-9.83025 4.465672,-14.35925 2.210973,-4.52901 4.377786,-8.97874 4.377786,-13.88678 0,-3.4644 0.876045,-6.38721 2.668137,-8.45135 1.792083,-2.06413 4.489971,-3.2285 7.975862,-3.2285 z m -4.190744,8.17792 c -1.391304,0 -2.520159,1.69458 -2.520159,3.78436 0,1.1267 0.329572,2.13539 0.849569,2.82889 -0.114321,-0.37757 -0.183288,-0.79521 -0.183288,-1.24092 0,-1.60796 0.830047,-2.91001 1.852373,-2.91001 1.02458,0 1.855377,1.30205 1.855377,2.91001 0,0.44515 -0.06919,0.86221 -0.183283,1.23942 0.519017,-0.69347 0.848062,-1.7014 0.848062,-2.82738 0,-2.08978 -1.127348,-3.78437 -2.518651,-3.78437 z m 8.381488,0 c -1.392411,0 -2.518651,1.69458 -2.518651,3.78436 0,1.1267 0.328595,2.13539 0.848061,2.82889 -0.114086,-0.37756 -0.183283,-0.79517 -0.183283,-1.24092 0,-1.60796 0.829669,-2.91001 1.853123,-2.91001 1.024579,0 1.853871,1.30205 1.853871,2.91001 0,0.44573 -0.06918,0.86337 -0.183283,1.24092 0.519589,-0.6935 0.848815,-1.70219 0.848815,-2.82889 0,-2.08978 -1.127324,-3.78436 -2.518653,-3.78436 z M 42.504134,977.368 c -0.107318,-0.007 -0.148039,0.0231 -0.211078,0.10291 -0.08406,0.10636 -0.195294,0.41184 -0.195306,0.96825 1.2e-5,2.47663 -0.931249,5.17706 -2.161098,7.94957 -1.885883,8.76508 5.725904,14.08757 7.725727,16.31377 v -5.44218 c -0.644244,0.33269 -1.455405,0.23744 -1.995092,-0.30121 -0.192329,-0.19232 -0.319962,-0.47258 -0.434175,-0.79397 -0.114214,-0.32141 -0.206309,-0.68414 -0.280186,-1.02685 -0.147755,-0.68541 -0.220842,-1.295 -0.220842,-1.295 l -0.03304,-0.27343 0.274175,0.033 c 0,0 0.107848,0.0158 0.147976,0.021 -0.06336,-0.22002 -0.120897,-0.44438 -0.168261,-0.66403 -0.147757,-0.68529 -0.220843,-1.29426 -0.220843,-1.29426 l -0.03304,-0.27418 0.274175,0.0331 c 0,0 0.107849,0.0158 0.147977,0.021 -0.06336,-0.21998 -0.120897,-0.44429 -0.16826,-0.66403 -0.147755,-0.68555 -0.220843,-1.29502 -0.220843,-1.29502 l -0.03304,-0.27341 0.274175,0.033 c 0,0 0.107848,0.0158 0.147977,0.021 -0.06321,-0.21942 -0.120982,-0.44327 -0.168261,-0.66252 -0.147758,-0.68529 -0.220843,-1.29426 -0.220843,-1.29426 l -0.03304,-0.27418 0.274174,0.0331 c 0,0 0.60947,0.0732 1.295008,0.22084 0.407338,0.11418 0.447101,0.12736 0.404876,-0.25389 0,-0.27166 0.108187,-0.55967 0.254645,-0.8676 0.146454,-0.30793 0.338045,-0.63 0.52807,-0.92468 0.380046,-0.58934 0.758674,-1.07191 0.758674,-1.07191 l 0.170514,-0.21709 0.170515,0.21709 c 0,0 0.379188,0.48257 0.759427,1.07191 0.190121,0.29468 0.380785,0.61676 0.527316,0.92468 0.146531,0.30794 0.255399,0.5959 0.255399,0.8676 -0.09216,0.4325 0.07206,0.33127 0.404875,0.25315 0.685693,-0.14747 1.295009,-0.2201 1.295009,-0.2201 l 0.274174,-0.0331 -0.03304,0.27418 c 0,0 -0.0737,0.60901 -0.221593,1.29426 -0.04732,0.21924 -0.105056,0.44309 -0.168261,0.66252 0.04051,-0.005 0.148731,-0.021 0.148731,-0.021 l 0.274175,-0.033 -0.03304,0.27418 c 0,0 -0.0737,0.60947 -0.221593,1.29499 -0.04737,0.21957 -0.104971,0.44367 -0.168261,0.66328 0.04051,-0.005 0.148731,-0.021 0.148731,-0.021 l 0.274175,-0.0331 -0.03304,0.27418 c 0,0 -0.0737,0.60977 -0.221592,1.29501 -0.04737,0.21947 -0.104972,0.44364 -0.168261,0.66328 0.04051,-0.005 0.148731,-0.021 0.148731,-0.021 l 0.274175,-0.033 -0.03304,0.27418 c 0,0 -0.0737,0.60888 -0.221593,1.29425 -0.07395,0.34269 -0.166042,0.70547 -0.280186,1.02685 -0.11414,0.32137 -0.241457,0.60164 -0.433421,0.79397 -0.539538,0.53849 -1.351028,0.63423 -1.995842,0.30196 v 5.39334 c 2.027591,-2.2162 9.288654,-7.38314 7.765534,-15.81799 -1.256498,-2.82829 -2.215181,-5.66074 -2.215181,-8.39727 0,-0.55639 -0.111233,-0.86187 -0.195302,-0.96825 -0.08407,-0.10638 -0.128813,-0.12282 -0.344037,-0.0841 -0.430439,0.0774 -1.276355,0.63292 -2.094245,1.37087 -1.635775,1.47591 -3.307376,3.58306 -3.307376,3.58306 l -0.339526,0.42891 -0.339525,-0.42891 c 0,0 -1.671889,-2.10715 -3.307377,-3.58306 -0.817747,-0.73795 -1.663193,-1.29351 -2.093495,-1.37087 -0.05379,-0.01 -0.09718,-0.0165 -0.132955,-0.0188 z m 19.505481,20.49551 c -3.800568,3.55759 -10.851134,6.45779 -12.901997,6.02959 v 1.2424 h -7.69e-4 c 0.0027,0.225 -0.08763,0.422 -0.2276,0.5476 -0.139978,0.1256 -0.318503,0.1833 -0.494267,0.1833 -0.175761,0 -0.354283,-0.058 -0.494268,-0.1833 -0.139966,-0.1256 -0.230315,-0.3226 -0.2276,-0.5476 h -7.69e-4 v -1.2492 c -2.003404,0.5117 -9.206842,-2.216 -13.034956,-5.79444 -0.564691,1.65949 -0.92243,3.24084 -0.92243,4.68574 0,0.4798 0.02461,0.9457 0.06911,1.3994 0.367149,-0.066 0.739871,-0.1125 1.111723,-0.1247 1.247463,-0.041 2.474934,0.2609 3.372728,1.1576 l 0.06235,0.062 4.521258,6.8484 c 0.358232,0.3821 0.64804,0.8049 0.87586,1.2514 h 9.318191 c 0.227592,-0.4466 0.517728,-0.8692 0.87586,-1.2514 l 4.521254,-6.8469 0.06235,-0.062 c 0.897363,-0.8974 2.12514,-1.1987 3.372731,-1.1583 0.372162,0.012 0.745043,0.059 1.112471,0.1247 0.04454,-0.454 0.06911,-0.9201 0.06911,-1.4002 0,-1.5253 -0.406203,-3.17947 -1.040363,-4.91409 z"
       id="path5039"
       inkscape:connector-curvature="0"
       sodipodi:nodetypes="sscssccscsssssccssccscsccssssssssssccccsccssccsssssccccssscssscssscsssscssscsscccccccssccccccccccccccccccccccccccsccccccccccccccccccccccccccsccscccccccccccscccccsccccccccccccsc" />
  </g>
  <g
     inkscape:groupmode="layer"
     id="layer4"
     inkscape:label="Yellow"
     style="display:inline"
     transform="translate(0,-150)">
    <path
       style="color:#000000;font-style:normal;font-variant:normal;font-weight:normal;font-stretch:normal;font-size:medium;line-height:normal;font-family:sans-serif;font-variant-ligatures:normal;font-variant-position:normal;font-variant-caps:normal;font-variant-numeric:normal;font-variant-alternates:normal;font-feature-settings:normal;text-indent:0;text-align:start;text-decoration:none;text-decoration-line:none;text-decoration-style:solid;text-decoration-color:#000000;letter-spacing:normal;word-spacing:normal;text-transform:none;writing-mode:lr-tb;direction:ltr;text-orientation:mixed;dominant-baseline:auto;baseline-shift:baseline;text-anchor:start;white-space:normal;shape-padding:0;clip-rule:nonzero;display:inline;overflow:visible;visibility:visible;opacity:1;isolation:auto;mix-blend-mode:normal;color-interpolation:sRGB;color-interpolation-filters:linearRGB;solid-color:#000000;solid-opacity:1;vector-effect:none;fill:#f3cc11;fill-opacity:1;fill-rule:nonzero;stroke:none;stroke-width:1.73320997;stroke-linecap:butt;stroke-linejoin:miter;stroke-miterlimit:10;stroke-dasharray:none;stroke-dashoffset:0;stroke-opacity:1;color-rendering:auto;image-rendering:auto;shape-rendering:auto;text-rendering:auto;enable-background:accumulate"
       d="m 35.766188,203.48282 c 0.507594,0.0875 0.927841,0.28054 1.228905,0.56487 l 4.449148,6.7387 0.06235,0.0616 c 1.469821,1.46981 1.469821,3.8259 0,5.29571 -1.469808,1.47073 -3.826659,1.47073 -5.296462,0 l -0.06235,-0.0624 -6.738694,-4.4491 c -0.579089,-0.61243 -0.761246,-1.74061 -0.510792,-3.01818 0.254909,-1.30028 0.953297,-2.65514 1.688618,-3.39 0.73491,-0.73491 2.089841,-1.43309 3.390004,-1.68787 0.650081,-0.12739 1.263082,-0.14403 1.789273,-0.0533 z"
       id="path4406"
       inkscape:connector-curvature="0" />
    <path
       style="color:#000000;font-style:normal;font-variant:normal;font-weight:normal;font-stretch:normal;font-size:medium;line-height:normal;font-family:sans-serif;font-variant-ligatures:normal;font-variant-position:normal;font-variant-caps:normal;font-variant-numeric:normal;font-variant-alternates:normal;font-feature-settings:normal;text-indent:0;text-align:start;text-decoration:none;text-decoration-line:none;text-decoration-style:solid;text-decoration-color:#000000;letter-spacing:normal;word-spacing:normal;text-transform:none;writing-mode:lr-tb;direction:ltr;text-orientation:mixed;dominant-baseline:auto;baseline-shift:baseline;text-anchor:start;white-space:normal;shape-padding:0;clip-rule:nonzero;display:inline;overflow:visible;visibility:visible;opacity:1;isolation:auto;mix-blend-mode:normal;color-interpolation:sRGB;color-interpolation-filters:linearRGB;solid-color:#000000;solid-opacity:1;vector-effect:none;fill:#f3cc11;fill-opacity:1;fill-rule:nonzero;stroke:none;stroke-width:1.73320997;stroke-linecap:butt;stroke-linejoin:miter;stroke-miterlimit:10;stroke-dasharray:none;stroke-dashoffset:0;stroke-opacity:1;color-rendering:auto;image-rendering:auto;shape-rendering:auto;text-rendering:auto;enable-background:accumulate"
       d="m 60.988785,203.48282 c 0.52607,-0.0908 1.139139,-0.074 1.789272,0.0533 1.300265,0.25465 2.654401,0.95302 3.389253,1.68787 h 7.69e-4 c 0.735313,0.73485 1.433848,2.08978 1.68862,3.39 0.250326,1.27753 0.06805,2.40563 -0.511544,3.01818 l -6.738697,4.44914 -0.06234,0.0624 c -1.468565,1.4704 -3.824697,1.47101 -5.295711,0 -1.468796,-1.46973 -1.468796,-3.82597 0,-5.29571 l 0.0616,-0.0623 4.448396,-6.73644 c 0.30087,-0.28506 0.722275,-0.47868 1.230408,-0.56638 z"
       id="path5211"
       inkscape:connector-curvature="0" />
    <path
       style="color:#000000;font-style:normal;font-variant:normal;font-weight:normal;font-stretch:normal;font-size:medium;line-height:normal;font-family:sans-serif;font-variant-ligatures:normal;font-variant-position:normal;font-variant-caps:normal;font-variant-numeric:normal;font-variant-alternates:normal;font-feature-settings:normal;text-indent:0;text-align:start;text-decoration:none;text-decoration-line:none;text-decoration-style:solid;text-decoration-color:#000000;letter-spacing:normal;word-spacing:normal;text-transform:none;writing-mode:lr-tb;direction:ltr;text-orientation:mixed;dominant-baseline:auto;baseline-shift:baseline;text-anchor:start;white-space:normal;shape-padding:0;clip-rule:nonzero;display:inline;overflow:visible;visibility:visible;opacity:1;isolation:auto;mix-blend-mode:normal;color-interpolation:sRGB;color-interpolation-filters:linearRGB;solid-color:#000000;solid-opacity:1;vector-effect:none;fill:#f3cc11;fill-opacity:1;fill-rule:nonzero;stroke:none;stroke-width:0.43343982;stroke-linecap:round;stroke-linejoin:miter;stroke-miterlimit:10;stroke-dasharray:none;stroke-dashoffset:0;stroke-opacity:1;color-rendering:auto;image-rendering:auto;shape-rendering:auto;text-rendering:auto;enable-background:accumulate"
       d="m 48.384996,182.31835 c -0.115994,0.15212 -0.283373,0.36085 -0.565625,0.79849 -0.183722,0.28487 -0.366424,0.59447 -0.500275,0.87586 -0.06693,0.14069 -0.119828,0.27605 -0.156243,0.39361 -0.03623,0.11756 -0.05559,0.21732 -0.05559,0.2877 0,0.0102 0.0019,0.0199 0.0023,0.03 0.0015,0.0695 0.0087,0.13738 0.02104,0.20357 0.0056,0.0302 0.01404,0.0592 0.02177,0.0886 0.01158,0.0443 0.02527,0.0877 0.04131,0.12995 0.0076,0.0198 0.0155,0.0393 0.02404,0.0586 0.02515,0.008 0.05229,0.0146 0.07662,0.0233 0.321349,0.11405 0.601823,0.24125 0.793983,0.43342 0.09267,0.0927 0.164407,0.19679 0.229104,0.30422 0.02284,0.001 0.04447,0.007 0.0676,0.007 0.02319,10e-6 0.04474,-0.006 0.0676,-0.007 0.06454,-0.10743 0.135878,-0.21157 0.228354,-0.30422 0.192375,-0.19238 0.472457,-0.32007 0.793984,-0.43417 0.02484,-0.009 0.05242,-0.0158 0.07812,-0.024 0.0077,-0.0174 0.01561,-0.0347 0.02254,-0.0526 0.01746,-0.0457 0.03207,-0.0925 0.04432,-0.14047 0.0069,-0.0269 0.01438,-0.0536 0.01954,-0.0811 0.01419,-0.0763 0.02404,-0.15448 0.02404,-0.23511 0,-0.14072 -0.07869,-0.39994 -0.212578,-0.68131 -0.13389,-0.28136 -0.316507,-0.59102 -0.500279,-0.87585 -0.282332,-0.43761 -0.449597,-0.6464 -0.565625,-0.79849 z m -3.172917,2.8687 c 0.02542,0.18942 0.05479,0.45491 0.164507,0.96375 0.03061,0.14196 0.06455,0.28567 0.102155,0.42666 0.03688,0.13824 0.0775,0.27377 0.119438,0.40337 v 7.7e-4 c 0.205962,0.0343 0.416064,0.0684 0.670039,0.12319 0.171149,0.037 0.347091,0.0788 0.520555,0.12545 2.38e-4,6e-5 3.85e-4,-7e-5 7.69e-4,0 0.173453,0.0464 0.344325,0.0984 0.504783,0.15549 2.19e-4,7e-5 3.84e-4,-8e-5 7.69e-4,0 0.215212,0.0766 0.409068,0.1605 0.573136,0.26441 l 7.7e-4,-7.7e-4 c 0.05049,-0.0624 0.09431,-0.12831 0.131455,-0.19681 1.11e-4,-2e-4 -1.12e-4,-5.4e-4 0,-7.7e-4 0.037,-0.0683 0.06794,-0.13935 0.09164,-0.21182 1.69e-4,-5.4e-4 3.85e-4,-9.7e-4 7.69e-4,-0.001 7.3e-5,-2.4e-4 -7.7e-5,-5e-4 0,-7.7e-4 3.85e-4,-0.001 3.54e-4,-0.003 7.7e-4,-0.004 0.0012,-0.004 0.0019,-0.008 0.0031,-0.012 v -0.002 c 0.07452,-0.24123 0.0726,-0.49783 0,-0.73915 v -7.7e-4 c -0.01269,-0.0421 -0.02411,-0.0846 -0.04131,-0.12544 -0.01734,-0.0408 -0.04007,-0.0797 -0.06235,-0.11868 -0.0019,-0.004 -0.0039,-0.008 -0.006,-0.0113 -0.01558,-0.0276 -0.02873,-0.056 -0.04657,-0.0826 -0.04592,-0.0683 -0.09795,-0.13401 -0.158496,-0.19455 -0.02488,-0.0249 -0.05813,-0.0513 -0.09915,-0.0789 -0.123071,-0.0827 -0.31313,-0.17424 -0.533327,-0.25239 -0.146797,-0.0521 -0.307404,-0.10062 -0.47248,-0.14497 -0.16508,-0.0444 -0.334622,-0.0845 -0.500279,-0.12019 -0.508725,-0.10954 -0.77515,-0.13913 -0.964494,-0.1645 z m 6.346586,0 c -0.189176,0.0253 -0.455635,0.0542 -0.965244,0.16375 -0.331364,0.0713 -0.679781,0.16093 -0.973509,0.26517 -0.220301,0.0782 -0.409491,0.16939 -0.532577,0.25239 -0.04103,0.0277 -0.07494,0.0547 -0.0999,0.0796 -0.02015,0.0202 -0.03488,0.0434 -0.05333,0.0646 -0.03611,0.0415 -0.07365,0.0824 -0.103664,0.12695 -3.84e-4,5.7e-4 -0.0012,9.2e-4 -0.0015,0.001 -0.0185,0.0277 -0.03123,0.0577 -0.04733,0.0864 -0.0015,0.002 -0.0023,0.005 -0.0038,0.008 -0.02196,0.0387 -0.04505,0.0768 -0.06235,0.11718 -2.19e-4,5e-4 -3.84e-4,0.001 -7.69e-4,0.001 -0.01273,0.0303 -0.02092,0.0619 -0.03004,0.0932 -0.0038,0.0113 -0.0078,0.0224 -0.01127,0.0338 -0.07283,0.242 -0.07483,0.49953 0,0.7414 v -0.004 c 0.0019,0.006 0.0023,0.0131 0.0045,0.0195 0.02377,0.0733 0.05434,0.14506 0.09164,0.21408 0.03731,0.069 0.08143,0.13548 0.132205,0.19831 0.07185,-0.0454 0.151873,-0.0859 0.234365,-0.12469 0.01142,-0.005 0.02069,-0.012 0.03231,-0.0173 0.03258,-0.0148 0.06966,-0.0272 0.10366,-0.0413 0.06632,-0.0275 0.13149,-0.0558 0.202817,-0.0811 0.199427,-0.0709 0.414468,-0.13081 0.630976,-0.18554 0.132767,-0.0337 0.266202,-0.0672 0.396615,-0.0954 0.253732,-0.0548 0.46346,-0.0889 0.669289,-0.1232 v -7.6e-4 c 0.0846,-0.26158 0.160927,-0.54834 0.221593,-0.82929 6.6e-5,-3.1e-4 -6.5e-5,-4.6e-4 0,-7.7e-4 0.05491,-0.25443 0.08978,-0.44803 0.114175,-0.60168 0.02438,-0.15384 0.03834,-0.26739 0.05108,-0.36206 z m -6.346586,2.17688 c 0.02535,0.18912 0.0548,0.45549 0.164507,0.96449 0.03042,0.14114 0.06414,0.28352 0.101406,0.42366 6.2e-5,2.3e-4 -6.6e-5,5e-4 0,7.7e-4 1.99e-4,7.7e-4 3.84e-4,0.001 7.7e-4,0.002 0.03523,0.13219 0.07425,0.26165 0.114178,0.38609 0.0019,0.006 0.0035,0.0128 0.0053,0.0188 0.205738,0.0343 0.415683,0.0686 0.669285,0.12319 2.77e-4,6e-5 3.84e-4,-6e-5 7.69e-4,0 0.171169,0.0369 0.347098,0.0788 0.520555,0.12545 2.39e-4,6e-5 3.85e-4,-6e-5 7.69e-4,0 0.173449,0.0467 0.344318,0.0985 0.504783,0.15549 0.215204,0.0765 0.40886,0.16125 0.57314,0.26516 0.05052,-0.0623 0.09423,-0.12839 0.131455,-0.1968 3.16e-4,-6.2e-4 0.0012,-9.3e-4 0.0015,-0.001 3.8e-4,-7e-4 3.73e-4,-0.002 7.69e-4,-0.002 0.03611,-0.0669 0.06527,-0.13639 0.08864,-0.20732 0.0012,-0.004 0.0023,-0.008 0.0038,-0.012 1.65e-4,-5.4e-4 7.69e-4,-9.6e-4 7.69e-4,-0.001 0.0012,-0.003 0.0012,-0.007 0.0023,-0.01 0.07428,-0.24084 0.07217,-0.49702 0,-0.73764 -0.01265,-0.0435 -0.02504,-0.0872 -0.04282,-0.1292 -0.01734,-0.0407 -0.04055,-0.0789 -0.06235,-0.11793 -0.01708,-0.0308 -0.03119,-0.0628 -0.05108,-0.0924 -0.04588,-0.0681 -0.09803,-0.13356 -0.158496,-0.1938 v -7.7e-4 c -1.11e-4,-1.1e-4 -7.69e-4,1.2e-4 -7.69e-4,0 -0.0055,-0.005 -0.01554,-0.0117 -0.02177,-0.0173 -0.05411,-0.048 -0.134874,-0.10094 -0.238873,-0.15474 -3.84e-4,-2.3e-4 -0.0012,-5.4e-4 -0.0015,-7.7e-4 -0.105802,-0.0546 -0.230131,-0.10964 -0.369574,-0.15925 -0.146789,-0.0522 -0.307404,-0.10068 -0.47248,-0.14497 -0.16508,-0.0443 -0.334626,-0.0844 -0.500279,-0.12019 -0.173683,-0.0375 -0.287085,-0.0563 -0.410887,-0.0781 -0.217131,-0.0385 -0.384042,-0.0633 -0.507032,-0.0804 -0.01285,-0.002 -0.03438,-0.005 -0.04658,-0.007 z m 6.346586,0 c -0.01081,10e-4 -0.03,0.005 -0.04131,0.006 -0.123275,0.017 -0.292928,0.0423 -0.512294,0.0811 -0.0058,0.001 -0.0077,0.001 -0.01354,0.002 -0.121267,0.0216 -0.229777,0.0395 -0.398115,0.0759 -0.165688,0.0358 -0.335226,0.0759 -0.500275,0.12019 -0.165049,0.0443 -0.325607,0.0927 -0.472483,0.14497 -0.139183,0.0495 -0.26306,0.10401 -0.36882,0.1585 -7.7e-4,4.6e-4 -0.0015,0.001 -0.0023,0.002 -0.05767,0.0298 -0.109814,0.0591 -0.153988,0.0879 -0.04485,0.0292 -0.08188,0.0578 -0.108168,0.0841 v 7.7e-4 c -0.01327,0.0132 -0.02281,0.0284 -0.03531,0.0421 -0.04466,0.049 -0.08804,0.0989 -0.123943,0.15248 -1.92e-4,2.9e-4 -3.84e-4,4.6e-4 -7.7e-4,7.7e-4 -0.01285,0.0192 -0.02138,0.0403 -0.03304,0.0601 -0.0023,0.004 -0.0044,0.008 -0.0068,0.012 -0.02623,0.0444 -0.05213,0.0892 -0.07211,0.13596 -2.2e-4,5e-4 -3.85e-4,0.001 -7.7e-4,0.001 -0.115864,0.27497 -0.128428,0.58161 -0.04131,0.86535 7.69e-4,0.002 7.69e-4,0.005 0.0015,0.007 1.63e-4,5.4e-4 7.71e-4,9.6e-4 7.71e-4,0.002 0.0015,0.005 0.0027,0.0111 0.0045,0.0165 1.73e-4,5.4e-4 7.7e-4,9.6e-4 7.7e-4,0.001 0.02335,0.0706 0.05196,0.13999 0.08789,0.20657 1.58e-4,3e-4 7.71e-4,4.6e-4 7.71e-4,7.7e-4 0.037,0.0684 0.08043,0.13448 0.130701,0.19681 2.23e-4,2.7e-4 3.84e-4,4.6e-4 7.69e-4,7.7e-4 0.141043,-0.089 0.307369,-0.16222 0.486753,-0.22986 0.02973,-0.0112 0.0565,-0.0237 0.08714,-0.0345 0.321511,-0.11421 0.684751,-0.20706 1.027591,-0.28094 0.253449,-0.0546 0.462869,-0.0883 0.668536,-0.12244 0.0038,-0.0118 0.0075,-0.0248 0.01127,-0.0368 0.03758,-0.11819 0.07412,-0.24004 0.107417,-0.36507 0.03807,-0.1422 0.07273,-0.28708 0.103661,-0.43042 0.109844,-0.50917 0.13977,-0.77506 0.165253,-0.96449 z m -3.174418,0.28243 c -0.0543,0.10324 -0.120813,0.20098 -0.195302,0.29446 0.07456,0.0935 0.140932,0.19175 0.195302,0.29521 0.05424,-0.10343 0.12079,-0.20104 0.195302,-0.29446 -0.07468,-0.0936 -0.141032,-0.19173 -0.195302,-0.29521 z m -3.172168,1.89594 c 0.02542,0.18935 0.05477,0.45558 0.164507,0.9645 0.06077,0.28188 0.137366,0.5694 0.222342,0.83154 0.205814,0.0342 0.415606,0.0678 0.66929,0.12244 0.171149,0.0369 0.347279,0.0788 0.520555,0.12544 2.38e-4,7e-5 3.85e-4,-7e-5 7.69e-4,0 0.173449,0.0465 0.344318,0.0985 0.504783,0.15549 0.107602,0.0382 0.209874,0.0787 0.305727,0.12244 0.09585,0.0437 0.185271,0.0908 0.267413,0.14272 0.101818,-0.12548 0.176864,-0.2653 0.224597,-0.41164 v -7.6e-4 c 7.6e-5,-2.4e-4 -7.7e-5,-3.9e-4 0,-7.7e-4 0.0019,-0.006 0.0027,-0.0126 0.0045,-0.0188 v -7.7e-4 c 0.07402,-0.24066 0.0724,-0.49639 0,-0.73689 v -7.7e-4 c -3.84e-4,-0.002 -0.0012,-0.003 -0.0015,-0.005 -0.01261,-0.0412 -0.02365,-0.0825 -0.04056,-0.12244 -0.01542,-0.0362 -0.03631,-0.0704 -0.05559,-0.10516 -0.0012,-0.002 -0.0019,-0.004 -0.0031,-0.006 -0.01854,-0.0339 -0.03446,-0.0689 -0.05634,-0.10141 -0.0457,-0.0677 -0.09763,-0.13231 -0.157746,-0.1923 v -7.7e-4 c -1.12e-4,-1.1e-4 -7.7e-4,1.1e-4 -7.7e-4,0 -0.0076,-0.008 -0.02092,-0.0162 -0.03004,-0.024 -0.02258,-0.0193 -0.04434,-0.0387 -0.07587,-0.0593 -1.62e-4,-1.1e-4 -7.69e-4,1.1e-4 -7.69e-4,0 -0.0019,-0.001 -0.0042,-0.003 -0.006,-0.004 -0.04164,-0.0269 -0.09004,-0.0541 -0.143473,-0.0819 -0.106761,-0.0555 -0.233589,-0.11179 -0.375582,-0.16225 -0.29357,-0.10434 -0.64146,-0.19376 -0.972759,-0.26516 -0.173314,-0.0374 -0.286501,-0.0555 -0.410133,-0.0774 -0.235034,-0.0414 -0.424529,-0.0705 -0.548349,-0.0871 -0.0015,-2.1e-4 -0.0045,-5.4e-4 -0.006,-7.7e-4 z m 6.346586,0 c -0.123744,0.0166 -0.317253,0.046 -0.555108,0.0879 -0.123632,0.0219 -0.236784,0.04 -0.410137,0.0774 -0.331368,0.0714 -0.679016,0.16081 -0.972759,0.26516 -0.141158,0.0501 -0.267421,0.10548 -0.374077,0.16075 -0.05464,0.0283 -0.104003,0.0568 -0.146478,0.0841 -0.0015,0.001 -0.0038,0.002 -0.0053,0.003 -1.61e-4,1e-4 -7.69e-4,-1.1e-4 -7.69e-4,0 -0.0295,0.0192 -0.04884,0.0375 -0.07061,0.0556 -0.01119,0.009 -0.02707,0.0195 -0.03604,0.0285 -0.0275,0.0275 -0.04852,0.0585 -0.07287,0.0879 -0.028,0.0337 -0.05923,0.0657 -0.08338,0.10141 -3.84e-4,7.7e-4 -0.0012,0.002 -0.0015,0.002 -0.02242,0.0334 -0.03819,0.0695 -0.05709,0.10441 -3.84e-4,0.001 -7.69e-4,0.002 -0.0015,0.003 -0.01911,0.0349 -0.04018,0.069 -0.05559,0.10516 -0.01746,0.0413 -0.02923,0.0843 -0.04207,0.12695 -0.07277,0.24113 -0.07419,0.49782 0,0.73914 0.0019,0.006 0.0027,0.0126 0.0045,0.0188 7.8e-5,2.4e-4 -7.7e-5,3.9e-4 0,7.7e-4 -3.8e-5,2.7e-4 -7.3e-5,3.9e-4 0,7.7e-4 0.04762,0.14634 0.122241,0.28616 0.223846,0.41164 0.16425,-0.10392 0.35784,-0.18868 0.573141,-0.26516 0.191968,-0.0682 0.398443,-0.12628 0.606939,-0.17953 0.14075,-0.0361 0.282316,-0.0716 0.420652,-0.10141 0.25345,-0.0546 0.462869,-0.0883 0.668537,-0.12244 0.08495,-0.26215 0.161502,-0.54964 0.222346,-0.83154 0.109845,-0.50895 0.13977,-0.77514 0.165253,-0.96449 z m -3.173669,0.28169 c -0.05445,0.10362 -0.121797,0.20152 -0.196805,0.29521 0.07464,0.0935 0.141666,0.19087 0.196056,0.29445 0.05435,-0.10359 0.121244,-0.20098 0.196051,-0.29445 -0.0745,-0.0937 -0.141005,-0.19179 -0.195302,-0.29521 z m -3.172917,1.89669 c 0.02535,0.1891 0.05482,0.45493 0.164507,0.96374 0.0714,0.33123 0.160815,0.67912 0.265159,0.97276 0.05217,0.14682 0.11004,0.27999 0.167512,0.3891 0.05775,0.10918 0.114458,0.19409 0.164502,0.24413 0.05564,0.0555 0.116486,0.10255 0.178776,0.14573 0.01408,0.01 0.02773,0.0202 0.04207,0.0293 0.06217,0.0395 0.126456,0.0737 0.193048,0.10141 0.01065,0.004 0.02154,0.008 0.03231,0.012 0.0484,0.0186 0.0981,0.0311 0.147977,0.0436 0.06113,0.0153 0.123163,0.0254 0.185537,0.0315 0.03004,0.003 0.06001,0.007 0.09014,0.008 0.08398,0.002 0.16788,-0.003 0.250887,-0.0173 0.08177,-0.014 0.162035,-0.036 0.240374,-0.0661 0.02027,-0.008 0.04015,-0.0166 0.06009,-0.0255 0.05096,-0.0227 0.100452,-0.0492 0.148731,-0.0789 0.01915,-0.0118 0.03846,-0.0232 0.05709,-0.036 0.06326,-0.0437 0.124655,-0.0916 0.18103,-0.14798 0.06271,-0.0627 0.117486,-0.13025 0.164507,-0.20131 0.03734,-0.0565 0.06644,-0.11617 0.0939,-0.17652 0.01869,-0.0431 0.0345,-0.0871 0.04882,-0.13146 0.08459,-0.25874 0.0846,-0.53583 -7.7e-4,-0.79398 -0.02488,-0.0755 -0.05883,-0.14843 -0.09765,-0.21934 -0.01104,-0.0197 -0.01865,-0.0409 -0.03081,-0.0601 -0.01092,-0.0177 -0.02342,-0.0346 -0.03531,-0.0518 -0.04252,-0.0605 -0.08846,-0.11947 -0.142723,-0.17352 h -7.69e-4 c -0.01246,-0.0125 -0.03296,-0.0266 -0.04958,-0.0398 -0.01865,-0.0147 -0.03281,-0.029 -0.05633,-0.0443 -1.62e-4,-1.1e-4 -7.7e-4,1.1e-4 -7.7e-4,0 -7.7e-4,-3.9e-4 -0.0023,-7.7e-4 -0.0031,-0.002 -0.04332,-0.028 -0.09396,-0.0573 -0.150231,-0.0864 -1.81e-4,-1e-4 -3.85e-4,9e-5 -7.69e-4,0 -0.105987,-0.055 -0.230827,-0.11016 -0.371074,-0.16 -0.29357,-0.10434 -0.64146,-0.19376 -0.972759,-0.26516 -0.166334,-0.0358 -0.273275,-0.053 -0.393607,-0.0744 -0.229412,-0.041 -0.401515,-0.0666 -0.52882,-0.0841 -0.01154,-0.002 -0.03108,-0.005 -0.04207,-0.006 z m 6.346586,0 c -0.0096,0.001 -0.02677,0.004 -0.03681,0.005 -0.127441,0.0175 -0.3029,0.0435 -0.534828,0.0849 -0.120332,0.0213 -0.227239,0.0385 -0.393611,0.0744 -0.331368,0.0714 -0.679016,0.16082 -0.972759,0.26517 -0.139174,0.0494 -0.263056,0.10399 -0.36882,0.15849 -7.69e-4,3.9e-4 -0.0015,0.001 -0.0023,0.002 -0.05768,0.0298 -0.109813,0.0591 -0.153988,0.0879 -0.04485,0.0292 -0.08188,0.0578 -0.108168,0.0841 -0.05299,0.0529 -0.09795,0.11069 -0.139716,0.16976 -0.01331,0.0191 -0.02692,0.0382 -0.03906,0.0578 -0.01085,0.0173 -0.01861,0.0357 -0.02854,0.0533 -0.0394,0.0712 -0.07244,0.14487 -0.09765,0.22084 -0.08675,0.26067 -0.08716,0.54108 -7.69e-4,0.80224 0.01327,0.0408 0.02815,0.0813 0.04507,0.12094 0.02792,0.0623 0.05776,0.12364 0.09615,0.18178 0.04692,0.0711 0.101925,0.13861 0.164507,0.20131 0.125382,0.12514 0.269767,0.21914 0.423655,0.28169 0.153889,0.0625 0.31735,0.0939 0.480746,0.0939 0.163395,-2e-5 0.326833,-0.0313 0.480745,-0.0939 0.153911,-0.0626 0.298223,-0.15662 0.423655,-0.28169 0.02492,-0.025 0.05197,-0.0589 0.07962,-0.0999 0.02773,-0.0412 0.05604,-0.0895 0.08488,-0.14422 0.05722,-0.10893 0.115425,-0.2418 0.167507,-0.38835 7.7e-5,-2.1e-4 -7.3e-5,-3.8e-4 0,-7.7e-4 0.05208,-0.14662 0.10071,-0.30691 0.144977,-0.47173 6.1e-5,-2.4e-4 -6.5e-5,-3.9e-4 0,-7.7e-4 0.04432,-0.16508 0.08445,-0.33465 0.120186,-0.50028 0.05502,-0.25501 0.08977,-0.44865 0.114175,-0.60243 0.02435,-0.15351 0.03835,-0.26675 0.05108,-0.36131 z m -3.174418,0.28018 c -0.0543,0.10339 -0.120809,0.20155 -0.195302,0.29521 0.07485,0.0935 0.141608,0.1916 0.196051,0.29521 0.05425,-0.10331 0.120895,-0.2011 0.195302,-0.29446 -0.0749,-0.094 -0.14162,-0.19211 -0.196051,-0.29596 z m 7.69e-4,2.17913 c -0.0762,0.1452 -0.168138,0.28446 -0.288447,0.40713 v 8.18769 l -7.7e-4,7.7e-4 c -0.0015,0.11617 0.03404,0.17513 0.08413,0.2201 0.05011,0.045 0.126006,0.0729 0.205067,0.0729 0.07906,0 0.154955,-0.0279 0.205067,-0.0729 0.05012,-0.045 0.08553,-0.10393 0.08413,-0.2201 l -7.69e-4,-7.7e-4 v -8.18694 c -0.120452,-0.12286 -0.212186,-0.26242 -0.288447,-0.40788 z"
       id="path4368"
       inkscape:connector-curvature="0" />
  </g>
</svg>
