<?xml version="1.0" encoding="UTF-8" standalone="no"?>
<!-- Created with Inkscape (http://www.inkscape.org/) -->

<svg
   xmlns:dc="http://purl.org/dc/elements/1.1/"
   xmlns:cc="http://creativecommons.org/ns#"
   xmlns:rdf="http://www.w3.org/1999/02/22-rdf-syntax-ns#"
   xmlns:svg="http://www.w3.org/2000/svg"
   xmlns="http://www.w3.org/2000/svg"
   xmlns:sodipodi="http://sodipodi.sourceforge.net/DTD/sodipodi-0.dtd"
   xmlns:inkscape="http://www.inkscape.org/namespaces/inkscape"
   width="100"
   height="100"
   viewBox="0 0 26.458333 26.458334"
   version="1.1"
   id="svg8"
   inkscape:version="0.92.4 (5da689c313, 2019-01-14)"
   sodipodi:docname="link-icon.svg">
  <defs
     id="defs2">
    <marker
       inkscape:isstock="true"
       style="overflow:visible;"
       id="marker1303"
       refX="0.0"
       refY="0.0"
       orient="auto"
       inkscape:stockid="Arrow2Mend">
      <path
         transform="scale(0.6) rotate(180) translate(0,0)"
         d="M 8.7185878,4.0337352 L -2.2072895,0.016013256 L 8.7185884,-4.0017078 C 6.9730900,-1.6296469 6.9831476,1.6157441 8.7185878,4.0337352 z "
         style="fill-rule:evenodd;stroke-width:0.625;stroke-linejoin:round;stroke:#00ff00;stroke-opacity:1;fill:#00ff00;fill-opacity:1"
         id="path1301" />
    </marker>
    <marker
       inkscape:stockid="Arrow1Send"
       orient="auto"
       refY="0.0"
       refX="0.0"
       id="marker1205"
       style="overflow:visible;"
       inkscape:isstock="true">
      <path
         id="path1203"
         d="M 0.0,0.0 L 5.0,-5.0 L -12.5,0.0 L 5.0,5.0 L 0.0,0.0 z "
         style="fill-rule:evenodd;stroke:#00ff00;stroke-width:1pt;stroke-opacity:1;fill:#00ff00;fill-opacity:1"
         transform="scale(0.2) rotate(180) translate(6,0)" />
    </marker>
    <marker
       inkscape:stockid="Arrow2Lend"
       orient="auto"
       refY="0.0"
       refX="0.0"
       id="Arrow2Lend"
       style="overflow:visible;"
       inkscape:isstock="true">
      <path
         id="path846"
         style="fill-rule:evenodd;stroke-width:0.625;stroke-linejoin:round;stroke:#00ff00;stroke-opacity:1;fill:#00ff00;fill-opacity:1"
         d="M 8.7185878,4.0337352 L -2.2072895,0.016013256 L 8.7185884,-4.0017078 C 6.9730900,-1.6296469 6.9831476,1.6157441 8.7185878,4.0337352 z "
         transform="scale(1.1) rotate(180) translate(1,0)" />
    </marker>
    <marker
       inkscape:stockid="Arrow1Mend"
       orient="auto"
       refY="0.0"
       refX="0.0"
       id="Arrow1Mend"
       style="overflow:visible;"
       inkscape:isstock="true">
      <path
         id="path834"
         d="M 0.0,0.0 L 5.0,-5.0 L -12.5,0.0 L 5.0,5.0 L 0.0,0.0 z "
         style="fill-rule:evenodd;stroke:#00ff00;stroke-width:1pt;stroke-opacity:1;fill:#00ff00;fill-opacity:1"
         transform="scale(0.4) rotate(180) translate(10,0)" />
    </marker>
    <marker
       inkscape:stockid="Arrow1Send"
       orient="auto"
       refY="0.0"
       refX="0.0"
       id="Arrow1Send"
       style="overflow:visible;"
       inkscape:isstock="true">
      <path
         id="path840"
         d="M 0.0,0.0 L 5.0,-5.0 L -12.5,0.0 L 5.0,5.0 L 0.0,0.0 z "
         style="fill-rule:evenodd;stroke:#00ff00;stroke-width:1pt;stroke-opacity:1;fill:#00ff00;fill-opacity:1"
         transform="scale(0.2) rotate(180) translate(6,0)" />
    </marker>
    <marker
       inkscape:stockid="Arrow2Send"
       orient="auto"
       refY="0.0"
       refX="0.0"
       id="Arrow2Send"
       style="overflow:visible;"
       inkscape:isstock="true">
      <path
         id="path858"
         style="fill-rule:evenodd;stroke-width:0.625;stroke-linejoin:round;stroke:#00ff00;stroke-opacity:1;fill:#00ff00;fill-opacity:1"
         d="M 8.7185878,4.0337352 L -2.2072895,0.016013256 L 8.7185884,-4.0017078 C 6.9730900,-1.6296469 6.9831476,1.6157441 8.7185878,4.0337352 z "
         transform="scale(0.3) rotate(180) translate(-2.3,0)" />
    </marker>
  </defs>
  <sodipodi:namedview
     id="base"
     pagecolor="#ffffff"
     bordercolor="#666666"
     borderopacity="1.0"
     inkscape:pageopacity="0.0"
     inkscape:pageshadow="2"
     inkscape:zoom="3.959798"
     inkscape:cx="207.69476"
     inkscape:cy="56.913886"
     inkscape:document-units="px"
     inkscape:current-layer="layer1"
     showgrid="false"
     units="px"
     inkscape:snap-page="true"
     inkscape:snap-center="true"
     inkscape:snap-object-midpoints="true"
     showguides="true"
     inkscape:guide-bbox="true"
     inkscape:window-width="2498"
     inkscape:window-height="1417"
     inkscape:window-x="1974"
     inkscape:window-y="-8"
     inkscape:window-maximized="1" />
  <metadata
     id="metadata5">
    <rdf:RDF>
      <cc:Work
         rdf:about="">
        <dc:format>image/svg+xml</dc:format>
        <dc:type
           rdf:resource="http://purl.org/dc/dcmitype/StillImage" />
        <dc:title></dc:title>
      </cc:Work>
    </rdf:RDF>
  </metadata>
  <g
     inkscape:label="Layer 1"
     inkscape:groupmode="layer"
     id="layer1"
     transform="translate(0,-270.54165)">
    <path
       inkscape:connector-curvature="0"
       id="path1478"
       style="font-style:normal;font-weight:normal;font-size:10.58333302px;line-height:0;font-family:sans-serif;letter-spacing:0px;word-spacing:0px;fill:#4d4d4d;fill-opacity:1;stroke:none;stroke-width:0.37695098"
       d="m 16.365518,275.30415 q 0.736231,0 1.413564,0.1914 0.684696,0.19143 1.273681,0.53747 0.59635,0.34602 1.082263,0.83194 0.485913,0.48591 0.831945,1.08226 0.346027,0.58897 0.537447,1.27367 0.19142,0.67735 0.19142,1.41357 0,1.08226 -0.404927,2.04672 -0.397565,0.95712 -1.155885,1.72278 l -3.092176,3.129 q -0.125158,0.12518 -0.265043,0.2356 -0.139891,0.10304 -0.265043,0.22086 -0.692059,0.64053 -1.332581,1.33259 -0.63316,0.69942 -1.310493,1.34731 -0.802494,0.76567 -1.737509,1.16323 -0.927652,0.40493 -2.039364,0.40493 -0.7362326,0 -1.4209272,-0.19141 -0.6773351,-0.19142 -1.2736832,-0.53745 -0.5889853,-0.34603 -1.0748995,-0.83194 -0.485913,-0.48592 -0.8319416,-1.08227 -0.3460287,-0.58899 -0.5374492,-1.26632 -0.1914211,-0.68469 -0.1914211,-1.42092 0,-1.08226 0.3975658,-2.03937 0.4049272,-0.96447 1.1632461,-1.73014 l 3.0921765,-3.12898 q 0.1251585,-0.12519 0.2650434,-0.22824 0.1398912,-0.11047 0.2650448,-0.22823 0.3460282,-0.31659 0.6699692,-0.65524 0.331305,-0.33868 0.655249,-0.67735 0.323942,-0.34603 0.647883,-0.68469 0.331305,-0.33867 0.669972,-0.66263 0.802493,-0.76566 1.730147,-1.16323 0.935015,-0.40492 2.046726,-0.40492 z m -3.09954,12.73681 q 0.795132,0 1.398843,-0.22824 0.60371,-0.23558 1.119072,-0.61105 0.515363,-0.38285 0.971828,-0.86876 0.463826,-0.48591 0.971827,-1.00127 L 19.38407,283.653 q 0.611073,-0.62579 0.927651,-1.3841 0.323944,-0.76568 0.323944,-1.63444 0,-0.88347 -0.338667,-1.65652 -0.331306,-0.78041 -0.912928,-1.36201 -0.581624,-0.58163 -1.362032,-0.91294 -0.773043,-0.33867 -1.65652,-0.33867 -0.868754,0 -1.634436,0.31658 -0.765683,0.30923 -1.384118,0.93503 l -1.546088,1.5608 q 0.331305,-0.10317 0.66261,-0.15461 0.338666,-0.0516 0.677334,-0.0516 0.103078,0 0.176695,0.007 0.08099,0.007 0.161972,0.007 0.331303,-0.33867 0.633159,-0.6258 0.301854,-0.28712 0.633161,-0.49328 0.331304,-0.21351 0.721506,-0.32393 0.390204,-0.11789 0.898205,-0.11789 0.662608,0 1.244232,0.25032 0.588985,0.25031 1.023363,0.69206 0.441738,0.43437 0.692057,1.02336 0.25032,0.58161 0.25032,1.24422 0,0.61107 -0.19142,1.08226 -0.184059,0.47119 -0.485913,0.87611 -0.301856,0.39758 -0.684696,0.7657 -0.37548,0.36074 -0.765683,0.75097 -0.478552,0.48589 -0.949741,0.97182 -0.471187,0.4859 -0.9571,0.96446 -0.463826,0.45645 -1.045451,0.69941 -0.574261,0.2356 -1.229508,0.2356 -0.662607,0 -1.251593,-0.25032 -0.581624,-0.25031 -1.023365,-0.68469 -0.434376,-0.44174 -0.684696,-1.02338 -0.250318,-0.58898 -0.250318,-1.25158 0,-0.36075 0.08099,-0.72888 l -1.1190735,1.13381 q 0.073628,0.8172 0.4343767,1.524 0.3681155,0.70677 0.9423768,1.22949 0.57426,0.51536 1.310495,0.81723 0.743593,0.29448 1.560811,0.29448 z m -3.173161,3.13635 q 0.868755,0 1.627074,-0.32393 0.765682,-0.31658 1.391478,-0.92765 0.397566,-0.38285 0.773046,-0.77306 0.375479,-0.3902 0.765681,-0.78778 -0.323943,0.10317 -0.655246,0.15463 -0.323944,0.0516 -0.662609,0.0516 -0.08835,0 -0.176698,0 -0.08835,-0.007 -0.176694,-0.0146 -0.331306,0.33867 -0.633162,0.62579 -0.301854,0.28714 -0.633158,0.49328 -0.331306,0.21351 -0.721509,0.3313 -0.390202,0.11776 -0.898203,0.11776 -0.6626084,0 -1.251595,-0.25769 -0.5889853,-0.25031 -1.0233621,-0.68468 -0.4343776,-0.43439 -0.6920585,-1.02337 -0.2503187,-0.58898 -0.2503187,-1.2516 0,-0.60371 0.1840582,-1.07488 0.1914188,-0.47856 0.4932749,-0.87613 0.3018554,-0.40492 0.6846966,-0.76568 0.3828404,-0.36811 0.7730437,-0.75833 0.4859132,-0.48591 0.9497392,-0.97183 0.4711887,-0.48591 0.9571017,-0.96445 0.463826,-0.45647 1.038088,-0.69206 0.581624,-0.24297 1.236869,-0.24297 0.662611,0 1.244234,0.25033 0.588985,0.25032 1.023364,0.69206 0.441739,0.43438 0.692056,1.02337 0.250321,0.58163 0.250321,1.24424 0,0.37547 -0.08835,0.72886 l 1.126436,-1.1338 q -0.07363,-0.81721 -0.441741,-1.52401 -0.360753,-0.70677 -0.935015,-1.22215 -0.574259,-0.5227 -1.317854,-0.8172 -0.736232,-0.30186 -1.553452,-0.30186 -0.802491,0 -1.406202,0.22824 -0.603711,0.22823 -1.111711,0.61106 -0.508001,0.37549 -0.9718268,0.86876 -0.4638268,0.48591 -0.9718257,1.00128 l -1.6565234,1.67862 q -0.6257982,0.63314 -0.9423769,1.3841 -0.3092175,0.7436 -0.3092175,1.63443 0,0.88349 0.3313044,1.66389 0.3386661,0.78041 0.9129273,1.35467 0.5816233,0.58161 1.3620291,0.91292 0.7804081,0.33866 1.6638855,0.33866 z m 5.249337,-7.40648 q 0,-0.44911 -0.169333,-0.83932 -0.169333,-0.3902 -0.463826,-0.6847 -0.287131,-0.29448 -0.677333,-0.46382 -0.390204,-0.16933 -0.839308,-0.16933 -0.132524,0 -0.294491,0.022 -0.154609,0.0221 -0.31658,0.0663 -0.154609,0.0442 -0.301854,0.11046 -0.139892,0.0587 -0.250321,0.14726 -0.419652,0.3313 -0.669972,0.8025 -0.250318,0.47118 -0.250318,1.00864 0,0.44172 0.169333,0.83929 0.169334,0.39018 0.463827,0.68469 0.294492,0.29449 0.684696,0.46384 0.397565,0.16932 0.839304,0.16932 0.139891,0 0.294494,-0.0221 0.161972,-0.022 0.31658,-0.0587 0.15461,-0.0442 0.294493,-0.11046 0.147247,-0.0663 0.25768,-0.15462 0.419654,-0.33132 0.66261,-0.8025 0.250319,-0.47119 0.250319,-1.00863 z" />
  </g>
</svg>
