<?xml version="1.0" encoding="UTF-8" standalone="no"?>
<!-- Created with Inkscape (http://www.inkscape.org/) -->

<svg
   xmlns:dc="http://purl.org/dc/elements/1.1/"
   xmlns:cc="http://creativecommons.org/ns#"
   xmlns:rdf="http://www.w3.org/1999/02/22-rdf-syntax-ns#"
   xmlns:svg="http://www.w3.org/2000/svg"
   xmlns="http://www.w3.org/2000/svg"
   xmlns:sodipodi="http://sodipodi.sourceforge.net/DTD/sodipodi-0.dtd"
   xmlns:inkscape="http://www.inkscape.org/namespaces/inkscape"
   version="1.1"
   id="svg2"
   xml:space="preserve"
   width="100"
   height="100"
   viewBox="0 0 100 100"
   sodipodi:docname="linked-icon.svg"
   inkscape:version="0.92.4 (5da689c313, 2019-01-14)"><metadata
     id="metadata8"><rdf:RDF><cc:Work
         rdf:about=""><dc:format>image/svg+xml</dc:format><dc:type
           rdf:resource="http://purl.org/dc/dcmitype/StillImage" /><dc:title></dc:title></cc:Work></rdf:RDF></metadata><defs
     id="defs6" /><sodipodi:namedview
     pagecolor="#ffffff"
     bordercolor="#666666"
     borderopacity="1"
     objecttolerance="10"
     gridtolerance="10"
     guidetolerance="10"
     inkscape:pageopacity="0"
     inkscape:pageshadow="2"
     inkscape:window-width="1188"
     inkscape:window-height="877"
     id="namedview4"
     showgrid="false"
     inkscape:zoom="2.4583333"
     inkscape:cx="74.00956"
     inkscape:cy="75.596185"
     inkscape:window-x="2084"
     inkscape:window-y="18"
     inkscape:window-maximized="0"
     inkscape:current-layer="g10" /><g
     id="g10"
     inkscape:groupmode="layer"
     inkscape:label="ink_ext_XXXXXX"
     transform="matrix(1.3333333,0,0,-1.3333333,0,100)"><path
       inkscape:connector-curvature="0"
       id="path14"
       style="fill:#0977b6;fill-opacity:1;fill-rule:nonzero;stroke:none;stroke-width:0.04687435"
       d="M 66.253665,71.249533 H 8.7322277 c -2.74874,0 -4.9822278,-2.17872 -4.9822278,-4.865089 V 8.6211826 c 0,-2.6886752 2.2334878,-4.8707137 4.9822278,-4.8707137 H 66.253665 c 2.753399,0 4.996337,2.1820385 4.996337,4.8707137 V 66.384444 c 0,2.686369 -2.242938,4.865089 -4.996337,4.865089" /><path
       id="path18"
       style="fill:#ffffff;fill-opacity:1;fill-rule:nonzero;stroke:none;stroke-width:0.04687435"
       d="m 30.048714,45.943806 h 9.603757 v -4.40108 h 0.133123 c 1.335732,2.532481 4.601702,5.202866 9.472463,5.202866 10.13789,0 12.009583,-6.671908 12.009583,-15.344741 V 13.731424 H 51.262779 v 15.664799 c 0,3.737339 -0.06844,8.542147 -5.202256,8.542147 -5.20985,0 -6.007604,-4.069865 -6.007604,-8.271495 V 13.731424 H 30.048714 V 45.943806 M 18.765917,61.956693 c 3.20044,0 5.801404,-2.601526 5.801404,-5.803044 0,-3.204331 -2.600964,-5.806232 -5.801404,-5.806232 -3.208878,0 -5.806185,2.601901 -5.806185,5.806232 0,3.201518 2.597307,5.803044 5.806185,5.803044 M 13.757486,45.943806 h 10.01208 V 13.731424 h -10.01208 v 32.212382"
       inkscape:connector-curvature="0" /></g></svg>