<?xml version="1.0" encoding="UTF-8" standalone="no"?>
<svg xmlns:dc="http://purl.org/dc/elements/1.1/" xmlns:cc="http://creativecommons.org/ns#" xmlns:rdf="http://www.w3.org/1999/02/22-rdf-syntax-ns#" xmlns:svg="http://www.w3.org/2000/svg" xmlns="http://www.w3.org/2000/svg" version="1.1" id="svg5849" viewBox="0 0 250.00267 230.7931" height="65.134941mm" width="70.556313mm">
  <defs id="defs5851"/>
  <metadata id="metadata5854">
    <rdf:RDF>
      <cc:Work rdf:about="">
        <dc:format>image/svg+xml</dc:format>
        <dc:type rdf:resource="http://purl.org/dc/dcmitype/StillImage"/>
        <dc:title/>
      </cc:Work>
    </rdf:RDF>
  </metadata>
  <g transform="translate(1557.063,-2136.9656)" id="layer1">
    <path id="path4405" d="M -1487.2234,2223.2955 C -1483.118,2235.6753 -1470.8605,2243.06 -1458.3905,2241.4721 L -1474.9605,2191.4912 C -1485.9089,2197.6678 -1491.326,2210.9132 -1487.2234,2223.2955" style="display:inline;fill:#97999b;fill-opacity:1;fill-rule:nonzero;stroke:none"/>
    <path id="path4407" d="M -1417.9267,2282.0899 C -1419.1429,2283.7894 -1421.1053,2284.7958 -1423.1951,2284.7958 L -1440.9282,2284.7958 C -1443.0181,2284.7958 -1444.9804,2283.7894 -1446.1966,2282.0899 L -1453.8284,2271.4442 -1410.2949,2271.4442 Z M -1444.8132,2248.9764 C -1441.4699,2248.9764 -1438.7587,2251.6876 -1438.7587,2255.0308 -1438.7587,2258.374 -1441.4699,2261.0853 -1444.8132,2261.0853 -1448.1564,2261.0853 -1450.8676,2258.374 -1450.8676,2255.0308 -1450.8676,2251.6876 -1448.1564,2248.9764 -1444.8132,2248.9764 M -1419.3102,2248.9764 C -1415.967,2248.9764 -1413.2558,2251.6876 -1413.2558,2255.0308 -1413.2558,2258.374 -1415.967,2261.0853 -1419.3102,2261.0853 -1422.6534,2261.0853 -1425.3646,2258.374 -1425.3646,2255.0308 -1425.3646,2251.6876 -1422.6534,2248.9764 -1419.3102,2248.9764 M -1405.7329,2262.4475 -1405.7329,2241.4721 -1458.3905,2241.4721 -1458.3905,2262.4475 -1463.9324,2262.4475 -1463.9324,2274.4289 -1458.3905,2274.4289 -1458.3905,2279.7823 C -1458.3905,2281.3358 -1457.8833,2282.8467 -1456.9485,2284.0894 L -1447.851,2296.1851 C -1446.4967,2297.9854 -1444.3777,2299.0449 -1442.1232,2299.0449 L -1422.0002,2299.0449 C -1419.7457,2299.0449 -1417.6266,2297.9854 -1416.2724,2296.1851 L -1407.1721,2284.0894 C -1406.2401,2282.8467 -1405.7329,2281.3358 -1405.7329,2279.7823 L -1405.7329,2274.4289 -1400.191,2274.4289 -1400.191,2262.4475 Z M -1405.7329,2262.4475" style="display:inline;fill:#97999b;fill-opacity:1;fill-rule:nonzero;stroke:none"/>
    <path id="path4409" d="M -1416.8327,2170.614 -1419.2093,2170.1228 -1418.8402,2168.3437 -1431.6342,2165.6988 C -1435.8005,2164.865 -1439.7678,2165.5634 -1442.41,2167.3239 L -1443.1137,2170.7229 C -1440.4715,2168.9624 -1436.5042,2168.2587 -1432.3378,2169.0952 L -1433.1026,2172.7942 -1429.3159,2173.5749 -1437.4125,2206.9433 C -1437.5584,2207.562 -1437.4495,2208.2126 -1437.107,2208.749 -1436.7645,2209.2854 -1436.2201,2209.6598 -1435.5987,2209.7899 L -1432.6857,2210.3901 C -1432.0643,2210.5202 -1431.4164,2210.3901 -1430.8907,2210.0343 -1430.3622,2209.6784 -1430.0037,2209.1234 -1429.8922,2208.4967 L -1424.0953,2174.6557 -1420.3087,2175.4391 -1419.9395,2173.6599 -1417.5656,2174.1485 -1417.932,2175.9276 -1414.0843,2176.7243 -1412.6185,2169.6289 -1416.4662,2168.8349 Z M -1416.8327,2170.614" style="display:inline;fill:#53565a;fill-opacity:1;fill-rule:nonzero;stroke:none"/>
    <path id="path4411" d="M -1442.7711,2230.1599 C -1445.1026,2230.3378 -1447.1393,2228.5906 -1447.3173,2226.2564 -1447.4951,2223.9249 -1445.7479,2221.8881 -1443.4164,2221.7103 -1441.0822,2221.5323 -1439.0455,2223.2796 -1438.8676,2225.6138 -1438.6897,2227.9453 -1440.437,2229.982 -1442.7711,2230.1599 M -1435.5085,2222.6396 -1433.878,2221.0703 -1435.6093,2218.6857 -1437.6089,2219.7479 -1440.0599,2218.2422 -1440.0169,2215.9798 -1442.9274,2215.5177 -1443.5885,2217.6819 -1446.3874,2218.3511 -1447.9568,2216.7207 -1450.3414,2218.4521 -1449.2818,2220.4489 -1450.7848,2222.9026 -1453.0473,2222.8596 -1453.5093,2225.77 -1451.3478,2226.4338 -1450.6759,2229.23 -1452.3064,2230.7994 -1450.5751,2233.184 -1448.5781,2232.1245 -1446.1272,2233.6275 -1446.1672,2235.8899 -1443.2569,2236.352 -1442.5956,2234.1904 -1439.7967,2233.5186 -1438.2274,2235.149 -1435.8427,2233.4176 -1436.905,2231.4208 -1435.3993,2228.9671 -1433.1369,2229.0101 -1432.6748,2226.0997 -1434.839,2225.4385 Z M -1435.5085,2222.6396" style="display:inline;fill:#53565a;fill-opacity:1;fill-rule:nonzero;stroke:none"/>
    <path id="path4413" d="M -1381.733,2194.529 -1387.721,2200.0657 -1385.8489,2202.0918 -1387.5112,2207.0097 -1385.7745,2208.8897 -1380.7398,2207.6178 -1378.865,2209.6465 -1372.8743,2204.1099 Z M -1381.733,2194.529" style="display:inline;fill:#53565a;fill-opacity:1;fill-rule:nonzero;stroke:none"/>
    <path id="path4415" d="M -1417.5682,2219.0708 C -1416.9654,2220.7517 -1417.8364,2222.6025 -1419.5147,2223.2079 -1421.1955,2223.8134 -1423.0491,2222.9424 -1423.6518,2221.2641 -1424.2573,2219.5832 -1423.3863,2217.7298 -1421.7081,2217.1243 -1420.0272,2216.5188 -1418.1764,2217.3899 -1417.5682,2219.0708 M -1426.0285,2215.5894 -1427.2818,2222.5706 -1421.8648,2227.146 -1415.1943,2224.7428 -1413.9382,2217.7616 -1419.358,2213.1863 Z M -1426.0285,2215.5894" style="display:inline;fill:#53565a;fill-opacity:1;fill-rule:nonzero;stroke:none"/>
    <path id="path4417" d="M -1507.7606,2312.617 -1511.4491,2325.5091 -1511.8155,2325.5091 -1515.7482,2312.617 C -1516.112,2311.3609 -1516.5581,2310.9547 -1517.8142,2310.9547 L -1528.6802,2310.9547 -1528.6802,2339.3361 -1520.6926,2339.3361 -1520.6926,2322.1447 -1520.289,2322.1447 -1515.1799,2337.7136 C -1514.8135,2338.89 -1514.4098,2339.3361 -1513.3556,2339.3361 L -1510.4346,2339.3361 C -1509.3831,2339.3361 -1509.0166,2338.9298 -1508.6103,2337.7136 L -1503.5039,2322.1447 -1503.0976,2322.1447 -1503.0976,2339.3361 -1494.8684,2339.3361 -1494.8684,2310.9547 -1505.692,2310.9547 C -1506.948,2310.9547 -1507.3942,2311.3609 -1507.7606,2312.617" style="display:inline;fill:#53565a;fill-opacity:1;fill-rule:nonzero;stroke:none"/>
    <path id="path4419" d="M -1476.7741,2333.1329 C -1478.7604,2334.1048 -1479.5704,2334.1872 -1480.5051,2334.1872 L -1480.8689,2334.1872 C -1481.5168,2334.1872 -1482.0028,2334.1052 -1482.3293,2333.7809 -1482.6533,2333.4569 -1482.733,2332.971 -1482.733,2332.2805 -1482.733,2331.6725 -1482.693,2331.1865 -1482.2869,2330.7802 -1481.8832,2330.3766 -1481.2752,2330.2544 -1479.2888,2330.2544 L -1476.7741,2330.2544 Z M -1474.5435,2315.8805 -1484.0315,2315.8805 C -1486.2196,2315.8805 -1487.396,2316.2443 -1488.328,2317.179 -1489.3026,2318.1509 -1489.6663,2319.4494 -1489.7062,2323.4618 L -1482.1276,2323.4618 C -1482.0846,2322.4474 -1482.0456,2322.2456 -1481.7611,2321.9615 -1481.5168,2321.7199 -1481.1131,2321.6375 -1480.4227,2321.6375 L -1478.4763,2321.6375 C -1477.7885,2321.6375 -1477.3823,2321.7195 -1477.1406,2321.9615 -1476.8565,2322.2456 -1476.7741,2322.5297 -1476.7741,2324.3142 L -1476.7741,2326.6457 C -1479.2065,2326.1996 -1481.7213,2325.9553 -1483.8296,2325.9553 -1486.5037,2325.9553 -1488.1262,2326.282 -1489.2202,2327.376 -1490.2744,2328.4302 -1490.6409,2330.1323 -1490.6409,2333.0507 -1490.6409,2336.1337 -1490.1125,2337.4719 -1489.3424,2338.242 -1488.4501,2339.1343 -1487.396,2339.3759 -1485.4097,2339.3759 L -1482.6932,2339.3759 C -1480.6671,2339.3759 -1479.4906,2339.0918 -1476.7741,2336.9435 L -1476.7741,2339.3361 -1468.5848,2339.3361 -1468.5848,2323.2202 C -1468.5848,2319.5689 -1468.9911,2318.2731 -1469.9629,2317.2188 -1470.8949,2316.2443 -1472.5175,2315.8805 -1474.5435,2315.8805" style="display:inline;fill:#53565a;fill-opacity:1;fill-rule:nonzero;stroke:none"/>
    <path id="path4421" d="M -1448.6848,2315.8805 -1454.7658,2325.2277 -1455.8173,2325.2277 -1455.8173,2308.7268 -1464.0493,2308.7268 -1464.0493,2339.3361 -1455.8173,2339.3361 -1455.8173,2330.9422 -1454.7233,2330.9422 -1449.5744,2339.3361 -1440.2511,2339.3361 -1447.8723,2327.4158 -1440.1714,2315.8805 Z M -1448.6848,2315.8805" style="display:inline;fill:#53565a;fill-opacity:1;fill-rule:nonzero;stroke:none"/>
    <path id="path4423" d="M -1431.4005,2324.4125 C -1431.273,2322.1766 -1431.0101,2321.7836 -1430.8375,2321.611 -1430.6383,2321.4092 -1430.3038,2321.3428 -1429.2973,2321.3428 L -1425.6382,2321.3428 C -1424.6344,2321.3428 -1424.2998,2321.4088 -1424.098,2321.611 -1423.9174,2321.7915 -1423.6784,2322.1686 -1423.5616,2324.4125 Z M -1416.7928,2325.1613 C -1416.8618,2320.4373 -1417.4301,2318.3925 -1418.6038,2317.2215 -1419.5067,2316.316 -1420.7468,2315.8805 -1423.1925,2315.8805 L -1431.7112,2315.8805 C -1434.1568,2315.8805 -1435.4288,2316.316 -1436.3343,2317.2215 -1437.7072,2318.5598 -1438.8809,2321.1409 -1438.8809,2327.607 -1438.8809,2334.0757 -1437.7072,2336.6541 -1436.3343,2337.9951 -1435.4288,2338.9006 -1434.1568,2339.3361 -1431.7112,2339.3361 L -1423.1925,2339.3361 C -1420.7468,2339.3361 -1419.5067,2338.9006 -1418.6038,2337.9951 -1417.5178,2336.9382 -1416.9761,2335.1485 -1416.8274,2331.3086 L -1423.5961,2331.3086 C -1423.7209,2333.1117 -1423.9333,2333.441 -1424.098,2333.6057 -1424.2998,2333.8074 -1424.6344,2333.8738 -1425.6382,2333.8738 L -1429.2973,2333.8738 C -1430.3038,2333.8738 -1430.6383,2333.8078 -1430.8375,2333.6057 -1431.0552,2333.3905 -1431.4137,2332.8568 -1431.4668,2328.7329 L -1416.7928,2328.7329 Z M -1416.7928,2325.1613" style="display:inline;fill:#53565a;fill-opacity:1;fill-rule:nonzero;stroke:none"/>
    <path id="path4427" d="M -1360.9859,2310.9547 -1360.9859,2317.6039 -1352.6743,2317.6039 -1352.6743,2339.3361 -1343.9565,2339.3361 -1343.9565,2317.6039 -1335.4431,2317.6039 -1335.4431,2310.9547 Z M -1360.9859,2310.9547" style="display:inline;fill:#ff4438;fill-opacity:1;fill-rule:nonzero;stroke:none"/>
    <path id="path4429" d="M -1412.106,2317.5946 -1407.9502,2317.5946 -1407.9502,2332.6962 -1412.106,2332.6962 -1412.106,2339.3361 -1395.0766,2339.3361 -1395.0766,2332.6962 -1399.235,2332.6962 -1399.235,2317.5946 -1395.0766,2317.5946 -1395.0766,2310.9547 -1412.106,2310.9547 Z M -1412.106,2317.5946" style="display:inline;fill:#ff4438;fill-opacity:1;fill-rule:nonzero;stroke:none"/>
    <path id="path4431" d="M -1397.0071,2194.877 -1404.4317,2191.6453 -1397.1956,2180.0011 -1418.0834,2192.7526 -1410.6587,2195.9843 -1417.8948,2207.631 Z M -1397.0071,2194.877" style="display:inline;fill:#ff4438;fill-opacity:1;fill-rule:nonzero;stroke:none"/>
    <path id="path4433" d="M -1389.3355,2208.7251 -1392.7,2211.8373 C -1393.4036,2212.4879 -1394.3171,2212.8251 -1395.2757,2212.7879 -1396.2343,2212.7509 -1397.1186,2212.3418 -1397.7692,2211.6381 -1400.0051,2209.2216 -1403.7891,2209.0729 -1406.2082,2211.3088 -1408.6273,2213.5447 -1408.7734,2217.3288 -1406.5402,2219.7479 L -1399.9599,2226.8618 C -1398.6667,2228.2612 -1398.7544,2230.4519 -1400.1511,2231.7452 -1401.5505,2233.0411 -1403.7413,2232.9534 -1405.0371,2231.554 -1407.3208,2229.0844 -1411.1898,2228.933 -1413.6621,2231.2168 L -1417.0265,2234.3289 C -1417.5364,2234.8017 -1417.5682,2235.5956 -1417.0955,2236.1054 -1416.6255,2236.6153 -1415.8289,2236.6471 -1415.3163,2236.1774 L -1411.9519,2233.0651 C -1410.4994,2231.7215 -1408.2263,2231.8118 -1406.8827,2233.2643 -1404.6494,2235.6808 -1400.8627,2235.8295 -1398.4436,2233.5936 -1396.0245,2231.3576 -1395.8784,2227.5737 -1398.1144,2225.1545 L -1404.6919,2218.038 C -1405.9851,2216.6412 -1405.9001,2214.4478 -1404.5007,2213.1546 -1403.1014,2211.8613 -1400.9106,2211.9463 -1399.6173,2213.3457 -1398.51,2214.5434 -1397.0017,2215.2391 -1395.374,2215.3028 -1393.7461,2215.3658 -1392.19,2214.793 -1390.9924,2213.6856 L -1387.6253,2210.5735 Z M -1389.3355,2208.7251" style="display:inline;fill:#ff4438;fill-opacity:1;fill-rule:nonzero;stroke:none"/>
    <path id="path4435" d="M -1448.7724,2178.8964 C -1450.4693,2173.8457 -1455.9421,2171.1266 -1460.9928,2172.8261 -1466.0435,2174.5229 -1468.7626,2179.9958 -1467.0631,2185.0464 L -1460.5626,2204.3808 C -1460.2227,2205.3925 -1459.1287,2205.9342 -1458.1196,2205.5943 -1457.1079,2205.2544 -1456.5662,2204.1604 -1456.906,2203.1513 L -1461.8346,2188.4852 C -1462.1745,2187.4762 -1461.6301,2186.3822 -1460.621,2186.0423 -1459.612,2185.7024 -1458.5153,2186.2467 -1458.1754,2187.2558 L -1450.7666,2209.296 C -1450.4267,2210.3051 -1449.3327,2210.8495 -1448.3236,2210.5096 -1447.3119,2210.1697 -1446.7676,2209.0757 -1447.1075,2208.0639 L -1452.5671,2191.8285 C -1452.907,2190.8168 -1452.3626,2189.7227 -1451.3535,2189.3854 -1450.3444,2189.0456 -1449.2478,2189.5873 -1448.9079,2190.599 L -1446.9667,2196.3719 C -1446.6268,2197.3837 -1445.5328,2197.9254 -1444.5237,2197.5855 -1443.512,2197.2455 -1442.9703,2196.1515 -1443.3102,2195.1425 Z M -1448.7724,2178.8964" style="display:inline;fill:#ff4438;fill-opacity:1;fill-rule:nonzero;stroke:none"/>
    <path id="path4425" d="M -1381.775,2310.9951 C -1384.7332,2310.9951 -1386.2747,2311.5241 -1387.3688,2312.6181 -1389.031,2314.2406 -1390.4508,2317.3609 -1390.4508,2325.1865 -1390.4508,2333.0122 -1389.031,2336.1324 -1387.3688,2337.7549 -1386.2747,2338.849 -1384.7332,2339.376 -1381.775,2339.376 L -1372.2868,2339.376 C -1369.3286,2339.376 -1367.8281,2338.849 -1366.734,2337.7549 -1365.2735,2336.3369 -1364.6222,2333.8213 -1364.5426,2328.0244 L -1372.693,2328.0244 C -1372.8151,2331.673 -1373.1389,2332.1981 -1373.3805,2332.4424 -1373.6248,2332.6867 -1374.0315,2332.7666 -1375.2477,2332.7666 L -1378.8571,2332.7666 C -1380.0732,2332.7666 -1380.476,2332.6866 -1380.7203,2332.4424 -1381.0044,2332.1583 -1381.4899,2331.4295 -1381.4899,2325.1865 -1381.4899,2318.9834 -1381.0044,2318.2127 -1380.7203,2317.9287 -1380.476,2317.6843 -1380.0732,2317.6045 -1378.8571,2317.6045 L -1375.2477,2317.6045 C -1374.0315,2317.6045 -1373.6248,2317.6845 -1373.3805,2317.9287 -1373.1389,2318.1729 -1372.8151,2318.6984 -1372.693,2322.2275 L -1364.5426,2322.2275 C -1364.6226,2316.5103 -1365.3133,2314.0361 -1366.734,2312.6181 -1367.8281,2311.5241 -1369.3286,2310.9951 -1372.2868,2310.9951 L -1381.775,2310.9951 Z" style="display:inline;fill:#ff4438;fill-opacity:1;fill-rule:nonzero;stroke:none"/>
  </g>
</svg>