<?xml version="1.0" encoding="UTF-8" standalone="no"?>
<svg
   xmlns:dc="http://purl.org/dc/elements/1.1/"
   xmlns:cc="http://creativecommons.org/ns#"
   xmlns:rdf="http://www.w3.org/1999/02/22-rdf-syntax-ns#"
   xmlns:svg="http://www.w3.org/2000/svg"
   xmlns="http://www.w3.org/2000/svg"
   xmlns:sodipodi="http://sodipodi.sourceforge.net/DTD/sodipodi-0.dtd"
   xmlns:inkscape="http://www.inkscape.org/namespaces/inkscape"
   id="Logo_FIXED"
   data-name="Logo — FIXED"
   viewBox="0 0 100 100"
   version="1.1"
   sodipodi:docname="phone-icon.svg"
   width="100"
   height="100"
   inkscape:version="0.92.4 (5da689c313, 2019-01-14)">
  <metadata
     id="metadata15">
    <rdf:RDF>
      <cc:Work
         rdf:about="">
        <dc:format>image/svg+xml</dc:format>
        <dc:type
           rdf:resource="http://purl.org/dc/dcmitype/StillImage" />
        <dc:title>Twitter_Logo_Blue</dc:title>
      </cc:Work>
    </rdf:RDF>
  </metadata>
  <sodipodi:namedview
     pagecolor="#ffffff"
     bordercolor="#666666"
     borderopacity="1"
     objecttolerance="10"
     gridtolerance="10"
     guidetolerance="10"
     inkscape:pageopacity="0"
     inkscape:pageshadow="2"
     inkscape:window-width="1271"
     inkscape:window-height="858"
     id="namedview13"
     showgrid="false"
     inkscape:zoom="2.36"
     inkscape:cx="59.724293"
     inkscape:cy="87.638367"
     inkscape:window-x="365"
     inkscape:window-y="156"
     inkscape:window-maximized="0"
     inkscape:current-layer="Logo_FIXED"
     showguides="false"
     inkscape:guide-bbox="true"
     inkscape:snap-center="true"
     inkscape:snap-object-midpoints="true"
     inkscape:snap-bbox="true"
     inkscape:bbox-nodes="true"
     inkscape:snap-global="true">
    <sodipodi:guide
       position="5,100.21186"
       orientation="1,0"
       id="guide911"
       inkscape:locked="false"
       inkscape:label=""
       inkscape:color="rgb(0,0,255)" />
    <sodipodi:guide
       position="95,100"
       orientation="1,0"
       id="guide913"
       inkscape:locked="false"
       inkscape:label=""
       inkscape:color="rgb(0,0,255)" />
    <sodipodi:guide
       position="50,100.63559"
       orientation="1,0"
       id="guide915"
       inkscape:locked="false"
       inkscape:label=""
       inkscape:color="rgb(0,0,255)" />
  </sodipodi:namedview>
  <defs
     id="defs4">
    <style
       id="style2">.cls-1{fill:none;}.cls-2{fill:#1da1f2;}</style>
  </defs>
  <title
     id="title6">Twitter_Logo_Blue</title>
  <g
     aria-label="☎"
     style="font-style:normal;font-weight:normal;font-size:81.16248322px;line-height:50.72655106px;font-family:sans-serif;letter-spacing:0px;word-spacing:0px;fill:#4d4d4d;fill-opacity:1;stroke:none;stroke-width:10.14496803;stroke-linecap:butt;stroke-linejoin:round;stroke-miterlimit:4;stroke-dasharray:none;stroke-opacity:1;paint-order:stroke markers fill"
     id="text883">
    <path
       d="m 49.821664,20.416118 h 0.356672 Q 74.075297,21.08983 84.260238,27.232498 95,33.731838 95,40.468958 93.494055,46.889037 88.976222,46.492736 L 72.846763,40.944519 q -3.48745,-1.030383 -1.902245,-4.161162 4.597094,-4.795244 1.347424,-5.112285 H 27.747688 q -3.2893,0.317041 1.347424,5.112285 1.585205,3.130779 -1.941875,4.161162 l -16.129459,5.548217 q -4.4782032,0.396301 -6.0237778,-6.023778 0,-6.73712 10.7793918,-13.23646 10.145311,-6.063408 34.042272,-6.81638 z m 9.550859,16.367239 v -2.972259 h 5.706737 v 6.023778 q 0,2.972259 9.550859,5.231176 9.154557,3.764861 9.154557,15.099075 V 79.583885 H 16.215324 V 60.165127 q 0,-11.334214 9.194187,-15.099075 9.511229,-2.258917 9.511229,-5.231176 v -6.023778 h 5.746367 v 2.972259 z M 33.890357,58.461032 q 0,6.61823 4.676354,11.254954 4.676354,4.636724 11.215323,4.636724 6.65786,0 11.294584,-4.636724 4.636724,-4.636724 4.636724,-11.254954 0,-6.5786 -4.636724,-11.254954 -4.597094,-4.676354 -11.294584,-4.676354 -6.618229,0 -11.254953,4.676354 -4.636724,4.676354 -4.636724,11.254954 z m 24.808454,-0.03963 q 0,3.685601 -2.615588,6.301189 -2.575957,2.615587 -6.301189,2.615587 -3.685601,0 -6.301189,-2.615587 -2.575957,-2.615588 -2.575957,-6.301189 0,-3.764862 2.575957,-6.340819 2.615588,-2.615588 6.301189,-2.615588 3.725232,0 6.301189,2.615588 2.615588,2.575957 2.615588,6.340819 z M 52.397622,45.858654 q 0,0.871863 -0.634082,1.545575 -0.634082,0.673712 -1.585204,0.673712 -0.911493,0 -1.585205,-0.673712 -0.634082,-0.673712 -0.634082,-1.545575 0,-0.951123 0.634082,-1.624835 0.673712,-0.673712 1.585205,-0.673712 0.951122,0 1.585204,0.673712 0.634082,0.673712 0.634082,1.624835 z m 0,24.927345 q 0,0.951123 -0.634082,1.624835 -0.634082,0.634082 -1.585204,0.634082 -0.911493,0 -1.585205,-0.634082 -0.634082,-0.673712 -0.634082,-1.624835 0,-0.911493 0.634082,-1.585205 0.673712,-0.673712 1.585205,-0.673712 0.951122,0 1.585204,0.673712 0.634082,0.673712 0.634082,1.585205 z M 43.203435,46.017175 q 0.911492,0.11889 1.426684,0.871862 0.515191,0.752972 0.396301,1.664465 -0.11889,0.911493 -0.871863,1.426684 -0.752972,0.594452 -1.664464,0.475562 -0.911493,-0.158521 -1.466315,-0.911493 -0.554822,-0.792602 -0.396301,-1.664465 0.15852,-0.911493 0.911493,-1.505944 0.752972,-0.515192 1.664465,-0.356671 z m 16.089828,21.043593 q 0.594452,0.752972 0.435931,1.664465 -0.11889,0.911492 -0.911493,1.505944 -0.752972,0.515192 -1.664465,0.396301 -0.871862,-0.15852 -1.466314,-0.951122 -0.515191,-0.752973 -0.396301,-1.624835 0.15852,-0.911493 0.911493,-1.466315 0.752972,-0.515191 1.664465,-0.396301 0.911492,0.11889 1.426684,0.871863 z M 38.963012,52.318363 q 0.951123,0.317041 1.347424,1.149274 0.396301,0.792602 0.11889,1.664465 -0.27741,0.871863 -1.109643,1.307794 -0.832232,0.396301 -1.704095,0.15852 -0.871863,-0.277411 -1.307794,-1.109643 -0.435931,-0.832233 -0.15852,-1.743725 0.31704,-0.871863 1.109643,-1.268164 0.832232,-0.435931 1.704095,-0.158521 z m 22.073976,7.846764 q 0.832233,-0.396301 1.704095,-0.11889 0.871863,0.27741 1.268164,1.109643 0.435931,0.832232 0.15852,1.704095 -0.31704,0.871863 -1.149273,1.307794 -0.792602,0.396301 -1.664465,0.07926 -0.871863,-0.277411 -1.307794,-1.070013 -0.396301,-0.832232 -0.11889,-1.743725 0.317041,-0.871863 1.109643,-1.268164 z M 36.307794,61.15588 q 0.435931,-0.832233 1.307794,-1.109643 0.871863,-0.277411 1.704095,0.11889 0.832233,0.396301 1.109643,1.268164 0.277411,0.951123 -0.11889,1.783355 -0.396301,0.792603 -1.268164,1.109643 -0.951123,0.237781 -1.783355,-0.15852 -0.792603,-0.435931 -1.109643,-1.307794 -0.277411,-0.871863 0.15852,-1.704095 z m 25.046235,-8.837517 q 0.871863,-0.27741 1.664465,0.158521 0.832233,0.396301 1.149273,1.268164 0.277411,0.871862 -0.15852,1.704095 -0.396301,0.792602 -1.268164,1.109643 -0.871862,0.277411 -1.743725,-0.11889 -0.832233,-0.435931 -1.070013,-1.307794 -0.277411,-0.871863 0.11889,-1.664465 0.435931,-0.832233 1.307794,-1.149274 z M 41.023778,67.060768 q 0.554822,-0.713342 1.466315,-0.832233 0.911492,-0.15852 1.664464,0.356671 0.752973,0.554822 0.911493,1.505945 0.158521,0.911492 -0.435931,1.585205 -0.515192,0.792602 -1.426684,0.951122 -0.911493,0.118891 -1.664465,-0.396301 -0.752973,-0.594452 -0.911493,-1.505944 -0.158521,-0.911493 0.396301,-1.664465 z M 55.686922,46.889037 q 0.594452,-0.752972 1.466314,-0.871862 0.911493,-0.158521 1.664465,0.356671 0.792603,0.594451 0.911493,1.505944 0.158521,0.871863 -0.435931,1.664465 -0.515192,0.752972 -1.426684,0.911493 -0.911493,0.11889 -1.664465,-0.475562 -0.752973,-0.515191 -0.911493,-1.426684 -0.11889,-0.911493 0.396301,-1.664465 z"
       style="font-weight:bold;fill:#4d4d4d;fill-opacity:1;stroke:none;stroke-width:10.14496803;stroke-linejoin:round;stroke-miterlimit:4;stroke-dasharray:none;stroke-opacity:1;paint-order:stroke markers fill"
       id="path882" />
  </g>
</svg>
