<?xml version="1.0" encoding="UTF-8" standalone="no"?>
<svg
   xmlns:dc="http://purl.org/dc/elements/1.1/"
   xmlns:cc="http://creativecommons.org/ns#"
   xmlns:rdf="http://www.w3.org/1999/02/22-rdf-syntax-ns#"
   xmlns:svg="http://www.w3.org/2000/svg"
   xmlns="http://www.w3.org/2000/svg"
   xmlns:sodipodi="http://sodipodi.sourceforge.net/DTD/sodipodi-0.dtd"
   xmlns:inkscape="http://www.inkscape.org/namespaces/inkscape"
   xml:space="preserve"
   height="100"
   viewBox="0 0 99.997897 100.00023"
   width="100"
   version="1.1"
   id="svg2075"
   sodipodi:docname="psu-logo.svg"
   inkscape:version="0.92.4 (5da689c313, 2019-01-14)"><metadata
     id="metadata2081"><rdf:RDF><cc:Work
         rdf:about=""><dc:format>image/svg+xml</dc:format><dc:type
           rdf:resource="http://purl.org/dc/dcmitype/StillImage" /><dc:title></dc:title></cc:Work></rdf:RDF></metadata><defs
     id="defs2079" /><sodipodi:namedview
     pagecolor="#ffffff"
     bordercolor="#666666"
     borderopacity="1"
     objecttolerance="10"
     gridtolerance="10"
     guidetolerance="10"
     inkscape:pageopacity="0"
     inkscape:pageshadow="2"
     inkscape:window-width="1882"
     inkscape:window-height="1080"
     id="namedview2077"
     showgrid="false"
     inkscape:zoom="4.7422888"
     inkscape:cx="100.30817"
     inkscape:cy="52.134031"
     inkscape:window-x="38"
     inkscape:window-y="0"
     inkscape:window-maximized="1"
     inkscape:current-layer="svg2075" /><g
     transform="matrix(0.22835737,0,0,0.22835737,12.889939,4.9977281)"
     id="g2073"><path
       d="M 0.0041042,394.13 H 325.0041 V 0.01 H 0.0041042 Z"
       id="path2069"
       inkscape:connector-curvature="0"
       style="fill:#cc0c2f" /><path
       d="m 170.51,2.8164 0.004,0.00195 c -1.6253,5.473 -1.0488,8.9863 -1.0488,8.9863 0,0 4.6268,-4.307 11.432,-6.041 0,0 -11.578,12.628 -13.143,29.691 l 6.043,10.508 c 0,0 4.1076,-4.3779 11.514,-6.6055 0,0 -20.34,23.664 -15.717,49.703 l -7.3008,-4.1543 c 0,0 11.291,15.985 8.752,31.084 l -5.3809,-4.0527 c 0,0 4.1825,13.094 2.4844,32.256 -5.7859,2.6821 -4.3573,-5.6953 -11.789,-5.6953 -12.128,0 -19.443,21.148 -25.635,21.148 -7.0736,0 -8.0445,-13.027 -29.756,-13.027 -10.281,0 -19.359,4.1711 -19.359,6.5957 0,1.8818 9.2543,-0.29101 16.635,-0.29101 19.514,0 21.276,10.49 33.67,10.49 12.645,0 17.408,-15.303 25.137,-15.303 1.1204,0 2.1641,0.65494 2.1641,1.9375 0,2.5067 -2.9668,2.1124 -2.9668,8.1426 0,3.6179 1.7424,7.0742 4.916,7.0742 3.1685,0 8.5971,-6.061 6.8262,-16.762 l 1.4121,-0.70313 c 0,0 4.8367,7.8857 3.8691,17.199 l 1.1562,0.68555 c 9.2909,-8.2803 0.29458,-17.723 5.3223,-17.723 7.9766,0 4.6369,17.387 26.174,17.387 10.719,0 14.24,-9.3262 36.031,-9.3262 39.908,0 42.604,38.287 42.604,38.287 0,0 -8.357,-3.0026 -22.598,-1.5918 0,0 -2.01,-7.939 -7.3086,-13.961 0,0 -2.3524,11.124 -13.086,15.801 l -13.475,-0.23047 c 0,0 -13.822,-7.3894 -13.172,-16.85 0,0 -4.716,5.7769 -0.52149,15.24 l -3.6699,1.5781 c 0,0 -13.227,-21.641 -46.785,-17.074 l -0.78125,3.2832 c 0,0 21.582,-3.0874 28.965,13.463 0,0 -12.275,-3.2756 -25.812,1.1211 0,0 17.862,-0.65117 32.518,6.7344 0,0 -19.143,0.75705 -30.025,19.014 h -4.2129 c 0,0 -10.296,-19.975 -32.68,-19.975 -31.116,0 -37.994,34.301 -37.994,34.301 l 2.3691,1.5742 c 0,0 2.4981,-15.101 14.969,-22.73 l 3.4473,0.78711 c -9.6347,5.9019 -26.129,36.265 7.6719,53.08 l 2.4297,5.2949 c 0,0 -7.5311,20.851 -8.2832,29.918 16.387,3.7461 29.289,-6.1406 44.762,-6.1406 16.357,0 27.984,15.25 83.057,9.502 -18.653,25.25 -64.891,5.7969 -80.252,5.7969 -9.6562,0 -31.146,5.8781 -44.809,3.8496 l 6.4492,7.2656 c 48.366,-7.8555 63.531,5.6583 84.314,1.9512 l -2.0781,2.6992 c 0,0 -38.104,5.0757 -38.104,56.953 0,0 -4.5046,-4.3152 -9.0664,-5.4141 0,0 1.9932,5.0903 2.3359,11.762 h 159.06 v -388.5 h -151.68 z m 58.88,165.06 c -0.89179,-0.014 -1.4551,0.0332 -1.4551,0.0332 -1.2949,2.4625 -0.1289,4.7031 -0.1289,4.7031 7.365,-1.2744 12.104,-0.11133 12.104,-0.11133 -2.2155,-3.9993 -7.8442,-4.5831 -10.52,-4.625 z M 96,171.2592 c -1.9587,0 -0.11523,3.8594 -0.11523,3.8594 2.7509,0.27396 6.5742,-0.58984 6.5742,-0.58984 0,0 -2.995,-3.2695 -6.459,-3.2695 z m 17.219,3.2226 c 0,9.451 -9.8496,15.738 -9.8496,15.738 0.18059,-0.12826 2.9605,1.97 10.076,1.7812 5.3888,-12.23 -0.22656,-17.52 -0.22656,-17.52 z m -39.143,4.6992 c 0,0 -3.093,4.708 1.1836,12.482 0,0 3.7199,0.5053 8.5352,-1.1836 -7.2532,-5.354 -9.7188,-11.299 -9.7188,-11.299 z m 39.701,16.104 c 0,0 -7.5605,1.509 -15.438,6.627 l 3.8477,3.1562 c 0,0 6.6984,-4.7418 13.113,-7.2812 l -1.5234,-2.502 z m -33.518,5.9609 c -16.616,0.0142 -36.254,31.043 -9.1484,54.264 0,0 -13.983,-34.117 11.572,-54.037 -0.79662,-0.15396 -1.6067,-0.22726 -2.4238,-0.22657 z m 51.959,14.199 c 19.711,0 29.276,23.218 21.34,35.223 18.637,35.623 -0.72657,43.285 -0.72657,43.285 3.2629,-18.585 -12.805,-33.826 -12.805,-33.826 9.0826,-19.437 -6.3373,-28.906 -16.473,-28.906 -10.134,0 -15.457,9.2012 -15.457,9.2012 0,0 -0.42628,-24.977 24.121,-24.977 z m 67.232,1.1621 c 29.936,0 27.259,40.811 14.211,40.811 -7.2152,0 -1.1582,-23.049 -22.395,-23.049 -10.623,0 -15.764,7.8848 -15.764,7.8848 -2.3651,-5.003 2.634,-25.646 23.947,-25.646 z m 29.238,32.293 c 3.4937,16.07 -4.3145,28.998 -4.3145,28.998 -1.5052,-6.6334 -8.6172,-11.918 -8.6172,-11.918 0,0 10.722,-7.6516 12.932,-17.08 z m 37.732,4.1289 c 3.7708,35.547 -20.498,38.354 -20.498,38.354 3.4168,-5.4135 4.8157,-8.9222 0.92383,-14.26 0,0 14.125,-4.9434 19.574,-24.094 z"
       transform="translate(-9.9183e-4)"
       id="path2071"
       inkscape:connector-curvature="0"
       style="fill:#fcd116" /></g></svg>