<?xml version="1.0" encoding="UTF-8" standalone="no"?>
<!-- Generator: Adobe Illustrator 21.1.0, SVG Export Plug-In . SVG Version: 6.00 Build 0)  -->

<svg
   xmlns:dc="http://purl.org/dc/elements/1.1/"
   xmlns:cc="http://creativecommons.org/ns#"
   xmlns:rdf="http://www.w3.org/1999/02/22-rdf-syntax-ns#"
   xmlns:svg="http://www.w3.org/2000/svg"
   xmlns="http://www.w3.org/2000/svg"
   xmlns:xlink="http://www.w3.org/1999/xlink"
   xmlns:sodipodi="http://sodipodi.sourceforge.net/DTD/sodipodi-0.dtd"
   xmlns:inkscape="http://www.inkscape.org/namespaces/inkscape"
   version="1.1"
   id="Layer_1"
   x="0px"
   y="0px"
   width="100"
   height="100"
   viewBox="0 0 100 100"
   xml:space="preserve"
   sodipodi:docname="unreal-engine-icon.svg"
   inkscape:version="0.92.4 (5da689c313, 2019-01-14)"><metadata
   id="metadata289"><rdf:RDF><cc:Work
       rdf:about=""><dc:format>image/svg+xml</dc:format><dc:type
         rdf:resource="http://purl.org/dc/dcmitype/StillImage" /><dc:title /></cc:Work></rdf:RDF></metadata><defs
   id="defs287">
	
	
	
	
	
	
	
	
	
	
	
	
	

		<defs
   id="defs5">
			<path
   id="SVGID_1_"
   d="m 152,110.2 c -3,0 -4.2,-1.8 -4.2,-1.8 -0.2,-0.8 -0.4,-12.7 -0.5,-24.5 -0.1,-12.3 0,-24.5 0.6,-24.6 3.5,-6.5 14.5,-19.6 14.5,-19.6 -20.6,4.1 -31.8,17.6 -31.8,17.6 -3.3,-2.6 -10.1,-2.2 -10.1,-2.2 3.2,1.7 6.3,6.8 6.3,11 v 41.4 c 0,0 -6.9,6.1 -12.2,6.1 -3.2,0 -5.1,-1.7 -6.2,-3.1 -0.7,-1 -1,-1.8 -1,-1.8 V 57.6 c -0.7,0.5 -1.6,0.9 -2.5,0.9 -1.1,0 -2.3,-0.6 -3.1,-2.2 -0.6,-1.3 -1,-3.1 -1,-5.9 0,-9.4 10.7,-15.7 10.7,-15.7 C 98,38.3 85.4,45.3 68.7,64.5 52,83.7 55.2,99.5 55.2,99.5 c 0,0 4.5,-11 15.6,-22.5 5.3,-5.4 9.2,-7.2 11.9,-7.3 3,0 4.4,2.2 4.4,4.2 v 38.9 c 0,3.8 -2.5,4.7 -4.8,4.6 -1.9,0 -3.7,-0.7 -3.7,-0.7 11.4,16.5 38.6,18.9 38.6,18.9 l 12,-12.8 0.3,0.2 11,9.3 c 20,-11.9 29.7,-34 29.7,-34 -9.1,9.7 -14.8,11.9 -18.2,11.9"
   inkscape:connector-curvature="0" />
		</defs>
		<clipPath
   id="SVGID_2_">
			<use
   xlink:href="#SVGID_1_"
   style="overflow:visible"
   id="use7"
   x="0"
   y="0"
   width="100%"
   height="100%" />
		</clipPath>
		
	
		<defs
   id="defs23">
			<path
   id="SVGID_5_"
   d="m 115.6,5.2 c 21.2,0 41.2,8.3 56.2,23.5 15,15.1 23.3,35.3 23.3,56.7 0,21.4 -8.3,41.5 -23.3,56.7 -15,15.1 -35,23.5 -56.2,23.5 -21.2,0 -41.2,-8.3 -56.2,-23.5 C 44.4,127 36.1,106.8 36.1,85.4 36.1,64 44.4,43.9 59.4,28.7 74.4,13.5 94.3,5.2 115.6,5.2 m 0,-3.7 c -46,0 -83.2,37.5 -83.2,83.8 0,46.3 37.2,83.8 83.1,83.8 45.9,0 83.1,-37.5 83.1,-83.8 C 198.7,39 161.5,1.5 115.6,1.5"
   inkscape:connector-curvature="0" />
		</defs>
		<clipPath
   id="SVGID_6_">
			<use
   xlink:href="#SVGID_5_"
   style="overflow:visible"
   id="use25"
   x="0"
   y="0"
   width="100%"
   height="100%" />
		</clipPath>
		
	</defs><sodipodi:namedview
   pagecolor="#ffffff"
   bordercolor="#666666"
   borderopacity="1"
   objecttolerance="10"
   gridtolerance="10"
   guidetolerance="10"
   inkscape:pageopacity="0"
   inkscape:pageshadow="2"
   inkscape:window-width="1640"
   inkscape:window-height="1050"
   id="namedview285"
   showgrid="false"
   inkscape:zoom="7.843789"
   inkscape:cx="63.047998"
   inkscape:cy="58.198325"
   inkscape:window-x="1920"
   inkscape:window-y="0"
   inkscape:window-maximized="1"
   inkscape:current-layer="Layer_1" />
<style
   type="text/css"
   id="style2">
	.st0{clip-path:url(#SVGID_2_);}
	.st1{clip-path:url(#SVGID_4_);fill:#2E2E2C;}
	.st2{clip-path:url(#SVGID_6_);}
	.st3{clip-path:url(#SVGID_8_);fill:#2E2E2C;}
	.st4{clip-path:url(#SVGID_10_);}
	.st5{clip-path:url(#SVGID_12_);fill:#2E2E2C;}
	.st6{clip-path:url(#SVGID_14_);}
	.st7{clip-path:url(#SVGID_16_);fill:#2E2E2C;}
	.st8{clip-path:url(#SVGID_18_);}
	.st9{clip-path:url(#SVGID_20_);fill:#2E2E2C;}
	.st10{clip-path:url(#SVGID_22_);}
	.st11{clip-path:url(#SVGID_24_);enable-background:new    ;}
	.st12{clip-path:url(#SVGID_26_);}
	.st13{clip-path:url(#SVGID_28_);}
	.st14{clip-path:url(#SVGID_30_);fill:#2E2E2C;}
	.st15{clip-path:url(#SVGID_32_);}
	.st16{clip-path:url(#SVGID_34_);fill:#2E2E2C;}
	.st17{clip-path:url(#SVGID_36_);}
	.st18{clip-path:url(#SVGID_38_);fill:#2E2E2C;}
	.st19{clip-path:url(#SVGID_40_);}
	.st20{clip-path:url(#SVGID_42_);fill:#2E2E2C;}
	.st21{clip-path:url(#SVGID_44_);}
	.st22{clip-path:url(#SVGID_46_);fill:#2E2E2C;}
	.st23{clip-path:url(#SVGID_48_);}
	.st24{clip-path:url(#SVGID_50_);fill:#2E2E2C;}
	.st25{clip-path:url(#SVGID_52_);}
	.st26{clip-path:url(#SVGID_54_);fill:#2E2E2C;}
	.st27{clip-path:url(#SVGID_56_);}
	.st28{clip-path:url(#SVGID_58_);fill:#2E2E2C;}
	.st29{clip-path:url(#SVGID_60_);}
	.st30{clip-path:url(#SVGID_62_);fill:#2E2E2C;}
</style>
<g
   class="st0"
   clip-path="url(#SVGID_2_)"
   id="g18"
   transform="matrix(0.5338078,0,0,0.5338078,-11.654804,4.4661947)">
			<defs
   id="defs11">
				<rect
   id="SVGID_3_"
   x="-46.799999"
   y="-94.5"
   width="705.59998"
   height="470.39999" />
			</defs>
			<clipPath
   id="SVGID_4_">
				<use
   xlink:href="#SVGID_3_"
   style="overflow:visible"
   id="use13"
   x="0"
   y="0"
   width="100%"
   height="100%" />
			</clipPath>
			<rect
   x="53.700001"
   y="33.5"
   class="st1"
   width="117.6"
   height="103.4"
   clip-path="url(#SVGID_4_)"
   id="rect16"
   style="fill:#2e2e2c" />
		</g><g
   class="st2"
   clip-path="url(#SVGID_6_)"
   id="g36"
   transform="matrix(0.5338078,0,0,0.5338078,-11.654804,4.4661947)">
			<defs
   id="defs29">
				<rect
   id="SVGID_7_"
   x="-46.799999"
   y="-94.5"
   width="705.59998"
   height="470.39999" />
			</defs>
			<clipPath
   id="SVGID_8_">
				<use
   xlink:href="#SVGID_7_"
   style="overflow:visible"
   id="use31"
   x="0"
   y="0"
   width="100%"
   height="100%" />
			</clipPath>
			<path
   style="fill:#2e2e2c"
   clip-path="url(#SVGID_8_)"
   d="M 31.200001,0.30000001 H 199.80001 V 170.3 H 31.200001 Z"
   id="rect34"
   inkscape:connector-curvature="0" />
		</g>
</svg>