<?xml version="1.0" encoding="UTF-8" standalone="no"?>
<!-- Created with Inkscape (http://www.inkscape.org/) -->

<svg
   xmlns:dc="http://purl.org/dc/elements/1.1/"
   xmlns:cc="http://creativecommons.org/ns#"
   xmlns:rdf="http://www.w3.org/1999/02/22-rdf-syntax-ns#"
   xmlns:svg="http://www.w3.org/2000/svg"
   xmlns="http://www.w3.org/2000/svg"
   xmlns:sodipodi="http://sodipodi.sourceforge.net/DTD/sodipodi-0.dtd"
   xmlns:inkscape="http://www.inkscape.org/namespaces/inkscape"
   width="100"
   height="100"
   viewBox="0 0 26.458332 26.458334"
   version="1.1"
   id="svg8"
   inkscape:version="0.92.4 (5da689c313, 2019-01-14)"
   sodipodi:docname="vpc-logo.svg">
  <defs
     id="defs2">
    <path
       d="m 152,110.2 c -3,0 -4.2,-1.8 -4.2,-1.8 -0.2,-0.8 -0.4,-12.7 -0.5,-24.5 -0.1,-12.3 0,-24.5 0.6,-24.6 3.5,-6.5 14.5,-19.6 14.5,-19.6 -20.6,4.1 -31.8,17.6 -31.8,17.6 -3.3,-2.6 -10.1,-2.2 -10.1,-2.2 3.2,1.7 6.3,6.8 6.3,11 v 41.4 c 0,0 -6.9,6.1 -12.2,6.1 -3.2,0 -5.1,-1.7 -6.2,-3.1 -0.7,-1 -1,-1.8 -1,-1.8 V 57.6 c -0.7,0.5 -1.6,0.9 -2.5,0.9 -1.1,0 -2.3,-0.6 -3.1,-2.2 -0.6,-1.3 -1,-3.1 -1,-5.9 0,-9.4 10.7,-15.7 10.7,-15.7 C 98,38.3 85.4,45.3 68.7,64.5 52,83.7 55.2,99.5 55.2,99.5 c 0,0 4.5,-11 15.6,-22.5 5.3,-5.4 9.2,-7.2 11.9,-7.3 3,0 4.4,2.2 4.4,4.2 v 38.9 c 0,3.8 -2.5,4.7 -4.8,4.6 -1.9,0 -3.7,-0.7 -3.7,-0.7 11.4,16.5 38.6,18.9 38.6,18.9 l 12,-12.8 0.3,0.2 11,9.3 c 20,-11.9 29.7,-34 29.7,-34 -9.1,9.7 -14.8,11.9 -18.2,11.9"
       id="SVGID_1_"
       inkscape:connector-curvature="0" />
    <rect
       height="470.39999"
       width="705.59998"
       y="-94.5"
       x="-46.799999"
       id="SVGID_3_" />
    <path
       d="m 115.6,5.2 c 21.2,0 41.2,8.3 56.2,23.5 15,15.1 23.3,35.3 23.3,56.7 0,21.4 -8.3,41.5 -23.3,56.7 -15,15.1 -35,23.5 -56.2,23.5 -21.2,0 -41.2,-8.3 -56.2,-23.5 C 44.4,127 36.1,106.8 36.1,85.4 36.1,64 44.4,43.9 59.4,28.7 74.4,13.5 94.3,5.2 115.6,5.2 m 0,-3.7 c -46,0 -83.2,37.5 -83.2,83.8 0,46.3 37.2,83.8 83.1,83.8 45.9,0 83.1,-37.5 83.1,-83.8 C 198.7,39 161.5,1.5 115.6,1.5"
       id="SVGID_5_"
       inkscape:connector-curvature="0" />
    <rect
       height="470.39999"
       width="705.59998"
       y="-94.5"
       x="-46.799999"
       id="SVGID_7_" />
    <polygon
       points="55.8,222 73.3,222 73.3,225.6 60.6,225.6 60.6,228.4 72.6,228.4 72.6,231.8 60.6,231.8 60.6,234.6 73.6,234.6 73.6,238.3 55.8,238.3 "
       id="SVGID_9_" />
    <rect
       height="470.39999"
       width="705.59998"
       y="-94.5"
       x="-46.799999"
       id="SVGID_11_" />
    <polygon
       points="81.1,226.1 81,226.1 81,238.3 76.3,238.3 76.3,222 83.6,222 92.9,234.3 93,234.3 93,222 97.7,222 97.7,238.3 90.6,238.3 "
       id="SVGID_13_" />
    <rect
       height="470.39999"
       width="705.59998"
       y="-94.5"
       x="-46.799999"
       id="SVGID_15_" />
    <path
       d="m 111.6,238.5 c -1.5,0 -2.8,0 -3.9,-0.1 -1.1,-0.1 -2,-0.2 -2.8,-0.4 -0.8,-0.2 -1.4,-0.5 -1.9,-0.9 -0.5,-0.4 -0.9,-0.9 -1.1,-1.5 -0.3,-0.6 -0.4,-1.3 -0.5,-2.2 -0.1,-0.8 -0.1,-1.9 -0.1,-3 V 230 c 0,-1.2 0,-2.2 0.1,-3 0.1,-0.9 0.3,-1.6 0.5,-2.2 0.3,-0.6 0.6,-1.1 1.1,-1.4 0.5,-0.4 1.1,-0.7 1.9,-0.9 0.8,-0.2 1.7,-0.3 2.8,-0.4 1.1,-0.1 2.4,-0.1 3.9,-0.1 h 0.7 c 1.3,0 2.4,0 3.3,0.1 0.9,0.1 1.8,0.2 2.4,0.3 0.7,0.1 1.2,0.3 1.7,0.6 0.4,0.2 0.8,0.6 1,0.9 0.3,0.4 0.4,0.8 0.5,1.4 0.1,0.5 0.1,1.2 0.1,1.9 v 0.6 h -4.6 v -0.2 c 0,-0.4 -0.1,-0.7 -0.2,-0.9 -0.1,-0.3 -0.3,-0.5 -0.7,-0.6 -0.3,-0.2 -0.8,-0.3 -1.4,-0.3 -0.6,-0.1 -1.4,-0.1 -2.4,-0.1 h -0.4 c -0.9,0 -1.7,0 -2.3,0 -0.6,0 -1.2,0.1 -1.6,0.2 -0.4,0.1 -0.8,0.3 -1,0.4 -0.2,0.2 -0.4,0.5 -0.6,0.8 -0.1,0.3 -0.2,0.7 -0.2,1.2 0,0.5 -0.1,1.1 -0.1,1.8 v 0.3 c 0,0.7 0,1.3 0.1,1.7 0,0.5 0.1,0.9 0.2,1.2 0.1,0.3 0.3,0.6 0.6,0.8 0.2,0.2 0.6,0.3 1,0.4 0.4,0.1 1,0.2 1.6,0.2 0.6,0 1.4,0 2.3,0 h 0.4 c 0.7,0 1.4,0 1.9,0 0.5,0 1,-0.1 1.3,-0.1 0.4,-0.1 0.7,-0.1 0.9,-0.2 0.2,-0.1 0.4,-0.2 0.5,-0.4 0.1,-0.2 0.2,-0.3 0.2,-0.6 0,-0.2 0.1,-0.5 0.1,-0.7 v -0.5 h -6.2 v -3.1 h 10.8 v 3.6 c 0,0.8 -0.1,1.5 -0.2,2.1 -0.1,0.6 -0.3,1.1 -0.6,1.5 -0.3,0.4 -0.6,0.8 -1.1,1.1 -0.4,0.3 -1,0.5 -1.7,0.7 -0.7,0.2 -1.5,0.3 -2.5,0.4 -1,0.1 -2.1,0.1 -3.4,0.1 h -0.4 z"
       id="SVGID_17_"
       inkscape:connector-curvature="0" />
    <rect
       height="470.39999"
       width="705.59998"
       y="-94.5"
       x="-46.799999"
       id="SVGID_19_" />
    <rect
       height="54.099998"
       width="227.7"
       y="184.5"
       x="1.8"
       id="SVGID_21_" />
    <rect
       height="470.39999"
       width="705.59998"
       y="-94.5"
       x="-46.799999"
       id="SVGID_23_" />
    <rect
       height="16.5"
       width="42.799999"
       y="222.10001"
       x="133.3"
       id="SVGID_25_" />
    <polygon
       points="138.1,226.2 138,226.2 138,238.3 133.4,238.3 133.4,222.2 140.6,222.2 149.9,234.3 150,234.3 150,222.2 154.6,222.2 154.6,238.3 147.5,238.3 "
       id="SVGID_27_" />
    <rect
       height="54.099998"
       width="227.7"
       y="184.39999"
       x="1.8"
       id="SVGID_29_" />
    <polygon
       points="158.4,222.2 175.7,222.2 175.7,225.7 163.1,225.7 163.1,228.5 175.1,228.5 175.1,231.9 163.1,231.9 163.1,234.7 176,234.7 176,238.3 158.4,238.3 "
       id="SVGID_31_" />
    <rect
       height="54.099998"
       width="227.7"
       y="184.39999"
       x="1.8"
       id="SVGID_33_" />
    <path
       d="m 18.9,213.3 c -2.3,0 -4.3,-0.1 -6.1,-0.2 C 11.1,213 9.6,212.8 8.3,212.5 7,212.2 6,211.8 5.2,211.3 c -0.8,-0.5 -1.5,-1.2 -2,-1.9 -0.5,-0.8 -0.8,-1.7 -1,-2.8 -0.2,-1.1 -0.3,-2.3 -0.3,-3.7 v -18.4 h 8.4 v 15.7 c 0,1 0,1.8 0.1,2.5 0.1,0.7 0.2,1.3 0.4,1.8 0.2,0.5 0.5,0.9 0.9,1.2 0.4,0.3 0.9,0.5 1.6,0.7 0.6,0.2 1.4,0.3 2.4,0.3 0.9,0.1 2.1,0.1 3.4,0.1 h 0.7 c 1.3,0 2.4,0 3.4,-0.1 0.9,-0.1 1.7,-0.2 2.4,-0.3 0.6,-0.2 1.2,-0.4 1.6,-0.7 0.4,-0.3 0.7,-0.7 0.9,-1.2 0.2,-0.5 0.3,-1.1 0.4,-1.8 0.1,-0.7 0.1,-1.5 0.1,-2.5 V 184.5 H 37 v 18.4 c 0,1.4 -0.1,2.6 -0.3,3.7 -0.2,1.1 -0.5,2 -1,2.8 -0.5,0.8 -1.1,1.4 -2,1.9 -0.8,0.5 -1.9,0.9 -3.1,1.2 -1.3,0.3 -2.8,0.5 -4.5,0.6 -1.8,0.1 -3.8,0.2 -6.1,0.2 z"
       id="SVGID_35_"
       inkscape:connector-curvature="0" />
    <rect
       height="470.39999"
       width="705.59998"
       y="-94.5"
       x="-46.799999"
       id="SVGID_37_" />
    <polygon
       points="51,191.7 50.8,191.7 50.8,213 42.6,213 42.6,184.5 55.3,184.5 71.7,205.8 71.8,205.8 71.8,184.5 80,184.5 80,213 67.5,213 "
       id="SVGID_39_" />
    <rect
       height="470.39999"
       width="705.59998"
       y="-94.5"
       x="-46.799999"
       id="SVGID_41_" />
    <path
       d="m 119.6,213 h -8.3 v -2.3 c 0,-0.8 0,-1.5 -0.1,-2.2 -0.1,-0.6 -0.2,-1.1 -0.4,-1.5 -0.2,-0.4 -0.5,-0.8 -0.9,-1 -0.4,-0.3 -0.9,-0.4 -1.6,-0.6 -0.6,-0.1 -1.4,-0.2 -2.4,-0.3 -0.9,0 -2.1,-0.1 -3.4,-0.1 h -8.4 v 7.9 H 85.8 V 184.4 H 108 c 2.3,0 4.2,0.1 5.7,0.4 1.5,0.3 2.7,0.8 3.5,1.4 0.9,0.7 1.5,1.6 1.8,2.7 0.3,1.1 0.5,2.5 0.5,4.1 v 1 c 0,1.1 -0.1,2.1 -0.3,2.9 -0.2,0.8 -0.5,1.6 -0.9,2.2 -0.4,0.6 -0.9,1.1 -1.5,1.5 -0.6,0.4 -1.4,0.7 -2.3,0.9 v 0.2 c 1,0.2 1.8,0.4 2.5,0.6 0.6,0.3 1.1,0.6 1.5,1.1 0.4,0.5 0.6,1.2 0.7,2 0.1,0.8 0.2,1.8 0.2,3.1 v 4.5 z m -15,-14.1 c 1.4,0 2.6,0 3.5,-0.1 0.9,-0.1 1.5,-0.3 2,-0.6 0.4,-0.3 0.7,-0.7 0.9,-1.2 0.1,-0.5 0.2,-1.2 0.2,-2 v -0.5 c 0,-0.8 -0.1,-1.5 -0.2,-2 -0.1,-0.5 -0.4,-0.9 -0.9,-1.1 -0.5,-0.3 -1.1,-0.4 -2,-0.5 -0.9,-0.1 -2,-0.1 -3.4,-0.1 H 94.2 v 8.1 z"
       id="SVGID_43_"
       inkscape:connector-curvature="0" />
    <rect
       height="470.39999"
       width="705.59998"
       y="-94.5"
       x="-46.799999"
       id="SVGID_45_" />
    <polygon
       points="125,184.5 155.6,184.5 155.6,190.8 133.4,190.8 133.4,195.6 154.4,195.6 154.4,201.6 133.4,201.6 133.4,206.5 156.1,206.5 156.1,213 125,213 "
       id="SVGID_47_" />
    <rect
       height="470.39999"
       width="705.59998"
       y="-94.5"
       x="-46.799999"
       id="SVGID_49_" />
    <path
       d="m 198.9,213 h -9.1 l -2.6,-5.1 h -17.8 l -2.6,5.1 h -9 l 15.3,-28.5 h 10.3 z m -14.7,-11.1 -5.8,-11.5 h -0.2 l -5.8,11.5 z"
       id="SVGID_51_"
       inkscape:connector-curvature="0" />
    <rect
       height="470.39999"
       width="705.59998"
       y="-94.5"
       x="-46.799999"
       id="SVGID_53_" />
    <polygon
       points="202,184.5 210.4,184.5 210.4,206.4 229.5,206.4 229.5,213 202,213 "
       id="SVGID_55_" />
    <rect
       height="470.39999"
       width="705.59998"
       y="-94.5"
       x="-46.799999"
       id="SVGID_57_" />
    <rect
       height="16.200001"
       width="4.8000002"
       y="222.2"
       x="125"
       id="SVGID_59_" />
    <rect
       height="470.39999"
       width="705.59998"
       y="-94.5"
       x="-46.799999"
       id="SVGID_61_" />
  </defs>
  <sodipodi:namedview
     id="base"
     pagecolor="#ffffff"
     bordercolor="#666666"
     borderopacity="1.0"
     inkscape:pageopacity="0.0"
     inkscape:pageshadow="2"
     inkscape:zoom="3.9597979"
     inkscape:cx="54.230168"
     inkscape:cy="66.025359"
     inkscape:document-units="px"
     inkscape:current-layer="layer1"
     showgrid="false"
     units="px"
     fit-margin-top="0"
     fit-margin-left="0"
     fit-margin-right="0"
     fit-margin-bottom="0"
     inkscape:window-width="1640"
     inkscape:window-height="1050"
     inkscape:window-x="1920"
     inkscape:window-y="0"
     inkscape:window-maximized="1"
     inkscape:snap-global="false" />
  <metadata
     id="metadata5">
    <rdf:RDF>
      <cc:Work
         rdf:about="">
        <dc:format>image/svg+xml</dc:format>
        <dc:type
           rdf:resource="http://purl.org/dc/dcmitype/StillImage" />
        <dc:title></dc:title>
      </cc:Work>
    </rdf:RDF>
  </metadata>
  <g
     inkscape:label="Layer 1"
     inkscape:groupmode="layer"
     id="layer1"
     transform="translate(-22.031012,-295.86604)">
    <path
       style="fill:#000000;stroke-width:0.00946484"
       d="m 30.238011,318.83602 c -0.0077,-0.009 -0.01124,-0.64287 -0.01298,-2.35554 l -0.0024,-2.34276 -2.348829,-0.005 c -2.074108,-0.004 -2.349878,-0.006 -2.357796,-0.0189 -0.01295,-0.0205 -0.0124,-14.72995 5.54e-4,-14.75417 0.0096,-0.018 0.109262,-0.0183 7.382471,-0.0183 6.178045,0 7.374419,0.002 7.383301,0.0128 0.0077,0.009 0.01124,0.64288 0.01298,2.35554 l 0.0024,2.34276 2.348829,0.005 c 2.074108,0.004 2.349879,0.006 2.357795,0.0189 0.01295,0.0205 0.0124,14.72995 -5.47e-4,14.75418 -0.0096,0.018 -0.109262,0.0183 -7.382469,0.0183 -6.178047,0 -7.37442,-0.002 -7.383302,-0.0128 z m 14.338529,-0.4247 c 0.0088,-0.009 0.01135,-1.56808 0.01135,-6.95977 0,-6.85998 -2.52e-4,-6.94852 -0.0183,-6.95819 -0.01984,-0.0106 -4.234102,-0.0146 -4.261649,-0.004 -0.01362,0.005 -0.01496,0.43832 -0.01496,4.81492 0,4.74499 -2.52e-4,4.8093 -0.0183,4.81897 -0.01254,0.007 -1.526356,0.01 -4.814208,0.01 -4.364515,0 -4.796425,0.001 -4.80165,0.015 -0.0079,0.0205 -0.0073,4.26051 5.65e-4,4.2684 0.0035,0.003 3.133693,0.006 6.956054,0.006 5.392745,0 6.952289,-0.003 6.961099,-0.0114 z m -14.36413,-4.7102 c 0.01362,-0.005 0.01496,-0.42605 0.01496,-4.67558 l 1e-6,-4.66982 -2.133614,-2.13369 c -1.173488,-1.17352 -2.138779,-2.13195 -2.145091,-2.12985 -0.009,0.003 -0.012,1.48255 -0.01389,6.79742 -0.0023,6.37897 -0.0014,6.79431 0.01363,6.80542 0.01273,0.009 0.454212,0.0118 2.132541,0.0118 1.164072,0 2.123227,-0.003 2.131458,-0.006 z m 9.643512,-0.006 c 0.01655,-0.0166 0.01655,-9.18402 0,-9.20058 -0.01655,-0.0166 -9.174938,-0.0166 -9.191489,0 -0.01655,0.0166 -0.01655,9.18401 0,9.20058 0.01655,0.0166 9.174937,0.0166 9.191489,0 z m -7.884839,-1.86191 c -0.01024,-0.0103 -0.0125,-0.2413 -0.0125,-1.27534 0,-1.1354 0.0015,-1.26433 0.01487,-1.27771 0.0199,-0.0199 0.194769,-0.0217 0.210981,-0.002 0.0076,0.009 0.01125,0.33564 0.01298,1.17658 l 0.0024,1.16383 0.58653,0.002 c 0.538049,0.002 0.587508,0.004 0.598355,0.0184 0.01326,0.0179 0.0164,0.17043 0.0039,0.19012 -0.01149,0.0181 -1.399518,0.0219 -1.417532,0.004 z m 5.023337,0 c -0.01023,-0.0103 -0.01249,-0.24164 -0.01249,-1.27534 0,-1.16485 0.0012,-1.26405 0.01573,-1.27858 0.01435,-0.0144 0.05413,-0.0154 0.451723,-0.0113 0.444285,0.005 0.544139,0.0117 0.664313,0.0474 0.215284,0.064 0.365537,0.21908 0.415024,0.42839 0.07122,0.30123 -0.02946,0.5636 -0.260594,0.67908 -0.03909,0.0195 -0.07656,0.0355 -0.08327,0.0355 -0.02282,0 -0.0481,0.0192 -0.04297,0.0326 0.0028,0.007 0.02212,0.0162 0.04291,0.0197 0.19609,0.0332 0.370808,0.18459 0.438592,0.38011 0.04385,0.12649 0.0521,0.23817 0.02795,0.37834 -0.01664,0.0965 -0.03472,0.1497 -0.07371,0.21667 -0.108433,0.18621 -0.297438,0.30095 -0.560279,0.34014 -0.140719,0.021 -1.003108,0.027 -1.02293,0.007 z M 38.0081,311.604 c 0.121366,-0.0269 0.228221,-0.0823 0.292457,-0.15176 0.05405,-0.0584 0.09331,-0.13009 0.109281,-0.19942 0.01243,-0.054 0.01229,-0.20017 -2.52e-4,-0.25462 -0.03104,-0.1349 -0.131738,-0.25609 -0.26741,-0.32183 -0.135468,-0.0656 -0.214722,-0.0759 -0.586372,-0.0759 -0.232142,0 -0.317664,0.003 -0.326039,0.0114 -0.0085,0.009 -0.01135,0.1337 -0.01135,0.50504 0,0.27153 0.0028,0.49652 0.0063,0.49999 0.0035,0.003 0.162044,0.006 0.352391,0.006 0.309816,0 0.354979,-0.002 0.430971,-0.019 z m -0.0418,-1.24711 c 0.255794,-0.0791 0.373705,-0.24921 0.339068,-0.48931 -0.02775,-0.19238 -0.139242,-0.30875 -0.34232,-0.35731 -0.06761,-0.0162 -0.108474,-0.0177 -0.407519,-0.0155 l -0.33237,0.002 -0.0026,0.42139 c -0.0014,0.23177 -2.16e-4,0.43139 0.0028,0.4436 l 0.0054,0.0222 0.337796,-0.004 c 0.305157,-0.004 0.343786,-0.006 0.399804,-0.0234 z m -4.147955,1.47599 c -0.0044,-0.007 0.104788,-0.2705 0.181254,-0.43696 0.01555,-0.0338 0.06551,-0.14891 0.111026,-0.25568 0.04551,-0.10677 0.09659,-0.22395 0.113511,-0.26041 0.01692,-0.0365 0.07384,-0.16706 0.126488,-0.29022 0.05265,-0.12317 0.110144,-0.25527 0.127763,-0.29356 0.01762,-0.0383 0.06926,-0.15697 0.114755,-0.26374 0.0455,-0.10677 0.09559,-0.22182 0.111322,-0.25568 0.01573,-0.0339 0.06858,-0.1553 0.117441,-0.26988 0.04886,-0.11458 0.09769,-0.21578 0.108511,-0.2249 0.01595,-0.0134 0.03812,-0.0166 0.117181,-0.0166 0.05363,0 0.103982,0.002 0.111894,0.006 0.0079,0.003 0.04696,0.0829 0.08678,0.17755 0.234237,0.55659 0.305655,0.72646 0.396789,0.94379 0.111928,0.26692 0.295601,0.70429 0.308193,0.73389 0.0044,0.0104 0.05545,0.13186 0.113372,0.26988 0.05792,0.13802 0.121984,0.29067 0.14236,0.33922 0.02038,0.0485 0.03705,0.0922 0.03705,0.0971 0,0.005 -0.05501,0.009 -0.126554,0.009 -0.13696,0 -0.135413,5.7e-4 -0.157211,-0.0568 -0.01282,-0.0337 -0.07107,-0.17708 -0.148169,-0.36458 -0.09516,-0.23142 -0.102066,-0.24518 -0.126563,-0.25202 -0.03511,-0.01 -1.30048,-0.01 -1.325824,0 -0.01772,0.007 -0.0479,0.0696 -0.158223,0.32907 -0.07498,0.17633 -0.140418,0.32592 -0.145425,0.33243 -0.01057,0.0137 -0.229418,0.0172 -0.237719,0.004 z m 1.786562,-0.90005 c 0.0049,-0.008 -0.02963,-0.0998 -0.110762,-0.29455 -0.01843,-0.0442 -0.05983,-0.14433 -0.09201,-0.22245 -0.07393,-0.1795 -0.159342,-0.38662 -0.214769,-0.52083 -0.02366,-0.0573 -0.04829,-0.11695 -0.05473,-0.13257 -0.06491,-0.15749 -0.08549,-0.2036 -0.09088,-0.2036 -0.01386,0 -0.0315,0.0382 -0.192522,0.41666 -0.09195,0.21615 -0.170923,0.40151 -0.175482,0.41193 -0.0046,0.0104 -0.01456,0.0338 -0.02223,0.0521 -0.0077,0.0182 -0.05688,0.1348 -0.10937,0.25905 -0.05249,0.12425 -0.09308,0.22971 -0.0902,0.23437 0.007,0.0113 1.145997,0.0112 1.152954,0 z m 2.507507,-2.01496 c -0.221258,-0.0286 -0.449311,-0.10762 -0.615354,-0.21317 -0.226778,-0.14417 -0.413817,-0.39 -0.501655,-0.65935 -0.05327,-0.16333 -0.06446,-0.24554 -0.06408,-0.47038 3.93e-4,-0.22475 0.01236,-0.31293 0.06378,-0.46984 0.112486,-0.34323 0.3612,-0.61646 0.688981,-0.75689 0.189771,-0.0813 0.336249,-0.1123 0.566446,-0.11986 0.124289,-0.004 0.178549,-0.002 0.260155,0.0116 0.196144,0.0319 0.369589,0.10271 0.509201,0.20789 0.07339,0.0553 0.147329,0.13142 0.147329,0.15169 0,0.006 -0.04119,0.0451 -0.09154,0.0863 -0.05034,0.0411 -0.104621,0.0859 -0.120618,0.0995 -0.0826,0.0703 -0.198072,0.15992 -0.205971,0.15992 -0.0049,0 -0.03616,-0.0231 -0.06939,-0.0513 -0.10784,-0.0916 -0.222563,-0.1347 -0.382821,-0.14391 -0.339254,-0.0195 -0.635988,0.19435 -0.744001,0.53611 -0.02262,0.0715 -0.04085,0.19914 -0.04103,0.28701 -0.0011,0.53174 0.39571,0.90587 0.865299,0.81592 0.0446,-0.009 0.108443,-0.0304 0.155876,-0.0534 0.06515,-0.0316 0.09539,-0.0542 0.159962,-0.11953 0.07166,-0.0726 0.08149,-0.0794 0.0983,-0.0689 0.03899,0.0244 0.420773,0.31298 0.432101,0.32664 0.01461,0.0176 10e-4,0.0368 -0.0968,0.13643 -0.202933,0.20672 -0.495957,0.31596 -0.838632,0.31266 -0.08094,-7.9e-4 -0.159943,-0.003 -0.175553,-0.005 z m -5.833517,-0.0566 c -0.01058,-0.003 -0.08527,-0.17953 -0.234667,-0.55523 -0.120532,-0.30311 -0.232145,-0.58307 -0.248031,-0.62213 -0.01589,-0.0391 -0.04073,-0.10085 -0.0552,-0.13731 -0.01447,-0.0365 -0.04002,-0.10038 -0.05676,-0.14204 -0.01674,-0.0417 -0.04229,-0.10558 -0.05676,-0.14204 -0.01447,-0.0365 -0.03931,-0.0983 -0.05519,-0.13731 -0.182232,-0.44823 -0.323734,-0.81765 -0.316115,-0.82527 0.0054,-0.005 0.13236,-0.009 0.315273,-0.008 0.279478,6.8e-4 0.307081,0.002 0.315849,0.0171 0.0083,0.014 0.142306,0.36038 0.165757,0.42826 0.0045,0.013 0.01733,0.0471 0.02852,0.0757 0.01119,0.0287 0.02396,0.0627 0.02838,0.0758 0.0044,0.013 0.01719,0.0471 0.02838,0.0758 0.01118,0.0286 0.02396,0.0627 0.02838,0.0758 0.0044,0.013 0.0172,0.0471 0.02838,0.0758 0.01118,0.0286 0.02396,0.0627 0.02838,0.0758 0.0044,0.013 0.01719,0.0471 0.02838,0.0757 0.01119,0.0287 0.02396,0.0627 0.02838,0.0758 0.0044,0.013 0.01708,0.0471 0.02813,0.0758 0.01105,0.0286 0.02561,0.067 0.03236,0.0852 0.05459,0.1474 0.160998,0.4247 0.168296,0.43858 0.01157,0.022 0.02954,0.009 0.04544,-0.0341 0.0063,-0.0168 0.0171,-0.0454 0.0241,-0.0636 0.007,-0.0182 0.02808,-0.0736 0.04685,-0.1231 0.04914,-0.12957 0.108019,-0.28353 0.123133,-0.32196 0.0072,-0.0182 0.02839,-0.0736 0.04715,-0.12311 0.04914,-0.12957 0.108019,-0.28352 0.123133,-0.32196 0.0072,-0.0182 0.02839,-0.0736 0.04715,-0.12311 0.04694,-0.12377 0.10746,-0.28207 0.123084,-0.32196 0.0071,-0.0182 0.02675,-0.0694 0.04358,-0.11363 0.01683,-0.0443 0.03465,-0.0858 0.03962,-0.0923 0.0069,-0.009 0.07856,-0.0118 0.301127,-0.0118 0.259649,0 0.292106,0.002 0.292106,0.0149 0,0.008 -0.01534,0.0519 -0.03409,0.0971 -0.035,0.0843 -0.07247,0.17532 -0.174195,0.42303 -0.03208,0.0781 -0.07678,0.18679 -0.09933,0.24147 -0.02255,0.0547 -0.06725,0.16335 -0.09933,0.24147 -0.03208,0.0781 -0.07678,0.18679 -0.09933,0.24148 -0.02255,0.0547 -0.06725,0.16335 -0.09933,0.24147 -0.05994,0.14596 -0.09719,0.23638 -0.198963,0.48294 -0.0727,0.17614 -0.162157,0.39377 -0.200454,0.48769 -0.04447,0.10905 -0.03232,0.10435 -0.266047,0.10306 -0.109989,-6.1e-4 -0.206964,-0.003 -0.2155,-0.005 z m 2.15588,-3.5e-4 c -0.01566,-0.004 -0.01656,-0.0734 -0.01656,-1.28676 v -1.28243 h 0.556165 c 0.455575,0 0.575639,0.003 0.663844,0.015 0.326428,0.0454 0.527018,0.17061 0.632844,0.39497 0.05777,0.12246 0.07119,0.19396 0.07057,0.37602 -4.36e-4,0.12922 -0.0041,0.17016 -0.02139,0.23673 -0.05225,0.20166 -0.165171,0.34731 -0.33638,0.43389 -0.169769,0.0858 -0.358067,0.11484 -0.747826,0.11515 -0.171483,0 -0.240114,0.003 -0.248329,0.0116 -0.0085,0.009 -0.01135,0.13171 -0.01135,0.49613 0,0.43332 -0.0016,0.48539 -0.01496,0.49052 -0.01706,0.007 -0.501346,0.006 -0.526631,-7.8e-4 z m 1.03888,-1.48996 c 0.08202,-0.0143 0.135989,-0.036 0.182064,-0.0732 0.05363,-0.0433 0.08223,-0.0903 0.09633,-0.15829 0.0361,-0.17408 -0.05949,-0.30691 -0.252852,-0.35136 -0.08717,-0.02 -0.487913,-0.0307 -0.508583,-0.0135 -0.01211,0.0101 -0.01425,0.0546 -0.01425,0.29761 0,0.20963 0.003,0.28879 0.01135,0.29712 0.01449,0.0145 0.404407,0.0158 0.485933,0.002 z m 4.388926,-3.33534 c 0.0028,-0.0117 0.004,-0.97583 0.0025,-2.14248 l -0.0026,-2.12117 -6.791913,-0.002 c -4.630051,-0.002 -6.795001,7.2e-4 -6.801613,0.007 -0.0066,0.007 0.666247,0.68633 2.123318,2.14485 l 2.133017,2.13514 h 4.66605 4.666051 z"
       id="path1001"
       inkscape:connector-curvature="0" />
  </g>
  <style
     id="style5080"
     type="text/css">
	.st0{clip-path:url(#SVGID_2_);}
	.st1{clip-path:url(#SVGID_4_);fill:#2E2E2C;}
	.st2{clip-path:url(#SVGID_6_);}
	.st3{clip-path:url(#SVGID_8_);fill:#2E2E2C;}
	.st4{clip-path:url(#SVGID_10_);}
	.st5{clip-path:url(#SVGID_12_);fill:#2E2E2C;}
	.st6{clip-path:url(#SVGID_14_);}
	.st7{clip-path:url(#SVGID_16_);fill:#2E2E2C;}
	.st8{clip-path:url(#SVGID_18_);}
	.st9{clip-path:url(#SVGID_20_);fill:#2E2E2C;}
	.st10{clip-path:url(#SVGID_22_);}
	.st11{clip-path:url(#SVGID_24_);enable-background:new    ;}
	.st12{clip-path:url(#SVGID_26_);}
	.st13{clip-path:url(#SVGID_28_);}
	.st14{clip-path:url(#SVGID_30_);fill:#2E2E2C;}
	.st15{clip-path:url(#SVGID_32_);}
	.st16{clip-path:url(#SVGID_34_);fill:#2E2E2C;}
	.st17{clip-path:url(#SVGID_36_);}
	.st18{clip-path:url(#SVGID_38_);fill:#2E2E2C;}
	.st19{clip-path:url(#SVGID_40_);}
	.st20{clip-path:url(#SVGID_42_);fill:#2E2E2C;}
	.st21{clip-path:url(#SVGID_44_);}
	.st22{clip-path:url(#SVGID_46_);fill:#2E2E2C;}
	.st23{clip-path:url(#SVGID_48_);}
	.st24{clip-path:url(#SVGID_50_);fill:#2E2E2C;}
	.st25{clip-path:url(#SVGID_52_);}
	.st26{clip-path:url(#SVGID_54_);fill:#2E2E2C;}
	.st27{clip-path:url(#SVGID_56_);}
	.st28{clip-path:url(#SVGID_58_);fill:#2E2E2C;}
	.st29{clip-path:url(#SVGID_60_);}
	.st30{clip-path:url(#SVGID_62_);fill:#2E2E2C;}
</style>
</svg>
