<?xml version="1.0" encoding="UTF-8" standalone="no"?>
<!-- Created with Inkscape (http://www.inkscape.org/) -->

<svg
   xmlns:dc="http://purl.org/dc/elements/1.1/"
   xmlns:cc="http://creativecommons.org/ns#"
   xmlns:rdf="http://www.w3.org/1999/02/22-rdf-syntax-ns#"
   xmlns:svg="http://www.w3.org/2000/svg"
   xmlns="http://www.w3.org/2000/svg"
   xmlns:sodipodi="http://sodipodi.sourceforge.net/DTD/sodipodi-0.dtd"
   xmlns:inkscape="http://www.inkscape.org/namespaces/inkscape"
   width="100"
   height="100"
   viewBox="0 0 26.458333 26.458333"
   version="1.1"
   id="svg8"
   inkscape:version="0.92.4 (5da689c313, 2019-01-14)"
   sodipodi:docname="wcf-logo.svg">
  <defs
     id="defs2" />
  <sodipodi:namedview
     id="base"
     pagecolor="#ffffff"
     bordercolor="#666666"
     borderopacity="1.0"
     inkscape:pageopacity="0.0"
     inkscape:pageshadow="2"
     inkscape:zoom="3.959798"
     inkscape:cx="23.558471"
     inkscape:cy="17.321198"
     inkscape:document-units="px"
     inkscape:current-layer="layer1"
     showgrid="false"
     inkscape:snap-global="false"
     units="px"
     inkscape:window-width="1882"
     inkscape:window-height="1080"
     inkscape:window-x="38"
     inkscape:window-y="0"
     inkscape:window-maximized="1" />
  <metadata
     id="metadata5">
    <rdf:RDF>
      <cc:Work
         rdf:about="">
        <dc:format>image/svg+xml</dc:format>
        <dc:type
           rdf:resource="http://purl.org/dc/dcmitype/StillImage" />
        <dc:title></dc:title>
      </cc:Work>
    </rdf:RDF>
  </metadata>
  <g
     inkscape:label="Layer 1"
     inkscape:groupmode="layer"
     id="layer1"
     transform="translate(0,-270.54167)">
    <path
       inkscape:connector-curvature="0"
       id="path2010"
       d="m 4.1861342,290.13197 c -1.041166,-1.93396 -1.500956,-2.78898 -1.504838,-2.79838 -0.0025,-0.006 0.184154,-0.01 0.414876,-0.008 l 0.419495,0.004 0.431255,0.78862 c 0.23719,0.43374 0.434624,0.78861 0.438741,0.78861 0.0057,0 0.42924,-0.77487 0.44809,-0.81979 0.0022,-0.005 -0.08775,-0.17908 -0.199768,-0.38658 l -0.20367,-0.37727 0.838172,-0.004 c 0.474137,-0.002 0.83817,10e-4 0.838169,0.008 -1e-6,0.007 -0.09218,0.18021 -0.204837,0.38583 -0.112659,0.20562 -0.204835,0.37847 -0.204835,0.38412 0,0.0192 0.430882,0.7986 0.442501,0.80036 0.01199,0.002 0.05198,-0.0708 0.557012,-1.0118 l 0.302126,-0.56293 0.434812,-0.004 c 0.239146,-0.002 0.434808,-10e-4 0.434804,0.002 -2.7e-5,0.0202 -1.729096,3.16459 -1.736225,3.15735 -0.0048,-0.005 -0.188518,-0.34382 -0.408201,-0.75315 -0.219682,-0.40933 -0.412937,-0.76742 -0.429456,-0.79575 l -0.03004,-0.0515 -0.434424,0.79575 c -0.238933,0.43766 -0.438165,0.80013 -0.442738,0.80548 -0.0046,0.005 -0.09503,-0.15134 -0.201027,-0.34822 z m 6.8297248,0.26842 c -0.714731,-0.0772 -1.286554,-0.60852 -1.4086079,-1.30896 -0.031939,-0.18329 -0.019167,-0.48825 0.02804,-0.66933 0.070246,-0.26949 0.2455957,-0.56348 0.4476649,-0.75057 0.45489,-0.42116 1.09259,-0.54185 1.668257,-0.31574 0.176348,0.0693 0.455678,0.24648 0.443265,0.28122 -0.0023,0.007 -0.125722,0.13462 -0.274212,0.28469 l -0.26998,0.27285 -0.06701,-0.0451 c -0.10686,-0.0719 -0.219368,-0.10482 -0.386066,-0.11292 -0.131099,-0.006 -0.158264,-0.003 -0.260099,0.0283 -0.212253,0.0662 -0.381441,0.20787 -0.475451,0.39818 -0.119999,0.24292 -0.121664,0.47665 -0.0051,0.71357 0.08807,0.17897 0.247336,0.32169 0.440528,0.39476 0.121545,0.046 0.312651,0.0575 0.443078,0.0267 0.09287,-0.0219 0.24199,-0.0887 0.287384,-0.12876 0.02296,-0.0202 0.04218,-0.004 0.303387,0.257 0.318641,0.31836 0.304719,0.27874 0.138276,0.39346 -0.176682,0.12177 -0.366048,0.20447 -0.570903,0.24933 -0.117428,0.0257 -0.377524,0.0425 -0.482466,0.0312 z m 9.338407,-0.0524 c 0.0169,-0.044 1.718637,-3.14982 1.72331,-3.14515 0.0066,0.007 1.699486,3.15442 1.699486,3.16005 0,0.003 -0.371775,0.005 -0.826167,0.005 -0.454391,0 -0.826167,-0.002 -0.826167,-0.004 0,-0.002 0.09198,-0.17253 0.204406,-0.37839 l 0.204406,-0.37429 -0.03472,-0.062 c -0.01909,-0.0341 -0.121241,-0.22024 -0.226995,-0.41364 -0.105753,-0.1934 -0.19611,-0.35163 -0.200792,-0.35163 -0.007,0 -0.223816,0.39892 -0.786533,1.4475 l -0.06962,0.12973 -0.434231,0.004 c -0.380886,0.003 -0.433266,0.001 -0.426388,-0.0168 z M 8.1413452,288.83178 v -1.50895 h 0.4369811 0.4369805 v 1.50895 1.50895 H 8.5783263 8.1413452 Z m 4.5746418,0 v -1.50895 h 0.436981 0.436981 v 0.56685 0.56686 l 0.590607,-0.004 0.590606,-0.004 0.0035,-0.56671 0.0036,-0.56671 0.436842,0.004 0.43684,0.004 v 1.50858 1.50858 h -0.436832 -0.436833 l -0.0035,-0.57696 -0.0036,-0.57695 -0.590607,-0.004 -0.590607,-0.004 v 0.58051 0.58051 h -0.43698 -0.436981 z m 3.605091,0 v -1.50895 h 0.436981 0.436981 v 1.50895 1.50895 h -0.436981 -0.436981 z m 2.403394,0.35522 v -1.15373 l -0.474533,-0.004 -0.474534,-0.004 -0.0036,-0.35163 -0.0036,-0.35163 h 1.393338 1.393338 l -0.0036,0.35163 -0.0036,0.35163 -0.474534,0.004 -0.474533,0.004 v 1.15373 1.15373 h -0.43699 -0.436981 z m -9.640887,-9.70507 c -0.2966687,-0.26082 -0.5735387,-0.51025 -0.6152658,-0.55428 -0.133495,-0.14088 -0.263609,-0.44221 -0.299086,-0.69266 -0.0099,-0.0695 -0.01401,-0.28071 -0.01144,-0.58116 l 0.004,-0.47192 0.4847756,0.44236 c 0.2666264,0.24329 0.5365657,0.48638 0.599865,0.5402 0.2007404,0.17065 0.3143683,0.33453 0.3626643,0.52305 0.017573,0.0686 0.020392,0.17789 0.017408,0.67524 l -0.00355,0.59339 z m 0.8878543,-0.095 c 2.661e-4,-0.64893 0.00541,-0.69849 0.090332,-0.87106 0.03872,-0.0787 0.07945,-0.13105 0.181115,-0.23287 0.116245,-0.11643 1.102947,-1.0181 1.186629,-1.08438 l 0.03268,-0.0259 -0.0063,0.51749 c -0.0052,0.42452 -0.01051,0.53589 -0.02981,0.61991 -0.04671,0.20334 -0.123579,0.39184 -0.216045,0.52978 -0.05252,0.0784 -0.355929,0.35443 -1.187639,1.08066 l -0.051209,0.0447 2.374e-4,-0.57837 z m 5.9306657,0.0652 c -0.316806,-0.27888 -0.595424,-0.53163 -0.61915,-0.56168 -0.101873,-0.12899 -0.194756,-0.34115 -0.248102,-0.5667 -0.02413,-0.10204 -0.0283,-0.17863 -0.03449,-0.63346 -0.0069,-0.50829 -0.0066,-0.51704 0.01918,-0.49843 0.05922,0.0428 1.21907,1.10641 1.26631,1.16123 0.06694,0.0777 0.11379,0.15821 0.15676,0.26944 l 0.03492,0.0904 0.0045,0.52574 c 0.0024,0.28916 0.0026,0.56957 2.87e-4,0.62313 l -0.0042,0.0974 -0.576013,-0.50704 z m 0.924232,-0.0865 c 0,-0.65812 0.0024,-0.68277 0.084,-0.84324 0.05471,-0.10766 0.155003,-0.23264 0.253524,-0.31593 0.04343,-0.0367 0.317476,-0.28406 0.608985,-0.54965 l 0.530012,-0.4829 -0.0048,0.5442 c -0.0048,0.54386 -0.0049,0.54428 -0.04229,0.68075 -0.0465,0.16962 -0.164836,0.41536 -0.242347,0.50327 -0.03214,0.0364 -0.2371,0.22355 -0.45546,0.41577 -0.218359,0.19221 -0.472292,0.4164 -0.564297,0.49818 l -0.167282,0.1487 z m -7.743092,-1.82734 c -0.296482,-0.25926 -0.5730486,-0.50687 -0.6145933,-0.55024 -0.1251765,-0.13068 -0.2326295,-0.36715 -0.2861265,-0.62966 -0.02514,-0.12335 -0.02752,-0.18729 -0.02752,-0.73718 v -0.60212 h 0.7372853 0.7372853 l 0.00352,1.49529 c 0.00194,0.82242 3.07e-4,1.4953 -0.00363,1.49529 -0.00394,0 -0.2497441,-0.21212 -0.5462258,-0.47138 z m 0.8879573,-1.86373 v -2.33511 h 0.7447557 0.744757 l -0.0046,1.45774 c -0.0045,1.42318 -0.0053,1.46065 -0.03321,1.58063 -0.05406,0.2322 -0.147899,0.44626 -0.252202,0.57535 -0.03983,0.0493 -1.1775996,1.0565 -1.1934503,1.0565 -0.00334,0 -0.00605,-1.0508 -0.00605,-2.33511 z m 5.9324507,1.83513 c -0.313938,-0.27498 -0.594353,-0.52847 -0.623145,-0.56329 -0.09524,-0.1152 -0.194267,-0.34708 -0.251557,-0.58906 -0.0226,-0.0954 -0.02456,-0.25191 -0.02883,-2.29756 l -0.0046,-2.19515 h 0.744705 0.744704 v 3.07252 c 0,1.68989 -0.0024,3.07252 -0.0053,3.07252 -0.0029,0 -0.262106,-0.22499 -0.576044,-0.49998 z m 0.922684,-1.83301 v -2.33723 h 0.737405 0.737405 l -4.67e-4,1.44408 c -3.95e-4,1.1467 -0.0043,1.46517 -0.01881,1.5465 -0.03797,0.21212 -0.156225,0.49862 -0.255531,0.61909 -0.03163,0.0384 -0.889724,0.80039 -1.176095,1.04442 -0.02275,0.0194 -0.0239,-0.0923 -0.0239,-2.31686 z"
       style="fill:#f7b231;stroke-width:0.01365565" />
    <path
       inkscape:connector-curvature="0"
       id="path2008"
       d="m 5.2652912,295.6667 c -0.31302,-0.0471 -0.524597,-0.26709 -0.547808,-0.56969 -0.01896,-0.24723 0.09642,-0.47749 0.298664,-0.59601 0.201574,-0.11813 0.50248,-0.11374 0.714355,0.0104 0.06968,0.0408 0.17352,0.1504 0.209511,0.22105 0.105989,0.20808 0.09331,0.48674 -0.03046,0.66969 -0.13032,0.19263 -0.396254,0.30182 -0.644261,0.26453 z m 0.216788,-0.29489 c 0.136076,-0.0464 0.228276,-0.21082 0.209198,-0.37313 -0.02025,-0.17229 -0.137771,-0.28892 -0.301639,-0.29935 -0.107035,-0.007 -0.172142,0.014 -0.242852,0.0777 -0.07428,0.0669 -0.10909,0.14947 -0.109969,0.26087 -0.002,0.25447 0.210563,0.41387 0.445262,0.3339 z m 2.119868,0.29402 c -0.191383,-0.0252 -0.340038,-0.12241 -0.412395,-0.26976 l -0.03824,-0.0779 -0.0041,-0.44039 -0.0041,-0.4404 h 0.156982 0.156982 l 0.0042,0.39943 c 0.0039,0.37102 0.0061,0.40265 0.03148,0.44475 0.04633,0.0769 0.107136,0.10489 0.227731,0.10489 0.112264,0 0.150916,-0.017 0.205899,-0.0907 0.04332,-0.058 0.05048,-0.12847 0.05082,-0.49994 l 3.26e-4,-0.35846 h 0.157907 0.157907 l -0.0043,0.43357 -0.0043,0.43356 -0.03973,0.086 c -0.07292,0.15793 -0.211974,0.24859 -0.423428,0.27608 -0.108266,0.0141 -0.106315,0.0141 -0.219627,-7.2e-4 z m 13.0206598,-0.001 c -0.175867,-0.0253 -0.345486,-0.13127 -0.437247,-0.27324 -0.07347,-0.11368 -0.09986,-0.22394 -0.09313,-0.38912 0.0047,-0.11576 0.0115,-0.14738 0.04855,-0.22637 0.107865,-0.22996 0.310818,-0.35406 0.584238,-0.35724 0.178485,-0.002 0.298878,0.0339 0.418501,0.12499 0.301066,0.22929 0.327877,0.68856 0.05537,0.94848 -0.08817,0.0841 -0.152146,0.12105 -0.262622,0.15166 -0.103968,0.0288 -0.209474,0.0358 -0.313668,0.0208 z m 0.245802,-0.29963 c 0.08259,-0.0374 0.120344,-0.0745 0.158714,-0.1559 0.03635,-0.0771 0.04357,-0.20555 0.01662,-0.29552 -0.02117,-0.0707 -0.09955,-0.15983 -0.167741,-0.19081 -0.126381,-0.0574 -0.317499,-0.0148 -0.39611,0.0882 -0.107166,0.1405 -0.09633,0.35531 0.02435,0.48256 0.0941,0.0992 0.239814,0.12782 0.364173,0.0714 z M 2.7610202,295.04543 v -0.60767 h 0.451131 0.451131 l -0.0039,0.13314 -0.0039,0.13314 -0.2908,0.004 -0.290801,0.004 0.004,0.0919 0.004,0.0919 0.279941,0.003 0.279941,0.003 v 0.13396 0.13396 l -0.283355,0.004 -0.283355,0.004 v 0.2387 0.23869 h -0.15704 -0.15704 z m 6.8278239,0 v -0.60767 h 0.1628924 0.1628926 l 0.2433629,0.33107 0.243363,0.33107 0.0037,-0.33107 0.0037,-0.33107 h 0.156798 0.156797 v 0.60767 0.60768 h -0.153626 -0.153627 l -0.252629,-0.34629 -0.2526293,-0.34629 -0.00364,0.34631 -0.00364,0.34631 H 9.745669 9.5888597 v -0.60767 z m 2.4307049,0 v -0.60767 h 0.30797 c 0.353505,0 0.4481,0.0148 0.574959,0.0897 0.103012,0.0609 0.175874,0.1411 0.227493,0.2505 0.03527,0.0747 0.04224,0.10794 0.0475,0.22628 0.0096,0.21653 -0.03965,0.35049 -0.175807,0.47784 -0.07895,0.0738 -0.20331,0.13465 -0.319243,0.15608 -0.04438,0.008 -0.211687,0.0149 -0.371786,0.0149 H 12.01955 Z m 0.615334,0.31257 c 0.130926,-0.0389 0.231316,-0.1775 0.231316,-0.31939 0,-0.0815 -0.0431,-0.18372 -0.100882,-0.23935 -0.07243,-0.0697 -0.135765,-0.0884 -0.300129,-0.0884 h -0.131559 v 0.33456 0.33457 h 0.113595 c 0.06468,0 0.145485,-0.009 0.187659,-0.022 z m 1.574638,0.26439 c 0.0044,-0.0169 0.105499,-0.28882 0.22463,-0.60427 l 0.216603,-0.57354 h 0.202038 0.202038 l 0.217055,0.57354 c 0.119379,0.31545 0.2206,0.58736 0.224934,0.60427 0.0079,0.0307 0.0076,0.0307 -0.168493,0.0307 h -0.176375 l -0.02729,-0.0854 -0.02729,-0.0853 -0.240284,-0.004 -0.240285,-0.004 -0.03195,0.0891 -0.03194,0.0891 h -0.175713 c -0.175494,0 -0.175702,0 -0.167683,-0.0307 z m 0.725244,-0.63461 c -0.04116,-0.11784 -0.07503,-0.2177 -0.07526,-0.2219 -0.0012,-0.0227 -0.03297,0.057 -0.09391,0.2358 l -0.06829,0.20036 h 0.156153 0.156153 z m 1.905228,0.19378 v -0.47112 h -0.170695 -0.170696 v -0.13656 -0.13655 h 0.498431 0.498431 v 0.13655 0.13656 h -0.170696 -0.170695 v 0.47112 0.47112 h -0.15704 -0.15704 z m 1.78889,-0.13656 v -0.60767 h 0.15704 0.157039 v 0.60767 0.60768 h -0.157039 -0.15704 z m 3.864548,-3.6e-4 v -0.60809 l 0.166343,0.004 0.166344,0.004 0.239912,0.32543 0.239912,0.32542 0.0037,-0.32884 0.0037,-0.32884 h 0.156787 0.156797 v 0.60768 0.60768 l -0.153626,-3.6e-4 -0.153626,-3.6e-4 -0.25263,-0.34728 -0.252629,-0.34727 -0.0036,0.34777 -0.0036,0.34778 H 22.650237 22.493428 Z M 3.1601772,293.09232 c -0.209676,-0.0585 -0.368669,-0.20947 -0.428689,-0.40708 -0.02352,-0.0774 -0.02746,-0.11864 -0.02233,-0.23382 0.0054,-0.12041 0.01214,-0.15245 0.04886,-0.23093 0.05892,-0.12592 0.161867,-0.2312 0.282274,-0.28868 0.202656,-0.0967 0.428459,-0.0988 0.611148,-0.006 0.06459,0.033 0.18321,0.14846 0.220076,0.21429 l 0.02487,0.0444 -0.133535,0.062 -0.133536,0.062 -0.04653,-0.056 c -0.06388,-0.0769 -0.133002,-0.10966 -0.230617,-0.10929 -0.09937,3.6e-4 -0.172987,0.0331 -0.238747,0.106 -0.05214,0.0578 -0.09295,0.16417 -0.09295,0.24223 0,0.17602 0.13355,0.32605 0.306089,0.34386 0.06384,0.007 0.08679,0.002 0.151552,-0.0296 0.05013,-0.0245 0.0882,-0.0553 0.110927,-0.0896 l 0.0346,-0.0523 0.130274,0.0605 c 0.07165,0.0333 0.132971,0.0605 0.136268,0.0605 0.0033,0 -0.008,0.0249 -0.02518,0.0555 -0.04495,0.08 -0.162956,0.18607 -0.253889,0.22825 -0.06771,0.0314 -0.0993,0.0369 -0.228768,0.04 -0.100626,0.003 -0.173968,-0.003 -0.222176,-0.0165 z m 2.326887,0.005 c -0.09011,-0.0212 -0.236435,-0.10716 -0.302491,-0.17778 -0.258693,-0.27656 -0.202488,-0.7604 0.111235,-0.95755 0.119233,-0.0749 0.205354,-0.0973 0.373865,-0.0969 0.125209,2.6e-4 0.172952,0.006 0.235543,0.0291 0.228039,0.0836 0.371074,0.25759 0.40807,0.49638 0.05025,0.32432 -0.155423,0.63547 -0.467616,0.70744 -0.07283,0.0168 -0.285937,0.0164 -0.358606,-7.2e-4 z m 0.350306,-0.30327 c 0.110782,-0.0649 0.167654,-0.18651 0.156954,-0.33556 -0.01424,-0.19839 -0.134787,-0.31556 -0.324651,-0.31556 -0.184272,0 -0.307245,0.11455 -0.324246,0.30204 -0.01597,0.17619 0.06618,0.32133 0.212982,0.37624 0.07517,0.0281 0.206443,0.0153 0.278961,-0.0271 z m 7.9112258,0.3039 c -0.08551,-0.0212 -0.211698,-0.0954 -0.261993,-0.15412 -0.02566,-0.03 -0.06045,-0.0888 -0.07733,-0.13069 -0.02952,-0.0733 -0.03068,-0.0924 -0.03083,-0.50634 l -1.64e-4,-0.43016 h 0.15704 0.15704 l 0.0068,0.41212 c 0.0065,0.39197 0.0082,0.41399 0.03557,0.45063 0.05017,0.0673 0.110515,0.0931 0.217063,0.0931 0.110655,0 0.173453,-0.0302 0.21849,-0.10489 0.0252,-0.0418 0.02784,-0.0765 0.03414,-0.44816 l 0.0068,-0.40285 0.15432,-0.004 0.15432,-0.004 -0.0041,0.44767 c -0.004,0.43638 -0.0049,0.44947 -0.03623,0.51871 -0.0432,0.0955 -0.151642,0.19614 -0.254991,0.23658 -0.06731,0.0264 -0.111465,0.0326 -0.252284,0.0356 -0.09388,0.002 -0.194552,-0.002 -0.223711,-0.009 z m -6.1228918,-0.61022 0.0036,-0.61109 h 0.216315 0.216316 l 0.124922,0.3238 c 0.06871,0.17808 0.128742,0.31942 0.13341,0.31408 0.0047,-0.005 0.05918,-0.14183 0.1211463,-0.30331 0.061962,-0.16148 0.1183414,-0.30435 0.125288,-0.3175 0.011196,-0.0212 0.036602,-0.0239 0.2238128,-0.0239 h 0.2111821 v 0.6145 0.61451 H 8.8446112 8.6875714 l -6.463e-4,-0.38578 -6.464e-4,-0.38577 -0.075014,0.19118 c -0.041258,0.10515 -0.109462,0.27904 -0.1515658,0.38642 l -0.076552,0.19524 -0.0695,-0.004 -0.0695,-0.004 -0.144741,-0.37214 c -0.07961,-0.20467 -0.148827,-0.37622 -0.153822,-0.38121 -0.005,-0.005 -0.0091,0.164 -0.0091,0.37555 v 0.38463 h -0.157181 -0.15718 z m 2.8780678,-0.004 v -0.6145 h 0.211312 0.211312 l 0.0188,0.0376 c 0.01035,0.0206 0.06666,0.16353 0.125143,0.31749 0.05849,0.15397 0.110183,0.28434 0.114884,0.2897 0.0047,0.005 0.06484,-0.13597 0.133653,-0.31408 l 0.125108,-0.32384 h 0.216088 0.216088 l 0.0036,0.61109 0.0036,0.6111 h -0.157171 -0.15718 v -0.38464 c 0,-0.21155 -0.0041,-0.38054 -0.0091,-0.37555 -0.005,0.005 -0.07421,0.17654 -0.153823,0.38122 l -0.144741,0.37214 -0.06996,0.004 -0.06996,0.004 -0.07605,-0.19525 c -0.04183,-0.10739 -0.10974,-0.28128 -0.150922,-0.38643 l -0.07488,-0.19118 -8.25e-4,0.38577 -8.26e-4,0.38577 h -0.15704 -0.15704 z m 5.516882,1e-5 v -0.61538 l 0.159211,0.004 0.159213,0.004 0.240215,0.3262 0.240217,0.32619 0.0068,-0.32619 0.0068,-0.3262 h 0.157039 0.157041 v 0.60768 0.60768 l -0.150827,0.004 -0.150827,0.004 -0.255192,-0.34981 -0.255191,-0.34981 -0.0037,0.34598 -0.0037,0.34597 -0.153627,0.004 -0.153626,0.004 z m 2.621884,-3.6e-4 v -0.61495 l 0.153626,0.004 0.153627,0.004 0.0036,0.61109 0.0036,0.61109 H 18.79972 18.642539 Z m 2.075659,0.14384 V 292.1561 H 20.547023 20.37585 l 0.0039,-0.13997 0.0039,-0.13997 h 0.491603 0.491603 l 0.0039,0.13997 0.0039,0.13997 h -0.171164 -0.171173 v 0.47112 0.47112 h -0.157041 -0.157039 z m 2.266837,0.22778 v -0.24333 l -0.232146,-0.36409 c -0.12768,-0.20064 -0.232146,-0.36767 -0.232146,-0.37117 0,-0.004 0.07586,-0.006 0.168579,-0.006 0.143579,0 0.171643,0.004 0.189237,0.0239 0.01136,0.0131 0.07447,0.11542 0.140236,0.22727 l 0.119577,0.20337 0.08615,-0.14875 c 0.04739,-0.0818 0.107867,-0.18408 0.134404,-0.22726 l 0.04825,-0.0785 h 0.171286 c 0.09421,0 0.171217,0.005 0.171135,0.0102 -1.36e-4,0.006 -0.101434,0.17001 -0.225222,0.36529 l -0.225072,0.35505 -1.36e-4,0.24921 -1.36e-4,0.24922 H 23.141989 22.98495 v -0.24334 z M 9.0562738,283.25849 c -0.31169,-0.27385 -0.5929148,-0.53005 -0.6249438,-0.56934 -0.1159968,-0.14229 -0.2249428,-0.4134 -0.2619288,-0.6518 -0.0105,-0.0677 -0.01448,-0.26385 -0.01173,-0.57842 l 0.0042,-0.476 0.2662849,0.24245 c 0.1464566,0.13334 0.3861134,0.35031 0.5325704,0.48214 0.390169,0.35121 0.5163705,0.48195 0.5768852,0.59766 0.089561,0.17125 0.092973,0.20439 0.088973,0.86415 l -0.00355,0.58707 z m 0.9175695,-0.11613 0.00419,-0.62023 0.037265,-0.10211 c 0.04685,-0.12838 0.135713,-0.25927 0.246689,-0.36336 0.191539,-0.17966 1.172151,-1.06428 1.18446,-1.06852 0.01814,-0.006 0.01731,0.83221 -9.69e-4,0.98129 -0.0305,0.2487 -0.135173,0.5368 -0.253711,0.69828 -0.03722,0.0507 -1.026483,0.93896 -1.1977918,1.07549 -0.023264,0.0185 -0.024137,-0.008 -0.020133,-0.60084 z m 5.9227107,0.10622 c -0.31986,-0.28159 -0.601458,-0.53873 -0.625772,-0.57142 -0.124879,-0.16791 -0.233701,-0.46977 -0.26019,-0.72174 -0.01582,-0.15045 -0.01909,-0.96958 -0.0039,-0.96951 0.0085,4e-5 0.364734,0.32111 1.151681,1.03796 0.139071,0.12668 0.231336,0.25609 0.28245,0.39615 l 0.03726,0.10211 0.0041,0.50526 c 0.0023,0.27789 0.0023,0.55654 0,0.61921 l -0.0041,0.11396 z m 0.929783,-0.0835 c 0,-0.66749 0.0021,-0.68696 0.09322,-0.86141 0.03466,-0.0664 0.08753,-0.1334 0.172946,-0.21925 0.108959,-0.10952 1.095325,-1.0106 1.178264,-1.07639 l 0.03235,-0.0257 -0.0054,0.54457 c -0.0054,0.54298 -0.0055,0.54496 -0.04221,0.67286 -0.04759,0.16581 -0.113992,0.31803 -0.188486,0.43208 -0.04932,0.0755 -0.153861,0.17393 -0.612525,0.57663 -0.30418,0.26707 -0.569953,0.5011 -0.590607,0.52008 l -0.03755,0.0345 z m -5.076719,-1.5863 c 0.0046,-0.60834 0.0056,-0.62946 0.03508,-0.70896 0.06315,-0.17039 0.156697,-0.29411 0.356221,-0.47112 0.0635,-0.0563 0.333043,-0.30059 0.598993,-0.54281 0.426193,-0.38816 0.486373,-0.43837 0.507374,-0.42332 0.05161,0.037 1.053779,0.95228 1.176786,1.07478 0.138771,0.13821 0.186902,0.2082 0.243443,0.35401 l 0.03505,0.0904 0.0043,0.62683 0.0043,0.62683 -0.09294,-0.0822 c -0.634907,-0.56149 -1.391094,-1.21889 -1.398783,-1.21604 -0.0077,0.003 -1.204671,1.0562 -1.422638,1.25195 l -0.05197,0.0467 z m -2.7106018,-0.21644 c -0.673394,-0.59312 -0.690007,-0.6123 -0.798794,-0.92197 -0.07699,-0.21917 -0.08683,-0.32149 -0.08239,-0.85677 l 0.004,-0.48124 0.5120865,0.46559 c 0.2816478,0.25608 0.5627365,0.51141 0.6246419,0.56741 0.1790059,0.16193 0.2835149,0.32814 0.317117,0.50433 0.01032,0.0541 0.014047,0.27071 0.011343,0.65881 l -0.00403,0.57819 z m 0.9324231,-0.0651 c 2.622e-4,-0.638 0.00557,-0.69237 0.082498,-0.8449 0.06001,-0.11898 0.144924,-0.22609 0.254692,-0.32125 0.0507,-0.044 0.326865,-0.29347 0.613699,-0.55446 0.286834,-0.26099 0.525077,-0.47453 0.529429,-0.47453 0.01442,0 0.0081,0.86487 -0.0072,0.99003 -0.04083,0.33322 -0.168694,0.62617 -0.349289,0.80029 -0.100889,0.0973 -1.106997,0.98177 -1.1167525,0.98177 -0.00401,0 -0.00718,-0.25962 -0.00705,-0.57695 z m 6.0219037,0.1588 c -0.68539,-0.60526 -0.706878,-0.62595 -0.780031,-0.75087 -0.110802,-0.18923 -0.178086,-0.39951 -0.202709,-0.63352 -0.01717,-0.16317 -0.01868,-0.97351 -0.0018,-0.96728 0.0068,0.003 0.241824,0.21384 0.522332,0.46963 0.280509,0.25579 0.554157,0.50306 0.608109,0.54949 0.11444,0.0985 0.201743,0.20744 0.262022,0.32696 0.07932,0.15728 0.08326,0.19697 0.08348,0.83996 1.36e-4,0.32108 -0.0044,0.58331 -0.01004,0.58273 -0.0056,-7.2e-4 -0.222246,-0.18827 -0.481362,-0.4171 z m 0.836158,-0.20438 c 0.0044,-0.61882 0.0049,-0.62809 0.03654,-0.71378 0.04734,-0.12812 0.152393,-0.27524 0.27872,-0.39031 0.06145,-0.056 0.345241,-0.31384 0.630644,-0.57305 l 0.518915,-0.47128 0.004,0.47396 c 0.0025,0.30116 -0.0016,0.51354 -0.01139,0.5825 -0.01757,0.12368 -0.08853,0.35088 -0.143564,0.45969 -0.08914,0.17624 -0.129898,0.21809 -0.706222,0.72516 -0.309753,0.27253 -0.574201,0.50418 -0.587664,0.51478 -0.02347,0.0185 -0.0243,-0.007 -0.02002,-0.60767 z m -5.080307,-1.54913 0.0041,-0.62092 0.03726,-0.1021 c 0.0205,-0.0562 0.06604,-0.14422 0.101201,-0.19569 0.06888,-0.10081 0.0755,-0.10713 0.830556,-0.79299 0.498418,-0.45274 0.505078,-0.45816 0.532571,-0.43338 0.147602,0.13302 1.013843,0.91988 1.115949,1.01369 0.151773,0.13943 0.255102,0.28337 0.30073,0.4189 0.02991,0.0889 0.03096,0.11005 0.03516,0.71249 l 0.0043,0.62092 -0.03138,-0.0281 c -0.01726,-0.0155 -0.335562,-0.29434 -0.707337,-0.61971 -0.371775,-0.32537 -0.692562,-0.60683 -0.712863,-0.62545 l -0.03691,-0.0339 -0.174756,0.15627 c -0.09611,0.086 -0.41441,0.36734 -0.707324,0.62531 -0.292913,0.25796 -0.546692,0.48174 -0.563952,0.49729 l -0.03138,0.0283 z"
       style="fill:#0a6b66;stroke-width:0.01365565" />
  </g>
</svg>
