<?xml version="1.0" encoding="UTF-8" standalone="no"?>
<svg
   xmlns:dc="http://purl.org/dc/elements/1.1/"
   xmlns:cc="http://creativecommons.org/ns#"
   xmlns:rdf="http://www.w3.org/1999/02/22-rdf-syntax-ns#"
   xmlns:svg="http://www.w3.org/2000/svg"
   xmlns="http://www.w3.org/2000/svg"
   xmlns:sodipodi="http://sodipodi.sourceforge.net/DTD/sodipodi-0.dtd"
   xmlns:inkscape="http://www.inkscape.org/namespaces/inkscape"
   version="1.1"
   id="Layer_1"
   x="0px"
   y="0px"
   width="100"
   height="100"
   viewBox="0 0 100 99.999997"
   enable-background="new 0 0 5573.111 1990.154"
   xml:space="preserve"
   sodipodi:docname="wichita-animal-rights-group-logo.svg"
   inkscape:version="0.92.1 r15371"><metadata
     id="metadata1611"><rdf:RDF><cc:Work
         rdf:about=""><dc:format>image/svg+xml</dc:format><dc:type
           rdf:resource="http://purl.org/dc/dcmitype/StillImage" /><dc:title></dc:title></cc:Work></rdf:RDF></metadata><defs
     id="defs1609" /><sodipodi:namedview
     pagecolor="#ffffff"
     bordercolor="#666666"
     borderopacity="1"
     objecttolerance="10"
     gridtolerance="10"
     guidetolerance="10"
     inkscape:pageopacity="0"
     inkscape:pageshadow="2"
     inkscape:window-width="1054"
     inkscape:window-height="805"
     id="namedview1607"
     showgrid="false"
     inkscape:zoom="3.3187928"
     inkscape:cx="42.359128"
     inkscape:cy="25.330535"
     inkscape:window-x="2063"
     inkscape:window-y="138"
     inkscape:window-maximized="0"
     inkscape:current-layer="Layer_1" /><path
     d="m 57.136965,43.444313 c -0.110015,0.166312 -0.180251,0.280356 -0.256847,0.390223 -0.715492,1.024711 -1.518374,1.960356 -2.612842,2.607823 -1.467029,0.867289 -3.057104,1.225067 -4.714459,0.865867 -0.850397,-0.184533 -1.641581,-0.660445 -2.442496,-1.040267 -0.184601,-0.08711 -0.285499,-0.08924 -0.449587,0.0089 -0.686969,0.405156 -1.355133,0.859378 -2.082511,1.1744 -1.291026,0.558934 -2.650423,0.87209 -4.055481,0.500356 -0.880685,-0.232978 -1.642528,-0.729156 -2.330817,-1.326045 -0.488115,-0.4232 -0.519465,-0.422756 -1.014542,-0.01511 -0.890187,0.732534 -1.917877,1.204801 -2.993254,1.595023 -1.33396,0.484445 -2.709678,0.781245 -4.116732,0.920623 -1.716755,0.169955 -3.308654,-0.121601 -4.470416,-1.532801 -0.931242,-1.130845 -1.180281,-2.44249 -0.610589,-3.806135 0.623982,-1.493067 1.345488,-2.945957 2.023026,-4.416357 0.353281,-0.766045 0.70886,-1.531379 1.051519,-2.301957 0.06268,-0.1416 0.08801,-0.306756 0.09516,-0.463022 0.0134,-0.287289 0.07188,-0.601956 -0.260335,-0.774845 -0.339414,-0.176089 -0.73988,-0.144356 -0.988674,0.170489 -0.311897,0.393867 -0.587836,0.825245 -0.819979,1.2712 -0.769006,1.47609 -1.513021,2.96569 -2.263135,4.45138 -0.562715,1.114045 -1.114636,2.233068 -1.682476,3.344268 -0.537997,1.053956 -1.549208,1.455467 -2.645125,1.045689 -0.369129,-0.138666 -0.600669,-0.410933 -0.662867,-0.825156 -0.08799,-0.587644 0.104702,-1.113867 0.313174,-1.639911 0.45527,-1.150756 0.916441,-2.29929 1.371526,-3.450402 0.243699,-0.617156 0.487555,-1.234845 0.716353,-1.857689 0.160284,-0.435556 0.208444,-0.897423 0.02148,-1.325157 -0.144696,-0.329866 -0.429462,-0.568266 -0.828951,-0.5328 -0.436266,0.03822 -0.779485,0.266578 -0.943945,0.671645 -0.578664,1.428623 -1.133714,2.866668 -1.703046,4.299113 -0.680955,1.714401 -1.350598,3.433512 -2.05996,5.136358 -0.262575,0.629244 -0.658633,1.202222 -1.325003,1.471556 -0.337334,0.1368 -0.719253,0.221422 -1.082497,0.226489 -1.133326,0.01511 -2.11211,-0.363823 -2.78059,-1.32569 -0.53156,-0.76499 -0.6615693,-1.616279 -0.404665,-2.516902 0.237584,-0.833778 0.47521,-1.667467 0.724435,-2.497956 0.236148,-0.786934 0.487181,-1.56969 0.732315,-2.354223 0.228468,-0.73049 0.442065,-1.46649 0.689797,-2.190401 0.48754,-1.425068 0.880685,-2.892802 1.653308,-4.199913 0.528608,-0.894401 1.384919,-1.377956 2.366976,-1.677956 1.026757,-0.313156 1.901413,0.08089 2.77802,0.517244 0.332424,0.164978 0.660457,0.341423 1.001651,0.485156 0.476014,0.199911 0.910026,0.07289 1.294515,-0.239822 0.314667,-0.256178 0.632205,-0.512089 0.922255,-0.795379 0.724621,-0.707378 2.289977,-0.838489 3.054935,-0.01511 0.176188,0.189512 0.384101,0.349512 0.578663,0.521245 0.400437,0.353689 0.566017,0.389778 1.029327,0.128356 1.101803,-0.622134 2.243196,-0.536001 3.365183,-0.137156 0.650909,0.231556 1.040537,0.784534 1.289332,1.439467 0.365956,0.964267 0.212534,1.895379 -0.154184,2.801779 -0.674581,1.667379 -1.409322,3.310135 -2.067553,4.983736 -0.390159,0.992889 -0.719655,2.013778 -1.000029,3.042845 -0.114191,0.419378 -0.114937,0.916623 -0.0084,1.337956 0.161174,0.63769 0.745321,0.846668 1.336128,0.921512 0.899704,0.114044 1.782571,-0.05333 2.644537,-0.291556 0.736163,-0.202755 1.460971,-0.453067 2.179922,-0.712889 0.346893,-0.125422 0.670174,-0.317867 1.001292,-0.486045 0.28326,-0.1432 0.305136,-0.352977 0.155862,-0.616622 -0.304935,-0.538134 -0.625645,-1.069512 -0.894264,-1.626223 -0.568012,-1.176534 -1.035399,-2.390756 -0.910714,-3.732535 0.108922,-1.1744 0.53303,-2.194401 1.616646,-2.812534 1.599765,-0.911823 2.897953,-0.660001 4.073812,0.702311 1.01691,1.178401 1.352263,2.596979 0.915696,4.116891 -0.244244,0.849867 -0.593693,1.671289 -0.927051,2.493156 -0.09224,0.227467 -0.0387,0.373245 0.105263,0.507289 0.673461,0.629067 1.441347,1.117779 2.293782,1.463557 0.321414,0.130933 0.661202,0.228444 1.001852,0.296889 0.732674,0.146844 1.412394,-0.02756 2.022767,-0.441601 0.290652,-0.196889 0.297011,-0.380978 0.09536,-0.655822 -1.403967,-1.914845 -1.959706,-4.046135 -1.537824,-6.388181 0.158073,-0.8768 0.563662,-1.704978 1.504838,-1.957511 0.581778,-0.156178 1.239291,-0.149601 1.844224,-0.07289 0.983119,0.124977 1.873479,0.517422 2.477464,1.363822 0.72462,1.015556 0.909652,2.127024 0.597797,3.341246 -0.223917,0.872089 -0.681371,1.613956 -1.185074,2.33449 -0.199472,0.285689 -0.207165,0.548978 0.06477,0.74 0.418767,0.294312 0.844339,0.616978 1.317567,0.787379 1.028279,0.370044 2.095244,0.337777 3.131187,0.0089 1.133528,-0.365155 1.929993,-1.116978 2.384216,-2.232712 0.542519,-1.334311 0.549137,-2.731912 0.521648,-4.13449 -0.02183,-1.096001 -0.06013,-2.191823 -0.09262,-3.288179 -0.01154,-0.391467 -0.07459,-0.414223 -0.447778,-0.338223 -0.98312,0.198578 -1.971206,0.3744 -2.957856,0.554845 -0.311179,0.056 -0.6251,0.09476 -0.936079,0.150844 -0.67784,0.121956 -1.237081,-0.156533 -1.275394,-0.949422 -0.03907,-0.799023 -0.154742,-1.594312 -0.236894,-2.391557 -0.0048,-0.04533 -0.0084,-0.08996 -0.01084,-0.135289 -0.04587,-0.938222 0.18117,-1.448534 1.307533,-1.407645 1.163198,0.04267 2.326397,0.08089 3.488159,0.142134 0.571486,0.02933 0.772465,-0.114223 0.810074,-0.681334 0.029,-0.440267 0.04127,-0.880889 0.06875,-1.320978 0.04127,-0.660001 0.191764,-0.816801 0.862296,-0.790578 0.400853,0.016 0.803658,0.08533 1.195711,0.173777 0.552065,0.124178 0.841411,0.51289 0.879709,1.062045 0.031,0.449956 0.018,0.903379 0.01087,1.354845 -0.0059,0.319378 0.0933,0.490845 0.451381,0.526934 1.033605,0.105244 2.063146,0.248978 3.094555,0.371467 0.487009,0.05778 0.760306,0.255111 0.826165,0.617156 0.114248,0.628978 -0.02168,1.059644 -0.496354,1.231467 -0.663958,0.240178 -1.350397,0.4232 -2.036863,0.592356 -0.480392,0.118666 -0.978037,0.169511 -1.466295,0.2592 -0.327645,0.05956 -0.505699,0.232089 -0.502757,0.600622 0.01226,1.820001 -0.02898,3.641602 0.02386,5.459825 0.02747,0.954222 0.170705,1.909689 0.577185,2.80089 0.328362,0.721956 0.889096,1.006311 1.668939,0.875556 1.144307,-0.192 2.193271,-0.593867 3.106971,-1.317957 0.506992,-0.401689 0.840492,-0.893333 0.86577,-1.572267 0.04569,-1.2424 0.107072,-2.484445 0.180022,-3.725068 0.02112,-0.357867 0.06168,-0.728978 0.180997,-1.062934 0.06653,-0.185155 0.309515,-0.430133 0.478741,-0.435111 0.934716,-0.02844 1.875804,-0.03733 2.806113,0.04267 0.585252,0.05067 0.987282,0.598133 0.956319,1.217689 -0.04195,0.867467 -0.154126,1.731823 -0.236664,2.597423 -0.101961,1.068001 -0.195955,2.136801 -0.309486,3.203379 -0.11498,1.079645 0.748565,1.615023 1.603009,1.625423 0.716797,0.0089 1.139958,-0.258844 1.44452,-1.017422 0.31537,-0.785067 0.502799,-1.636268 0.638809,-2.475735 0.19238,-1.191734 0.283446,-2.399912 0.425399,-3.600001 0.05778,-0.490045 0.363746,-0.866845 0.744244,-0.948623 0.439912,-0.09449 1.017068,0.08356 1.161059,0.486045 0.120823,0.336089 0.09331,0.746667 0.05124,1.1152 -0.155432,1.366756 -0.379622,2.726668 -0.50765,4.09618 -0.07886,0.841245 0.392756,1.440089 1.210079,1.688712 0.407284,0.123555 0.829712,0.221244 1.251507,0.270044 0.740756,0.08445 1.265317,-0.456 1.420061,-1.297956 0.13097,-0.707911 0.148369,-1.436801 0.212017,-2.156801 0.07444,-0.855022 0.08523,-1.721067 0.231353,-2.563734 0.214904,-1.247556 1.020757,-2.379201 2.513853,-2.742313 0.896216,-0.218133 1.799768,-0.244177 2.694577,-0.1408 1.364335,0.156978 2.791443,1.084356 3.227665,2.651557 0.331262,1.191467 0.199616,2.342312 -0.190141,3.488535 -0.451467,1.328178 -1.276714,2.36329 -2.429132,3.151557 -0.106396,0.07289 -0.168552,0.2104 -0.250315,0.318222 0.14465,0.064 0.290795,0.1856 0.434801,0.183022 1.377354,-0.02133 2.676332,-0.336089 3.865698,-1.0576 0.26836,-0.162489 0.560678,-0.285511 0.844124,-0.420267 0.260422,-0.123378 0.413872,0.02311 0.341424,0.247378 -0.120865,0.376445 -0.266263,0.7736 -0.50699,1.077689 -1.019293,1.288534 -2.409638,1.906223 -4.017715,2.014401 -0.682102,0.04622 -1.374397,-0.04533 -2.061653,-0.08356 -0.518733,-0.02933 -1.036504,-0.07378 -1.555208,-0.109245 -0.263264,-0.01689 -0.415279,0.09333 -0.481153,0.365422 -0.412939,1.704357 -0.63146,3.437335 -0.845602,5.175114 -0.135163,1.094045 -0.339271,2.184445 -0.601042,3.255112 -0.141766,0.5808 -0.595372,0.981334 -1.223386,1.08249 -0.37536,0.06044 -0.653136,-0.101956 -0.779097,-0.451823 -0.106153,-0.294933 -0.205314,-0.604622 -0.230593,-0.913778 -0.123838,-1.52569 -0.07322,-3.047735 0.129407,-4.566135 0.102707,-0.772445 0.171423,-1.549334 0.259646,-2.323557 0.06233,-0.538489 0.143431,-1.075111 0.194061,-1.614756 0.03973,-0.435822 -0.05946,-0.538667 -0.476761,-0.621689 -0.8631,-0.172178 -1.726645,-0.341511 -2.586027,-0.531734 -0.583832,-0.129866 -1.038931,0.07644 -1.43463,0.4792 -0.525795,0.534934 -1.106741,0.999734 -1.79615,1.300268 -0.832597,0.3632 -1.715104,0.286844 -2.571529,0.1512 -1.235489,-0.196711 -2.222297,-0.846312 -2.923835,-1.888712 -0.217889,-0.323467 -0.375546,-0.688356 -0.546266,-1.040978 -0.09551,-0.197423 -0.1815,-0.274223 -0.413026,-0.156178 -0.821127,0.418044 -1.639197,0.847289 -2.486851,1.205423 -0.944118,0.399022 -1.945998,0.5392 -2.9493,0.259466 -0.978038,-0.273244 -1.728153,-0.902933 -2.350999,-1.689867 -0.167189,-0.210934 -0.331448,-0.4232 -0.590392,-0.754934 z m 28.169763,-3.913868 c -0.01079,-0.135378 -0.01079,-0.271556 -0.03322,-0.404711 -0.125201,-0.770845 -0.899188,-1.115912 -1.522739,-0.651023 -0.281967,0.210045 -0.538154,0.486045 -0.730549,0.781245 -0.642426,0.9848 -0.93249,2.112979 -1.222555,3.234935 -0.073,0.281778 -0.123808,0.579822 -0.117952,0.869067 0.0109,0.538933 0.327745,0.697333 0.779098,0.406222 0.936782,-0.604445 1.630655,-1.442667 2.216425,-2.37449 0.355951,-0.566133 0.647465,-1.163289 0.631488,-1.861245 z m -36.758879,0.543556 c 0.0083,-0.535556 -0.116803,-1.031112 -0.511239,-1.416356 -0.218678,-0.213511 -0.492091,-0.3064 -0.805639,-0.208711 -0.380283,0.117866 -0.585841,0.400089 -0.614436,0.868355 -0.05533,0.90729 0.334277,1.686757 0.735288,2.454046 0.206476,0.3952 0.402661,0.382667 0.669413,0.01778 0.373134,-0.510667 0.518718,-1.091201 0.526613,-1.714845 z m -9.248523,-0.173245 c -0.09916,-0.328089 -0.164777,-0.671644 -0.306399,-0.980622 -0.180797,-0.393067 -0.646848,-0.570045 -1.059026,-0.462223 -0.436224,0.114489 -0.608722,0.3224 -0.563463,0.859734 0.03979,0.467822 0.147264,0.934223 0.271734,1.388623 0.0913,0.333867 0.231955,0.661156 0.39824,0.965334 0.223731,0.409777 0.457496,0.413866 0.677509,0.01689 0.303256,-0.546222 0.537609,-1.119911 0.581405,-1.787911 z"
     id="path1604"
     inkscape:connector-curvature="0"
     style="fill:#f64060;stroke-width:1" /></svg>