<?xml version="1.0" encoding="UTF-8" standalone="no"?>
<!-- Created with Inkscape (http://www.inkscape.org/) -->

<svg
   xmlns:dc="http://purl.org/dc/elements/1.1/"
   xmlns:cc="http://creativecommons.org/ns#"
   xmlns:rdf="http://www.w3.org/1999/02/22-rdf-syntax-ns#"
   xmlns:svg="http://www.w3.org/2000/svg"
   xmlns="http://www.w3.org/2000/svg"
   xmlns:sodipodi="http://sodipodi.sourceforge.net/DTD/sodipodi-0.dtd"
   xmlns:inkscape="http://www.inkscape.org/namespaces/inkscape"
   width="100"
   height="100"
   viewBox="0 0 26.458333 26.458333"
   version="1.1"
   id="svg8"
   inkscape:version="0.92.4 (5da689c313, 2019-01-14)"
   sodipodi:docname="wsu-grasp-logo.svg">
  <defs
     id="defs2" />
  <sodipodi:namedview
     id="base"
     pagecolor="#ffffff"
     bordercolor="#666666"
     borderopacity="1.0"
     inkscape:pageopacity="0.0"
     inkscape:pageshadow="2"
     inkscape:zoom="7.9195959"
     inkscape:cx="40.137028"
     inkscape:cy="44.384438"
     inkscape:document-units="px"
     inkscape:current-layer="layer1"
     showgrid="false"
     inkscape:snap-global="false"
     units="px"
     inkscape:window-width="1882"
     inkscape:window-height="1080"
     inkscape:window-x="38"
     inkscape:window-y="0"
     inkscape:window-maximized="1" />
  <metadata
     id="metadata5">
    <rdf:RDF>
      <cc:Work
         rdf:about="">
        <dc:format>image/svg+xml</dc:format>
        <dc:type
           rdf:resource="http://purl.org/dc/dcmitype/StillImage" />
        <dc:title></dc:title>
      </cc:Work>
    </rdf:RDF>
  </metadata>
  <g
     inkscape:label="Layer 1"
     inkscape:groupmode="layer"
     id="layer1"
     transform="translate(0,-270.54167)">
    <path
       id="path1546"
       style="fill:#fcd006;stroke-width:0.0180719;fill-opacity:1"
       d="m 23.589038,278.20301 c 0.0679,-0.0496 0.0646,-0.0519 -0.49378,-0.34121 -0.12887,-0.0668 -0.23899,-0.12897 -0.24471,-0.13823 -0.006,-0.009 -0.10598,-0.0637 -0.22281,-0.12105 -0.11682,-0.0573 -0.24762,-0.12811 -0.29066,-0.1573 -0.043,-0.0292 -0.16909,-0.0981 -0.28011,-0.15306 -0.11103,-0.055 -0.20784,-0.10903 -0.21514,-0.12012 -0.007,-0.0111 -0.0134,-0.0904 -0.0136,-0.17627 -1.6e-4,-0.12268 0.006,-0.16414 0.0313,-0.19353 0.0329,-0.0388 0.22579,-0.14727 0.67318,-0.37831 0.14412,-0.0744 0.28237,-0.14946 0.30722,-0.16674 0.0249,-0.0173 0.094,-0.0571 0.15361,-0.0885 0.0596,-0.0314 0.17349,-0.0968 0.25301,-0.14547 0.0795,-0.0486 0.20649,-0.1219 0.28217,-0.16283 0.0757,-0.0409 0.157,-0.0951 0.18072,-0.12032 0.0947,-0.10082 0.17529,-0.0972 -2.17068,-0.0972 -1.82262,0 -2.14891,0.004 -2.17873,0.0256 -0.034,0.0249 -0.0352,0.0619 -0.04,1.24956 -0.004,1.07838 -0.002,1.22898 0.023,1.2665 l 0.0279,0.0426 h 2.09247 c 1.71823,0 2.09838,-0.004 2.12552,-0.0242 z M 7.0722384,278.1846 c 0.0246,-0.0375 0.0273,-0.18811 0.023,-1.2665 -0.005,-1.18771 -0.006,-1.22467 -0.04,-1.24956 -0.0298,-0.0218 -0.35628,-0.0256 -2.17997,-0.0256 -1.95219,0 -2.14707,0.003 -2.16911,0.0292 -0.0208,0.0251 -0.0179,0.0343 0.0202,0.0651 0.0244,0.0198 0.0852,0.0566 0.13495,0.0818 0.0498,0.0252 0.11493,0.0639 0.14475,0.086 0.0298,0.0221 0.15587,0.0911 0.28011,0.15338 0.12425,0.0623 0.24805,0.12883 0.27511,0.14791 0.0271,0.0191 0.16821,0.0948 0.31366,0.16828 0.14544,0.0735 0.27781,0.14487 0.29415,0.15866 0.0163,0.0138 0.13346,0.0766 0.26026,0.13947 0.21683,0.10758 0.23175,0.11841 0.25081,0.18202 0.0319,0.10639 0.005,0.22999 -0.0628,0.29403 -0.0314,0.0295 -0.0833,0.0646 -0.11533,0.0781 -0.11509,0.0484 -0.68701,0.33948 -1.00805,0.5131 -0.11927,0.0645 -0.27379,0.14804 -0.34336,0.18564 -0.0696,0.0376 -0.18953,0.0982 -0.26657,0.13469 -0.11209,0.0531 -0.14005,0.0743 -0.14005,0.10607 0,0.0219 0.0102,0.0438 0.0226,0.0488 0.0124,0.005 0.97998,0.01 2.15014,0.0105 l 2.12755,0.001 z m 2.25388,11.40971 c 0.017,-0.0348 0.0554,-0.16087 0.0853,-0.28011 0.0299,-0.11923 0.0702,-0.25339 0.0896,-0.29812 0.10806,-0.24945 0.14993,-0.33167 0.20172,-0.39612 0.0628,-0.0782 0.0895,-0.20473 0.0562,-0.26689 -0.0105,-0.0197 -0.0867,-0.0748 -0.16922,-0.12238 -0.0825,-0.0476 -0.18259,-0.11267 -0.22235,-0.14454 -0.0398,-0.0319 -0.12515,-0.0846 -0.18976,-0.11712 -0.0646,-0.0326 -0.20379,-0.11841 -0.30929,-0.1908 -0.10551,-0.0724 -0.21053,-0.13756 -0.23338,-0.14481 -0.0406,-0.0129 -0.18945,-0.11116 -0.26153,-0.17267 -0.0199,-0.017 -0.0557,-0.0368 -0.0797,-0.0441 -0.052,-0.0158 -0.33715,-0.187 -0.4461,-0.26782 -0.0426,-0.0316 -0.14331,-0.094 -0.22389,-0.13874 -0.0806,-0.0447 -0.20916,-0.11988 -0.28575,-0.16701 -0.0766,-0.0471 -0.17022,-0.10405 -0.20808,-0.1265 -0.0379,-0.0224 -0.0948,-0.0591 -0.1265,-0.0814 -0.0317,-0.0223 -0.0932,-0.0577 -0.13671,-0.0786 -0.0435,-0.0209 -0.13875,-0.0799 -0.21174,-0.13108 -0.12316,-0.0864 -0.18749,-0.12583 -0.40399,-0.24791 -0.0453,-0.0255 -0.14739,-0.0871 -0.2269,-0.13677 -0.0795,-0.0497 -0.16491,-0.10177 -0.18976,-0.11573 -0.0692,-0.0388 -0.16051,-0.0944 -0.28331,-0.17237 -0.0614,-0.039 -0.15365,-0.0953 -0.20501,-0.12508 -0.0514,-0.0298 -0.13308,-0.0806 -0.18161,-0.11295 -0.0485,-0.0323 -0.0939,-0.0587 -0.10095,-0.0587 -0.007,0 -0.0621,-0.0311 -0.12242,-0.0692 -0.25138,-0.15851 -0.33782,-0.20412 -0.37645,-0.19863 l -0.0405,0.006 v 0.76657 0.76656 l 0.28314,0.18221 c 0.15572,0.10022 0.39329,0.25134 0.52792,0.33582 0.28179,0.17683 0.52563,0.33167 0.72571,0.46084 0.077,0.0497 0.16337,0.10363 0.19198,0.11986 0.0286,0.0162 0.11489,0.0697 0.19173,0.11892 0.0768,0.0492 0.17631,0.11051 0.22104,0.13632 0.0447,0.0258 0.13418,0.0839 0.19879,0.12907 0.0646,0.0452 0.15406,0.10189 0.19879,0.12601 0.0447,0.0241 0.1483,0.0874 0.23016,0.14055 0.33058,0.21481 0.70696,0.44958 0.81801,0.51024 0.0447,0.0244 0.15045,0.0892 0.23494,0.14404 0.30842,0.20004 0.46363,0.29825 0.59344,0.37552 0.0729,0.0434 0.16239,0.0973 0.19879,0.11974 0.0918,0.0566 0.14902,0.0469 0.18753,-0.0318 z m 8.0840596,-0.002 c 0.089,-0.0509 0.21474,-0.13219 0.27935,-0.1806 0.0646,-0.0484 0.15049,-0.10365 0.19086,-0.12276 0.0404,-0.0191 0.13957,-0.0781 0.22047,-0.13115 0.0809,-0.053 0.24966,-0.16145 0.37503,-0.24096 0.12536,-0.0795 0.28639,-0.18231 0.35783,-0.22842 0.16564,-0.10692 0.48341,-0.31096 0.68107,-0.43733 0.14625,-0.0935 0.42824,-0.27468 0.62349,-0.40059 0.0497,-0.032 0.11882,-0.0727 0.15361,-0.0904 0.0348,-0.0177 0.15825,-0.094 0.27436,-0.16961 0.2438,-0.15875 0.44052,-0.28455 0.52582,-0.33626 0.0927,-0.0562 0.2111,-0.13187 0.45941,-0.29367 0.12585,-0.082 0.23518,-0.14909 0.24295,-0.14909 0.0184,0 0.32088,-0.20987 0.3679,-0.25524 0.0347,-0.0334 0.0364,-0.0623 0.0415,-0.70494 0.005,-0.58442 0.002,-0.67561 -0.023,-0.71336 -0.0156,-0.0238 -0.0406,-0.0433 -0.0556,-0.0433 -0.0391,0 -0.18231,0.0753 -0.30727,0.16158 -0.26638,0.18388 -0.33899,0.23197 -0.46299,0.30663 -0.0728,0.0438 -0.22178,0.13806 -0.33111,0.20945 -0.26096,0.17037 -0.35466,0.22663 -0.63252,0.37975 -0.0696,0.0383 -0.14683,0.0848 -0.17168,0.10323 -0.0621,0.0461 -0.20983,0.14097 -0.34657,0.22262 -0.0628,0.0375 -0.23058,0.14216 -0.37275,0.23253 -0.14216,0.0904 -0.28448,0.17993 -0.31626,0.19904 -0.0318,0.0191 -0.12283,0.0764 -0.20235,0.12731 -0.0795,0.0509 -0.18117,0.11197 -0.22589,0.13569 -0.0447,0.0237 -0.12199,0.0729 -0.17169,0.10935 -0.0497,0.0364 -0.11882,0.0807 -0.15361,0.0984 -0.0636,0.0323 -0.3031,0.18202 -0.47619,0.29761 -0.0512,0.0342 -0.15813,0.10028 -0.23765,0.14688 -0.18655,0.10931 -0.40089,0.24142 -0.56023,0.3453 -0.0696,0.0453 -0.16143,0.10015 -0.20412,0.12177 -0.0936,0.0474 -0.22057,0.1588 -0.22057,0.19352 0,0.0138 0.0163,0.0554 0.0361,0.0925 0.0199,0.0371 0.0361,0.0824 0.0361,0.1007 0,0.0183 0.0325,0.089 0.0723,0.15703 0.0397,0.0681 0.0723,0.13196 0.0723,0.14196 0,0.0245 0.1361,0.43873 0.18494,0.56285 0.0354,0.0899 0.0747,0.14457 0.10391,0.14457 0.006,0 0.0837,-0.0417 0.17275,-0.0926 z m 1.35965,-11.82685 0.0402,-0.0281 v -1.21682 c 0,-1.17115 -10e-4,-1.21843 -0.0345,-1.25949 l -0.0345,-0.0427 -5.51142,-0.005 c -5.2841196,-0.004 -5.5130796,-0.003 -5.5515896,0.0279 l -0.0402,0.0325 -0.006,1.20097 c -0.003,0.66053 -0.001,1.21991 0.004,1.24307 0.005,0.0232 0.0272,0.0491 0.0483,0.0576 0.0211,0.009 2.5148596,0.016 5.5417296,0.0166 4.95295,9.8e-4 5.50741,-0.002 5.54356,-0.027 z" />
    <path
       style="fill:#e0c430;stroke-width:0.0180719"
       d="m 23.575048,275.73446 c -0.006,-0.006 -0.0216,-0.007 -0.0346,-0.001 -0.0144,0.006 -0.0101,0.01 0.0109,0.0109 0.0191,8.1e-4 0.0297,-0.003 0.0237,-0.01 z"
       id="path1067"
       inkscape:connector-curvature="0" />
    <path
       inkscape:connector-curvature="0"
       id="path1065"
       d="m 13.080088,292.75155 c -0.042,-0.0227 -0.38788,-0.24338 -0.68563,-0.43737 -0.111,-0.0723 -0.32314,-0.20752 -0.44276,-0.28218 -0.0298,-0.0186 -0.14512,-0.0928 -0.25623,-0.16497 -0.11112,-0.0721 -0.27783,-0.17915 -0.37048,-0.23782 -0.27229,-0.17245 -0.46323,-0.29449 -0.66543,-0.42531 -0.22562,-0.14598 -0.43148,-0.27802 -0.6776996,-0.43471 -0.0994,-0.0632 -0.25797,-0.16497 -0.3524,-0.22604 -0.0944,-0.0611 -0.253,-0.16279 -0.3524,-0.22604 -0.0994,-0.0633 -0.24578,-0.15671 -0.32529,-0.20767 -0.0795,-0.051 -0.29503,-0.18908 -0.47891,-0.30693 -0.18388,-0.11785 -0.37499,-0.2401 -0.42469,-0.27166 -0.0497,-0.0316 -0.20828,-0.1332 -0.3524,-0.22587 -0.38572,-0.24803 -0.41343,-0.26576 -0.76806,-0.49168 -0.17891,-0.11397 -0.48794,-0.31134 -0.68673,-0.43858 -0.19879,-0.12725 -0.49156,-0.31436 -0.65059,-0.4158 -0.6821,-0.43506 -0.75815,-0.4838 -0.8026,-0.51426 -0.0257,-0.0176 -0.1281,-0.0832 -0.2275,-0.14573 -0.0994,-0.0625 -0.24374,-0.15414 -0.32077,-0.2036 -0.077,-0.0495 -0.14203,-0.0909 -0.14444,-0.0921 -0.002,-10e-4 -0.009,-1.84985 -0.0136,-4.10811 -0.007,-3.33447 -0.0136,-4.11036 -0.0326,-4.12944 -0.0187,-0.0187 -0.28704,-0.0254 -1.30452,-0.0325 l -1.28104,-0.009 -0.055,-0.0527 c -0.0799,-0.0766 -0.10187,-0.15591 -0.0647,-0.23414 0.0163,-0.0343 0.0432,-0.0744 0.0599,-0.0892 0.0273,-0.0242 0.30354,-0.17498 0.72611,-0.39638 0.24093,-0.12623 0.50913,-0.26788 0.81324,-0.42952 0.15406,-0.0819 0.36143,-0.19151 0.46083,-0.24361 0.29066,-0.15235 0.43215,-0.22947 0.45632,-0.24873 0.0292,-0.0233 0.0292,-0.11224 0,-0.13581 -0.0124,-0.01 -0.11612,-0.0669 -0.23042,-0.12637 -0.49446,-0.25727 -0.93897,-0.49093 -1.24696,-0.65548 -0.14413,-0.077 -0.3393,-0.18031 -0.43373,-0.22957 -0.54775,-0.28576 -0.58016,-0.30761 -0.61557,-0.4149 -0.0167,-0.0507 -0.0144,-0.0717 0.0144,-0.12702 0.0189,-0.0365 0.0568,-0.083 0.0842,-0.10348 0.0496,-0.037 0.0592,-0.0372 2.85586,-0.0462 2.28649,-0.007 2.81141,-0.0134 2.83481,-0.0329 0.0158,-0.0131 0.0342,-0.0497 0.041,-0.0813 0.0328,-0.15361 0.13418,-0.22772 0.37972,-0.27765 0.15401,-0.0313 0.41852,-0.0328 5.7005496,-0.0328 5.33447,0 5.54471,0.001 5.69265,0.0336 0.20903,0.0458 0.29305,0.0974 0.34137,0.20971 0.021,0.0488 0.0381,0.096 0.0381,0.10508 0,0.009 0.0148,0.0298 0.0329,0.0462 0.0302,0.0273 0.26368,0.0301 2.83858,0.0344 l 2.80573,0.005 0.071,0.0761 c 0.0844,0.0905 0.0931,0.16575 0.0298,0.26007 -0.0417,0.0623 -0.11027,0.10333 -0.58232,0.34895 -0.11928,0.0621 -0.27786,0.14574 -0.3524,0.18596 -0.0746,0.0402 -0.27379,0.14634 -0.44277,0.23581 -0.27785,0.14713 -0.40226,0.21254 -0.84034,0.44184 -0.0746,0.039 -0.15519,0.0903 -0.17921,0.11391 -0.0525,0.0516 -0.0577,0.13767 -0.0113,0.18884 0.0299,0.0331 0.37143,0.23582 0.39721,0.23582 0.006,0 0.0742,0.0354 0.1509,0.0787 0.0767,0.0433 0.23295,0.12758 0.34725,0.18737 0.11431,0.0598 0.27289,0.14338 0.3524,0.18577 0.0795,0.0424 0.25437,0.13397 0.38855,0.20353 0.13419,0.0696 0.2521,0.13259 0.26204,0.14006 0.01,0.007 0.10601,0.0591 0.21348,0.11469 0.29024,0.15018 0.33586,0.19397 0.33708,0.3236 4.9e-4,0.0528 -0.0132,0.0832 -0.0612,0.13554 l -0.0618,0.0675 -1.16252,0.01 c -0.63939,0.005 -1.16376,0.0114 -1.16528,0.0136 -0.0392,0.056 -0.0426,0.37788 -0.0423,4.09358 1.6e-4,2.93144 -0.005,3.98184 -0.0202,4.00001 -0.0112,0.0135 -0.0304,0.0246 -0.0426,0.0246 -0.024,0 -0.27758,0.15787 -1.39211,0.86686 -0.0895,0.0569 -0.24804,0.15706 -0.35241,0.22257 -0.10436,0.0655 -0.25888,0.16307 -0.34336,0.21681 -0.25039,0.15926 -0.48598,0.30848 -0.66588,0.42173 -0.0929,0.0585 -0.25148,0.15834 -0.3524,0.22191 -0.10093,0.0636 -0.21603,0.13781 -0.25579,0.16496 -0.0398,0.0272 -0.14548,0.0939 -0.23494,0.14825 -0.0894,0.0544 -0.42288,0.26376 -0.74095,0.46527 -0.31806,0.20152 -0.74501,0.47198 -0.94877,0.60103 -0.20376,0.12905 -0.45586,0.28946 -0.56023,0.35646 -0.25269,0.16224 -0.52343,0.33299 -0.70334,0.44358 -0.0808,0.0497 -0.23014,0.14377 -0.33176,0.20904 -0.10161,0.0653 -0.24981,0.15975 -0.32933,0.20995 -0.0795,0.0502 -0.23403,0.14807 -0.34336,0.21751 -0.55525,0.35262 -0.79782,0.50558 -0.85673,0.54022 -0.0357,0.021 -0.18286,0.11374 -0.32698,0.20609 -0.66125,0.42365 -0.6648,0.4254 -0.76013,0.37379 z m 0.184,-0.54306 c 0.0439,-0.0233 0.17321,-0.10318 0.28732,-0.1774 0.11412,-0.0742 0.25221,-0.16234 0.30688,-0.19584 0.0547,-0.0335 0.16852,-0.10556 0.253,-0.16017 0.20337,-0.13143 0.23056,-0.14862 0.57831,-0.36543 0.164,-0.10226 0.36849,-0.23116 0.45441,-0.28646 0.0859,-0.0553 0.22825,-0.14584 0.31626,-0.20122 0.16515,-0.10391 0.40746,-0.25748 0.67508,-0.42786 0.0845,-0.0538 0.2426,-0.1541 0.35137,-0.22292 0.10876,-0.0688 0.20419,-0.13527 0.21206,-0.14766 0.019,-0.0299 0.0174,-0.27468 -0.002,-0.36591 -0.009,-0.0397 -0.029,-0.13328 -0.0453,-0.20782 -0.074,-0.33869 -0.27278,-0.74927 -0.48554,-1.00299 -0.27229,-0.3247 -0.4949,-0.50549 -0.82512,-0.67012 -0.1106,-0.0551 -0.2053,-0.11122 -0.21045,-0.12464 -0.005,-0.0134 0.018,-0.0881 0.0515,-0.16601 0.0788,-0.18337 0.0976,-0.18651 0.35671,-0.0598 0.23552,0.11519 0.4691,0.27695 0.6718,0.46523 0.0858,0.0797 0.17351,0.15049 0.19489,0.15728 0.0249,0.008 0.0597,-3.3e-4 0.097,-0.0229 0.15173,-0.092 0.57629,-0.35318 0.92928,-0.57159 0.14743,-0.0912 0.34101,-0.2106 0.83071,-0.51227 0.14087,-0.0868 0.32189,-0.19845 0.40225,-0.24815 0.0804,-0.0497 0.22941,-0.14115 0.33121,-0.20322 0.10179,-0.0621 0.25014,-0.15399 0.32966,-0.20424 0.16007,-0.10117 0.69532,-0.43027 0.97588,-0.60003 0.0994,-0.0601 0.27424,-0.16789 0.38855,-0.23945 0.327,-0.20472 0.83324,-0.51661 0.91263,-0.56226 0.0398,-0.0229 0.10075,-0.0657 0.13554,-0.0952 0.0609,-0.0516 0.062,-0.0549 0.031,-0.0866 -0.0309,-0.0316 -0.12237,-0.033 -2.11425,-0.033 h -2.08198 l -0.0432,0.0668 c -0.0329,0.0508 -0.0709,0.0779 -0.15849,0.11295 -0.0634,0.0254 -0.13459,0.0461 -0.15823,0.0461 -0.0237,0 -0.0622,0.0155 -0.0857,0.0345 -0.0406,0.0328 -0.0427,0.0455 -0.0436,0.25753 -8.2e-4,0.20071 -0.006,0.2329 -0.0474,0.32237 -0.0527,0.11259 -0.10636,0.17515 -0.17144,0.1999 -0.0246,0.009 -0.15927,0.017 -0.29939,0.017 -0.23491,0 -0.26051,0.003 -0.32863,0.0427 -0.0464,0.0268 -0.11565,0.0463 -0.18605,0.0524 -0.13248,0.0115 -0.20673,0.0568 -0.25809,0.15745 -0.0446,0.0875 -0.16946,0.19491 -0.2524,0.21718 -0.35339,0.0949 -0.37237,0.0978 -0.70612,0.10766 l -0.33483,0.01 -0.126,0.0738 c -0.15914,0.0932 -0.29598,0.14082 -0.51971,0.18068 -0.14576,0.026 -0.19284,0.0278 -0.26794,0.0105 -0.15092,-0.0348 -0.19815,-0.0272 -0.31947,0.0516 -0.13603,0.0884 -0.16972,0.1018 -0.36525,0.14535 -0.10995,0.0245 -0.22572,0.0343 -0.40734,0.0346 -0.28246,4.8e-4 -0.39307,-0.0205 -0.59211,-0.11199 l -0.12296,-0.0565 -0.0849,0.0415 c -0.22917,0.11206 -0.56938,0.0518 -0.95232,-0.16861 -0.14355,-0.0826 -0.14577,-0.0832 -0.31365,-0.0834 -0.29502,-1.6e-4 -0.4632596,-0.0635 -0.6923096,-0.26056 -0.16984,-0.14607 -0.30848,-0.30952 -0.37582,-0.44307 -0.0693,-0.13736 -0.15835,-0.40568 -0.17282,-0.52053 -0.007,-0.052 -0.0278,-0.1147 -0.0472,-0.13934 -0.0437,-0.0556 -0.28007,-0.22285 -0.41326,-0.29247 l -0.0994,-0.052 h -1.83231 c -1.72541,0 -1.83348,0.002 -1.85228,0.0316 -0.0144,0.0228 -0.0145,0.0403 -3.3e-4,0.0627 0.017,0.0269 0.24899,0.17773 0.41394,0.26905 0.0298,0.0165 0.12741,0.0764 0.21686,0.13305 0.0895,0.0567 0.2223,0.13894 0.2952,0.18281 0.12692,0.0764 0.21759,0.13211 0.59936,0.36834 0.24928,0.15424 0.45323,0.27984 0.66866,0.41177 0.21772,0.13333 0.50437,0.31034 0.71384,0.44082 0.0795,0.0495 0.2747,0.17 0.43373,0.26771 0.31981,0.1965 0.98758,0.60882 1.1566,0.71415 0.50518,0.31482 0.6190096,0.37995 0.6639696,0.37995 0.036,0 0.0848,-0.0322 0.17668,-0.11651 0.0698,-0.0641 0.19768,-0.16757 0.2841,-0.22995 0.17853,-0.12888 0.52413,-0.30413 0.59978,-0.30413 0.0456,0 0.057,0.0141 0.11629,0.14388 0.0362,0.0791 0.0658,0.15452 0.0658,0.16754 0,0.013 -0.0914,0.0682 -0.20309,0.12269 -0.24011,0.11706 -0.42834,0.24683 -0.59811,0.41234 -0.46643,0.45474 -0.7095596,0.94728 -0.7817396,1.58365 -0.0205,0.18065 -0.0218,0.2459 -0.006,0.28467 0.0204,0.0491 0.18996,0.17017 0.5766496,0.41152 0.0845,0.0527 0.23494,0.14852 0.33434,0.21286 0.0994,0.0643 0.23357,0.15122 0.29818,0.19305 0.0646,0.0418 0.21099,0.13565 0.32529,0.20849 0.38594,0.24593 0.4423,0.28197 0.64156,0.41026 0.10933,0.0704 0.29231,0.18694 0.40662,0.259 0.1143,0.072 0.2662,0.16853 0.33755,0.2144 0.0714,0.0459 0.18035,0.11591 0.24222,0.15567 0.15269,0.0981 0.22006,0.13554 0.24404,0.13554 0.0111,0 0.0561,-0.0191 0.10003,-0.0425 z m 4.14609,-2.61632 c 0.089,-0.0509 0.21474,-0.13219 0.27935,-0.1806 0.0646,-0.0484 0.15049,-0.10365 0.19086,-0.12276 0.0404,-0.0191 0.13957,-0.0781 0.22047,-0.13115 0.0809,-0.053 0.24966,-0.16145 0.37503,-0.24096 0.12536,-0.0795 0.28639,-0.18231 0.35783,-0.22842 0.16564,-0.10692 0.48341,-0.31096 0.68107,-0.43733 0.14625,-0.0935 0.42824,-0.27468 0.62349,-0.40059 0.0497,-0.032 0.11882,-0.0727 0.15361,-0.0904 0.0348,-0.0177 0.15825,-0.094 0.27436,-0.16961 0.2438,-0.15875 0.44052,-0.28455 0.52582,-0.33626 0.0927,-0.0562 0.2111,-0.13187 0.45941,-0.29367 0.12585,-0.082 0.23518,-0.14909 0.24295,-0.14909 0.0184,0 0.32088,-0.20987 0.3679,-0.25524 0.0347,-0.0334 0.0364,-0.0623 0.0415,-0.70494 0.005,-0.58442 0.002,-0.67561 -0.023,-0.71336 -0.0156,-0.0238 -0.0406,-0.0433 -0.0556,-0.0433 -0.0391,0 -0.18231,0.0753 -0.30727,0.16158 -0.26638,0.18388 -0.33899,0.23197 -0.46299,0.30663 -0.0728,0.0438 -0.22178,0.13806 -0.33111,0.20945 -0.26096,0.17037 -0.35466,0.22663 -0.63252,0.37975 -0.0696,0.0383 -0.14683,0.0848 -0.17168,0.10323 -0.0621,0.0461 -0.20983,0.14097 -0.34657,0.22262 -0.0628,0.0375 -0.23058,0.14216 -0.37275,0.23253 -0.14216,0.0904 -0.28448,0.17993 -0.31626,0.19904 -0.0318,0.0191 -0.12283,0.0764 -0.20235,0.12731 -0.0795,0.0509 -0.18117,0.11197 -0.22589,0.13569 -0.0447,0.0237 -0.12199,0.0729 -0.17169,0.10935 -0.0497,0.0364 -0.11882,0.0807 -0.15361,0.0984 -0.0636,0.0323 -0.3031,0.18202 -0.47619,0.29761 -0.0512,0.0342 -0.15813,0.10028 -0.23765,0.14688 -0.18655,0.10931 -0.40089,0.24142 -0.56023,0.3453 -0.0696,0.0453 -0.16143,0.10015 -0.20412,0.12177 -0.0936,0.0474 -0.22057,0.1588 -0.22057,0.19352 0,0.0138 0.0163,0.0554 0.0361,0.0925 0.0199,0.0371 0.0361,0.0824 0.0361,0.1007 0,0.0183 0.0325,0.089 0.0723,0.15703 0.0397,0.0681 0.0723,0.13196 0.0723,0.14196 0,0.0245 0.1361,0.43873 0.18494,0.56285 0.0354,0.0899 0.0747,0.14457 0.10391,0.14457 0.006,0 0.0837,-0.0417 0.17275,-0.0926 z m -8.0840596,0.002 c 0.017,-0.0348 0.0554,-0.16088 0.0853,-0.28012 0.0299,-0.11923 0.0702,-0.25338 0.0896,-0.29811 0.10806,-0.24946 0.14993,-0.33168 0.20172,-0.39613 0.0628,-0.0782 0.0895,-0.20473 0.0562,-0.26688 -0.0105,-0.0197 -0.0867,-0.0748 -0.16922,-0.12239 -0.0825,-0.0476 -0.18259,-0.11267 -0.22235,-0.14453 -0.0398,-0.0319 -0.12515,-0.0846 -0.18976,-0.11713 -0.0646,-0.0326 -0.20379,-0.11841 -0.30929,-0.1908 -0.10551,-0.0724 -0.21053,-0.13755 -0.23338,-0.14481 -0.0406,-0.0129 -0.18945,-0.11116 -0.26153,-0.17267 -0.0199,-0.017 -0.0557,-0.0368 -0.0797,-0.0441 -0.052,-0.0158 -0.33715,-0.187 -0.4461,-0.26783 -0.0426,-0.0316 -0.14331,-0.094 -0.22389,-0.13873 -0.0806,-0.0447 -0.20916,-0.11989 -0.28575,-0.16701 -0.0766,-0.0471 -0.17022,-0.10406 -0.20808,-0.12651 -0.0379,-0.0224 -0.0948,-0.0591 -0.1265,-0.0814 -0.0317,-0.0223 -0.0932,-0.0577 -0.13671,-0.0786 -0.0435,-0.0209 -0.13875,-0.0799 -0.21174,-0.13108 -0.12316,-0.0864 -0.18749,-0.12582 -0.40399,-0.24791 -0.0453,-0.0255 -0.14739,-0.0871 -0.2269,-0.13677 -0.0795,-0.0497 -0.16491,-0.10177 -0.18976,-0.11573 -0.0692,-0.0388 -0.16051,-0.0944 -0.28331,-0.17237 -0.0614,-0.039 -0.15365,-0.0953 -0.20501,-0.12507 -0.0514,-0.0298 -0.13308,-0.0807 -0.18161,-0.11295 -0.0485,-0.0323 -0.0939,-0.0587 -0.10095,-0.0587 -0.007,0 -0.0621,-0.0311 -0.12242,-0.0692 -0.25138,-0.15851 -0.33782,-0.20412 -0.37645,-0.19863 l -0.0405,0.006 v 0.76657 0.76656 l 0.28314,0.18221 c 0.15572,0.10022 0.39329,0.25134 0.52792,0.33582 0.28179,0.17684 0.52563,0.33168 0.72571,0.46084 0.077,0.0497 0.16337,0.10364 0.19198,0.11987 0.0286,0.0162 0.11489,0.0697 0.19173,0.11891 0.0768,0.0492 0.17631,0.11052 0.22104,0.13632 0.0447,0.0258 0.13418,0.0839 0.19879,0.12907 0.0646,0.0452 0.15406,0.10189 0.19879,0.12601 0.0447,0.0241 0.1483,0.0874 0.23016,0.14056 0.33058,0.21481 0.70696,0.44957 0.81801,0.51023 0.0447,0.0244 0.15045,0.0892 0.23494,0.14405 0.30842,0.20003 0.46363,0.29825 0.59344,0.37552 0.0729,0.0434 0.16239,0.0973 0.19879,0.11973 0.0918,0.0566 0.14902,0.0469 0.18753,-0.0318 z m 3.3665296,-3.11492 c 0.0497,-0.0233 0.11339,-0.0657 0.14153,-0.0941 0.0702,-0.071 0.0561,-0.12353 -0.0763,-0.28445 -0.12678,-0.15407 -0.21209,-0.2355 -0.34164,-0.32608 -0.14218,-0.0994 -0.53812,-0.30076 -0.59146,-0.30076 -0.0257,0 -0.067,0.0206 -0.0926,0.0462 -0.039,0.039 -0.0443,0.0565 -0.0343,0.11295 0.0201,0.11253 0.24962,0.57821 0.33675,0.6832 0.0546,0.0658 0.40373,0.20261 0.52243,0.20469 0.0248,4.9e-4 0.0858,-0.0183 0.13554,-0.0416 z m -1.22388,-0.12994 c 0.0282,-0.0197 0.0402,-0.0466 0.0402,-0.0899 0,-0.0608 -0.0288,-0.11163 -0.29743,-0.5258 -0.2318,-0.35734 -0.53312,-0.56954 -0.66832,-0.47068 -0.0509,0.0372 -0.0582,0.1839 -0.0147,0.29329 0.15709,0.39496 0.21137,0.51282 0.25955,0.56364 0.0851,0.0898 0.29443,0.22134 0.37821,0.23776 0.13252,0.026 0.2585,0.0225 0.30255,-0.008 z m 2.15186,-0.15834 c 0.0325,-0.0392 -0.0237,-0.0973 -0.16081,-0.16638 -0.1944,-0.0979 -0.26969,-0.0751 -0.20277,0.0614 0.024,0.0489 0.0523,0.0729 0.1133,0.096 0.0981,0.0372 0.22314,0.0416 0.25028,0.009 z m 1.56772,-0.27386 c 0.0559,-0.0366 0.0572,-0.10829 0.003,-0.14315 -0.0224,-0.0143 -0.10572,-0.0316 -0.18523,-0.0384 -0.38624,-0.033 -0.90544,-0.18181 -1.17978,-0.33808 -0.37242,-0.21214 -0.69577,-0.50892 -0.66389,-0.60934 0.0122,-0.0383 0.26292,-0.19986 0.31019,-0.19986 0.0157,0 0.0914,0.059 0.16839,0.13102 0.18433,0.17261 0.37577,0.28332 0.64221,0.37138 0.50234,0.16605 0.62269,0.2027 0.77709,0.23668 0.57195,0.12585 0.5191,0.11904 0.92167,0.11881 0.35784,-1.6e-4 0.38432,-0.003 0.4637,-0.0413 0.11778,-0.0575 0.17128,-0.11746 0.19571,-0.21931 0.0177,-0.0737 0.0165,-0.0966 -0.008,-0.14317 -0.0373,-0.0721 -0.0786,-0.0927 -0.18644,-0.0927 -0.0485,0 -0.13241,-0.008 -0.18642,-0.0175 -0.054,-0.01 -0.21367,-0.0259 -0.35481,-0.0362 -0.14114,-0.0103 -0.27939,-0.0275 -0.30722,-0.0381 -0.0278,-0.0107 -0.15633,-0.0397 -0.28555,-0.0645 -0.30162,-0.0579 -0.79564,-0.22215 -1.12949,-0.37552 -0.33816,-0.15535 -0.66691,-0.34942 -0.67997,-0.40139 -0.0115,-0.0457 0.10031,-0.31215 0.14202,-0.33846 0.0208,-0.0131 0.0854,0.0106 0.25133,0.0924 0.2232,0.10993 0.33754,0.16167 0.71131,0.32186 0.40267,0.17259 0.39426,0.16958 0.82227,0.2941 0.23095,0.0672 0.60598,0.12313 1.03476,0.15436 0.53659,0.0391 0.72757,-0.0141 0.81675,-0.22758 0.0407,-0.0973 0.0376,-0.33221 -0.005,-0.40244 -0.0803,-0.13158 -0.34024,-0.22568 -0.72333,-0.2618 -0.10982,-0.0104 -0.2102,-0.0228 -0.22306,-0.0276 -0.0129,-0.005 -0.13317,-0.0247 -0.26736,-0.0442 -0.46695,-0.0678 -0.51617,-0.0761 -0.7048,-0.1199 -0.37768,-0.0876 -0.87603,-0.25677 -1.00441,-0.34089 -0.0224,-0.0147 -0.10448,-0.10603 -0.18233,-0.20296 -0.31814,-0.39612 -0.61981,-0.68921 -0.80426,-0.78138 -0.10332,-0.0516 -0.12472,-0.0555 -0.30497,-0.0555 -0.15502,0 -0.22414,0.009 -0.345,0.0455 -0.15093,0.0454 -0.5473,0.12452 -0.89579,0.17881 -0.45985,0.0716 -0.80673,-6e-5 -0.939,-0.19406 -0.0892,-0.13087 -0.10173,-0.22503 -0.0582,-0.43837 0.0472,-0.23127 0.1472,-0.42585 0.29613,-0.57593 0.12815,-0.12915 0.13987,-0.134 0.77709,-0.32168 0.22793,-0.0671 0.56496,-0.19923 0.75902,-0.2975 0.33159,-0.16791 0.44525,-0.33073 0.319,-0.45698 -0.11406,-0.11405 -0.48495,-0.16478 -1.06741,-0.14598 -0.15058,0.005 -0.3444,0.0534 -0.46241,0.11583 -0.0298,0.0158 -0.11521,0.0555 -0.18975,0.0882 -0.23193,0.10178 -0.71283,0.37881 -0.93071,0.53616 -0.0497,0.0359 -0.16761,0.13781 -0.26204,0.22649 -0.1517596,0.14253 -0.3358596,0.28177 -0.3725396,0.28177 -0.007,0 -0.0506,0.0242 -0.0967,0.0538 -0.0816,0.0523 -0.28815,0.13217 -0.41624,0.16084 -0.0348,0.008 -0.0912,0.0288 -0.12545,0.0466 -0.0342,0.0178 -0.083,0.039 -0.10843,0.047 -0.0254,0.008 -0.10316,0.0358 -0.17274,0.0617 -0.0696,0.0259 -0.15903,0.0583 -0.19879,0.072 -0.0398,0.0136 -0.16581,0.0592 -0.28012,0.10123 -0.1143,0.042 -0.32168,0.11587 -0.46083,0.16413 l -0.25301,0.0877 -1.50103,5e-5 c -1.26777,5e-5 -1.50648,0.004 -1.53611,0.0257 -0.0341,0.0249 -0.0351,0.0583 -0.0351,1.1942 0,1.11464 0.001,1.16968 0.0333,1.19291 0.0274,0.02 0.39844,0.0254 2.07826,0.0302 l 2.04496,0.006 0.0632,0.0389 c 0.0348,0.0214 0.0918,0.0466 0.1267,0.0561 0.0591,0.016 0.25796,0.13756 0.36124,0.22083 0.0762,0.0615 0.22915,0.10637 0.30445,0.0894 0.0678,-0.0153 0.19347,0.004 0.26259,0.041 0.0211,0.0112 0.0818,0.0557 0.1349,0.0988 0.0531,0.0431 0.1120296,0.0784 0.1309696,0.0784 0.0189,0 0.0659,-0.0284 0.10442,-0.0632 0.10667,-0.0964 0.22427,-0.14122 0.37288,-0.14222 0.11228,-8.1e-4 0.14073,0.007 0.25301,0.0666 0.0696,0.0371 0.19394,0.12416 0.27637,0.19351 0.0824,0.0694 0.1655,0.12609 0.18461,0.12609 0.0191,0 0.0614,-0.0232 0.0941,-0.0516 0.10192,-0.0885 0.134,-0.0976 0.34065,-0.0963 0.15903,9.7e-4 0.21943,0.01 0.33582,0.0486 0.1734,0.0579 0.47159,0.22355 0.666,0.36991 0.2008,0.15117 0.2117,0.14968 0.37482,-0.0512 0.0418,-0.0515 0.073,-0.0488 0.14412,0.0124 0.28593,0.2461 0.90504,0.50158 1.32439,0.54653 0.20972,0.0225 0.61961,0.005 0.67044,-0.0279 z m -5.0247,-0.0171 c 0.0267,-0.0195 0.0343,-0.045 0.032,-0.10629 -0.003,-0.0829 -0.076,-0.33646 -0.12249,-0.42644 -0.0361,-0.0698 -0.1386796,-0.15644 -0.2150896,-0.18166 -0.11289,-0.0373 -0.28285,0.0355 -0.28284,0.12109 0,0.0174 0.0243,0.0763 0.0541,0.13102 0.0297,0.0547 0.0674,0.1261 0.0837,0.15873 0.0383,0.0767 0.23015,0.2519 0.3230796,0.29494 0.0876,0.0406 0.0842,0.0403 0.12757,0.009 z m 11.99535,-1.60352 c 0.0217,-0.0114 0.0454,-0.0297 0.0528,-0.0407 0.007,-0.0109 0.0134,-0.57336 0.0136,-1.24984 1.6e-4,-1.034 -0.004,-1.23554 -0.0254,-1.26503 -0.0252,-0.0345 -0.0862,-0.0352 -3.42011,-0.0441 -3.19459,-0.008 -3.39977,-0.0109 -3.48481,-0.0412 -0.0497,-0.0177 -0.11069,-0.0386 -0.13554,-0.0465 -0.0249,-0.008 -0.0818,-0.0409 -0.12651,-0.0735 -0.15138,-0.11012 -0.44214,-0.29353 -0.56023,-0.3534 -0.10381,-0.0526 -0.32007,-0.12613 -0.63251,-0.21501 -0.0547,-0.0155 -0.18072,-0.0408 -0.28012,-0.0561 -0.0994,-0.0153 -0.21325,-0.0357 -0.253,-0.0453 -0.0398,-0.01 -0.18787,-0.0177 -0.32914,-0.018 -0.20879,-3.2e-4 -0.27472,0.006 -0.3524,0.0343 -0.0526,0.0191 -0.12402,0.0401 -0.15881,0.0466 -0.0348,0.007 -0.10391,0.0267 -0.15361,0.0446 -0.0497,0.018 -0.20014,0.0589 -0.33433,0.0908 -0.13418,0.032 -0.2643,0.0709 -0.28915,0.0866 -0.0892,0.0561 -0.25592,0.22983 -0.31712,0.33058 -0.0816,0.13442 -0.0819,0.19957 -9.8e-4,0.2805 l 0.0615,0.0614 0.25933,-1.2e-4 c 0.19523,-9e-5 0.29598,-0.009 0.40761,-0.0357 0.0816,-0.0196 0.22386,-0.0445 0.31625,-0.0555 0.0924,-0.011 0.24105,-0.036 0.33036,-0.0557 0.0893,-0.0196 0.26989,-0.0406 0.40132,-0.0465 0.26816,-0.0121 0.33083,0.002 0.48047,0.10842 0.11394,0.081 0.54917,0.49429 0.61295,0.58205 0.0948,0.13047 0.41307,0.44001 0.49029,0.47688 0.0813,0.0388 0.46335,0.15367 0.58146,0.17478 0.0398,0.007 0.10888,0.0269 0.15361,0.044 0.0447,0.0171 0.13568,0.0365 0.20211,0.0431 0.0664,0.007 0.15335,0.0234 0.19313,0.0375 0.0398,0.014 0.1318,0.0309 0.2045,0.0375 0.0727,0.007 0.16372,0.0199 0.20229,0.0296 0.0386,0.01 0.11403,0.0249 0.16768,0.0336 0.0537,0.009 0.12296,0.034 0.154,0.0561 0.0509,0.0362 0.079,0.0403 0.28412,0.0415 0.21684,0.001 0.23498,0.004 0.38128,0.0641 0.16182,0.0661 0.25408,0.14261 0.36299,0.30091 0.077,0.11186 0.15969,0.32447 0.17142,0.44052 0.0161,0.15942 0.0227,0.17657 0.0755,0.19584 0.075,0.0274 4.2413,0.0276 4.2933,1.6e-4 z M 7.5331184,281.47187 c 0.14431,-0.0339 0.45039,-0.14462 0.6827,-0.247 0.0425,-0.0187 0.0904,-0.0341 0.10648,-0.0341 0.0161,0 0.0951,-0.0279 0.17572,-0.0619 0.0806,-0.0341 0.21565,-0.0865 0.30014,-0.11642 0.33754,-0.11972 0.39258,-0.14284 0.48212,-0.20244 0.0512,-0.0341 0.17556,-0.11077 0.27637,-0.17041 0.10081,-0.0596 0.22959,-0.14316 0.28618,-0.18561 0.0566,-0.0425 0.2122396,-0.16001 0.3458796,-0.26126 0.25354,-0.19207 0.70923,-0.46472 0.89554,-0.53582 0.3146,-0.12006 0.39939,-0.14638 0.58,-0.17999 0.27312,-0.0508 0.46939,-0.0602 0.84768,-0.0403 0.34979,0.0184 0.48942,0.0475 0.71373,0.14873 0.21014,0.0949 0.36155,0.30882 0.36155,0.51094 0,0.0641 -0.0137,0.097 -0.0729,0.17552 -0.0486,0.0645 -0.0712,0.11175 -0.0678,0.14187 0.005,0.0445 0.009,0.0457 0.2786,0.0751 0.33999,0.0373 0.61437,0.0923 0.71549,0.14349 0.0425,0.0215 0.15454,0.0922 0.24897,0.15696 0.0944,0.0648 0.20828,0.14269 0.253,0.17307 0.0447,0.0304 0.12043,0.0859 0.16822,0.12331 0.10779,0.0844 0.26987,0.13454 0.52012,0.16079 0.12728,0.0134 1.21472,0.0207 3.36147,0.0227 2.66625,0.002 3.1781,-9.7e-4 3.20324,-0.0218 0.0273,-0.0226 0.0299,-0.13028 0.0299,-1.22996 0,-1.01217 -0.004,-1.21077 -0.0256,-1.24023 -0.0251,-0.0344 -0.0815,-0.0353 -2.91409,-0.0448 l -2.88845,-0.01 -0.14415,-0.0403 c -0.0793,-0.0222 -0.17357,-0.0598 -0.20952,-0.0836 -0.0649,-0.0429 -0.12524,-0.14 -0.12524,-0.2014 0,-0.0176 -0.0135,-0.0469 -0.0299,-0.065 -0.0287,-0.0317 -0.13433,-0.0331 -2.63969,-0.0331 -1.68857,0 -2.62158,0.006 -2.64322,0.0179 -0.0184,0.01 -0.0468,0.0581 -0.0631,0.1073 -0.0364,0.10958 -0.13894,0.20776 -0.2479,0.23737 -0.25641,0.0697 -0.2644,0.0699 -3.0145096,0.0708 -1.46609,4.9e-4 -2.68292,0.006 -2.70407,0.0112 -0.0211,0.006 -0.0476,0.0303 -0.0587,0.0548 -0.0278,0.061 -0.0288,2.57744 -9.8e-4,2.62928 0.0106,0.0198 0.0345,0.0416 0.0532,0.0485 0.0481,0.0178 2.88711,0.0134 2.96368,-0.005 z m -0.46088,-3.28743 c 0.0246,-0.0375 0.0273,-0.18811 0.023,-1.2665 -0.005,-1.18771 -0.006,-1.22467 -0.04,-1.24956 -0.0298,-0.0218 -0.35628,-0.0256 -2.17997,-0.0256 -1.95219,0 -2.14707,0.003 -2.16911,0.0292 -0.0208,0.0251 -0.0179,0.0343 0.0202,0.0651 0.0244,0.0198 0.0852,0.0566 0.13495,0.0818 0.0498,0.0252 0.11493,0.0639 0.14475,0.086 0.0298,0.0221 0.15587,0.0911 0.28011,0.15338 0.12425,0.0623 0.24805,0.12883 0.27511,0.14791 0.0271,0.0191 0.16821,0.0948 0.31366,0.16828 0.14544,0.0735 0.27781,0.14487 0.29415,0.15866 0.0163,0.0138 0.13346,0.0766 0.26026,0.13947 0.21683,0.10758 0.23175,0.11841 0.25081,0.18202 0.0319,0.10639 0.005,0.22999 -0.0628,0.29403 -0.0314,0.0295 -0.0833,0.0646 -0.11533,0.0781 -0.11509,0.0484 -0.68701,0.33948 -1.00805,0.5131 -0.11927,0.0645 -0.27379,0.14804 -0.34336,0.18564 -0.0696,0.0376 -0.18953,0.0982 -0.26657,0.13469 -0.11209,0.0531 -0.14005,0.0743 -0.14005,0.10607 0,0.0219 0.0102,0.0438 0.0226,0.0488 0.0124,0.005 0.97998,0.01 2.15014,0.0105 l 2.12755,0.001 z m 16.5167996,0.0184 c 0.0679,-0.0496 0.0646,-0.0519 -0.49378,-0.34121 -0.12887,-0.0668 -0.23899,-0.12897 -0.24471,-0.13823 -0.006,-0.009 -0.10598,-0.0637 -0.22281,-0.12105 -0.11682,-0.0573 -0.24762,-0.12811 -0.29066,-0.1573 -0.043,-0.0292 -0.16909,-0.0981 -0.28011,-0.15306 -0.11103,-0.055 -0.20784,-0.10903 -0.21514,-0.12012 -0.007,-0.0111 -0.0134,-0.0904 -0.0136,-0.17627 -1.6e-4,-0.12268 0.006,-0.16414 0.0313,-0.19353 0.0329,-0.0388 0.22579,-0.14727 0.67318,-0.37831 0.14412,-0.0744 0.28237,-0.14946 0.30722,-0.16674 0.0249,-0.0173 0.094,-0.0571 0.15361,-0.0885 0.0596,-0.0314 0.17349,-0.0968 0.25301,-0.14547 0.0795,-0.0486 0.20649,-0.1219 0.28217,-0.16283 0.0757,-0.0409 0.157,-0.0951 0.18072,-0.12032 0.0947,-0.10082 0.17529,-0.0972 -2.17068,-0.0972 -1.82262,0 -2.14891,0.004 -2.17873,0.0256 -0.034,0.0249 -0.0352,0.0619 -0.04,1.24956 -0.004,1.07838 -0.002,1.22898 0.023,1.2665 l 0.0279,0.0426 h 2.09247 c 1.71823,0 2.09838,-0.004 2.12552,-0.0242 z m -4.81922,-0.43769 0.0402,-0.0281 v -1.21682 c 0,-1.17115 -0.001,-1.21843 -0.0345,-1.25949 l -0.0345,-0.0427 -5.51142,-0.005 c -5.2841196,-0.004 -5.5130796,-0.003 -5.5515896,0.0279 l -0.0402,0.0325 -0.006,1.20097 c -0.003,0.66053 -10e-4,1.21991 0.004,1.24307 0.005,0.0232 0.0272,0.0491 0.0483,0.0576 0.0211,0.009 2.5148596,0.016 5.5417296,0.0166 4.95295,9.8e-4 5.50741,-0.002 5.54355,-0.027 z m -2.53379,-0.66893 c -0.0525,-0.0526 -0.0354,-0.14206 0.0451,-0.23507 l 0.0735,-0.0849 -0.006,-0.27892 -0.006,-0.27893 -0.0589,-0.0484 c -0.0511,-0.042 -0.0589,-0.0594 -0.0587,-0.13199 1.1e-4,-0.0517 0.0104,-0.0921 0.0269,-0.10586 0.0203,-0.0169 0.14146,-0.0201 0.5015,-0.0134 0.53627,0.01 0.61683,0.024 0.74609,0.1299 0.12876,0.10551 0.15121,0.24798 0.0632,0.40134 -0.0465,0.0811 -0.0668,0.0984 -0.15453,0.13117 -0.15227,0.057 -0.23788,0.0727 -0.39869,0.0732 -0.1184,3.3e-4 -0.15199,0.007 -0.1762,0.0335 -0.041,0.0453 -0.0375,0.10562 0.008,0.14333 0.0797,0.0657 0.0883,0.0812 0.0883,0.15796 0,0.13095 -0.0122,0.13554 -0.36144,0.13554 -0.25285,0 -0.30947,-0.005 -0.33304,-0.0284 z m 0.85713,-0.71255 c 0.049,-0.049 0.0458,-0.13135 -0.007,-0.19327 -0.0368,-0.0428 -0.0575,-0.0507 -0.13276,-0.0507 -0.11865,0 -0.14892,0.0277 -0.14892,0.13646 0,0.1159 0.0299,0.14365 0.1549,0.14365 0.074,0 0.10698,-0.009 0.13425,-0.0361 z m -8.1778596,0.65447 c -0.0797,-0.0273 -0.16914,-0.0671 -0.19879,-0.0884 -0.15133,-0.10892 -0.24366,-0.27403 -0.24363,-0.43567 3e-5,-0.20696 0.1939,-0.44422 0.45859,-0.56125 0.11995,-0.053 0.29728,-0.0528 0.43686,6.5e-4 l 0.10352,0.0396 0.0688,-0.0396 c 0.0674,-0.0388 0.18635,-0.0523 0.22613,-0.0258 0.0426,0.0285 0.0614,0.0977 0.0614,0.22615 0,0.16305 -0.0238,0.19374 -0.15046,0.19374 -0.0703,0 -0.0957,-0.0102 -0.15219,-0.0608 -0.095,-0.0851 -0.17085,-0.11994 -0.2612,-0.11986 -0.16142,1.4e-4 -0.26653,0.12828 -0.26679,0.32523 -1.3e-4,0.10275 0.0492,0.29205 0.0857,0.32848 0.031,0.031 0.21216,0.0505 0.28419,0.0306 0.0345,-0.01 0.0701,-0.0312 0.0789,-0.0482 0.0181,-0.0346 -0.005,-0.11216 -0.0328,-0.11216 -0.01,0 -0.0312,-0.0198 -0.0471,-0.044 -0.0224,-0.0342 -0.0244,-0.0523 -0.009,-0.0813 0.0186,-0.0347 0.0361,-0.0374 0.24304,-0.0374 0.27102,0 0.28022,0.006 0.24689,0.15466 -0.0334,0.1494 -0.11086,0.23836 -0.28202,0.32405 -0.13587,0.068 -0.15423,0.0723 -0.32473,0.0765 -0.1569,0.004 -0.19982,-0.002 -0.32561,-0.0453 z m 1.7061196,0.0384 c -0.0722,-0.0193 -0.0917,-0.1707 -0.0305,-0.23586 0.0498,-0.053 0.0705,-0.21838 0.0561,-0.44793 -0.008,-0.13293 -0.018,-0.17316 -0.053,-0.22018 -0.0566,-0.0761 -0.0604,-0.21188 -0.007,-0.24061 0.0237,-0.0127 0.19519,-0.0173 0.50149,-0.0135 0.53607,0.007 0.6237,0.0224 0.72297,0.13 0.0508,0.055 0.0587,0.0765 0.0587,0.15879 -5e-5,0.0597 -0.0167,0.1355 -0.0447,0.20357 -0.0246,0.0596 -0.0449,0.12575 -0.0451,0.14691 -4.9e-4,0.0474 0.10666,0.22853 0.16988,0.28713 0.0624,0.0578 0.0658,0.17391 0.006,0.21553 -0.0549,0.0385 -0.29779,0.0389 -0.35239,6.5e-4 -0.0215,-0.0151 -0.0935,-0.11629 -0.15984,-0.2249 -0.0918,-0.15021 -0.1333,-0.20187 -0.17338,-0.21585 -0.14662,-0.0511 -0.22841,0.13174 -0.10761,0.24056 0.0521,0.0469 0.0542,0.18166 0.003,0.20891 -0.0333,0.0178 -0.48309,0.0234 -0.54534,0.007 z m 0.80702,-0.70105 c 0.0591,-0.0591 0.056,-0.11839 -0.009,-0.18115 -0.0694,-0.0665 -0.22597,-0.0858 -0.30051,-0.0369 -0.0422,0.0276 -0.0464,0.0396 -0.0375,0.1061 0.0146,0.10886 0.0765,0.15634 0.20387,0.15634 0.0812,0 0.10724,-0.008 0.14357,-0.0444 z m 1.21129,0.68462 c -0.0472,-0.0472 -0.0371,-0.17398 0.0179,-0.22566 0.0697,-0.0655 0.11012,-0.13971 0.16751,-0.30761 0.0286,-0.0837 0.0631,-0.1786 0.0767,-0.2109 0.0208,-0.0497 0.0208,-0.0678 -9e-5,-0.11747 -0.0352,-0.0836 -0.0456,-0.22581 -0.0189,-0.25804 0.0181,-0.0218 0.0889,-0.0266 0.39574,-0.0266 0.26655,0 0.3799,0.006 0.39537,0.0217 0.0304,0.0304 0.0262,0.19672 -0.006,0.23929 -0.0146,0.0193 -0.0265,0.0471 -0.0265,0.0618 0,0.0147 0.0447,0.13852 0.0994,0.27516 0.0547,0.13665 0.0994,0.25464 0.0994,0.26221 0,0.008 0.0295,0.0408 0.0656,0.0738 0.0592,0.0542 0.0645,0.0667 0.0546,0.12773 -0.017,0.10479 -0.0408,0.11293 -0.33022,0.11293 -0.28417,0 -0.3141,-0.0104 -0.3141,-0.10912 0,-0.0357 0.0201,-0.0724 0.0633,-0.11557 0.0348,-0.0348 0.0632,-0.0712 0.0632,-0.0809 0,-0.01 -0.0187,-0.0394 -0.0416,-0.066 -0.0303,-0.0352 -0.0676,-0.0524 -0.13732,-0.0635 -0.12019,-0.019 -0.18761,-0.006 -0.24556,0.0478 -0.0548,0.0508 -0.0581,0.11324 -0.009,0.17527 0.0401,0.051 0.0481,0.15658 0.0145,0.19025 -0.0345,0.0345 -0.34793,0.029 -0.38364,-0.007 z m 0.67759,-0.51439 c 0.0481,-0.0258 0.0425,-0.0971 -0.0162,-0.20716 -0.0658,-0.12323 -0.0951,-0.12336 -0.17348,-8.2e-4 -0.0708,0.11061 -0.0816,0.17876 -0.0329,0.20712 0.0414,0.0241 0.1781,0.0246 0.22257,8.1e-4 z m 1.25933,0.52433 c -0.0257,-0.0158 -0.0316,-0.0456 -0.0316,-0.15954 0,-0.0848 0.009,-0.14861 0.0217,-0.16175 0.0119,-0.0119 0.0613,-0.0217 0.1096,-0.0217 0.0817,0 0.0941,0.006 0.17593,0.0904 0.0902,0.0925 0.14467,0.11092 0.21598,0.0728 0.042,-0.0225 0.0615,-0.0992 0.037,-0.14512 -0.0104,-0.0195 -0.0922,-0.0713 -0.18168,-0.11501 -0.20352,-0.0995 -0.37851,-0.25275 -0.37851,-0.33152 0,-0.0289 0.0291,-0.11157 0.0646,-0.18371 0.058,-0.11765 0.0733,-0.13491 0.14909,-0.16742 0.0669,-0.0287 0.10707,-0.034 0.19291,-0.0253 0.1375,0.0139 0.22408,0.0138 0.36665,-3.2e-4 0.0775,-0.008 0.12204,-0.004 0.14005,0.0107 0.0332,0.0275 0.0369,0.25278 0.005,0.28496 -0.0119,0.0119 -0.0686,0.0217 -0.12596,0.0217 -0.0957,0 -0.10768,-0.005 -0.14548,-0.056 -0.0762,-0.10346 -0.18225,-0.13433 -0.24049,-0.07 -0.0696,0.0769 0.0195,0.16887 0.28061,0.28951 0.1554,0.0718 0.16835,0.0808 0.21223,0.14709 0.0602,0.0909 0.0823,0.19851 0.0589,0.28569 -0.0146,0.0543 -0.043,0.088 -0.12781,0.15175 -0.12235,0.092 -0.19289,0.11175 -0.32953,0.0924 -0.11553,-0.0163 -0.22829,-0.0169 -0.34687,-0.002 -0.054,0.007 -0.1031,0.004 -0.12199,-0.008 z"
       style="fill:#1d1b17;stroke-width:0.0180719"
       sodipodi:nodetypes="cccccccscccscccccccccccccccsccccccccccscccsccsccccccsscccscccccscccccccsccccssccsccccsccccccccscccccccsccccccccccccsccccscccsccccsccsccccccccccccccccccccsccccccccccsccscscssccccccsccsccccscccccccccscccssccccsccccccccccscscscsccscccccccccccccccccccccscscccccscsccsccccccccccccssscccccsccccccccccccccccccscccccccsccccscccccscccccccccscccscscscccccsccscsccccccscccccccccsccccscccscccccccscccccccccccscccccccccccscscccccccccccsccccccccsccccccscscsccccccsccccccccccscscscscsccccsccccccccscccccccccccccccscccccccccccccscscccsccccsccccsccccccccccccccccccccccccccssccccssscccccccaccssccccccsccsccscccccccssccccccccccccccccsccccccccsccsssscsssscccccccccccccscsccccsccccccsccsccccccc" />
    <g
       transform="matrix(0.06457331,0,0,-0.06457331,10.75022,292.04832)"
       inkscape:label="ink_ext_XXXXXX"
       id="g42">
      <path
         d="m 72.360968,58.227573 h -3.6762 l -1.5309,4e-4 h -20.1754 c -0.6574,0 -1.3277,-0.086 -1.9886,-0.2485 -2.4047,-0.5906 -4.6868,-2.1922 -5.8305,-4.341 h -0.2055 c -12.5894,-0.1039 -22.9656,-2.8207 -28.50662,-11.4269 H 8.7253777 c -0.482816,0 -0.943363,-0.3739 -1.042972,-0.8461 l -0.3371099,-1.595 c -0.1324221,-0.6281 0.3039059,-1.2226 0.9433599,-1.2824 0.00234,-4e-4 0.311722,-0.0371 0.556252,-0.191 0.15234,-0.0953 0.31015,-0.2344 0.20469,-0.6848 l -1.158599,-5.4933 c -1.189062,-5.5969 2.1851593,-8.02542 4.9507793,-8.05706 1.41797,-0.01562 2.83907,0.57774 3.92578,1.79063 2.51561,-2.53672 6.28671,-2.23281 8.43051,0.02695 0.9265,-0.91758 2.0261,-1.4375 3.1332,-1.67031 0.0781,-1.43086 0.6207,-2.88633 1.7078,-4.21055 3.7105,-4.525 12.0304,-4.56875 16.0054,1.65 0.8215,1.28438 1.3555,2.6668 1.5473,4.09532 1.0277,-1.14336 2.4344,-1.66719 3.6996,-1.68204 1.4223,-0.01562 2.8465,0.58086 3.9344,1.79883 2.7996,-2.75469 7.475,-2.30703 9.4191,1.29963 0.0692,0.1265 0.1278,0.3613 0.1278,0.5055 v 1.5328 c 0,1.1011 -1.3063,1.5136 -1.9387,0.6125 -0.2914,-0.4161 -1.4766,-0.6996 -1.1016,1.2429 l 1.6282,7.5809 c 0.5714,2.3914 -1.2758,3.573 -2.875,3.573 l -14.193,0.0012 c -0.275,1.0852 -0.7152,1.9871 -1.2754,2.7195 0.6535,-0.1586 1.3156,-0.2421 1.9613,-0.2421 l 18.1942,-0.002 0.857,0.002 1.5629,-0.002 c 1.9152,-0.016 3.1965,1.05 3.7223,2.9102 0.1957,0.6953 -0.2157,1.2398 -0.9375,1.2398 h -3.6754 -1.6742 l -0.3454,0.5164 1.4758,-8e-4 0.8567,0.0016 1.5625,-0.0016 c 1.9136,-0.0168 3.1968,1.0496 3.723,2.9102 0.1965,0.6945 -0.216,1.239 -0.9383,1.2398 h -3.6754 -1.5297 -1.521 c 0.139,0.1864 0.2695,0.3793 0.3918,0.5789 l 2.1265,-0.0011 0.8598,0.0011 1.5594,-0.0011 c 1.9144,-0.0168 3.1992,1.0488 3.7257,2.9101 0.1961,0.6945 -0.216,1.2395 -0.9382,1.2395 z m -19.1485,-27.7145 1.7098,8.018 0.5683,-0.1235 c 0.4536,-0.1125 0.5286,-0.4074 0.4536,-0.7617 l -1.5829,-7.3765 c -0.1128,-0.5438 -0.4859,-0.8137 -0.7933,-0.7582 -0.3387,0.0601 -0.4809,0.4925 -0.3555,1.0019 z m -35.7254,7.1328 -1.58279,-7.3765 c -0.1125,-0.5438 -0.48476,-0.8137 -0.79218,-0.7582 -0.33946,0.0601 -0.48125,0.4925 -0.35665,1.0019 l 1.71016,8.018 0.56797,-0.1235 c 0.45349,-0.1125 0.52849,-0.4074 0.45349,-0.7617 z m 15.9668,-13.72614 c -0.2465,1.22148 0.7098,1.91367 1.5942,1.64648 0.3988,-0.12031 0.9988,-0.54375 1.6226,-1.27578 l 0.2906,-0.37383 c 0.5829,-0.79375 1.7168,-0.53125 1.9036,0.43164 l 0.8921,4.60153 c 0.4583,-0.7203 0.6946,-1.4675 0.6704,-2.33317 -0.0172,-0.62539 -0.3106,-1.5793 -0.5547,-2.13359 -1.7356,-3.94727 -5.9864,-2.70469 -6.4188,-0.56328 z m -2.5582,6.24454 1.3617,6.334 c 0.5739,-1.0289 1.452,-1.9949 2.6246,-2.9356 0.3563,-0.3234 1.2098,-1.0484 2.0559,-1.7761 l 0.5945,-0.5145 c -2.5304,0.7613 -4.9566,0.0992 -6.6367,-1.1078 z m -7.7047,0.3488 1.7098,8.018 0.5687,-0.1235 c 0.4536,-0.1125 0.5286,-0.4074 0.4536,-0.7617 l -1.5832,-7.3765 c -0.1137,-0.5438 -0.486,-0.8137 -0.7934,-0.7582 -0.3387,0.0601 -0.4809,0.4925 -0.3555,1.0019 z m 17.2582,16.9125 c -3.8277,0.4305 -8.1398,-1.9504 -8.7855,-5.8933 -0.507,0.416 -1.1453,0.6753 -1.8215,0.6753 l -8.6734,4e-4 c 1.4773,0.6985 2.9722,1.2641 4.4066,1.7219 2.3363,0.7465 4.4652,1.1961 6.0168,1.4801 l 1.8766,0.3223 0.5632,0.105 c 0.6887,0.1551 0.9153,0.6418 0.959,0.8297 0.1469,0.6383 -0.2781,1.2008 -0.9316,1.234 -2.857,0.1481 -5.5984,0.0508 -8.1918,-0.3211 3.7641,1.1211 8.1953,1.5856 13.3676,1.627 0.2988,-0.6532 0.7105,-1.2528 1.214,-1.7813 z m 7.0789,-9.6933 -1.189,-5.6231 -0.0582,-0.3445 c -0.7016,1.1762 -1.6746,2.3156 -2.936,3.3941 -1.4332,1.2254 -2.9625,2.5742 -4.1906,3.8821 -0.3172,0.3378 -0.5441,0.65 -0.5285,1.1914 0.0219,0.8058 0.6906,1.4507 1.5055,1.4507 0.65,0 1.1949,-0.389 1.3933,-0.9371 0.1446,-0.3988 -0.041,-0.8515 -0.3621,-1.0804 -0.8922,-0.6368 -0.4769,-1.9344 0.6203,-1.9344 l 5.7453,0.0012 v 0"
         style="fill:#fcd006;fill-opacity:1;fill-rule:nonzero;stroke:none;stroke-width:0.1"
         id="path46"
         inkscape:connector-curvature="0" />
      <path
         d="m 29.852768,30.385373 c -0.2516,-1.1985 0.0554,-2.0461 0.5609,-2.5274 1.6277,2.395 4.9629,3.6489 8.3258,1.7403 l 0.132,-0.0836 -1.0531,-4.96369 c 0,0 -0.1953,0.26562 -0.3317,0.42539 -0.6754,0.79218 -1.4441,1.4039 -2.13,1.61054 -1.67,0.50396 -3.3508,-0.88007 -2.9477,-2.87851 0.6938,-3.43594 6.4004,-4.29258 8.4395,0.34492 0.2687,0.61172 0.6214,1.71055 0.6449,2.53281 0.048,1.72774 -0.734,3.04644 -1.9043,4.26484 -0.5871,0.6113 -3.2934,2.8684 -3.9988,3.5074 -2.1657,1.7289 -3.0891,3.3973 -3.0602,5.2106 0.1305,8.3367 12.2918,9.1203 12.8269,1.5738 l 6.6938,0.002 c 1.0879,0 2.1051,-1.1079 1.8543,-2.2657 l -1.6586,-7.6437 c -0.7422,-3.5848 2.6523,-3.4168 3.168,-1.0903 l 1.5668,7.2293 c 0.4039,1.993 -1.7035,2.17 -1.7035,2.17 l 0.3421,1.5976 h 4.8657 c 1.1523,0 2.1964,-0.7594 1.8375,-2.2629 l -1.6332,-7.6043 c -0.6504,-3.3234 2.2039,-3.2355 3.0168,-2.0761 v -1.5328 c -1.7754,-3.29341 -6.4039,-3.41411 -8.5422,-0.0395 -0.9364,-1.73555 -2.4289,-2.51407 -3.8606,-2.49805 -2.0832,0.02344 -4.8773,1.83475 -3.9191,6.77035 l 1.3,6.1535 c 0.1187,0.5066 -0.2781,0.7472 -0.5836,0.7472 l -6.3192,-0.0023 c 0.6418,0.4582 1.0797,1.3895 0.745,2.3121 -0.3578,0.9883 -1.3172,1.6402 -2.3957,1.6402 -1.3918,0 -2.5317,-1.1128 -2.5703,-2.4957 -0.004,-0.1511 0.0078,-0.3078 0.0363,-0.4683 0.0863,-0.4778 0.325,-0.9903 0.7797,-1.4738 1.273,-1.3551 2.839,-2.7352 4.2754,-3.9629 4.5507,-3.8903 4.8691,-8.41137 2.4941,-12.12582 -3.5941,-5.621093 -11.0422,-5.498437 -14.2832,-1.54805 -1.1785,1.43711 -1.5934,3.00586 -1.4488,4.46094 -1.5621,0.09805 -3.175,0.78321 -4.2567,2.49063 -1.6371,-3.03555 -6.1601,-3.60469 -8.44333,0 -0.93594,-1.73555 -2.42852,-2.51407 -3.86094,-2.49844 -2.0832,0.02383 -4.9703113,1.82264 -3.9195303,6.77074 l 1.1562503,5.4824 c 0.45938,1.9652 -1.7015603,2.1683 -1.7015603,2.1683 l 0.33672,1.5957 h 4.9949203 c 1.34648,0 2.01289,-1.0097 1.73555,-2.2937 l -1.65157,-7.6164 c -0.68867,-3.518 2.66602,-3.4731 3.15938,-1.0899 l 1.57691,7.2719 c 0.4391,1.8942 -1.71285,2.1274 -1.71285,2.1274 l 0.34141,1.5976 h 4.88634 c 1.0254,0 2.0918,-1.0164 1.8734,-2.0605 l -1.6812,-7.8067 c -0.7168,-3.6636 2.659,-3.4441 3.1695,-1.0539 l 1.5484,7.1946 c 0.4227,1.8957 -1.7058,2.1261 -1.7058,2.1261 l 0.3379,1.5985 4.2461,0.0015 c 1.0777,0 2.084,-1.1109 1.8347,-2.2625 l -1.8257,-8.4937 v 0"
         style="fill:#231f20;fill-opacity:1;fill-rule:nonzero;stroke:none;stroke-width:0.1"
         id="path48"
         inkscape:connector-curvature="0" />
      <path
         d="m 16.653888,43.746273 c 4.96598,2.511 10.94378,3.4528 17.34488,3.1223 -0.264,-0.0309 -8.8265,-1.1254 -15.0398,-4.661 h -7.16289 c 5.48047,7.8754 15.48519,10.3184 27.92419,10.3184 1.0442,2.7293 4.2793,4.727 7.2582,4.727 h 3.3418 c -0.0449,-0.4008 -0.1246,-0.7903 -0.2383,-1.1657 1.0551,0.7348 2.3383,1.1657 3.7223,1.1657 h 3.3406 c -0.0441,-0.4008 -0.1242,-0.7903 -0.2379,-1.1657 1.0559,0.7348 2.3391,1.1657 3.7231,1.1657 h 4.4758 2.048 1.5309 3.6762 c -0.418,-1.4797 -1.3493,-2.2129 -2.7821,-2.2004 l -1.5664,0.0011 -0.8586,-0.0011 -2.6992,0.0011 c -0.5164,-1.0273 -1.2973,-1.8996 -2.2519,-2.5281 l 3.9542,4e-4 h 1.5297 l 3.6754,-4e-4 c -0.4179,-1.4793 -1.3465,-2.2133 -2.7808,-2.2008 l -1.5664,0.0016 -0.8579,-0.0016 -3.8621,0.0016 c 0.9137,-0.6234 1.6602,-1.4715 2.1598,-2.466 h 0.7176 1.5297 l 3.6754,-4e-4 c -0.4188,-1.4793 -1.3465,-2.2133 -2.7801,-2.2012 l -1.5684,0.0024 -0.8566,-0.0024 -4.5422,0.0024 c -1.384,0 -2.6672,0.4308 -3.7231,1.166 0.1137,-0.3762 0.1938,-0.7653 0.2379,-1.166 h -3.3406 c -1.384,0 -2.6672,0.4308 -3.7223,1.166 0.1133,-0.3762 0.1934,-0.7653 0.2383,-1.166 h -3.3418 c -2.9562,0 -6.1754,1.9679 -6.9754,4.6652 -10.2152,0 -17.9296,-1.5465 -23.34918,-6.5801 z m 40.83598,6.6321 -1.2102,3e-4 0.3246,-0.4644 c 0.8856,-1.2688 2.359,-2.1012 4.0258,-2.1012 h 1.2102 l -0.3243,0.4645 c -0.8867,1.2699 -2.3605,2.1008 -4.0261,2.1008 z m -6.825,0 -1.2102,3e-4 0.3242,-0.4644 c 0.886,-1.2688 2.3594,-2.1012 4.0254,-2.1012 h 1.211 l -0.3247,0.4645 c -0.8863,1.2699 -2.3601,2.1008 -4.0257,2.1008 z m -6.8246,0 -1.2114,3e-4 0.3246,-0.4644 c 0.8868,-1.2688 2.3598,-2.1012 4.025,-2.1012 h 1.2114 l -0.3246,0.4645 c -0.8868,1.2699 -2.3602,2.1008 -4.025,2.1008 z m 16.7898,4.7222 c -1.6668,0 -3.1402,-0.8312 -4.0258,-2.1008 l -0.3246,-0.464 h 1.2102 c 1.6656,0 3.1394,0.8308 4.0254,2.1004 l 0.3242,0.4644 z m -6.8258,0 c -1.666,0 -3.1394,-0.8312 -4.0254,-2.1008 l -0.3254,-0.464 h 1.2114 c 1.6656,0 3.1386,0.8308 4.0254,2.1004 l 0.3242,0.4644 z m -6.8258,0 c -1.6652,0 -3.1382,-0.8312 -4.025,-2.1008 l -0.3246,-0.464 h 1.2114 c 1.6652,0 3.1382,0.8308 4.025,2.1004 l 0.3246,0.4644 h -1.2114 v 0"
         style="fill:#231f20;fill-opacity:1;fill-rule:nonzero;stroke:none;stroke-width:0.1"
         id="path50"
         inkscape:connector-curvature="0" />
    </g>
  </g>
</svg>
