<?xml version="1.0" encoding="UTF-8" standalone="no"?>
<!-- Created with Inkscape (http://www.inkscape.org/) -->

<svg
   xmlns:dc="http://purl.org/dc/elements/1.1/"
   xmlns:cc="http://creativecommons.org/ns#"
   xmlns:rdf="http://www.w3.org/1999/02/22-rdf-syntax-ns#"
   xmlns:svg="http://www.w3.org/2000/svg"
   xmlns="http://www.w3.org/2000/svg"
   xmlns:sodipodi="http://sodipodi.sourceforge.net/DTD/sodipodi-0.dtd"
   xmlns:inkscape="http://www.inkscape.org/namespaces/inkscape"
   width="128"
   height="128"
   viewBox="0 0 33.866666 33.866668"
   version="1.1"
   id="svg8"
   sodipodi:docname="community-icon.svg"
   inkscape:version="0.92.1 r15371">
  <defs
     id="defs2" />
  <sodipodi:namedview
     id="base"
     pagecolor="#ffffff"
     bordercolor="#666666"
     borderopacity="1.0"
     inkscape:pageopacity="0.0"
     inkscape:pageshadow="2"
     inkscape:zoom="3.959798"
     inkscape:cx="59.240418"
     inkscape:cy="56.615347"
     inkscape:document-units="px"
     inkscape:current-layer="layer1"
     showgrid="false"
     units="px"
     inkscape:showpageshadow="false"
     inkscape:pagecheckerboard="true"
     inkscape:window-width="1882"
     inkscape:window-height="1080"
     inkscape:window-x="38"
     inkscape:window-y="0"
     inkscape:window-maximized="1"
     fit-margin-top="0"
     fit-margin-left="0"
     fit-margin-right="0"
     fit-margin-bottom="0" />
  <metadata
     id="metadata5">
    <rdf:RDF>
      <cc:Work
         rdf:about="">
        <dc:format>image/svg+xml</dc:format>
        <dc:type
           rdf:resource="http://purl.org/dc/dcmitype/StillImage" />
        <dc:title></dc:title>
      </cc:Work>
    </rdf:RDF>
  </metadata>
  <g
     inkscape:label="Layer 1"
     inkscape:groupmode="layer"
     id="layer1"
     transform="translate(-152.67746,43.51554)">
    <path
       style="font-style:normal;font-weight:normal;font-size:medium;line-height:15.26901054px;font-family:sans-serif;letter-spacing:0px;word-spacing:0px;fill:#00000e;fill-opacity:1;stroke:#fcffff;stroke-width:2.11666679;stroke-linecap:round;stroke-linejoin:round;stroke-miterlimit:4;stroke-dasharray:none;stroke-opacity:1;paint-order:stroke fill markers"
       d="m 182.83996,-26.769132 q 0,0.882739 -0.5368,1.765479 -0.60837,0.990101 -1.43147,0.990101 -0.36979,0 -0.65609,-0.274365 -0.0954,0.453298 -0.19086,0.918526 -0.13122,0.44137 -0.54873,0.751522 -0.19086,0.143147 -0.69188,0.226649 -0.48908,0.0835 -0.52487,0.119289 -0.0358,0.9901 -0.40558,1.43147 -0.32208,0.369796 -1.2764,0.739593 0,0.691877 -0.72766,1.121318 -0.6203,0.369796 -1.3599,0.357867 -0.29822,0.632233 -0.56066,0.858882 -0.33401,0.310152 -0.94238,0.310152 -0.46523,0 -1.13325,-0.250507 -1.03781,-0.381726 -1.10939,-0.405583 -0.51294,0.703806 -1.5269,0.703806 -0.48908,0 -0.94238,-0.417512 -0.44137,-0.417512 -0.4533,-0.417512 -0.0597,0 -0.17893,0.04772 -0.11929,0.03579 -0.19087,0.03579 -0.78731,0 -1.35989,-0.835025 h -1.08554 q -0.23857,0 -0.65609,-0.190862 -0.41751,-0.202792 -0.54873,-0.393654 -0.0239,-0.178934 -0.15507,-0.524873 -0.52487,-0.369796 -1.33604,-1.061673 -0.22665,-0.250507 -0.41751,-0.787308 -0.22665,-0.584517 -0.3698,-0.799238 -0.17893,-0.250507 -1.14517,-0.691877 -0.95432,-0.44137 -1.30026,-0.44137 -0.27436,0 -0.67994,0.44137 -0.40559,0.44137 -0.51295,0.44137 -0.19086,0 -0.78731,-0.489085 -0.51294,-0.429441 -0.71573,-0.679949 2.37385,-2.576646 3.79339,-7.181206 -0.41751,-0.429441 -1.37182,-1.180963 0.0835,-0.298223 0.3698,-0.966242 3.34009,2.469285 4.9505,2.469285 0.63223,0 1.80126,-1.049744 1.18096,-1.061674 2.27842,-1.061674 0.19087,0 0.58452,0.0835 0.39366,0.0835 0.58452,0.0835 0.17893,0 0.87081,-0.298223 0.69188,-0.310152 1.28832,-0.310152 0.79924,0 2.25457,0.596446 1.46725,0.584517 2.21877,0.584517 0.64417,0 1.50305,-0.501014 0.69187,-0.429441 1.38375,-0.858882 0.32208,0.21472 0.50102,0.357867 0,0.143147 -0.26244,0.345939 -0.20279,0.143147 -0.39365,0.286294 1.82512,1.681977 2.63629,2.684006 1.46725,1.825123 1.46725,3.316237 z"
       id="path1312"
       inkscape:connector-curvature="0" />
    <path
       id="path1291"
       style="font-style:normal;font-weight:normal;font-size:medium;line-height:15.26901054px;font-family:sans-serif;letter-spacing:0px;word-spacing:0px;fill:#ffffff;fill-opacity:1;stroke:none;stroke-width:0.5291667;stroke-linecap:round;stroke-linejoin:round;stroke-miterlimit:4;stroke-dasharray:none;stroke-opacity:1;paint-order:stroke fill markers"
       d="m 163.87299,-21.627769 q -0.0597,-0.03579 -1.4434,-0.715735 v 0.238578 q 0,0.202792 0.47716,0.620304 0.47715,0.417512 0.69187,0.417512 h 0.14315 z m 2.82715,0.345938 q 0,-0.88274 -0.81117,-0.88274 -0.54873,0 -1.01395,0.512944 -0.46523,0.501014 -0.46523,1.049744 0,0.823095 0.81117,0.823095 0.58451,0 1.02588,-0.453298 0.4533,-0.465228 0.4533,-1.049745 z m -5.60659,-9.602777 q -0.25051,-0.167005 -0.42944,-0.226649 -0.60837,2.803295 -3.26852,6.715979 0.46522,0.465228 0.51294,0.465228 0.19086,0 0.72766,-0.691877 0.4533,-0.572588 0.63224,-0.906598 1.26446,-2.349996 1.82512,-5.356083 z m 7.84923,9.996431 q 0,-0.286294 -0.22665,-0.489085 -0.22665,-0.214721 -0.51295,-0.214721 -0.47715,0 -0.83502,0.572588 -0.0358,0.05964 -0.46523,0.978171 -0.20279,0.429441 -0.20279,0.405583 0,0.596446 0.67995,0.596446 0.6203,0 1.10939,-0.620303 0.4533,-0.584517 0.4533,-1.228679 z m 1.37182,0.835024 q 0,-0.572587 -0.33401,-0.572587 -0.44137,0 -0.96624,0.65609 -0.51294,0.65609 -0.51294,1.109389 0,0.668019 0.90659,0.668019 0.77538,0 0.89467,-0.751521 l -0.22665,0.21472 -0.11929,-0.07157 v -0.21472 q 0,-0.04772 0.17894,-0.429441 0.17893,-0.381726 0.17893,-0.608376 z m 8.9944,-4.377911 q 0,-0.596447 -0.97817,-1.55076 -0.75152,-0.739593 -3.31624,-2.015986 -2.64821,-1.312181 -3.55481,-1.312181 -0.47716,0 -0.94239,0.54873 -0.81116,0.966242 -0.89467,1.025887 -0.63223,0.54873 -1.51497,0.54873 -1.33604,0 -1.33604,-1.073603 0,-0.918526 0.11929,-1.670048 0.11929,-0.751521 0.75153,-1.491114 0.63223,-0.751522 0.63223,-0.787308 h -0.48909 q -0.29822,0 -1.06167,0.644161 -0.51294,0.44137 -1.02589,0.88274 -0.54873,0.381725 -1.09746,0.524872 -0.23858,0.05964 -0.72766,0.05964 -0.97817,0 -2.05178,-0.572588 -0.41751,1.503043 -0.84695,3.006086 -0.52487,1.729693 -1.19289,2.874869 0.54873,0.345939 2.40964,1.347968 2.05177,1.09746 2.27842,1.09746 -0.0119,0 0.51295,-0.310152 0.52487,-0.310152 1.0736,-0.310152 0.76345,0 1.32411,0.88274 0.51294,-0.345939 0.95431,-0.345939 0.70381,0 1.33604,1.085532 l 0.11929,-0.01193 q 0.48909,-0.04772 0.85888,0.345938 0.3698,0.381726 0.3698,0.894669 0,0.10736 -0.10736,0.357867 -0.10736,0.238579 -0.10736,0.345939 0,0.119289 0.40558,0.429441 0.78731,0.608374 1.49112,0.608374 0.27436,0 0.5368,-0.119289 0.33401,-0.155076 0.33401,-0.393654 0,-0.05964 -0.52488,-0.751522 -0.52487,-0.703806 -0.52487,-0.966242 0,-0.155076 0.14315,-0.202791 0.29822,0.44137 0.93045,0.823095 0.63224,0.369796 1.14518,0.369796 0.33401,0 0.58452,-0.09543 0.11929,-0.04772 0.34593,-0.286294 0.23858,-0.238578 0.23858,-0.345938 0,-0.04772 -0.95431,-1.002029 -0.94238,-0.966242 -0.94238,-1.336038 0,-0.11929 0.20279,-0.190863 0.51294,0.536801 1.02588,1.061673 0.71574,0.656091 1.24061,0.656091 0.44137,0 0.72766,-0.310152 0.2863,-0.310152 0.2863,-0.751522 0,-0.250507 -0.27437,-0.739593 -0.15507,-0.262436 -1.19289,-1.359896 -0.95431,-1.002029 -0.95431,-1.133248 v -0.0835 l 0.0358,-0.03579 h 0.28629 q 0.3698,0 1.63426,1.324111 1.26447,1.324109 1.28832,1.324109 0.38173,0 0.70381,-0.584516 0.28629,-0.512944 0.28629,-0.930456 z m 0.48909,-2.302281 q 0,-2.075632 -2.56472,-4.389841 -0.17893,-0.214721 -0.50101,-0.465228 -0.32208,-0.02386 -0.96624,-0.10736 -0.33401,-0.05964 -2.38579,-0.560659 -1.45532,-0.357867 -2.40964,-0.357867 -0.48908,0 -0.82309,0.10736 -0.83503,0.274365 -1.65812,1.157105 -0.88274,0.930455 -0.94239,1.75355 -0.0119,0.10736 -0.0596,0.465228 -0.0358,0.298222 -0.0358,0.465227 0,0.727664 0.76345,0.727664 0.93046,0 1.50305,-1.013958 0.48908,-0.858881 0.50101,-1.86091 0.20279,0.05964 0.27437,0.381725 0.0954,0.489086 0.0954,0.501014 1.56268,-0.262436 1.35989,-0.262436 0.33401,0 2.11142,0.88274 1.77741,0.88274 1.78934,0.88274 0.20279,0 0.51294,-0.489086 0.38173,-0.596446 0.4533,-0.65609 0.0716,0.190862 0.0716,0.44137 0,0.405583 -0.26243,1.002028 1.5269,0.88274 3.01801,2.123347 0.15508,-0.429441 0.15508,-0.727663 z m 2.02792,0.131218 q 0,-0.858882 -0.67995,-2.385783 -0.79924,-1.789338 -2.68401,-3.101518 -0.38172,-0.262436 -0.4533,-0.262436 0.0477,0 -0.46523,0.238578 1.62234,1.801266 2.13528,2.612432 0.95431,1.526901 0.95431,3.173092 0,0.632232 -0.44137,1.145176 0.2028,0.286294 0.3698,0.286294 0.46523,0 0.88274,-0.632233 0.38173,-0.584517 0.38173,-1.073602 z"
       inkscape:connector-curvature="0" />
  </g>
</svg>
