<?xml version="1.0" encoding="UTF-8" standalone="no"?>
<!-- Created with Inkscape (http://www.inkscape.org/) -->

<svg
   xmlns:dc="http://purl.org/dc/elements/1.1/"
   xmlns:cc="http://creativecommons.org/ns#"
   xmlns:rdf="http://www.w3.org/1999/02/22-rdf-syntax-ns#"
   xmlns:svg="http://www.w3.org/2000/svg"
   xmlns="http://www.w3.org/2000/svg"
   xmlns:sodipodi="http://sodipodi.sourceforge.net/DTD/sodipodi-0.dtd"
   xmlns:inkscape="http://www.inkscape.org/namespaces/inkscape"
   width="128"
   height="128"
   viewBox="0 0 33.866666 33.866668"
   version="1.1"
   id="svg8"
   sodipodi:docname="experience-icon.svg"
   inkscape:version="0.92.1 r15371">
  <defs
     id="defs2" />
  <sodipodi:namedview
     id="base"
     pagecolor="#ffffff"
     bordercolor="#666666"
     borderopacity="1.0"
     inkscape:pageopacity="0.0"
     inkscape:pageshadow="2"
     inkscape:zoom="3.959798"
     inkscape:cx="53.622265"
     inkscape:cy="38.86536"
     inkscape:document-units="px"
     inkscape:current-layer="layer1"
     showgrid="false"
     units="px"
     inkscape:showpageshadow="false"
     inkscape:pagecheckerboard="true"
     inkscape:window-width="1640"
     inkscape:window-height="1050"
     inkscape:window-x="1920"
     inkscape:window-y="0"
     inkscape:window-maximized="1"
     fit-margin-top="0"
     fit-margin-left="0"
     fit-margin-right="0"
     fit-margin-bottom="0" />
  <metadata
     id="metadata5">
    <rdf:RDF>
      <cc:Work
         rdf:about="">
        <dc:format>image/svg+xml</dc:format>
        <dc:type
           rdf:resource="http://purl.org/dc/dcmitype/StillImage" />
        <dc:title></dc:title>
      </cc:Work>
    </rdf:RDF>
  </metadata>
  <g
     inkscape:label="Layer 1"
     inkscape:groupmode="layer"
     id="layer1"
     transform="translate(-152.67746,43.51554)">
    <path
       d="m 164.65036,-20.233606 c 0.18816,-0.188156 0.18816,-0.477246 0,-0.665264 l -5.68356,-5.68352 5.68356,-5.683519 c 0.18816,-0.188157 0.18816,-0.477246 0,-0.665264 l -0.72309,-0.723092 c -0.18815,-0.188157 -0.47724,-0.188157 -0.66526,0 l -6.73927,6.739266 c -0.18815,0.188157 -0.18815,0.477246 0,0.665218 l 6.73927,6.739266 c 0.18815,0.188157 0.47724,0.188157 0.66526,0 z m 8.547,-15.430897 c 0.0722,-0.245661 -0.0722,-0.506136 -0.31835,-0.578454 l -0.89667,-0.245662 c -0.2314,-0.07223 -0.49169,0.07223 -0.564,0.318348 l -5.3943,18.670361 c -0.0722,0.245662 0.0722,0.506137 0.31835,0.578455 l 0.89662,0.245661 c 0.2314,0.07223 0.49174,-0.07223 0.56405,-0.318347 z m 9.50148,9.414722 c 0.18816,-0.188156 0.18816,-0.477245 0,-0.665218 l -6.73926,-6.739266 c -0.18816,-0.188157 -0.47725,-0.188157 -0.66527,0 l -0.72309,0.723092 c -0.18816,0.188156 -0.18816,0.477245 0,0.665264 l 5.68357,5.683519 -5.68357,5.68352 c -0.18816,0.188156 -0.18816,0.477246 0,0.665264 l 0.72309,0.723091 c 0.18816,0.188157 0.47725,0.188157 0.66527,0 z"
       style="font-style:normal;font-weight:bold;font-size:medium;line-height:3.52085805px;font-family:sans-serif;letter-spacing:0px;word-spacing:0px;fill:#000000;fill-opacity:1;stroke:#f5f5f5;stroke-width:2.11666679;stroke-linecap:round;stroke-linejoin:round;stroke-miterlimit:4;stroke-dasharray:none;stroke-opacity:1;paint-order:stroke fill markers"
       id="path6401"
       inkscape:connector-curvature="0" />
  </g>
</svg>
