<?xml version="1.0" encoding="UTF-8" standalone="no"?>
<!-- Created with Inkscape (http://www.inkscape.org/) -->

<svg
   xmlns:dc="http://purl.org/dc/elements/1.1/"
   xmlns:cc="http://creativecommons.org/ns#"
   xmlns:rdf="http://www.w3.org/1999/02/22-rdf-syntax-ns#"
   xmlns:svg="http://www.w3.org/2000/svg"
   xmlns="http://www.w3.org/2000/svg"
   xmlns:sodipodi="http://sodipodi.sourceforge.net/DTD/sodipodi-0.dtd"
   xmlns:inkscape="http://www.inkscape.org/namespaces/inkscape"
   width="70"
   height="14"
   viewBox="0 0 18.520835 3.7041665"
   version="1.1"
   id="svg1012"
   inkscape:version="0.92.4 (5da689c313, 2019-01-14)"
   sodipodi:docname="progress-mask.svg">
  <defs
     id="defs1006" />
  <sodipodi:namedview
     id="base"
     pagecolor="#ffffff"
     bordercolor="#666666"
     borderopacity="1.0"
     inkscape:pageopacity="0.0"
     inkscape:pageshadow="2"
     inkscape:zoom="7.919596"
     inkscape:cx="45.631657"
     inkscape:cy="5.822889"
     inkscape:document-units="px"
     inkscape:current-layer="layer1"
     showgrid="false"
     inkscape:snap-page="true"
     inkscape:snap-smooth-nodes="true"
     inkscape:window-width="1640"
     inkscape:window-height="1050"
     inkscape:window-x="1920"
     inkscape:window-y="0"
     inkscape:window-maximized="1"
     fit-margin-top="0"
     fit-margin-left="0"
     fit-margin-right="0"
     fit-margin-bottom="0"
     units="px"
     showguides="true"
     inkscape:guide-bbox="true"
     inkscape:snap-center="true"
     inkscape:snap-object-midpoints="true"
     inkscape:object-paths="true" />
  <metadata
     id="metadata1009">
    <rdf:RDF>
      <cc:Work
         rdf:about="">
        <dc:format>image/svg+xml</dc:format>
        <dc:type
           rdf:resource="http://purl.org/dc/dcmitype/StillImage" />
        <dc:title></dc:title>
      </cc:Work>
    </rdf:RDF>
  </metadata>
  <g
     inkscape:label="Layer 1"
     inkscape:groupmode="layer"
     id="layer1"
     transform="translate(0.69660923,-292.49509)">
    <path
       sodipodi:type="star"
       style="opacity:1;fill:#000000;fill-opacity:1;fill-rule:nonzero;stroke:none;stroke-width:0.25046098;stroke-linecap:round;stroke-linejoin:miter;stroke-miterlimit:4;stroke-dasharray:none;stroke-dashoffset:9;stroke-opacity:1;paint-order:normal"
       id="path1709"
       sodipodi:sides="5"
       sodipodi:cx="2.9765625"
       sodipodi:cy="299.40961"
       sodipodi:r1="1.3841443"
       sodipodi:r2="0.54179358"
       sodipodi:arg1="-1.0471976"
       sodipodi:arg2="-0.41887907"
       inkscape:flatsided="false"
       inkscape:rounded="0.04"
       inkscape:randomized="0"
       d="m 3.6686346,298.2109 c 0.034572,0.02 -0.2133559,0.94187 -0.197119,0.97834 0.016237,0.0365 0.8672442,0.4691 0.8589443,0.50815 -0.0083,0.039 -0.9617004,0.0881 -0.9913667,0.11485 -0.029666,0.0267 -0.1781469,0.96976 -0.2178482,0.97393 -0.039701,0.004 -0.3810076,-0.8874 -0.4155793,-0.90736 -0.034572,-0.02 -0.977345,0.13025 -0.9935819,0.0938 -0.016237,-0.0365 0.7262248,-0.63658 0.7345246,-0.67563 0.0083,-0.0391 -0.4258855,-0.88926 -0.3962193,-0.91597 0.029666,-0.0267 0.8298393,0.49396 0.8695405,0.48979 0.039701,-0.004 0.7141333,-0.67984 0.748705,-0.65988 z"
       inkscape:transform-center-x="1.9468704"
       inkscape:transform-center-y="0.43766374"
       transform="matrix(1.2807994,-0.73946971,0.73946971,1.2807994,-216.65291,-86.74041)" />
    <path
       transform="matrix(1.2807994,-0.73946971,0.73946971,1.2807994,-223.96624,-86.74041)"
       inkscape:transform-center-y="0.43766374"
       inkscape:transform-center-x="1.9468726"
       d="m 3.6686346,298.2109 c 0.034572,0.02 -0.2133559,0.94187 -0.197119,0.97834 0.016237,0.0365 0.8672442,0.4691 0.8589443,0.50815 -0.0083,0.039 -0.9617004,0.0881 -0.9913667,0.11485 -0.029666,0.0267 -0.1781469,0.96976 -0.2178482,0.97393 -0.039701,0.004 -0.3810076,-0.8874 -0.4155793,-0.90736 -0.034572,-0.02 -0.977345,0.13025 -0.9935819,0.0938 -0.016237,-0.0365 0.7262248,-0.63658 0.7345246,-0.67563 0.0083,-0.0391 -0.4258855,-0.88926 -0.3962193,-0.91597 0.029666,-0.0267 0.8298393,0.49396 0.8695405,0.48979 0.039701,-0.004 0.7141333,-0.67984 0.748705,-0.65988 z"
       inkscape:randomized="0"
       inkscape:rounded="0.04"
       inkscape:flatsided="false"
       sodipodi:arg2="-0.41887907"
       sodipodi:arg1="-1.0471976"
       sodipodi:r2="0.54179358"
       sodipodi:r1="1.3841443"
       sodipodi:cy="299.40961"
       sodipodi:cx="2.9765625"
       sodipodi:sides="5"
       id="path842"
       style="opacity:1;fill:#000000;fill-opacity:1;fill-rule:nonzero;stroke:none;stroke-width:0.25046098;stroke-linecap:round;stroke-linejoin:miter;stroke-miterlimit:4;stroke-dasharray:none;stroke-dashoffset:9;stroke-opacity:1;paint-order:normal"
       sodipodi:type="star" />
    <path
       transform="matrix(1.2807994,-0.73946971,0.73946971,1.2807994,-209.33957,-86.74041)"
       inkscape:transform-center-y="0.43766374"
       inkscape:transform-center-x="1.9468722"
       d="m 3.6686346,298.2109 c 0.034572,0.02 -0.2133559,0.94187 -0.197119,0.97834 0.016237,0.0365 0.8672442,0.4691 0.8589443,0.50815 -0.0083,0.039 -0.9617004,0.0881 -0.9913667,0.11485 -0.029666,0.0267 -0.1781469,0.96976 -0.2178482,0.97393 -0.039701,0.004 -0.3810076,-0.8874 -0.4155793,-0.90736 -0.034572,-0.02 -0.977345,0.13025 -0.9935819,0.0938 -0.016237,-0.0365 0.7262248,-0.63658 0.7345246,-0.67563 0.0083,-0.0391 -0.4258855,-0.88926 -0.3962193,-0.91597 0.029666,-0.0267 0.8298393,0.49396 0.8695405,0.48979 0.039701,-0.004 0.7141333,-0.67984 0.748705,-0.65988 z"
       inkscape:randomized="0"
       inkscape:rounded="0.04"
       inkscape:flatsided="false"
       sodipodi:arg2="-0.41887907"
       sodipodi:arg1="-1.0471976"
       sodipodi:r2="0.54179358"
       sodipodi:r1="1.3841443"
       sodipodi:cy="299.40961"
       sodipodi:cx="2.9765625"
       sodipodi:sides="5"
       id="path848"
       style="opacity:1;fill:#000000;fill-opacity:1;fill-rule:nonzero;stroke:none;stroke-width:0.25046098;stroke-linecap:round;stroke-linejoin:miter;stroke-miterlimit:4;stroke-dasharray:none;stroke-dashoffset:9;stroke-opacity:1;paint-order:normal"
       sodipodi:type="star" />
    <path
       transform="matrix(1.2807994,-0.73946971,0.73946971,1.2807994,-212.99624,-86.74041)"
       inkscape:transform-center-y="0.43766374"
       inkscape:transform-center-x="1.9468683"
       d="m 3.6686346,298.2109 c 0.034572,0.02 -0.2133559,0.94187 -0.197119,0.97834 0.016237,0.0365 0.8672442,0.4691 0.8589443,0.50815 -0.0083,0.039 -0.9617004,0.0881 -0.9913667,0.11485 -0.029666,0.0267 -0.1781469,0.96976 -0.2178482,0.97393 -0.039701,0.004 -0.3810076,-0.8874 -0.4155793,-0.90736 -0.034572,-0.02 -0.977345,0.13025 -0.9935819,0.0938 -0.016237,-0.0365 0.7262248,-0.63658 0.7345246,-0.67563 0.0083,-0.0391 -0.4258855,-0.88926 -0.3962193,-0.91597 0.029666,-0.0267 0.8298393,0.49396 0.8695405,0.48979 0.039701,-0.004 0.7141333,-0.67984 0.748705,-0.65988 z"
       inkscape:randomized="0"
       inkscape:rounded="0.04"
       inkscape:flatsided="false"
       sodipodi:arg2="-0.41887907"
       sodipodi:arg1="-1.0471976"
       sodipodi:r2="0.54179358"
       sodipodi:r1="1.3841443"
       sodipodi:cy="299.40961"
       sodipodi:cx="2.9765625"
       sodipodi:sides="5"
       id="path854"
       style="opacity:1;fill:#000000;fill-opacity:1;fill-rule:nonzero;stroke:none;stroke-width:0.25046098;stroke-linecap:round;stroke-linejoin:miter;stroke-miterlimit:4;stroke-dasharray:none;stroke-dashoffset:9;stroke-opacity:1;paint-order:normal"
       sodipodi:type="star" />
    <path
       transform="matrix(1.2807994,-0.73946971,0.73946971,1.2807994,-220.30957,-86.74041)"
       inkscape:transform-center-y="0.43766374"
       inkscape:transform-center-x="1.9468665"
       d="m 3.6686346,298.2109 c 0.034572,0.02 -0.2133559,0.94187 -0.197119,0.97834 0.016237,0.0365 0.8672442,0.4691 0.8589443,0.50815 -0.0083,0.039 -0.9617004,0.0881 -0.9913667,0.11485 -0.029666,0.0267 -0.1781469,0.96976 -0.2178482,0.97393 -0.039701,0.004 -0.3810076,-0.8874 -0.4155793,-0.90736 -0.034572,-0.02 -0.977345,0.13025 -0.9935819,0.0938 -0.016237,-0.0365 0.7262248,-0.63658 0.7345246,-0.67563 0.0083,-0.0391 -0.4258855,-0.88926 -0.3962193,-0.91597 0.029666,-0.0267 0.8298393,0.49396 0.8695405,0.48979 0.039701,-0.004 0.7141333,-0.67984 0.748705,-0.65988 z"
       inkscape:randomized="0"
       inkscape:rounded="0.04"
       inkscape:flatsided="false"
       sodipodi:arg2="-0.41887907"
       sodipodi:arg1="-1.0471976"
       sodipodi:r2="0.54179358"
       sodipodi:r1="1.3841443"
       sodipodi:cy="299.40961"
       sodipodi:cx="2.9765625"
       sodipodi:sides="5"
       id="path860"
       style="opacity:1;fill:#000000;fill-opacity:1;fill-rule:nonzero;stroke:none;stroke-width:0.25046098;stroke-linecap:round;stroke-linejoin:miter;stroke-miterlimit:4;stroke-dasharray:none;stroke-dashoffset:9;stroke-opacity:1;paint-order:normal"
       sodipodi:type="star" />
  </g>
</svg>
