<?xml version="1.0" encoding="UTF-8" standalone="no"?>
<svg
   xmlns:dc="http://purl.org/dc/elements/1.1/"
   xmlns:cc="http://creativecommons.org/ns#"
   xmlns:rdf="http://www.w3.org/1999/02/22-rdf-syntax-ns#"
   xmlns:svg="http://www.w3.org/2000/svg"
   xmlns="http://www.w3.org/2000/svg"
   xmlns:sodipodi="http://sodipodi.sourceforge.net/DTD/sodipodi-0.dtd"
   xmlns:inkscape="http://www.inkscape.org/namespaces/inkscape"
   version="1.1"
   id="svg5849"
   viewBox="0 0 93.749994 93.75"
   height="100"
   width="100"
   sodipodi:docname="3d-printing-icon.svg"
   inkscape:version="0.92.4 (5da689c313, 2019-01-14)">
  <sodipodi:namedview
     pagecolor="#ffffff"
     bordercolor="#666666"
     borderopacity="1"
     objecttolerance="10"
     gridtolerance="10"
     guidetolerance="10"
     inkscape:pageopacity="0"
     inkscape:pageshadow="2"
     inkscape:window-width="1882"
     inkscape:window-height="1080"
     id="namedview7252"
     showgrid="false"
     inkscape:zoom="5.4229481"
     inkscape:cx="6.2806653"
     inkscape:cy="40.900258"
     inkscape:window-x="38"
     inkscape:window-y="0"
     inkscape:window-maximized="1"
     inkscape:current-layer="svg5849"
     showguides="true"
     inkscape:guide-bbox="true"
     inkscape:snap-object-midpoints="true"
     inkscape:snap-center="true"
     inkscape:snap-bbox="true"
     inkscape:snap-intersection-paths="true"
     inkscape:object-paths="true"
     units="px" />
  <defs
     id="defs5851" />
  <metadata
     id="metadata5854">
    <rdf:RDF>
      <cc:Work
         rdf:about="">
        <dc:format>image/svg+xml</dc:format>
        <dc:type
           rdf:resource="http://purl.org/dc/dcmitype/StillImage" />
        <dc:title></dc:title>
      </cc:Work>
    </rdf:RDF>
  </metadata>
  <path
     inkscape:connector-curvature="0"
     style="display:inline;fill:#53565a;fill-opacity:1;fill-rule:nonzero;stroke:none;stroke-width:1"
     d="m 36.716253,4.6875662 8.9e-5,12.6981268 4.295168,0.0011 3.86511,7.098802 3.985023,0.0022 3.867839,-7.100221 4.300984,0.0011 0.0033,-12.7011177 z m 0,0"
     id="path4413"
     inkscape:transform-center-x="-10.158757"
     inkscape:transform-center-y="9.9001254" />
  <path
     inkscape:connector-curvature="0"
     style="display:inline;fill:#00d1ff;fill-opacity:1;fill-rule:nonzero;stroke:none;stroke-width:1"
     d="m 44.914459,28.384777 0.0014,7.136096 c 3.4e-5,1.492076 -0.580079,2.892842 -1.635891,3.949411 -1.055577,1.056786 -2.458011,1.635287 -3.950206,1.635232 -5.126026,0.0022 -9.295882,4.170529 -9.296843,9.299544 -4.71e-4,5.129004 4.170643,9.295989 9.296796,9.300042 l 15.088409,-0.0033 c 2.966783,4.66e-4 5.378536,2.416735 5.380684,5.380537 0.0014,2.969653 -2.413759,5.381512 -5.383295,5.383679 -5.237261,2.93e-4 -9.50004,4.263355 -9.502485,9.503812 l 0.0014,7.13588 c 0.0014,1.082693 0.875513,1.958235 1.957993,1.956729 1.079748,0.0011 1.958131,-0.875401 1.963009,-1.957921 l -0.0014,-7.136075 c -4.71e-4,-3.080781 2.505326,-5.583971 5.586093,-5.584654 5.123272,0.0011 9.29598,-4.170647 9.296955,-9.299651 4.71e-4,-5.129102 -4.170529,-9.295871 -9.299759,-9.296835 l -15.088423,-0.0033 c -2.963824,0.0022 -5.381506,-2.413765 -5.380691,-5.380547 4.72e-4,-2.966782 2.41354,-5.381502 5.380423,-5.380797 2.539708,1.3e-4 4.929382,-0.988805 6.722754,-2.782277 1.792789,-1.794459 2.782818,-4.178893 2.782724,-6.718588 l 0.0014,-7.138957 z m 0,0"
     id="path4433"
     inkscape:transform-center-x="-10.153616"
     inkscape:transform-center-y="54.034595" />
</svg>
