<?xml version="1.0" encoding="UTF-8" standalone="no"?>
<svg
   xmlns:dc="http://purl.org/dc/elements/1.1/"
   xmlns:cc="http://creativecommons.org/ns#"
   xmlns:rdf="http://www.w3.org/1999/02/22-rdf-syntax-ns#"
   xmlns:svg="http://www.w3.org/2000/svg"
   xmlns="http://www.w3.org/2000/svg"
   xmlns:xlink="http://www.w3.org/1999/xlink"
   xmlns:sodipodi="http://sodipodi.sourceforge.net/DTD/sodipodi-0.dtd"
   xmlns:inkscape="http://www.inkscape.org/namespaces/inkscape"
   viewBox="-147 -70 100 100"
   version="1.1"
   id="svg27"
   sodipodi:docname="android-icon.svg"
   width="100"
   height="100"
   inkscape:version="0.92.4 (5da689c313, 2019-01-14)">
  <metadata
     id="metadata33">
    <rdf:RDF>
      <cc:Work
         rdf:about="">
        <dc:format>image/svg+xml</dc:format>
        <dc:type
           rdf:resource="http://purl.org/dc/dcmitype/StillImage" />
        <dc:title></dc:title>
      </cc:Work>
    </rdf:RDF>
  </metadata>
  <defs
     id="defs31" />
  <sodipodi:namedview
     pagecolor="#ffffff"
     bordercolor="#666666"
     borderopacity="1"
     objecttolerance="10"
     gridtolerance="10"
     guidetolerance="10"
     inkscape:pageopacity="0"
     inkscape:pageshadow="2"
     inkscape:window-width="1882"
     inkscape:window-height="1080"
     id="namedview29"
     showgrid="false"
     inkscape:zoom="5.4724638"
     inkscape:cx="37.435407"
     inkscape:cy="48.458259"
     inkscape:window-x="38"
     inkscape:window-y="0"
     inkscape:window-maximized="1"
     inkscape:current-layer="svg27" />
  <g
     transform="matrix(0.26698366,0,0,0.26698366,-97.000001,-47.352572)"
     id="use2"
     style="fill:#a4c639;stroke:#ffffff;stroke-width:14.39999962">
    <path
       style="fill:#a4c639"
       d="M 91,41 A 91,84 0 0 1 0,125 91,84 0 0 1 -91,41 91,84 0 0 1 0,-43 91,84 0 0 1 91,41 Z"
       id="ellipse855" />
    <path
       style="fill:#a4c639"
       d="M -69,20 H 69 c 12.188,0 22,9.812 22,22 v 138 c 0,12.188 -9.812,22 -22,22 H -69 c -12.188,0 -22,-9.812 -22,-22 V 42 c 0,-12.188 9.812,-22 22,-22 z"
       id="rect857" />
  </g>
  <use
     style="fill:#a4c639"
     height="100%"
     width="100%"
     y="0"
     x="0"
     id="use4"
     transform="matrix(-1,0,0,1,-194,-3.138054e-7)"
     xlink:href="#a" />
  <g
     style="fill:#a4c639;stroke:#ffffff;stroke-width:7.19999981"
     id="a"
     transform="matrix(0.26698366,0,0,0.26698366,-97,-47.352572)">
    <path
       transform="rotate(29)"
       style=""
       d="m 20.5,-86 c 3.601,0 6.5,2.899 6.5,6.5 v 73 C 27,-2.899 24.101,0 20.5,0 16.899,0 14,-2.899 14,-6.5 v -73 c 0,-3.601 2.899,-6.5 6.5,-6.5 z"
       id="rect6" />
    <path
       style=""
       d="m -119,41 c 13.296,0 24,10.704 24,24 v 85 c 0,13.296 -10.704,24 -24,24 -13.296,0 -24,-10.704 -24,-24 V 65 c 0,-13.296 10.704,-24 24,-24 z"
       id="c" />
    <use
       height="100%"
       width="100%"
       id="use9"
       xlink:href="#c"
       x="85"
       y="97" />
  </g>
  <path
     style="fill:#a4c639;stroke-width:0.26698366"
     d="M -72.704487,-36.406242 A 24.295513,22.426628 0 0 1 -97,-13.979614 24.295513,22.426628 0 0 1 -121.29551,-36.406242 24.295513,22.426628 0 0 1 -97,-58.83287 a 24.295513,22.426628 0 0 1 24.295513,22.426628 z"
     id="ellipse12" />
  <path
     style="fill:#a4c639;stroke-width:0.26698366"
     d="m -115.42187,-42.012897 h 36.843746 c 3.253997,0 5.873641,2.619643 5.873641,5.87364 V 0.70448828 c 0,3.25399682 -2.619644,5.87364052 -5.873641,5.87364052 h -36.843746 c -3.254,0 -5.87364,-2.6196437 -5.87364,-5.87364052 V -36.139257 c 0,-3.253997 2.61964,-5.87364 5.87364,-5.87364 z"
     id="rect14" />
  <path
     style="fill:#ffffff;stroke:#ffffff;stroke-width:1.92228234"
     inkscape:connector-curvature="0"
     id="path19"
     d="m -122.36345,-35.471799 h 50.726898" />
  <path
     style="fill:#ffffff;stroke:#ffffff;stroke-width:1.92228234"
     d="m -107.14538,-47.352573 a 1.0679346,1.0679346 0 0 1 -1.06793,1.067934 1.0679346,1.0679346 0 0 1 -1.06793,-1.067934 1.0679346,1.0679346 0 0 1 1.06793,-1.067935 1.0679346,1.0679346 0 0 1 1.06793,1.067935 z"
     id="circle21" />
  <path
     style="fill:#ffffff;stroke:#ffffff;stroke-width:1.92228234"
     d="m -84.718755,-47.352573 a 1.0679346,1.0679346 0 0 1 -1.067935,1.067934 1.0679346,1.0679346 0 0 1 -1.067934,-1.067934 1.0679346,1.0679346 0 0 1 1.067934,-1.067935 1.0679346,1.0679346 0 0 1 1.067935,1.067935 z"
     id="circle23" />
</svg>
