<?xml version="1.0" encoding="UTF-8" standalone="no"?>
<svg
   xmlns:dc="http://purl.org/dc/elements/1.1/"
   xmlns:cc="http://creativecommons.org/ns#"
   xmlns:rdf="http://www.w3.org/1999/02/22-rdf-syntax-ns#"
   xmlns:svg="http://www.w3.org/2000/svg"
   xmlns="http://www.w3.org/2000/svg"
   xmlns:sodipodi="http://sodipodi.sourceforge.net/DTD/sodipodi-0.dtd"
   xmlns:inkscape="http://www.inkscape.org/namespaces/inkscape"
   height="100"
   viewBox="0 0 99.998159 100.00208"
   width="100"
   version="1.1"
   id="svg461"
   sodipodi:docname="debian-icon.svg"
   inkscape:version="0.92.4 (5da689c313, 2019-01-14)">
  <metadata
     id="metadata467">
    <rdf:RDF>
      <cc:Work
         rdf:about="">
        <dc:format>image/svg+xml</dc:format>
        <dc:type
           rdf:resource="http://purl.org/dc/dcmitype/StillImage" />
        <dc:title></dc:title>
      </cc:Work>
    </rdf:RDF>
  </metadata>
  <defs
     id="defs465" />
  <sodipodi:namedview
     pagecolor="#ffffff"
     bordercolor="#666666"
     borderopacity="1"
     objecttolerance="10"
     gridtolerance="10"
     guidetolerance="10"
     inkscape:pageopacity="0"
     inkscape:pageshadow="2"
     inkscape:window-width="1640"
     inkscape:window-height="1050"
     id="namedview463"
     showgrid="false"
     inkscape:zoom="3.2261743"
     inkscape:cx="96.615124"
     inkscape:cy="43.854424"
     inkscape:window-x="1920"
     inkscape:window-y="0"
     inkscape:window-maximized="1"
     inkscape:current-layer="svg461" />
  <path
     d="m 57.058407,52.553095 c -1.491116,0.01987 0.280462,0.766515 2.227687,1.066935 0.539955,-0.421185 1.025018,-0.844368 1.460175,-1.257566 -1.210657,0.296438 -2.444268,0.303413 -3.687862,0.19065"
     id="path423"
     inkscape:connector-curvature="0"
     style="fill:#d70751;stroke-width:0.99806887" />
  <path
     d="m 65.059924,50.557953 c 0.891277,-1.226625 1.538025,-2.56803 1.766583,-3.955346 -0.200625,0.988088 -0.73458,1.841437 -1.241598,2.743691 -2.787608,1.755604 -0.263475,-1.041982 -0.002,-2.106922 -2.996205,3.775695 -0.413201,2.26362 -0.52299,3.318577"
     id="path425"
     inkscape:connector-curvature="0"
     style="fill:#d70751;stroke-width:0.99806887" />
  <path
     d="m 68.017204,42.86883 c 0.18165,-2.685802 -0.527978,-1.835449 -0.766519,-0.812426 0.277462,0.145725 0.498037,1.894335 0.766519,0.812426"
     id="path427"
     inkscape:connector-curvature="0"
     style="fill:#d70751;stroke-width:0.99806887" />
  <path
     d="m 51.401352,6.1608552 c 0.796459,0.1417125 1.720669,0.2515124 1.587926,0.4421437 0.874309,-0.1926375 1.070929,-0.3663 -1.587926,-0.4421437"
     id="path429"
     inkscape:connector-curvature="0"
     style="fill:#d70751;stroke-width:0.99806887" />
  <path
     d="m 52.990276,6.6029989 -0.559916,0.116775 0.521988,-0.047925 0.03791,-0.06885"
     id="path431"
     inkscape:connector-curvature="0"
     style="fill:#d70751;stroke-width:0.99806887" />
  <path
     d="m 77.811254,43.886861 c 0.08981,2.411336 -0.703639,3.583069 -1.42125,5.65506 l -1.290506,0.641756 c -1.054957,2.050035 0.104813,1.301482 -0.650737,2.93133 -1.648812,1.464168 -4.996335,4.580137 -6.068261,4.865587 -0.783484,-0.01687 0.529976,-0.924214 0.701644,-1.278529 -2.204738,1.513073 -1.769577,2.271607 -5.142053,3.192825 l -0.0978,-0.220575 c -8.313914,3.912431 -19.863568,-3.839569 -19.711862,-14.415108 -0.08783,0.670703 -0.252525,0.503025 -0.436155,0.772504 -0.429169,-5.440473 2.513137,-10.904902 7.475538,-13.139575 4.853606,-2.401354 10.543597,-1.41726 14.017878,1.825466 -1.908311,-2.50116 -5.709952,-5.153029 -10.212243,-4.907505 -4.412463,0.07185 -8.541472,2.875436 -9.918809,5.920545 -2.259626,1.422247 -2.523116,5.485387 -3.507214,6.229945 -1.326435,9.741153 2.492179,13.948016 8.952678,18.899433 1.014038,0.684679 0.28545,0.789476 0.421185,1.310467 -2.145847,-1.004058 -4.110048,-2.521125 -5.72692,-4.378529 0.858341,1.254573 1.783552,2.474212 2.980233,3.432359 -2.025079,-0.683677 -4.728847,-4.903514 -5.516325,-5.075182 3.48825,6.245917 14.150621,10.953809 19.736812,8.617327 -2.584999,0.09581 -5.867648,0.05291 -8.770031,-1.020026 -1.222635,-0.627784 -2.878432,-1.926274 -2.582002,-2.168801 7.621252,2.845492 15.492025,2.153831 22.085267,-3.130943 1.678751,-1.307471 3.511207,-3.53017 4.041179,-3.560114 -0.797456,1.199681 0.136725,0.576885 -0.476077,1.635836 1.668772,-2.695785 -0.727594,-1.097876 1.726661,-4.654995 l 0.906244,1.247588 c -0.339338,-2.239665 2.779623,-4.956409 2.462238,-8.495565 0.715613,-1.081905 0.797456,1.165748 0.03892,3.65493 1.052963,-2.761657 0.278475,-3.205796 0.547939,-5.485387 0.290437,0.766519 0.676691,1.579942 0.873311,2.389376 -0.686674,-2.669831 0.70164,-4.494303 1.046974,-6.046301 -0.341325,-0.1497 -1.058951,1.17972 -1.22463,-1.972185 0.02513,-1.36935 0.38226,-0.717611 0.518996,-1.054957 -0.267487,-0.154688 -0.973117,-1.204669 -1.401288,-3.217774 0.308399,-0.474082 0.830392,1.226625 1.253572,1.295494 -0.272475,-1.599904 -0.740565,-2.820543 -0.76053,-4.049167 -1.237605,-2.584999 -0.43815,0.345337 -1.44021,-1.109854 -1.317454,-4.106054 1.091888,-0.953152 1.255567,-2.817547 1.994145,2.889408 3.130943,7.370741 3.65493,9.22615 -0.399228,-2.262622 -1.04298,-4.455382 -1.830457,-6.576277 0.607822,0.2565 -0.977111,-4.653997 0.789472,-1.402286 C 83.227779,20.522068 77.05073,14.0446 71.366728,11.006477 c 0.693657,0.635772 1.570961,1.434225 1.257566,1.559985 -2.828527,-1.681747 -2.331487,-1.81449 -2.736704,-2.525115 -2.30055,-0.937188 -2.454251,0.07684 -3.976305,0.002 C 61.569685,7.739805 60.7333,7.9843313 56.738032,6.5431201 l 0.18165,0.8503537 c -2.87544,-0.9581474 -3.35052,0.3613125 -6.457507,0.002 -0.188625,-0.1467 0.996071,-0.5349637 1.972185,-0.6756899 -2.780621,0.3672749 -2.650871,-0.54894 -5.371609,0.1008 C 47.732456,6.3504951 48.443081,6.0380977 49.1577,5.638869 46.891084,5.7766064 43.744174,6.9583176 44.715293,5.8823939 41.017448,7.5332001 34.449159,9.849721 30.763288,13.306032 L 30.647525,12.53153 c -1.688733,2.027077 -7.364751,6.054288 -7.816877,8.682202 l -0.452126,0.104812 c -0.877301,1.48812 -1.4472,3.173861 -2.143849,4.703898 -1.148778,1.95921 -1.684743,0.754542 -1.52106,1.061948 -2.260624,4.583129 -3.385447,8.433682 -4.354575,11.593566 0.690664,1.033002 0.01688,6.219968 0.277463,10.370936 -1.133805,20.504327 14.390158,40.410811 31.359327,45.005922 2.487187,0.891277 6.185032,0.859338 9.330944,0.947167 C 51.615952,93.940037 51.136879,94.44007 47.51988,93.179507 44.911924,91.949886 44.341028,90.5476 42.492604,88.943703 l 0.731588,1.292497 c -3.623014,-1.282526 -2.106949,-1.586936 -5.055244,-2.520131 l 0.781489,-1.019029 c -1.174729,-0.08981 -3.110981,-1.978169 -3.63996,-3.027142 l -1.285511,0.05089 c -1.543016,-1.902319 -2.366422,-3.27666 -2.305537,-4.3416 l -0.4152,0.740565 C 30.83414,79.312318 25.624222,72.975576 28.326992,74.450725 27.82496,73.993607 27.157255,73.705165 26.433655,72.388712 l 0.549938,-0.627784 c -1.29849,-1.673763 -2.39337,-3.818613 -2.309535,-4.533228 0.69366,0.936188 1.174729,1.111849 1.651807,1.272536 -3.284647,-8.148235 -3.469289,-0.448132 -5.955479,-8.293953 l 0.524985,-0.04192 C 20.49315,59.554542 20.246625,58.896814 19.923251,58.24907 l 0.229575,-2.280589 C 17.7894,53.237765 19.492106,44.345968 19.834451,39.470402 c 0.234562,-1.982167 1.973182,-4.093083 3.293625,-7.403677 l -0.804443,-0.137737 c 1.539023,-2.68281 8.785003,-10.778144 12.142506,-10.362948 1.625853,-2.042051 -0.323363,-0.0079 -0.641757,-0.520991 3.572089,-3.69585 4.694914,-2.610949 7.105252,-3.276664 2.597974,-1.542015 -2.230683,0.602835 -0.999067,-0.587861 4.494303,-1.14678 3.18384,-2.608954 9.045498,-3.190826 0.618802,0.3513 -1.434225,0.542947 -1.949227,0.999067 3.742758,-1.832456 11.84608,-1.414263 17.11189,1.016033 6.105187,2.855474 12.968909,11.292153 13.240382,19.229796 l 0.3084,0.08284 c -0.1557,3.155895 0.483064,6.805833 -0.625788,10.157351 l 0.74955,-1.58793"
     id="path433"
     inkscape:connector-curvature="0"
     style="fill:#d70751;stroke-width:0.99806887" />
  <path
     d="m 40.778904,54.599137 -0.2106,1.044978 c 0.981102,1.33242 1.759594,2.77563 3.010174,3.813619 -0.900255,-1.755604 -1.567965,-2.481199 -2.799581,-4.858597"
     id="path435"
     inkscape:connector-curvature="0"
     style="fill:#d70751;stroke-width:0.99806887" />
  <path
     d="m 43.095422,54.509309 c -0.518997,-0.574886 -0.824404,-1.26555 -1.169738,-1.952224 0.329363,1.208663 1.004059,2.247653 1.629848,3.305606 l -0.46011,-1.353382"
     id="path437"
     inkscape:connector-curvature="0"
     style="fill:#d70751;stroke-width:0.99806887" />
  <path
     d="m 84.100086,45.596553 -0.218587,0.550935 c -0.401224,2.852479 -1.270545,5.675021 -2.599973,8.292956 1.46916,-2.761657 2.416328,-5.782815 2.818549,-8.843891"
     id="path439"
     inkscape:connector-curvature="0"
     style="fill:#d70751;stroke-width:0.99806887" />
  <path
     d="m 51.697779,5.445239 c 1.007051,-0.3682875 2.477204,-0.2026125 3.549131,-0.44514 -1.3953,0.116775 -2.783614,0.1866375 -4.153961,0.3613125 l 0.60483,0.08385"
     id="path441"
     inkscape:connector-curvature="0"
     style="fill:#d70751;stroke-width:0.99806887" />
  <path
     d="m 16.295277,24.270815 c 0.232537,2.149841 -1.616872,2.985225 0.409207,1.56597 1.087894,-2.44926 -0.42318,-0.675694 -0.409207,-1.56597"
     id="path443"
     inkscape:connector-curvature="0"
     style="fill:#d70751;stroke-width:0.99806887" />
  <path
     d="m 13.911886,34.225553 c 0.468094,-1.434225 0.551932,-2.294561 0.730586,-3.125951 -1.290502,1.650806 -0.594847,2.003126 -0.730586,3.125951"
     id="path445"
     inkscape:connector-curvature="0"
     style="fill:#d70751;stroke-width:0.99806887" />
</svg>
