<?xml version="1.0" encoding="UTF-8" standalone="no"?>
<!-- Created with Inkscape (http://www.inkscape.org/) -->

<svg
   xmlns:dc="http://purl.org/dc/elements/1.1/"
   xmlns:cc="http://creativecommons.org/ns#"
   xmlns:rdf="http://www.w3.org/1999/02/22-rdf-syntax-ns#"
   xmlns:svg="http://www.w3.org/2000/svg"
   xmlns="http://www.w3.org/2000/svg"
   xmlns:xlink="http://www.w3.org/1999/xlink"
   xmlns:sodipodi="http://sodipodi.sourceforge.net/DTD/sodipodi-0.dtd"
   xmlns:inkscape="http://www.inkscape.org/namespaces/inkscape"
   version="1.0"
   width="100"
   height="100"
   id="svg2"
   sodipodi:version="0.32"
   inkscape:version="0.92.4 (5da689c313, 2019-01-14)"
   sodipodi:docname="java-icon.svg">
  <metadata
     id="metadata2193">
    <rdf:RDF>
      <cc:Work
         rdf:about="">
        <dc:format>image/svg+xml</dc:format>
        <dc:type
           rdf:resource="http://purl.org/dc/dcmitype/StillImage" />
        <dc:title></dc:title>
      </cc:Work>
    </rdf:RDF>
  </metadata>
  <sodipodi:namedview
     inkscape:window-height="1050"
     inkscape:window-width="1640"
     inkscape:pageshadow="2"
     inkscape:pageopacity="0.0"
     borderopacity="1.0"
     bordercolor="#666666"
     pagecolor="#ffffff"
     id="base"
     inkscape:zoom="2.4951172"
     inkscape:cx="84.258924"
     inkscape:cy="47.438671"
     inkscape:window-x="1920"
     inkscape:window-y="0"
     inkscape:current-layer="svg2"
     showgrid="false"
     units="px"
     fit-margin-top="0"
     fit-margin-left="0"
     fit-margin-right="0"
     fit-margin-bottom="0"
     inkscape:window-maximized="1"
     inkscape:snap-page="true" />
  <defs
     id="defs4">
    <linearGradient
       id="linearGradient2795">
      <stop
         style="stop-color:#b8b8b8;stop-opacity:0.49803922"
         offset="0"
         id="stop2797" />
      <stop
         style="stop-color:#7f7f7f;stop-opacity:0"
         offset="1"
         id="stop2799" />
    </linearGradient>
    <linearGradient
       id="linearGradient2787">
      <stop
         style="stop-color:#7f7f7f;stop-opacity:0.5"
         offset="0"
         id="stop2789" />
      <stop
         style="stop-color:#7f7f7f;stop-opacity:0"
         offset="1"
         id="stop2791" />
    </linearGradient>
    <linearGradient
       id="linearGradient3676">
      <stop
         style="stop-color:#b2b2b2;stop-opacity:0.5"
         offset="0"
         id="stop3678" />
      <stop
         style="stop-color:#b3b3b3;stop-opacity:0"
         offset="1"
         id="stop3680" />
    </linearGradient>
    <linearGradient
       id="linearGradient3236">
      <stop
         style="stop-color:#f4f4f4;stop-opacity:1"
         offset="0"
         id="stop3244" />
      <stop
         style="stop-color:#ffffff;stop-opacity:1"
         offset="1"
         id="stop3240" />
    </linearGradient>
    <linearGradient
       id="linearGradient4671">
      <stop
         style="stop-color:#ffd43b;stop-opacity:1"
         offset="0"
         id="stop4673" />
      <stop
         style="stop-color:#ffe873;stop-opacity:1"
         offset="1"
         id="stop4675" />
    </linearGradient>
    <linearGradient
       id="linearGradient4689">
      <stop
         style="stop-color:#5a9fd4;stop-opacity:1"
         offset="0"
         id="stop4691" />
      <stop
         style="stop-color:#306998;stop-opacity:1"
         offset="1"
         id="stop4693" />
    </linearGradient>
    <linearGradient
       x1="224.23996"
       y1="144.75717"
       x2="-65.308502"
       y2="144.75717"
       id="linearGradient2987"
       xlink:href="#linearGradient4671"
       gradientUnits="userSpaceOnUse"
       gradientTransform="translate(100.2702,99.61116)" />
    <linearGradient
       x1="172.94208"
       y1="77.475983"
       x2="26.670298"
       y2="76.313133"
       id="linearGradient2990"
       xlink:href="#linearGradient4689"
       gradientUnits="userSpaceOnUse"
       gradientTransform="translate(100.2702,99.61116)" />
    <linearGradient
       x1="172.94208"
       y1="77.475983"
       x2="26.670298"
       y2="76.313133"
       id="linearGradient2587"
       xlink:href="#linearGradient4689"
       gradientUnits="userSpaceOnUse"
       gradientTransform="translate(100.2702,99.61116)" />
    <linearGradient
       x1="224.23996"
       y1="144.75717"
       x2="-65.308502"
       y2="144.75717"
       id="linearGradient2589"
       xlink:href="#linearGradient4671"
       gradientUnits="userSpaceOnUse"
       gradientTransform="translate(100.2702,99.61116)" />
    <linearGradient
       x1="172.94208"
       y1="77.475983"
       x2="26.670298"
       y2="76.313133"
       id="linearGradient2248"
       xlink:href="#linearGradient4689"
       gradientUnits="userSpaceOnUse"
       gradientTransform="translate(100.2702,99.61116)" />
    <linearGradient
       x1="224.23996"
       y1="144.75717"
       x2="-65.308502"
       y2="144.75717"
       id="linearGradient2250"
       xlink:href="#linearGradient4671"
       gradientUnits="userSpaceOnUse"
       gradientTransform="translate(100.2702,99.61116)" />
    <linearGradient
       x1="224.23996"
       y1="144.75717"
       x2="-65.308502"
       y2="144.75717"
       id="linearGradient2255"
       xlink:href="#linearGradient4671"
       gradientUnits="userSpaceOnUse"
       gradientTransform="matrix(0.562541,0,0,0.567972,-11.5974,-7.60954)" />
    <linearGradient
       x1="172.94208"
       y1="76.176224"
       x2="26.670298"
       y2="76.313133"
       id="linearGradient2258"
       xlink:href="#linearGradient4689"
       gradientUnits="userSpaceOnUse"
       gradientTransform="matrix(0.562541,0,0,0.567972,-11.5974,-7.60954)" />
    <radialGradient
       cx="61.518883"
       cy="132.28575"
       r="29.036913"
       fx="61.518883"
       fy="132.28575"
       id="radialGradient2801"
       xlink:href="#linearGradient2795"
       gradientUnits="userSpaceOnUse"
       gradientTransform="matrix(1,0,0,0.177966,0,108.7434)" />
    <linearGradient
       x1="150.96111"
       y1="192.35176"
       x2="112.03144"
       y2="137.27299"
       id="linearGradient1475"
       xlink:href="#linearGradient4671"
       gradientUnits="userSpaceOnUse"
       gradientTransform="matrix(0.14014847,0,0,0.14150152,-69.714953,36.75812)" />
    <linearGradient
       x1="26.648937"
       y1="20.603781"
       x2="135.66525"
       y2="114.39767"
       id="linearGradient1478"
       xlink:href="#linearGradient4689"
       gradientUnits="userSpaceOnUse"
       gradientTransform="matrix(0.14014847,0,0,0.14150152,-55.529848,37.60673)" />
    <radialGradient
       cx="61.518883"
       cy="132.28575"
       r="29.036913"
       fx="61.518883"
       fy="132.28575"
       id="radialGradient1480"
       xlink:href="#linearGradient2795"
       gradientUnits="userSpaceOnUse"
       gradientTransform="matrix(1.8656603e-8,-0.25594343,1.1249792,4.0443154e-7,-83.316724,158.783)" />
  </defs>
  <g
     id="g410"
     transform="matrix(5.4671829,0,0,5.4671829,-12.744457,-323.6665)"
     style="stroke-width:0.68591082">
    <path
       id="path343"
       d="m 9.3162026,72.847106 c 0,0 -0.6290779,0.365831 0.4476933,0.489623 1.3044781,0.148817 1.9711811,0.127475 3.4087251,-0.144602 0,0 0.377944,0.23698 0.905769,0.442236 -3.222593,1.381149 -7.2933628,-0.08 -4.7621874,-0.787257"
       style="fill:#5382a1;stroke-width:0.68591082"
       inkscape:connector-curvature="0" />
    <path
       id="path345"
       d="m 8.9224188,71.044796 c 0,0 -0.7055717,0.52228 0.3719981,0.633737 1.3934841,0.143759 2.4939491,0.155517 4.3981761,-0.211157 0,0 0.26338,0.267019 0.67753,0.413041 -3.896307,1.139333 -8.2360925,0.08985 -5.4477042,-0.835621"
       style="fill:#5382a1;stroke-width:0.68591082"
       inkscape:connector-curvature="0" />
    <path
       id="path347"
       d="m 12.242138,67.987482 c 0.794045,0.914199 -0.208628,1.736863 -0.208628,1.736863 0,0 2.016217,-1.040831 1.09026,-2.3442 -0.864816,-1.215472 -1.528014,-1.819392 2.062273,-3.901632 0,0 -5.6355668,1.407506 -2.943905,4.508969"
       style="fill:#f8981d;stroke-width:0.68591082"
       inkscape:connector-curvature="0" />
    <path
       id="path349"
       d="m 16.504276,74.180203 c 0,0 0.46553,0.383578 -0.512696,0.680325 -1.860123,0.563499 -7.7420322,0.733658 -9.3760018,0.02245 -0.5873701,-0.255527 0.5141151,-0.610132 0.8606005,-0.68454 0.3613493,-0.07836 0.5678472,-0.06376 0.5678472,-0.06376 C 7.3908108,73.674518 3.8219098,75.03823 6.2312008,75.428774 12.801688,76.49432 18.208572,74.948957 16.504276,74.180203"
       style="fill:#5382a1;stroke-width:0.68591082"
       inkscape:connector-curvature="0" />
    <path
       id="path351"
       d="m 9.6187172,69.177396 c 0,0 -2.9919134,0.71063 -1.0595112,0.968686 0.8159199,0.109239 2.442435,0.08452 3.957493,-0.04242 1.23819,-0.104447 2.481481,-0.326518 2.481481,-0.326518 0,0 -0.4366,0.186975 -0.75247,0.402657 -3.038236,0.79906 -8.9075442,0.427328 -7.2178458,-0.390012 1.4289802,-0.690752 2.590853,-0.612395 2.590853,-0.612395"
       style="fill:#5382a1;stroke-width:0.68591082"
       inkscape:connector-curvature="0" />
    <path
       id="path353"
       d="m 14.985846,72.177429 c 3.088506,-1.604907 1.660502,-3.147208 0.663775,-2.939423 -0.244301,0.05085 -0.35323,0.09491 -0.35323,0.09491 0,0 0.09069,-0.142073 0.263913,-0.203569 1.971847,-0.693237 3.488325,2.044614 -0.636532,3.128972 0,4.4e-5 0.04779,-0.04268 0.06207,-0.08089"
       style="fill:#5382a1;stroke-width:0.68591082"
       inkscape:connector-curvature="0" />
    <path
       id="path355"
       d="m 13.12377,60.116244 c 0,0 1.710463,1.71104 -1.622301,4.342137 -2.6725378,2.110592 -0.609422,3.313995 -0.0011,4.688932 C 9.9403554,67.739808 8.7955206,66.500776 9.5635653,65.3476 10.690874,63.65484 13.813901,62.834128 13.12377,60.116244"
       style="fill:#f8981d;stroke-width:0.68591082"
       inkscape:connector-curvature="0" />
    <path
       id="path357"
       d="m 9.922208,76.526355 c 2.964582,0.189771 7.517032,-0.10529 7.624851,-1.508048 0,0 -0.207252,0.531775 -2.450067,0.954089 -2.530332,0.476178 -5.6511403,0.420583 -7.5021236,0.115406 4.44e-5,-4.4e-5 0.3789198,0.313607 2.3273396,0.438553"
       style="fill:#5382a1;stroke-width:0.68591082"
       inkscape:connector-curvature="0" />
  </g>
</svg>
