<?xml version="1.0" encoding="UTF-8" standalone="no"?>
<svg
   xmlns:dc="http://purl.org/dc/elements/1.1/"
   xmlns:cc="http://creativecommons.org/ns#"
   xmlns:rdf="http://www.w3.org/1999/02/22-rdf-syntax-ns#"
   xmlns:svg="http://www.w3.org/2000/svg"
   xmlns="http://www.w3.org/2000/svg"
   xmlns:sodipodi="http://sodipodi.sourceforge.net/DTD/sodipodi-0.dtd"
   xmlns:inkscape="http://www.inkscape.org/namespaces/inkscape"
   width="100"
   height="100"
   version="1.2"
   viewBox="0 0 74.999953 75.000137"
   id="svg643"
   sodipodi:docname="nodejs-icon.svg"
   inkscape:version="0.92.4 (5da689c313, 2019-01-14)">
  <metadata
     id="metadata647">
    <rdf:RDF>
      <cc:Work
         rdf:about="">
        <dc:format>image/svg+xml</dc:format>
        <dc:type
           rdf:resource="http://purl.org/dc/dcmitype/StillImage" />
        <dc:title></dc:title>
      </cc:Work>
    </rdf:RDF>
  </metadata>
  <sodipodi:namedview
     pagecolor="#ffffff"
     bordercolor="#666666"
     borderopacity="1"
     objecttolerance="10"
     gridtolerance="10"
     guidetolerance="10"
     inkscape:pageopacity="0"
     inkscape:pageshadow="2"
     inkscape:window-width="1882"
     inkscape:window-height="1080"
     id="namedview645"
     showgrid="false"
     inkscape:zoom="4.0039925"
     inkscape:cx="22.967222"
     inkscape:cy="74.227936"
     inkscape:window-x="38"
     inkscape:window-y="0"
     inkscape:window-maximized="1"
     inkscape:current-layer="svg643" />
  <defs
     id="defs621">
    <clipPath
       id="a">
      <path
         d="m 239.03,226.605 -42.13,24.317 c -1.578,0.91 -2.546,2.59 -2.546,4.406 v 48.668 c 0,1.817 0.968,3.496 2.546,4.406 l 42.133,24.336 c 1.575,0.907 3.517,0.907 5.09,0 l 42.126,-24.336 c 1.57,-0.91 2.54,-2.59 2.54,-4.406 v -48.668 c 0,-1.816 -0.97,-3.496 -2.55,-4.406 l -42.12,-24.317 c -0.79,-0.453 -1.67,-0.68 -2.55,-0.68 -0.88,0 -1.76,0.227 -2.55,0.68"
         id="path587"
         inkscape:connector-curvature="0" />
    </clipPath>
    <linearGradient
       id="b"
       x1="-0.34799999"
       x2="1.251"
       gradientTransform="matrix(-38.064915,77.652126,-77.652126,-38.064915,258.72325,244.62943)"
       gradientUnits="userSpaceOnUse">
      <stop
         offset=".3"
         stop-color="#3E863D"
         id="stop590" />
      <stop
         offset=".5"
         stop-color="#55934F"
         id="stop592" />
      <stop
         offset=".8"
         stop-color="#5AAD45"
         id="stop594" />
    </linearGradient>
    <clipPath
       id="c">
      <path
         d="m 195.398,307.086 c 0.403,0.523 0.907,0.976 1.5,1.316 l 36.14,20.875 6.02,3.46 c 0.9,0.52 1.926,0.74 2.934,0.665 0.336,-0.027 0.672,-0.09 1,-0.183 l 44.434,-81.36 c -0.34,-0.37 -0.738,-0.68 -1.184,-0.94 l -27.586,-15.93 -14.582,-8.39 c -0.414,-0.24 -0.863,-0.41 -1.32,-0.53 z m 0,0"
         id="path597"
         inkscape:connector-curvature="0" />
    </clipPath>
    <linearGradient
       id="d"
       x1="-0.456"
       x2="0.58200002"
       gradientTransform="matrix(106.8057,-78.916731,78.916731,106.8057,235.18824,285.39477)"
       gradientUnits="userSpaceOnUse">
      <stop
         offset=".57"
         stop-color="#3E863D"
         id="stop600" />
      <stop
         offset=".72"
         stop-color="#619857"
         id="stop602" />
      <stop
         offset="1"
         stop-color="#76AC64"
         id="stop604" />
    </linearGradient>
    <clipPath
       id="e">
      <path
         d="m 241.066,225.953 c -0.707,0.07 -1.398,0.29 -2.035,0.652 l -42.01,24.247 45.3,82.51 c 0.63,-0.09 1.25,-0.3 1.81,-0.624 l 42.13,-24.336 c 1.3,-0.754 2.19,-2.03 2.46,-3.476 l -46.18,-78.89 c -0.34,-0.067 -0.68,-0.102 -1.03,-0.102 -0.14,0 -0.28,0.007 -0.42,0.02"
         id="path607"
         inkscape:connector-curvature="0" />
    </clipPath>
    <linearGradient
       id="f"
       x1="0.043000001"
       x2="0.98400003"
       gradientTransform="matrix(97.417,0,0,97.417,192.862,279.652)"
       gradientUnits="userSpaceOnUse">
      <stop
         offset=".16"
         stop-color="#6BBF47"
         id="stop610" />
      <stop
         offset=".38"
         stop-color="#79B461"
         id="stop612" />
      <stop
         offset=".47"
         stop-color="#75AC64"
         id="stop614" />
      <stop
         offset=".7"
         stop-color="#659E5A"
         id="stop616" />
      <stop
         offset=".9"
         stop-color="#3E863D"
         id="stop618" />
    </linearGradient>
  </defs>
  <g
     id="g681"
     transform="matrix(3.0000003,0,0,3.0000003,1.4999959,1.499999)">
    <path
       id="path623"
       d="m 11.870904,18.890104 c -0.07426,0 -0.14801,-0.01948 -0.213114,-0.05697 l -0.678353,-0.40161 c -0.101318,-0.05666 -0.05188,-0.0767 -0.01846,-0.08825 0.13509,-0.0473 0.162505,-0.05798 0.3067,-0.139872 0.01516,-0.0086 0.03499,-0.0056 0.05051,0.0036 l 0.521137,0.309244 c 0.01882,0.01017 0.04552,0.01017 0.06297,0 l 2.031956,-1.172889 c 0.01882,-0.01068 0.03103,-0.03255 0.03103,-0.05493 v -2.344761 c 0,-0.0234 -0.01221,-0.04425 -0.03143,-0.05595 l -2.031142,-1.171872 c -0.01882,-0.01119 -0.04374,-0.01119 -0.06256,0 l -2.0307361,1.171872 c -0.019684,0.01119 -0.032196,0.03306 -0.032196,0.05544 v 2.34476 c 0,0.02238 0.012207,0.04374 0.031535,0.05442 l 0.5564351,0.321451 c 0.302124,0.151062 0.486754,-0.02696 0.486754,-0.205993 v -2.314243 c 0,-0.03306 0.02594,-0.05849 0.059,-0.05849 h 0.257364 c 0.03204,0 0.05849,0.02543 0.05849,0.05849 v 2.31526 c 0,0.402831 -0.219726,0.634256 -0.601703,0.634256 -0.117493,0 -0.210062,0 -0.468444,-0.127157 L 9.6235952,17.658672 C 9.4918614,17.582378 9.4104814,17.439963 9.4104814,17.287884 v -2.34476 c 0,-0.152588 0.08138,-0.295003 0.2131138,-0.370279 l 2.0339908,-1.173398 c 0.128682,-0.07273 0.29958,-0.07273 0.427245,0 l 2.031448,1.173906 c 0.131225,0.07579 0.213114,0.217692 0.213114,0.370279 v 2.344761 c 0,0.152079 -0.08189,0.293985 -0.213114,0.370279 l -2.031448,1.173398 c -0.0651,0.03764 -0.138854,0.05697 -0.214131,0.05697"
       inkscape:connector-curvature="0"
       style="fill:#689f63;stroke-width:0.05086249" />
    <path
       sodipodi:nodetypes="cssscsscssccsscsscsc"
       id="path625"
       d="m 12.498547,17.274406 c -0.889077,0 -1.075488,-0.408121 -1.075488,-0.750425 0,-0.03255 0.02624,-0.05849 0.05885,-0.05849 h 0.262451 c 0.02899,0 0.0534,0.02111 0.05798,0.04974 0.03967,0.267435 0.157674,0.402323 0.69529,0.402323 0.428262,0 0.61035,-0.09674 0.61035,-0.323842 0,-0.130716 -0.05188,-0.227864 -0.717161,-0.292968 -0.556436,-0.05493 -0.900266,-0.17751 -0.900266,-0.622557 0,-0.409951 0.345865,-0.654091 0.925188,-0.654091 0.650532,0 0.973,0.225829 1.01369,0.711057 0.0015,0.01679 -0.0046,0.03306 -0.01577,0.04527 -0.01119,0.0117 -0.02696,0.01882 -0.04323,0.01882 h -0.263976 c -0.02747,0 -0.05137,-0.01933 -0.05697,-0.04578 -0.06358,-0.28127 -0.217183,-0.371296 -0.634764,-0.371296 -0.467426,0 -0.521849,0.16276 -0.521849,0.28483 0,0.148009 0.06409,0.191243 0.694782,0.274657 0.624591,0.08291 0.921119,0.19989 0.921119,0.638833 0,0.442504 -0.369261,0.696307 -1.01318,0.696307"
       inkscape:connector-curvature="0"
       style="fill:#689f63;stroke-width:0.05086249" />
    <path
       id="path627"
       d="m 5.578654,9.7155278 c 0,-0.093587 -0.049337,-0.1795446 -0.1301062,-0.2260838 L 3.2942161,8.2499251 C 3.2578494,8.2285629 3.2171086,8.2173731 3.1758082,8.2158473 h -0.022278 c -0.0413,0.00153 -0.082041,0.012716 -0.1190182,0.034078 L 0.88028235,9.489444 c -0.080261,0.046793 -0.1303097,0.1327511 -0.1303097,0.2263381 l 0.00473,3.3386139 c 0,0.04628 0.0239054,0.08952 0.0645954,0.112406 0.0396728,0.02441 0.089518,0.02441 0.12919073,0 L 2.2292064,12.433365 c 0.080871,-0.04812 0.130208,-0.133158 0.130208,-0.22583 v -1.559698 c 0,-0.09308 0.049337,-0.179036 0.1299537,-0.225321 L 3.034614,10.108491 c 0.040487,-0.0234 0.08494,-0.03499 0.130208,-0.03499 0.044555,0 0.090027,0.0115 0.1293941,0.03494 l 0.5449916,0.313923 c 0.080668,0.04628 0.130208,0.132242 0.130208,0.225321 v 1.559596 c 0,0.09257 0.049998,0.178019 0.1304623,0.22583 l 1.2799037,0.732928 c 0.040181,0.02391 0.090179,0.02391 0.1302079,0 0.039469,-0.02289 0.064494,-0.06612 0.064494,-0.112406 z m 10.165784,1.7382762 c 0,0.02324 -0.01236,0.04476 -0.03255,0.05625 l -0.739947,0.426533 c -0.02009,0.01155 -0.04491,0.01155 -0.06495,0 l -0.740049,-0.426533 c -0.02035,-0.01155 -0.03255,-0.03306 -0.03255,-0.05625 v -0.854286 c 0,-0.02329 0.01221,-0.04476 0.03204,-0.05646 l 0.739541,-0.427244 c 0.02035,-0.0117 0.04527,-0.0117 0.06561,0 l 0.740049,0.427244 c 0.02035,0.0117 0.03255,0.03316 0.03255,0.05646 z m 0.19989,-6.3273953 c -0.04039,-0.022481 -0.08952,-0.021871 -0.129394,0.00137 -0.03967,0.023397 -0.06419,0.066121 -0.06419,0.1124061 V 8.54625 c 0,0.032552 -0.01729,0.062561 -0.04547,0.078837 -0.02797,0.016276 -0.06281,0.016276 -0.09104,0 L 15.074579,8.3142662 c -0.08036,-0.046488 -0.179341,-0.046488 -0.260009,0 l -2.155044,1.2437404 c -0.08052,0.046285 -0.130208,0.1322425 -0.130208,0.2248122 v 2.4881932 c 0,0.09308 0.04969,0.178527 0.130208,0.225321 l 2.155044,1.244605 c 0.08047,0.04628 0.179545,0.04628 0.260263,0 l 2.155044,-1.245114 c 0.08036,-0.04679 0.130208,-0.132242 0.130208,-0.225321 V 6.0693484 c 0,-0.094401 -0.05137,-0.181223 -0.133768,-0.2273553 z m 7.176341,5.4506283 c 0.08006,-0.04649 0.129343,-0.132345 0.129343,-0.224914 V 9.749097 c 0,-0.092773 -0.04934,-0.1783747 -0.129546,-0.2250665 L 20.979155,8.2809512 c -0.08087,-0.046793 -0.180053,-0.046793 -0.260925,0 l -2.154535,1.2435879 c -0.08087,0.046793 -0.130208,0.1322425 -0.130208,0.2253209 v 2.487176 c 0,0.09359 0.05035,0.180053 0.131225,0.226338 l 2.140803,1.220191 c 0.07884,0.04527 0.175475,0.04578 0.255329,0.0015 l 1.294959,-0.719704 c 0.04069,-0.02289 0.06663,-0.06612 0.06663,-0.112915 0,-0.04679 -0.02492,-0.09054 -0.06561,-0.113424 l -2.16776,-1.244096 c -0.04069,-0.02289 -0.06561,-0.06612 -0.06561,-0.112406 v -0.780231 c 0,-0.04659 0.02441,-0.08952 0.0651,-0.112711 l 0.674436,-0.389098 c 0.04018,-0.0234 0.08952,-0.0234 0.1297,0 l 0.674945,0.389098 c 0.04018,0.02289 0.0651,0.06612 0.0651,0.112406 v 0.613402 c 0,0.04628 0.02492,0.08952 0.0651,0.112914 0.04018,0.02289 0.09003,0.02289 0.130208,-5.08e-4 z m 0,0"
       inkscape:connector-curvature="0"
       style="fill:#333333;fill-rule:evenodd;stroke-width:0.05086249" />
    <path
       id="path629"
       d="m 20.817158,10.460663 c 0.01526,-0.009 0.03438,-0.009 0.04985,0 l 0.413512,0.238545 c 0.01546,0.009 0.02492,0.02543 0.02492,0.04323 v 0.477599 c 0,0.0178 -0.0095,0.03428 -0.02492,0.04323 l -0.413512,0.238545 c -0.01546,0.009 -0.03459,0.009 -0.04985,0 L 20.4039,11.263273 c -0.01577,-0.009 -0.02543,-0.02543 -0.02543,-0.04323 v -0.477599 c 0,-0.0178 0.0092,-0.03428 0.02492,-0.04323 z m 0,0"
       inkscape:connector-curvature="0"
       style="fill:#689f63;fill-rule:evenodd;stroke-width:0.05086249" />
    <g
       id="g633"
       transform="matrix(0.05086249,0,0,0.05086249,-3.2328655,-3.2323329)"
       clip-path="url(#a)">
      <path
         id="path631"
         d="m 331.363,246.793 -118.715,-58.19 -60.87,124.174 118.712,58.193 z m 0,0"
         style="fill:url(#b)"
         inkscape:connector-curvature="0" />
    </g>
    <g
       id="g637"
       transform="matrix(0.05086249,0,0,0.05086249,-3.2328655,-3.2323329)"
       clip-path="url(#c)">
      <path
         id="path635"
         d="m 144.07,264.004 83.825,113.453 110.86,-81.906 -83.83,-113.45 z m 0,0"
         style="fill:url(#d)"
         inkscape:connector-curvature="0" />
    </g>
    <g
       id="g641"
       transform="matrix(0.05086249,0,0,0.05086249,-3.2328655,-3.2323329)"
       clip-path="url(#e)">
      <path
         id="path639"
         d="m 197.02,225.934 v 107.43 h 91.683 v -107.43 z m 0,0"
         style="fill:url(#f)"
         inkscape:connector-curvature="0" />
    </g>
  </g>
</svg>
