<?xml version="1.0" encoding="UTF-8" standalone="no"?>
<!-- Created with Inkscape (http://www.inkscape.org/) -->

<svg
   xmlns:dc="http://purl.org/dc/elements/1.1/"
   xmlns:cc="http://creativecommons.org/ns#"
   xmlns:rdf="http://www.w3.org/1999/02/22-rdf-syntax-ns#"
   xmlns:svg="http://www.w3.org/2000/svg"
   xmlns="http://www.w3.org/2000/svg"
   xmlns:sodipodi="http://sodipodi.sourceforge.net/DTD/sodipodi-0.dtd"
   xmlns:inkscape="http://www.inkscape.org/namespaces/inkscape"
   version="1.1"
   viewBox="0 0 100 99.999998"
   id="svg56"
   sodipodi:docname="opengl-icon.svg"
   width="100"
   height="100"
   inkscape:version="0.92.4 (5da689c313, 2019-01-14)">
  <defs
     id="defs60" />
  <sodipodi:namedview
     pagecolor="#ffffff"
     bordercolor="#666666"
     borderopacity="1"
     objecttolerance="10"
     gridtolerance="10"
     guidetolerance="10"
     inkscape:pageopacity="0"
     inkscape:pageshadow="2"
     inkscape:window-width="1888"
     inkscape:window-height="1033"
     id="namedview58"
     showgrid="false"
     inkscape:zoom="3.651924"
     inkscape:cx="123.0129"
     inkscape:cy="21.101012"
     inkscape:window-x="38"
     inkscape:window-y="0"
     inkscape:window-maximized="0"
     inkscape:current-layer="svg56" />
  <metadata
     id="metadata2">
    <rdf:RDF>
      <cc:Work
         rdf:about="">
        <dc:format>image/svg+xml</dc:format>
        <dc:type
           rdf:resource="http://purl.org/dc/dcmitype/StillImage" />
        <dc:title></dc:title>
      </cc:Work>
    </rdf:RDF>
  </metadata>
  <path
     d="m 24.264596,59.738433 c -4.502745,0 -6.716562,-2.742761 -7.582323,-5.609654 0.974871,4.652969 6.242174,9.207106 22.865566,11.235121 15.702286,1.9193 25.937235,-2.892194 29.388418,-5.131312 0,0 2.332416,-1.026262 0.932967,0.55978 0,0 -9.89102,9.143854 -29.293541,9.234779 C 21.169206,70.120601 5.7752722,60.325885 5.87015,50.434868 5.7769326,40.54385 21.169206,30.74771 40.575683,30.842588 c 19.406478,0.09338 29.293541,9.234779 29.293541,9.234779 1.399449,1.586042 -0.932967,0.559779 -0.932967,0.559779 C 65.484679,38.397634 55.29361,33.98779 39.547839,35.505835 24.059028,36.99858 19.006781,42.26193 17.326652,45.804037 c -0.646355,1.364265 -0.9385,2.651046 -1.011635,3.946919 0.418253,-3.382396 2.520589,-7.3728 7.949975,-7.3728 6.151248,0 8.032992,5.119451 8.032992,8.673418 0,3.557524 -1.88214,8.677371 -8.032992,8.677371 z M 86.804922,56.318876 H 95 V 59.30239 H 83.361649 V 42.825267 h 3.442878 v 13.496377 z m -12.642476,-5.89824 h 6.886551 v 8.88294 H 78.754142 L 78.409735,57.23761 c -0.872089,1.010054 -2.13436,2.502009 -5.139219,2.502009 -3.969057,0 -7.574415,-2.845941 -7.574415,-8.629933 0,-4.498792 2.501611,-8.744576 8.056709,-8.720857 5.048297,0 7.044684,3.281588 7.230485,5.554308 h -3.442878 c 0,-0.642402 -1.170558,-2.707972 -3.603382,-2.707972 -2.455364,0 -4.728083,1.698314 -4.728083,5.92196 0,4.498792 2.455359,5.668953 4.795285,5.668953 0.757046,0 3.281587,-0.298628 3.992777,-3.626312 H 74.164345 V 50.422612 Z M 24.272503,44.372172 c -3.580454,0 -5.736158,2.823012 -5.736158,6.700749 0,3.878924 2.157285,6.700749 5.736158,6.700749 3.580453,0 5.736157,-2.823012 5.736157,-6.700749 0,-3.878528 -2.157285,-6.700749 -5.736157,-6.700749 z m 9.266405,4.403914 h 1.672222 v 1.491164 h 0.04016 c 0.423392,-0.604451 1.229063,-1.793587 3.14362,-1.793587 2.800478,0 4.795285,2.373923 4.795285,5.33688 0,2.518612 -1.452026,5.807316 -5.040386,5.807316 -1.410518,0 -2.337554,-0.664936 -2.800479,-1.410518 h -0.04036 v 5.277581 H 33.535943 V 48.7749 Z m 4.479025,9.309891 c 1.934323,0 3.245219,-1.676176 3.245219,-3.992777 0,-1.350033 -0.545152,-4.024403 -3.285937,-4.024403 -2.558935,0 -2.840801,2.760155 -2.840801,4.471119 0,2.800874 1.752868,3.546456 2.881124,3.546456 z m 15.903901,-2.075454 c -0.0608,0.503644 -0.544756,1.994807 -1.874233,2.881125 -0.483875,0.322387 -1.168577,0.72542 -2.861356,0.72542 -2.96177,0 -4.716221,-2.23635 -4.716221,-5.277581 0,-3.264589 1.571811,-5.862662 5.056198,-5.862662 3.042419,0 4.534372,2.4182 4.534372,6.147296 H 46.36363 c 0,2.196027 1.027446,3.465809 3.062578,3.465809 1.672221,0 2.659739,-1.289548 2.71983,-2.075453 h 1.773425 z M 52.042463,53.20965 c -0.100809,-1.6319 -0.785906,-3.143225 -2.942002,-3.143225 -1.631902,0 -2.921452,1.511325 -2.921452,3.143225 h 5.862663 z m 11.8202,6.103809 h -1.773029 v -6.487274 c 0,-1.833515 -0.523803,-2.760155 -2.256909,-2.760155 -1.007682,0 -2.780711,0.644774 -2.780711,3.505737 v 5.744064 H 55.278589 V 48.776482 h 1.672616 v 1.491163 h 0.04002 c 0.382989,-0.564128 1.370194,-1.793587 3.183942,-1.793587 1.632297,0 3.687589,0.665331 3.687589,3.667425 v 7.175139"
     id="path4"
     inkscape:connector-curvature="0"
     style="fill:#e9e9e9;fill-rule:evenodd;stroke-width:0.39532444" />
  <path
     d="m 24.225064,59.6989 c -4.502746,0 -6.716563,-2.743156 -7.582323,-5.609654 0.97487,4.652969 6.242173,9.207107 22.865566,11.235121 15.702286,1.918905 25.937235,-2.892193 29.388418,-5.131311 0,0 2.332416,-1.026262 0.932967,0.559779 0,0 -9.89102,9.143855 -29.293542,9.234779 C 21.129674,70.08099 5.7357397,60.286352 5.8306176,50.395335 5.7374001,40.504317 21.129674,30.708178 40.53615,30.803056 c 19.406475,0.09338 29.293542,9.234779 29.293542,9.234779 1.399449,1.585646 -0.932967,0.559384 -0.932967,0.559384 -3.451973,-2.239118 -13.642647,-6.649357 -29.388418,-5.131311 -15.488812,1.492349 -20.541058,6.756094 -22.221187,10.298201 -0.646355,1.364265 -0.938501,2.650651 -1.011635,3.946524 0.418253,-3.382396 2.520984,-7.372801 7.949974,-7.372801 6.151248,0 8.032993,5.119452 8.032993,8.677372 0,3.557524 -1.88214,8.677371 -8.032993,8.677371 z M 86.76539,56.279344 c 2.731298,-1.98e-4 5.463385,-1.98e-4 8.195074,0 v 2.983513 H 83.322113 V 42.785735 h 3.442882 V 56.282111 Z M 74.122914,50.381103 c 2.29486,-2.01e-4 4.589715,-2.01e-4 6.886551,0 v 8.882941 H 78.71461 c -0.11512,-0.688656 -0.229764,-1.377311 -0.344407,-2.065571 -0.872089,1.009659 -2.134755,2.501614 -5.139219,2.501614 -3.969057,0 -7.574415,-2.845941 -7.574415,-8.629933 0,-4.498792 2.502006,-8.744577 8.056709,-8.720857 5.048293,0 7.044684,3.281983 7.230485,5.554308 h -3.442882 c 0,-0.642797 -1.170554,-2.708368 -3.603382,-2.708368 -2.455755,0 -4.728079,1.699105 -4.728079,5.92196 0,4.498793 2.455359,5.668953 4.795285,5.668953 0.757046,0 3.281587,-0.29843 3.992777,-3.626311 -1.277687,-1.98e-4 -2.555377,-1.98e-4 -3.832669,0 V 50.382684 Z M 24.23297,44.293107 c -3.580453,0 -5.736157,2.822617 -5.736157,6.700749 0,3.878528 2.157681,6.700749 5.736157,6.700749 3.580454,0 5.736158,-2.823011 5.736158,-6.700749 0,-3.878923 -2.157681,-6.700749 -5.736158,-6.700749 z m 9.290125,4.427634 h 1.672222 c 1.98e-4,0.496923 1.98e-4,0.993845 0,1.491163 0.01356,-1.97e-4 0.02684,-1.97e-4 0.04016,0 0.423392,-0.604451 1.229063,-1.793191 3.143224,-1.793191 2.800479,0 4.795286,2.373923 4.795286,5.33688 0,2.518612 -1.452027,5.807316 -5.040387,5.807316 -1.410517,0 -2.337553,-0.664936 -2.800873,-1.410123 -0.01336,-1.97e-4 -0.02684,-1.97e-4 -0.04036,0 1.98e-4,1.759589 1.98e-4,3.519179 0,5.277582 -0.59101,-1.98e-4 -1.18202,-1.98e-4 -1.77303,0 V 48.720345 Z m 4.479026,9.30989 c 1.934322,0 3.245613,-1.676175 3.245613,-3.992777 0,-1.350033 -0.545152,-4.024402 -3.285936,-4.024402 -2.558936,0 -2.840802,2.76055 -2.840802,4.475072 0,2.800478 1.752869,3.54606 2.881125,3.54606 z m 15.903902,-2.075453 c -0.06029,0.503643 -0.543966,1.994807 -1.873838,2.88152 -0.483484,0.322347 -1.168581,0.725025 -2.860965,0.725025 -2.962165,0 -4.716217,-2.236351 -4.716217,-5.277582 0,-3.264193 1.571807,-5.862661 5.056198,-5.862661 3.04202,0 4.534372,2.417804 4.534372,6.147295 -2.565655,-1.98e-4 -5.131313,-1.98e-4 -7.696968,0 0,2.196423 1.027845,3.465809 3.062973,3.465809 1.672225,0 2.659349,-1.289548 2.719835,-2.075453 h 1.773029 z M 52.027047,53.1547 c -0.100573,-1.6319 -0.785511,-3.143225 -2.941611,-3.143225 -1.631898,0 -2.921842,1.511325 -2.921842,3.143225 1.954483,-1.98e-4 3.909365,-1.98e-4 5.862662,0 z m 11.8202,6.103809 h -1.773029 v -6.487274 c 0,-1.83391 -0.523807,-2.760551 -2.256909,-2.760551 -1.007682,0 -2.780711,0.644774 -2.780711,3.506133 v 5.744064 h -1.77303 v -10.53935 h 1.672221 v 1.491164 c 0.01333,-1.98e-4 0.02669,-1.98e-4 0.04002,0 0.38299,-0.564128 1.370195,-1.793192 3.183942,-1.793192 1.632293,0 3.687585,0.664936 3.687585,3.66703 v 7.171185"
     id="path8"
     inkscape:connector-curvature="0"
     style="fill:#e2e2e2;fill-rule:evenodd;stroke-width:0.39532444" />
  <path
     d="m 24.185531,59.659368 c -4.502745,0 -6.716562,-2.742761 -7.582322,-5.609654 0.975265,4.652969 6.242173,9.207106 22.865565,11.235121 15.702287,1.9193 25.937236,-2.892194 29.388419,-5.131312 0,0 2.332416,-1.026262 0.932966,0.55978 0,0 -9.891019,9.143854 -29.293541,9.234779 C 21.090141,70.041536 5.6962073,60.24682 5.7910852,50.355803 5.6978676,40.464785 21.090141,30.672599 40.496618,30.763523 c 19.406475,0.0929 29.293541,9.234779 29.293541,9.234779 1.39945,1.585647 -0.932966,0.559384 -0.932966,0.559384 C 65.405615,38.318569 55.214546,33.908329 39.468774,35.426375 23.979963,36.91912 18.927716,42.18247 17.247587,45.72853 c -0.646355,1.364265 -0.9385,2.65065 -1.01124,3.946524 0.418254,-3.382396 2.520589,-7.372801 7.949975,-7.372801 6.151248,0 8.032993,5.119451 8.032993,8.677372 0,3.557129 -1.88214,8.677371 -8.032993,8.677371 z m 62.540327,-3.419557 c 2.731297,-1.97e-4 5.463385,-1.97e-4 8.195074,0 v 2.983514 c -3.878921,-1.98e-4 -7.756264,-1.98e-4 -11.638351,0 V 42.746203 h 3.442882 V 56.242579 Z M 74.075477,50.349477 h 6.886551 v 8.882941 c -0.764952,-1.98e-4 -1.529908,-1.98e-4 -2.29486,0 -0.114643,-0.688655 -0.229763,-1.377311 -0.344407,-2.065966 -0.872085,1.010054 -2.134751,2.502008 -5.139215,2.502008 -3.969061,0 -7.574419,-2.84594 -7.574419,-8.629932 0,-4.498792 2.501615,-8.744577 8.056714,-8.720857 5.048292,0 7.044683,3.281983 7.230485,5.554308 h -3.442883 c 0,-0.642402 -1.170553,-2.707972 -3.603382,-2.707972 -2.455359,0 -4.728079,1.698313 -4.728079,5.92196 0,4.498792 2.455359,5.668952 4.795285,5.668952 0.757441,0 3.281983,-0.29843 3.992777,-3.626311 -1.27769,-1.98e-4 -2.555377,-1.98e-4 -3.832672,0 V 50.351454 Z M 24.185531,44.301013 c -3.580453,0 -5.736157,2.823012 -5.736157,6.70075 0,3.878923 2.15768,6.700749 5.736157,6.700749 3.580454,0 5.736158,-2.823012 5.736158,-6.700749 0,-3.878133 -2.157286,-6.70075 -5.736158,-6.70075 z m 9.290125,4.427634 h 1.672222 v 1.490769 c 0.01352,-1.98e-4 0.02684,-1.98e-4 0.04016,0 0.423392,-0.604452 1.229064,-1.793192 3.14362,-1.793192 2.800478,0 4.795285,2.373528 4.795285,5.33688 0,2.518217 -1.452027,5.807316 -5.040386,5.807316 -1.410123,0 -2.337158,-0.664936 -2.800479,-1.410518 -0.01328,-1.5e-4 -0.02665,-1.5e-4 -0.04032,0 1.97e-4,1.759589 1.97e-4,3.519574 0,5.277582 -0.59101,-2.02e-4 -1.18202,-2.02e-4 -1.77303,0 1.97e-4,-4.902024 1.97e-4,-9.808 0,-14.710023 z m 4.479026,9.309891 c 1.934322,0 3.245218,-1.676176 3.245218,-3.992777 0,-1.350429 -0.545153,-4.024403 -3.285937,-4.024403 -2.558935,0 -2.841196,2.760155 -2.841196,4.475073 0,2.800874 1.753263,3.546455 2.881519,3.546455 z m 15.903903,-2.075454 c -0.0608,0.503644 -0.54476,1.994808 -1.874233,2.88152 -0.483879,0.322348 -1.168581,0.72542 -2.860965,0.72542 -2.962165,0 -4.716221,-2.236745 -4.716221,-5.27758 0,-3.264194 1.571812,-5.862662 5.056202,-5.862662 3.042415,0 4.534368,2.417804 4.534368,6.147295 -2.565655,-1.98e-4 -5.131309,-1.98e-4 -7.696964,0 0,2.196027 1.027841,3.465809 3.062974,3.465809 1.67222,0 2.659348,-1.289548 2.71983,-2.075453 h 1.773428 z M 51.97921,53.162606 c -0.100768,-1.631899 -0.785507,-3.143225 -2.941212,-3.143225 -1.632297,0 -2.921842,1.511326 -2.921842,3.143225 1.954483,-1.98e-4 3.908966,-1.98e-4 5.862658,0 z m 11.820204,6.103809 c -0.591012,-1.97e-4 -1.182416,-1.97e-4 -1.773033,0 v -6.487273 c 0,-1.833515 -0.523803,-2.760156 -2.256905,-2.760156 -1.007682,0 -2.780715,0.644774 -2.780715,3.505737 v 5.744064 c -0.591009,-1.97e-4 -1.182412,-1.97e-4 -1.77303,0 V 48.729438 h 1.672225 v 1.490768 c 0.01333,-1.97e-4 0.02669,-1.97e-4 0.04002,0 0.38299,-0.564128 1.370195,-1.793191 3.183946,-1.793191 1.632293,0 3.687585,0.664935 3.687585,3.667029 v 7.175139"
     id="path10"
     inkscape:connector-curvature="0"
     style="fill:#dcdbdb;fill-rule:evenodd;stroke-width:0.39532444" />
  <path
     d="m 24.145999,59.619835 c -4.502745,0 -6.716563,-2.74276 -7.582323,-5.609653 0.97487,4.652968 6.242173,9.207106 22.865566,11.23512 15.702287,1.918905 25.937236,-2.892193 29.388419,-5.131311 0,0 2.332416,-1.026262 0.932966,0.55978 0,0 -9.891019,9.143854 -29.293542,9.234778 C 21.050609,70.002004 5.6566748,60.207287 5.7515527,50.31627 5.6581375,40.425252 21.050609,30.629113 40.457085,30.723991 c 19.406476,0.09338 29.293542,9.234779 29.293542,9.234779 1.39945,1.586041 -0.932966,0.559779 -0.932966,0.559779 -3.451973,-2.239117 -13.642647,-6.649357 -29.388419,-5.131311 -15.488812,1.492745 -20.541058,6.756094 -22.221187,10.302155 -0.646355,1.363869 -0.9385,2.65065 -1.011635,3.946524 0.418648,-3.382001 2.520588,-7.372801 7.949974,-7.372801 6.151248,0 8.032993,5.119452 8.032993,8.677371 0,3.557525 -1.88214,8.673419 -8.032993,8.673419 z m 62.540327,-3.39979 c 2.731297,-1.97e-4 5.463381,-1.97e-4 8.195074,0 v 2.983514 H 83.243048 V 42.726436 h 3.442883 V 56.222812 Z M 74.04385,50.321804 h 6.886551 v 8.882941 h -2.294859 c -0.115116,-0.688655 -0.22976,-1.376915 -0.344407,-2.06557 -0.872085,1.009658 -2.134356,2.501613 -5.139215,2.501613 -3.969057,0 -7.57442,-2.845941 -7.57442,-8.629933 0,-4.498792 2.501616,-8.744577 8.056714,-8.720857 5.048293,0 7.044683,3.281588 7.230485,5.554308 h -3.442882 c 0,-0.642797 -1.170554,-2.708367 -3.603382,-2.708367 -2.45536,0 -4.72808,1.698313 -4.72808,5.92196 0,4.498792 2.45536,5.668952 4.795285,5.668952 0.757047,0 3.281588,-0.29843 3.992778,-3.626311 H 74.045749 V 50.323386 Z M 24.153905,44.233808 c -3.580453,0 -5.736157,2.823012 -5.736157,6.70075 0,3.878528 2.157681,6.700749 5.736157,6.700749 3.580454,0 5.736158,-2.823012 5.736158,-6.700749 0,-3.878529 -2.157681,-6.70075 -5.736158,-6.70075 z m 9.266405,4.403915 h 1.672618 v 1.491163 h 0.04013 c 0.423393,-0.604451 1.229064,-1.793587 3.143225,-1.793587 2.800873,0 4.795285,2.373924 4.795285,5.33688 0,2.519008 -1.452027,5.807316 -5.040386,5.807316 -1.410123,0 -2.337159,-0.664935 -2.800479,-1.410122 -0.01328,-1.98e-4 -0.02684,-1.98e-4 -0.04052,0 1.98e-4,1.759589 1.98e-4,3.519178 0,5.277581 h -1.77303 c 1.98e-4,-4.902023 1.98e-4,-9.807999 0,-14.710022 z m 4.479026,9.30989 c 1.934323,0 3.245614,-1.676175 3.245614,-3.992777 0,-1.350033 -0.545548,-4.024402 -3.285937,-4.024402 -2.558935,0 -2.841197,2.76055 -2.841197,4.475072 0,2.800478 1.753264,3.54606 2.88152,3.54606 z M 53.803238,55.87216 c -0.0608,0.503643 -0.544756,1.994807 -1.874233,2.88152 -0.483875,0.322387 -1.168577,0.725025 -2.860961,0.725025 -2.961774,0 -4.716221,-2.236351 -4.716221,-5.277582 0,-3.264194 1.571807,-5.862661 5.056198,-5.862661 3.042419,0 4.534372,2.418199 4.534372,6.147295 -2.565655,-1.98e-4 -5.13131,-1.98e-4 -7.696968,0 0,2.196423 1.027845,3.465809 3.062578,3.465809 1.672225,0 2.659744,-1.289548 2.719834,-2.075453 0.591009,-1.98e-4 1.182021,-1.98e-4 1.773425,0 z m -1.879372,-2.800478 c -0.100767,-1.6319 -0.78551,-3.143225 -2.94161,-3.143225 -1.631898,0 -2.921843,1.511325 -2.921843,3.143225 1.954483,-1.98e-4 3.90897,-1.98e-4 5.862663,0 z m 11.820201,6.103809 h -1.773029 v -6.487274 c 0,-1.83391 -0.523807,-2.760551 -2.256909,-2.760551 -1.007682,0 -2.780712,0.644379 -2.780712,3.506133 v 5.744064 h -1.773424 v -10.53935 h 1.672616 v 1.491164 h 0.04002 c 0.382989,-0.564128 1.370194,-1.793587 3.183941,-1.793587 1.632294,0 3.687585,0.665331 3.687585,3.667425 V 59.1747"
     id="path12"
     inkscape:connector-curvature="0"
     style="fill:#d5d4d5;fill-rule:evenodd;stroke-width:0.39532444" />
  <path
     d="m 24.106467,59.580303 c -4.502746,0 -6.716563,-2.742761 -7.582323,-5.609654 0.97487,4.652969 6.242173,9.207106 22.865565,11.235121 15.702288,1.9193 25.937237,-2.892194 29.38842,-5.131312 0,0 2.332411,-1.026262 0.932966,0.559385 0,0 -9.891019,9.143854 -29.293542,9.234779 C 21.011076,69.962076 5.6171424,60.16736 5.7120202,50.276342 5.6188028,40.385325 21.011076,30.589185 40.417553,30.684063 c 19.406476,0.09338 29.293542,9.234779 29.293542,9.234779 1.399445,1.586042 -0.932966,0.559779 -0.932966,0.559779 -3.451973,-2.239117 -13.642647,-6.649357 -29.38842,-5.131311 -15.488811,1.492745 -20.541058,6.756095 -22.221186,10.298202 -0.646356,1.364264 -0.9385,2.651045 -1.011636,3.946919 0.418253,-3.382396 2.520984,-7.372801 7.949975,-7.372801 6.151248,0 8.032993,5.119452 8.032993,8.677372 0,3.557525 -1.88214,8.677371 -8.032993,8.677371 z m 62.540327,-3.419556 c 2.731297,-1.98e-4 5.463381,-1.98e-4 8.195074,0 v 2.983513 c -3.878526,-1.98e-4 -7.756265,-1.98e-4 -11.638352,0 V 42.667138 h 3.442883 V 56.163514 Z M 74.004318,50.262506 h 6.886551 v 8.88294 c -0.764952,-1.97e-4 -1.529908,-1.97e-4 -2.294859,0 -0.115116,-0.688655 -0.229764,-1.37731 -0.344407,-2.065965 -0.872085,1.010054 -2.134751,2.502008 -5.139215,2.502008 -3.969061,0 -7.57442,-2.845941 -7.57442,-8.629933 0,-4.498791 2.502011,-8.744576 8.056714,-8.720856 5.048293,0 7.044683,3.281983 7.230485,5.554308 h -3.442882 c 0,-0.642402 -1.170554,-2.707973 -3.603382,-2.707973 -2.455755,0 -4.72808,1.698314 -4.72808,5.92196 0,4.498792 2.45536,5.668953 4.795285,5.668953 0.757047,0 3.281588,-0.298431 3.992778,-3.626311 -1.277691,-1.98e-4 -2.555377,-1.98e-4 -3.832673,0 V 50.264483 Z M 24.114373,44.214042 c -3.580454,0 -5.736158,2.823012 -5.736158,6.700749 0,3.878924 2.157286,6.70075 5.736158,6.70075 3.580453,0 5.736158,-2.823012 5.736158,-6.70075 0,-3.878528 -2.157681,-6.700749 -5.736158,-6.700749 z m 9.266405,4.403915 h 1.672617 c 1.98e-4,0.496922 1.98e-4,0.993845 0,1.490768 0.01348,-1.98e-4 0.02684,-1.98e-4 0.04013,0 0.422998,-0.604056 1.229064,-1.793192 3.143225,-1.793192 2.800478,0 4.795286,2.373923 4.795286,5.33688 0,2.518612 -1.452027,5.807316 -5.040387,5.807316 -1.410518,0 -2.337553,-0.664936 -2.800874,-1.410518 -0.01328,-1.97e-4 -0.02684,-1.97e-4 -0.04032,0 1.97e-4,1.75959 1.97e-4,3.519574 0,5.277582 -0.59101,-1.98e-4 -1.18202,-1.98e-4 -1.77303,0 1.97e-4,-4.902023 1.97e-4,-9.808 0,-14.710023 z m 4.479026,9.30989 c 1.934717,0 3.245613,-1.676176 3.245613,-3.992777 0,-1.350033 -0.545152,-4.024403 -3.285936,-4.024403 -2.558935,0 -2.841197,2.760155 -2.841197,4.475073 0,2.800874 1.753264,3.546456 2.88152,3.546456 z m 15.903902,-2.075453 c -0.06029,0.503643 -0.543966,1.994807 -1.873838,2.881124 -0.48348,0.322387 -1.168577,0.725816 -2.860961,0.725816 -2.962169,0 -4.716223,-2.236746 -4.716223,-5.277581 0,-3.264194 1.571809,-5.862662 5.0562,-5.862662 3.042415,0 4.534372,2.4182 4.534372,6.147295 -2.565655,-1.97e-4 -5.131313,-1.97e-4 -7.696968,0 0,2.196027 1.02745,3.46581 3.062973,3.46581 1.672225,0 2.659349,-1.289549 2.719835,-2.075454 h 1.773029 z M 51.88473,53.051915 c -0.100573,-1.631899 -0.785511,-3.143224 -2.941611,-3.143224 -1.631898,0 -2.921842,1.511325 -2.921842,3.143224 1.954483,-1.98e-4 3.909365,-1.98e-4 5.862662,0 z m 11.899264,6.127529 c -0.591008,-1.98e-4 -1.182021,-1.98e-4 -1.773029,0 V 52.69217 c 0,-1.833515 -0.524202,-2.760155 -2.256909,-2.760155 -1.007682,0 -2.780711,0.644774 -2.780711,3.505737 v 5.744064 c -0.591009,-1.98e-4 -1.182416,-1.98e-4 -1.773029,0 v -10.53935 h 1.67222 v 1.490769 c 0.01333,-1.98e-4 0.02669,-1.98e-4 0.04002,0 0.38299,-0.563733 1.370195,-1.793192 3.183942,-1.793192 1.632293,0 3.687589,0.665331 3.687589,3.66703 v 7.175138"
     id="path14"
     inkscape:connector-curvature="0"
     style="fill:#cfcece;fill-rule:evenodd;stroke-width:0.39532444" />
  <path
     d="m 24.066934,59.54077 c -4.502745,0 -6.716562,-2.74276 -7.582323,-5.609653 0.975266,4.652969 6.242173,9.207106 22.865566,11.23512 15.702288,1.918905 25.937237,-2.892193 29.38842,-5.131311 0,0 2.332411,-1.026262 0.932966,0.560175 0,0 -9.891019,9.143854 -29.293543,9.234779 C 20.971544,69.923255 5.5776099,60.128618 5.6724878,50.237601 5.5792703,40.350536 20.971544,30.554397 40.37802,30.645321 c 19.406477,0.09338 29.293543,9.234779 29.293543,9.234779 1.399445,1.585646 -0.932966,0.559384 -0.932966,0.559384 -3.451974,-2.239117 -13.642647,-6.649357 -29.38842,-5.131311 -15.488812,1.492745 -20.541058,6.756095 -22.221187,10.302155 -0.646355,1.364264 -0.9385,2.65065 -1.011635,3.946524 0.418648,-3.382396 2.520589,-7.372801 7.949974,-7.372801 6.151248,0 8.032993,5.119452 8.032993,8.677371 0,3.557525 -1.88214,8.673419 -8.032993,8.673419 z m 62.540328,-3.419556 c 2.731293,-1.46e-4 5.463381,-1.46e-4 8.195074,0 v 2.983514 H 83.163984 V 42.627605 h 3.442883 v 13.496376 z m -12.642476,-5.89824 h 6.886551 v 8.88294 h -2.294859 c -0.114644,-0.688656 -0.229764,-1.376915 -0.344407,-2.065175 -0.872085,1.009659 -2.134751,2.501613 -5.139215,2.501613 -3.969061,0 -7.57442,-2.845941 -7.57442,-8.629933 0,-4.498792 2.502011,-8.744576 8.056714,-8.720857 5.048293,0 7.044679,3.281984 7.230485,5.554308 h -3.442882 c 0,-0.642797 -1.170554,-2.707972 -3.603382,-2.707972 -2.45536,0 -4.72808,1.698314 -4.72808,5.92196 0,4.498792 2.455755,5.668953 4.795285,5.668953 0.757442,0 3.281983,-0.298431 3.992778,-3.626311 -1.277296,-1.98e-4 -2.554587,-1.98e-4 -3.832278,0 V 50.225346 Z M 24.07484,44.16265 c -3.580453,0 -5.736157,2.823012 -5.736157,6.700749 0,3.878923 2.157681,6.70075 5.736157,6.70075 3.580454,0 5.736158,-2.823012 5.736158,-6.70075 0,-3.878133 -2.157286,-6.700749 -5.736158,-6.700749 z m 9.266405,4.403914 h 1.672223 c 1.97e-4,0.496923 1.97e-4,0.993846 0,1.491164 h 0.04032 c 0.423393,-0.604451 1.229064,-1.793192 3.143225,-1.793192 2.800478,0 4.795286,2.373528 4.795286,5.33688 0,2.519008 -1.452027,5.807316 -5.040387,5.807316 -1.410518,0 -2.337158,-0.664936 -2.800478,-1.410122 -0.01332,-1.98e-4 -0.02668,-1.98e-4 -0.04036,0 2.02e-4,1.759589 2.02e-4,3.519178 0,5.277581 H 33.338043 V 48.566169 Z m 4.479026,9.309891 c 1.934323,0 3.245614,-1.676176 3.245614,-3.992777 0,-1.350033 -0.545152,-4.024403 -3.285937,-4.024403 -2.558935,0 -2.841197,2.76055 -2.841197,4.475073 0,2.800478 1.752869,3.54606 2.88152,3.54606 z m 15.903903,-2.075454 c -0.06029,0.503644 -0.543966,1.994808 -1.873838,2.88152 -0.483484,0.322348 -1.168581,0.725025 -2.860965,0.725025 -2.962165,0 -4.716219,-2.23635 -4.716219,-5.277581 0,-3.264194 1.571809,-5.862662 5.0562,-5.862662 3.042415,0 4.534372,2.417805 4.534372,6.147295 -2.565655,-2.01e-4 -5.131314,-2.01e-4 -7.696968,0 0,2.196423 1.027845,3.465414 3.062973,3.465414 1.67183,0 2.659349,-1.289548 2.719835,-2.075453 0.591008,-1.97e-4 1.182016,-1.97e-4 1.773029,0 z m -1.878976,-2.800478 c -0.100768,-1.631899 -0.785511,-3.143224 -2.941216,-3.143224 -1.632293,0 -2.921842,1.511325 -2.921842,3.143224 1.954483,-1.98e-4 3.908966,-1.98e-4 5.862662,0 z m 11.899264,6.087997 h -1.773029 v -6.487275 c 0,-1.83391 -0.523807,-2.76055 -2.256909,-2.76055 -1.007682,0 -2.780711,0.644774 -2.780711,3.506132 v 5.744064 H 55.160784 V 48.551542 h 1.67222 v 1.491164 h 0.04002 c 0.38299,-0.564129 1.370195,-1.793192 3.183942,-1.793192 1.632293,0 3.687585,0.664936 3.687585,3.667029 v 7.171186"
     id="path16"
     inkscape:connector-curvature="0"
     style="fill:#c8c7c7;fill-rule:evenodd;stroke-width:0.39532444" />
  <path
     d="m 24.027402,59.501238 c -4.502746,0 -6.716562,-2.743156 -7.582323,-5.609654 0.97487,4.652969 6.242173,9.207107 22.861612,11.235121 15.702289,1.9193 25.937238,-2.892194 29.388417,-5.131311 0,0 2.332416,-1.026262 0.932966,0.559779 0,0 -9.891015,9.143854 -29.293539,9.234779 C 20.928058,69.883407 5.5341243,60.08869 5.6290021,50.197673 5.535587,40.306655 20.928058,30.510516 40.334535,30.605394 c 19.406477,0.0929 29.293539,9.234778 29.293539,9.234778 1.39945,1.585647 -0.932966,0.55978 -0.932966,0.55978 C 65.243139,38.160439 55.052465,33.750595 39.306691,35.268641 23.81788,36.76099 18.765633,42.020782 17.085504,45.566842 c -0.646355,1.364265 -0.9385,2.650651 -1.011635,3.946524 0.418649,-3.382396 2.520589,-7.3728 7.949975,-7.3728 6.151248,0 8.032992,5.119451 8.032992,8.677371 0,3.557129 -1.882139,8.673418 -8.032992,8.673418 z M 86.56773,56.081682 c 2.731293,-1.98e-4 5.463381,-1.98e-4 8.195074,0 v 2.983513 c -3.878925,-1.97e-4 -7.756265,-1.97e-4 -11.638352,0 V 42.588073 h 3.442883 V 56.084449 Z M 73.925254,50.183441 c 2.294856,-2.02e-4 4.589715,-2.02e-4 6.886551,0 v 8.88294 c -0.764952,-1.97e-4 -1.529908,-1.97e-4 -2.294859,0 -0.115121,-0.68905 -0.229764,-1.37731 -0.344407,-2.065965 -0.872085,1.010054 -2.134356,2.501613 -5.139219,2.501613 -3.969057,0 -7.574416,-2.845941 -7.574416,-8.629933 0,-4.498792 2.501616,-8.744576 8.056714,-8.720857 5.048292,0 7.044679,3.281984 7.230485,5.554308 h -3.442882 c 0,-0.642797 -1.170558,-2.707972 -3.603382,-2.707972 -2.45536,0 -4.72808,1.697919 -4.72808,5.92196 0,4.498792 2.45536,5.668953 4.795285,5.668953 0.757442,0 3.281983,-0.298628 3.992778,-3.626312 -1.277691,-1.97e-4 -2.555378,-1.97e-4 -3.832673,0 V 50.185022 Z M 24.035308,44.123117 c -3.580453,0 -5.736158,2.822617 -5.736158,6.70075 0,3.878923 2.157681,6.700749 5.736158,6.700749 3.580454,0 5.736158,-2.823012 5.736158,-6.700749 0,-3.878924 -2.157286,-6.70075 -5.736158,-6.70075 z m 9.266405,4.403915 h 1.672617 v 1.491163 c 0.01352,-1.97e-4 0.02684,-1.97e-4 0.04016,0 0.423392,-0.604451 1.229064,-1.793191 3.143225,-1.793191 2.800873,0 4.795285,2.373923 4.795285,5.33688 0,2.518612 -1.452027,5.807316 -5.040387,5.807316 -1.410122,0 -2.337158,-0.664936 -2.800478,-1.410518 -0.01332,-1.98e-4 -0.02665,-1.98e-4 -0.04036,0 v 5.277581 c -0.59101,-1.97e-4 -1.18202,-1.97e-4 -1.77303,0 1.97e-4,-4.902023 1.97e-4,-9.807999 0,-14.710022 z m 4.479026,9.30989 c 1.934322,0 3.245613,-1.676175 3.245613,-3.992777 0,-1.350033 -0.545547,-4.024402 -3.285936,-4.024402 -2.558935,0 -2.841197,2.76055 -2.841197,4.475072 0,2.800874 1.752869,3.546456 2.88152,3.546456 z m 15.903903,-2.075453 c -0.0608,0.503643 -0.544757,1.994807 -1.874233,2.88152 -0.48388,0.322347 -1.168581,0.72542 -2.860965,0.72542 -2.96177,0 -4.71622,-2.236745 -4.71622,-5.277581 0,-3.264194 1.57181,-5.862662 5.056201,-5.862662 3.042415,0 4.534372,2.417805 4.534372,6.147296 h -7.696969 c 0,2.196422 1.027846,3.465809 3.062579,3.465809 1.672221,0 2.659743,-1.289548 2.71983,-2.075453 h 1.773429 z M 51.80527,52.960595 c -0.100768,-1.631899 -0.78551,-3.143225 -2.94161,-3.143225 -1.631898,0 -2.921843,1.511326 -2.921843,3.143225 h 5.862663 z m 11.820201,6.10381 c -0.591013,-1.98e-4 -1.182021,-1.98e-4 -1.773034,0 V 52.57713 c 0,-1.83391 -0.523802,-2.76055 -2.256904,-2.76055 -1.007682,0 -2.780712,0.644774 -2.780712,3.506132 v 5.744065 c -0.591012,-1.98e-4 -1.182416,-1.98e-4 -1.773428,0 v -10.53935 h 1.67262 v 1.491164 c 0.01337,-2.02e-4 0.02669,-2.02e-4 0.04002,0 0.382993,-0.564128 1.370194,-1.793192 3.183945,-1.793192 1.632294,0 3.687585,0.664936 3.687585,3.667029 v 7.175139"
     id="path18"
     inkscape:connector-curvature="0"
     style="fill:#c4c3c3;fill-rule:evenodd;stroke-width:0.39532444" />
  <path
     d="m 23.987869,59.461706 c -4.502745,0 -6.716562,-2.742761 -7.582323,-5.609654 0.974871,4.652969 6.242173,9.207106 22.865566,11.235121 15.702289,1.918904 25.937238,-2.892194 29.388417,-5.131312 0,0 2.332415,-1.026262 0.932966,0.55978 0,0 -9.891015,9.143854 -29.29354,9.234778 C 20.892479,69.843874 5.4985451,60.049158 5.5934229,50.15814 5.5000078,40.267123 20.892479,30.470983 40.298955,30.565861 c 19.406478,0.09338 29.29354,9.234779 29.29354,9.234779 1.399449,1.586042 -0.932966,0.559779 -0.932966,0.559779 C 65.207955,38.121302 55.016885,33.711062 39.271112,35.229108 23.7823,36.721853 18.730054,41.985203 17.049925,45.531263 c -0.646355,1.364265 -0.9385,2.65065 -1.011635,3.946524 0.418253,-3.382791 2.520589,-7.372801 7.949974,-7.372801 6.151249,0 8.032993,5.119452 8.032993,8.677372 0,3.557524 -1.88214,8.673418 -8.032993,8.673418 z m 62.540325,-3.419557 h 8.195078 v 2.983514 c -3.87853,-1.98e-4 -7.756265,-1.98e-4 -11.638352,0 V 42.54854 h 3.442879 V 56.044917 Z M 73.877812,50.112283 c 2.29486,-1.98e-4 4.58972,-1.98e-4 6.886551,0 v 8.88294 c -0.764951,-1.98e-4 -1.529903,-1.98e-4 -2.294855,0 -0.11512,-0.688655 -0.229764,-1.37731 -0.344407,-2.06557 -0.872085,1.010054 -2.134751,2.501613 -5.139219,2.501613 -3.969057,0 -7.574415,-2.845941 -7.574415,-8.629933 0,-4.498792 2.502006,-8.744577 8.056713,-8.720857 5.048293,0 7.04468,3.281588 7.230481,5.554309 h -3.442878 c 0,-0.642798 -1.170558,-2.708368 -3.603382,-2.708368 -2.455759,0 -4.728083,1.698313 -4.728083,5.92196 0,4.498792 2.455363,5.668952 4.795285,5.668952 0.75705,0 3.281592,-0.29843 3.992777,-3.626311 H 73.879711 V 50.113864 Z M 23.987869,44.051959 c -3.580453,0 -5.736157,2.823012 -5.736157,6.700749 0,3.878529 2.157285,6.70075 5.736157,6.70075 3.580454,0 5.736158,-2.823012 5.736158,-6.70075 0,-3.878528 -2.157681,-6.700749 -5.736158,-6.700749 z m 9.266405,4.403914 h 1.672618 c 1.97e-4,0.497319 1.97e-4,0.994241 0,1.491164 h 0.04016 c 0.422998,-0.604451 1.229064,-1.793587 3.143225,-1.793587 2.800478,0 4.795286,2.374319 4.795286,5.33688 0,2.519007 -1.452027,5.807316 -5.040387,5.807316 -1.410518,0 -2.337553,-0.664936 -2.800874,-1.410518 h -0.04036 c 1.97e-4,1.75959 1.97e-4,3.519179 0,5.277582 -0.59101,-1.98e-4 -1.18202,-1.98e-4 -1.77303,0 1.97e-4,-4.902023 1.97e-4,-9.808 0,-14.710023 z m 4.479026,9.309891 c 1.934718,0 3.245614,-1.67578 3.245614,-3.992777 0,-1.350033 -0.545153,-4.024403 -3.285937,-4.024403 -2.558935,0 -2.840802,2.760551 -2.840802,4.471119 0,2.800874 1.752869,3.546061 2.881125,3.546061 z m 15.9039,-2.075453 c -0.06029,0.503643 -0.543571,1.994807 -1.873838,2.881519 -0.48348,0.32219 -1.168577,0.725026 -2.860961,0.725026 -2.962165,0 -4.71622,-2.236746 -4.71622,-5.277582 0,-3.264194 1.571811,-5.862661 5.056197,-5.862661 3.04242,0 4.534372,2.418199 4.534372,6.147295 -2.565654,-1.98e-4 -5.131309,-1.98e-4 -7.696964,0 0,2.196027 1.027446,3.465414 3.062578,3.465414 1.672221,0 2.659744,-1.289153 2.719831,-2.075453 0.591012,-1.98e-4 1.18202,-1.98e-4 1.773029,0 z m -1.878976,-2.800874 c -0.100768,-1.632295 -0.785507,-3.143225 -2.941607,-3.143225 -1.631902,0 -2.921842,1.51093 -2.921842,3.143225 1.954483,-1.98e-4 3.908966,-1.98e-4 5.862658,0 z m 11.8202,6.103809 c -0.591008,-1.98e-4 -1.182017,-1.98e-4 -1.773424,0 v -6.487274 c 0,-1.83391 -0.523803,-2.760551 -2.25651,-2.760551 -1.007682,0 -2.780715,0.644379 -2.780715,3.506133 v 5.744064 c -0.591008,-1.97e-4 -1.182412,-1.97e-4 -1.773425,0 V 48.456269 h 1.67262 v 1.491164 h 0.04002 c 0.38299,-0.564129 1.370195,-1.793587 3.183942,-1.793587 1.632297,0 3.687589,0.66533 3.687589,3.667424 v 7.171186"
     id="path20"
     inkscape:connector-curvature="0"
     style="fill:#bdbcbc;fill-rule:evenodd;stroke-width:0.39532444" />
  <path
     d="m 23.948337,59.422173 c -4.502746,0 -6.716562,-2.742761 -7.582323,-5.609654 0.975265,4.652969 6.242173,9.207107 22.865566,11.235121 15.702284,1.9193 25.937238,-2.892194 29.388417,-5.131311 0,0 2.332415,-1.026262 0.932966,0.559779 0,0 -9.891015,9.143855 -29.29354,9.234779 C 20.852946,69.804263 5.4590126,60.009625 5.5538905,50.118608 5.460673,40.227591 20.852946,30.431451 40.259423,30.526329 c 19.406478,0.09338 29.29354,9.234779 29.29354,9.234779 1.399449,1.586041 -0.932966,0.559779 -0.932966,0.559779 C 65.168423,38.081769 54.977353,33.67153 39.23158,35.189576 23.742768,36.682321 18.690521,41.94567 17.010393,45.487778 c -0.646356,1.364264 -0.9385,2.651045 -1.01124,3.946919 0.418253,-3.382396 2.520588,-7.368848 7.949974,-7.368848 6.151249,0 8.032993,5.119452 8.032993,8.673418 0,3.55713 -1.88214,8.677372 -8.032993,8.677372 z m 62.540325,-3.419556 c 2.731297,-1.47e-4 5.463385,-1.47e-4 8.195078,0 v 2.983513 c -3.87853,-1.97e-4 -7.756269,-1.97e-4 -11.638352,0 V 42.509008 h 3.442879 V 56.005384 Z M 73.83828,50.112283 h 6.886551 v 8.88294 c -0.764951,-1.98e-4 -1.529903,-1.98e-4 -2.294855,0 -0.11512,-0.68905 -0.229764,-1.37731 -0.344407,-2.065966 -0.872089,1.010054 -2.134755,2.502009 -5.139219,2.502009 -3.969057,0 -7.574415,-2.845941 -7.574415,-8.629933 0,-4.498792 2.502006,-8.744577 8.056709,-8.720857 5.048297,0 7.044684,3.281588 7.230485,5.554309 h -3.442878 c 0,-0.642403 -1.170558,-2.707973 -3.603382,-2.707973 -2.455759,0 -4.728083,1.698314 -4.728083,5.92196 0,4.498792 2.455754,5.668953 4.795285,5.668953 0.757441,0 3.281983,-0.298629 3.992777,-3.626311 -1.277687,-1.98e-4 -2.555377,-1.98e-4 -3.832669,0 V 50.114259 Z M 23.948337,44.051959 c -3.580454,0 -5.736158,2.823012 -5.736158,6.700749 0,3.878924 2.157681,6.70075 5.736158,6.70075 3.580453,0 5.736157,-2.823012 5.736157,-6.70075 0,-3.878528 -2.157285,-6.700749 -5.736157,-6.700749 z m 9.266405,4.403914 h 1.672222 c 1.5e-4,0.496923 1.5e-4,0.993846 0,1.490769 h 0.04032 c 0.423393,-0.604451 1.229064,-1.792796 3.143225,-1.792796 2.800479,0 4.795286,2.373528 4.795286,5.336879 0,2.518612 -1.452027,5.807316 -5.040387,5.807316 -1.410518,0 -2.337158,-0.664935 -2.800478,-1.410517 -0.01332,-1.98e-4 -0.02684,-1.98e-4 -0.04032,0 1.46e-4,1.759589 1.46e-4,3.519178 0,5.277581 -0.59101,-1.98e-4 -1.18202,-1.98e-4 -1.77303,0 V 48.455083 Z m 4.479025,9.309891 c 1.934323,0 3.245614,-1.676176 3.245614,-3.992777 0,-1.350033 -0.545152,-4.024403 -3.285937,-4.024403 -2.558935,0 -2.841197,2.760551 -2.841197,4.475073 0,2.800874 1.753264,3.546455 2.88152,3.546455 z m 15.903901,-2.075453 c -0.06029,0.503643 -0.543571,1.994807 -1.873838,2.881519 -0.48348,0.322348 -1.168577,0.725421 -2.860961,0.725421 -2.962165,0 -4.716221,-2.236746 -4.716221,-5.277581 0,-3.264194 1.571812,-5.862662 5.056198,-5.862662 3.042419,0 4.534372,2.417409 4.534372,6.143342 h -7.696964 c 0,2.196422 1.027446,3.465809 3.062974,3.465809 1.671825,0 2.659344,-1.289548 2.71983,-2.075453 h 1.773029 z m -1.878976,-2.800479 c -0.100768,-1.631899 -0.785906,-3.14362 -2.941607,-3.14362 -1.631902,0 -2.921846,1.511326 -2.921846,3.14362 1.954487,-1.98e-4 3.90897,-1.98e-4 5.862662,0 z m 11.8202,6.103809 c -0.591008,-1.97e-4 -1.182021,-1.97e-4 -1.773029,0 v -6.487273 c 0,-1.833515 -0.523803,-2.760551 -2.256909,-2.760551 -1.007682,0 -2.780711,0.644774 -2.780711,3.506133 v 5.744063 c -0.591009,-1.97e-4 -1.182021,-1.97e-4 -1.773029,0 V 48.456664 h 1.67222 v 1.490769 h 0.04002 c 0.38299,-0.564129 1.370195,-1.792797 3.183942,-1.792797 1.631902,0 3.687589,0.66454 3.687589,3.666634 v 7.175139"
     id="path22"
     inkscape:connector-curvature="0"
     style="fill:#b6b5b5;fill-rule:evenodd;stroke-width:0.39532444" />
  <path
     d="m 23.908804,59.382641 c -4.502745,0 -6.716562,-2.742761 -7.582323,-5.609654 0.975266,4.652969 6.242173,9.207106 22.865566,11.235121 15.702285,1.918905 25.937235,-2.892194 29.388418,-5.131311 0,0 2.332415,-1.026263 0.932966,0.559779 0,0 -9.891015,9.143854 -29.293541,9.234779 C 20.813414,69.764809 5.4194802,59.970093 5.5143581,50.079075 5.4211405,40.188058 20.813414,30.391918 40.21989,30.486796 c 19.406479,0.0929 29.293541,9.234779 29.293541,9.234779 1.399449,1.585646 -0.932966,0.55978 -0.932966,0.55978 -3.451579,-2.239513 -13.642644,-6.649357 -29.388418,-5.131312 -15.488811,1.492746 -20.541058,6.756095 -22.221187,10.298202 -0.646355,1.364264 -0.9385,2.651046 -1.01124,3.946919 0.418254,-3.382396 2.520589,-7.368847 7.949975,-7.368847 6.151248,0 8.032993,5.119451 8.032993,8.673418 0,3.557525 -1.88214,8.677371 -8.032993,8.677371 z M 86.44913,55.943318 h 8.195078 v 2.983514 c -3.87853,-1.98e-4 -7.756269,-1.98e-4 -11.638352,0 V 42.449709 h 3.442878 v 13.496377 z m -12.642476,-5.89824 c 2.294859,-1.94e-4 4.589719,-1.94e-4 6.886551,0 v 8.88294 c -0.764952,-1.98e-4 -1.529904,-1.98e-4 -2.294856,0 -0.11512,-0.688656 -0.229763,-1.377311 -0.344406,-2.06557 -0.872085,1.010053 -2.134751,2.501612 -5.13922,2.501612 -3.969056,0 -7.574415,-2.84594 -7.574415,-8.629932 0,-4.498792 2.502007,-8.744576 8.056714,-8.720857 5.048292,0 7.044679,3.281588 7.230481,5.554308 h -3.442878 c 0,-0.642402 -1.170558,-2.707972 -3.603383,-2.707972 -2.455363,0 -4.728083,1.698314 -4.728083,5.92196 0,4.498792 2.455364,5.668953 4.795289,5.668953 0.757442,0 3.281983,-0.298431 3.992774,-3.626312 H 73.808553 V 50.047449 Z M 23.916711,43.984754 c -3.580454,0 -5.736158,2.823012 -5.736158,6.700749 0,3.878924 2.157681,6.700749 5.736158,6.700749 3.580453,0 5.736157,-2.823011 5.736157,-6.700749 0,-3.878528 -2.157285,-6.700749 -5.736157,-6.700749 z m 9.266405,4.403914 h 1.672222 c 1.97e-4,0.496923 1.97e-4,0.993846 0,1.490769 0.01368,-1.98e-4 0.02704,-1.98e-4 0.04032,0 0.423393,-0.604451 1.229064,-1.793192 3.143225,-1.793192 2.800873,0 4.795285,2.373923 4.795285,5.33688 0,2.518612 -1.452026,5.807316 -5.040386,5.807316 -1.410122,0 -2.337158,-0.664936 -2.800478,-1.410518 -0.01329,-1.97e-4 -0.02665,-1.97e-4 -0.04032,0 v 5.277582 c -0.59101,-2.02e-4 -1.18202,-2.02e-4 -1.77303,0 1.98e-4,-4.902023 1.98e-4,-9.808 0,-14.710023 z m 4.479025,9.309891 c 1.933928,0 3.245219,-1.675781 3.245219,-3.992777 0,-1.350033 -0.545548,-4.024403 -3.285937,-4.024403 -2.558935,0 -2.840801,2.760551 -2.840801,4.47112 0,2.801268 1.753263,3.546455 2.881519,3.546455 z m 15.903901,-2.075454 c -0.06029,0.503644 -0.543966,1.994808 -1.873838,2.88152 -0.48348,0.322348 -1.168577,0.725421 -2.860961,0.725421 -2.962165,0 -4.71622,-2.236746 -4.71622,-5.277582 0,-3.264194 1.57181,-5.862661 5.056197,-5.862661 3.042419,0 4.534372,2.417804 4.534372,6.147295 h -7.696964 c 0,2.196423 1.027446,3.465809 3.062578,3.465809 1.672221,0 2.659744,-1.289548 2.71983,-2.075453 0.591408,-1.98e-4 1.182021,-1.98e-4 1.773029,0 z m -1.878977,-2.800478 c -0.100767,-1.632294 -0.785506,-3.14362 -2.941606,-3.14362 -1.631902,0 -2.921843,1.511326 -2.921843,3.14362 1.954483,-1.97e-4 3.908966,-1.97e-4 5.862659,0 z m 11.820201,6.103809 c -0.591009,-1.97e-4 -1.182017,-1.97e-4 -1.77303,0 v -6.487274 c 0,-1.833514 -0.523802,-2.76055 -2.256904,-2.76055 -1.007682,0 -2.780716,0.644774 -2.780716,3.506132 v 5.744064 c -0.591008,-1.97e-4 -1.182016,-1.97e-4 -1.773424,0 V 48.389459 h 1.67262 v 1.490768 c 0.01333,-1.97e-4 0.02669,-1.97e-4 0.04002,0 0.382989,-0.564128 1.370194,-1.793191 3.183941,-1.793191 1.632298,0 3.687589,0.664935 3.687589,3.667424 v 7.171186"
     id="path24"
     inkscape:connector-curvature="0"
     style="fill:#b0aeaf;fill-rule:evenodd;stroke-width:0.39532444" />
  <path
     d="m 23.869272,59.343108 c -4.502746,0 -6.716562,-2.742761 -7.582323,-5.609654 0.97487,4.652969 6.242173,9.207107 22.865566,11.235121 15.702285,1.9193 25.937235,-2.892194 29.388418,-5.131311 0,0 2.332415,-1.026262 0.932966,0.559779 0,0 -9.891019,9.143855 -29.293541,9.234779 C 20.773882,69.725277 5.3799477,59.930561 5.4748256,50.039543 5.3814104,40.148526 20.773882,30.352386 40.180358,30.447264 c 19.406479,0.09338 29.293541,9.234779 29.293541,9.234779 1.399449,1.586041 -0.932966,0.559779 -0.932966,0.559779 -3.451579,-2.239118 -13.642648,-6.649357 -29.388418,-5.131311 -15.488812,1.492349 -20.541058,6.752141 -22.221187,10.298202 -0.646355,1.364264 -0.9385,2.65065 -1.011636,3.946523 0.418254,-3.382396 2.520589,-7.3728 7.949975,-7.3728 6.151248,0 8.032993,5.119451 8.032993,8.677371 0,3.557525 -1.88214,8.673418 -8.032993,8.673418 z m 62.540326,-3.419556 h 8.195077 v 2.983513 H 82.966324 V 42.429943 h 3.442878 V 55.926319 Z M 73.767122,50.025311 c 2.294859,-1.97e-4 4.589719,-1.97e-4 6.886551,0 v 8.882941 h -2.295251 c -0.114647,-0.688656 -0.229291,-1.376915 -0.343934,-2.065571 -0.872085,1.009659 -2.134751,2.501613 -5.139219,2.501613 -3.969057,0 -7.574415,-2.84594 -7.574415,-8.629932 0,-4.498792 2.50201,-8.744577 8.056713,-8.720857 5.048293,0 7.044679,3.281983 7.230485,5.554308 H 77.14517 c 0,-0.642797 -1.170558,-2.708368 -3.603382,-2.708368 -2.455755,0 -4.728079,1.698314 -4.728079,5.92196 0,4.498792 2.455359,5.668953 4.795285,5.668953 0.757441,0 3.281983,-0.298431 3.992777,-3.626311 -1.277691,-1.98e-4 -2.555377,-1.98e-4 -3.832673,0 V 50.026893 Z M 23.877178,43.964988 c -3.580453,0 -5.736157,2.822616 -5.736157,6.700749 0,3.878923 2.157285,6.700749 5.736157,6.700749 3.580454,0 5.736158,-2.822616 5.736158,-6.700749 0,-3.878924 -2.157285,-6.700749 -5.736158,-6.700749 z m 9.266405,4.403914 h 1.672618 v 1.490768 c 0.01348,-1.97e-4 0.02684,-1.97e-4 0.04013,0 0.422997,-0.604451 1.229063,-1.793191 3.143224,-1.793191 2.800478,0 4.795286,2.373923 4.795286,5.33688 0,2.518612 -1.452422,5.807316 -5.040387,5.807316 -1.410122,0 -2.337554,-0.664936 -2.800478,-1.410518 -0.01329,-1.98e-4 -0.02684,-1.98e-4 -0.04032,0 v 5.277581 c -0.59101,-1.97e-4 -1.18202,-1.97e-4 -1.77303,0 1.97e-4,-4.902023 1.97e-4,-9.807999 0,-14.710022 z m 4.479026,9.309891 c 1.934718,0 3.245614,-1.676176 3.245614,-3.992777 0,-1.350033 -0.545153,-4.024403 -3.285542,-4.024403 -2.558935,0 -2.841196,2.76055 -2.841196,4.475072 0,2.800874 1.753263,3.546456 2.88152,3.546456 z M 53.52651,55.603339 c -0.06029,0.503643 -0.543966,1.994807 -1.873838,2.88152 -0.48348,0.322387 -1.168577,0.725421 -2.860961,0.725421 -2.962166,0 -4.716221,-2.236746 -4.716221,-5.277582 0,-3.264194 1.571811,-5.862662 5.056198,-5.862662 3.042419,0 4.534372,2.417805 4.534372,6.147296 -2.56526,-1.98e-4 -5.13131,-1.98e-4 -7.696964,0 0,2.196422 1.027446,3.465809 3.062578,3.465809 1.672221,0 2.659739,-1.289548 2.71983,-2.075453 h 1.773029 z m -1.879372,-2.800478 c -0.100568,-1.6319 -0.78551,-3.143225 -2.941211,-3.143225 -1.631902,0 -2.921847,1.511325 -2.921847,3.143225 h 5.862663 z m 11.859732,6.087996 h -1.773424 v -6.487274 c 0,-1.83391 -0.523803,-2.76055 -2.256509,-2.76055 -1.007683,0 -2.780716,0.644774 -2.780716,3.506132 v 5.744064 H 54.922797 V 48.35388 h 1.67262 v 1.490768 c 0.01332,-1.98e-4 0.02669,-1.98e-4 0.04002,0 0.382989,-0.564128 1.370985,-1.793192 3.183941,-1.793192 1.632298,0 3.687589,0.664936 3.687589,3.66703 v 7.171185"
     id="path26"
     inkscape:connector-curvature="0"
     style="fill:#a9a8a8;fill-rule:evenodd;stroke-width:0.39532444" />
  <path
     d="m 23.829739,59.264044 c -4.502745,0 -6.716562,-2.743157 -7.582323,-5.609655 0.974871,4.652969 6.242174,9.207107 22.865566,11.235121 15.702286,1.918905 25.937236,-2.892193 29.388419,-5.131311 0,0 2.33202,-1.026262 0.932571,0.559779 0,0 -9.89102,9.143855 -29.293542,9.234779 C 20.733954,69.646133 5.34002,59.851496 5.4348978,49.960478 5.3416803,40.069461 20.733954,30.273321 40.14043,30.368199 c 19.406475,0.09338 29.293542,9.234779 29.293542,9.234779 1.399449,1.586041 -0.932571,0.559779 -0.932571,0.559779 C 65.049427,37.92364 54.858753,33.5134 39.112982,35.031446 23.624171,36.524191 18.571924,41.787541 16.891795,45.333601 c -0.646355,1.364265 -0.9385,2.65065 -1.011635,3.946524 0.418649,-3.382792 2.520984,-7.372801 7.949975,-7.372801 6.151248,0 8.032992,5.119452 8.032992,8.673418 0,3.557525 -1.88214,8.677372 -8.032992,8.677372 z m 62.540327,-3.419557 h 8.195073 v 2.983514 c -3.878525,-1.98e-4 -7.756264,-1.98e-4 -11.638351,0 V 42.350878 H 86.36967 V 55.847254 Z M 73.72759,49.946246 h 6.886551 v 8.882941 c -0.764952,-1.98e-4 -1.529904,-1.98e-4 -2.294856,0 -0.114647,-0.688655 -0.229763,-1.377311 -0.344406,-2.065571 -0.872089,1.010054 -2.13436,2.501614 -5.13922,2.501614 -3.969056,0 -7.574415,-2.845941 -7.574415,-8.629933 0,-4.498792 2.501611,-8.744577 8.05671,-8.720857 5.048292,0 7.044683,3.281588 7.230485,5.554308 h -3.442882 c 0,-0.642797 -1.170554,-2.708367 -3.603383,-2.708367 -2.455359,0 -4.728079,1.698313 -4.728079,5.92196 0,4.498792 2.455359,5.668952 4.795285,5.668952 0.757442,0 3.281983,-0.29843 3.992778,-3.626311 H 73.729489 V 49.948223 Z M 23.837646,43.885923 c -3.580454,0 -5.736158,2.823012 -5.736158,6.700749 0,3.878924 2.157681,6.700749 5.736158,6.700749 3.580453,0 5.736157,-2.823012 5.736157,-6.700749 0,-3.878528 -2.157285,-6.700749 -5.736157,-6.700749 z m 9.266405,4.403914 h 1.672618 c 2.01e-4,0.497318 2.01e-4,0.994241 0,1.491164 h 0.04013 c 0.423392,-0.604451 1.229063,-1.793192 3.143619,-1.793192 2.800479,0 4.795286,2.373528 4.795286,5.33688 0,2.518612 -1.452027,5.807316 -5.040387,5.807316 -1.410517,0 -2.337553,-0.664936 -2.800478,-1.410518 -0.01328,-1.97e-4 -0.02684,-1.97e-4 -0.04032,0 v 5.277582 c -0.59101,-1.98e-4 -1.18202,-1.98e-4 -1.773425,0 2.01e-4,-4.902023 2.01e-4,-9.808 0,-14.710023 z m 4.479025,9.309891 c 1.934323,0 3.245614,-1.675781 3.245614,-3.992777 0,-1.350033 -0.545152,-4.028356 -3.285937,-4.028356 -2.558935,0 -2.841196,2.76055 -2.841196,4.475072 0,2.801269 1.752868,3.546456 2.881519,3.546456 z m 15.903902,-2.075454 c -0.0608,0.503644 -0.543966,1.994807 -1.873838,2.88152 -0.48348,0.322348 -1.168577,0.725421 -2.860961,0.725421 -2.96177,0 -4.716221,-2.236746 -4.716221,-5.277582 0,-3.264194 1.571811,-5.862661 5.056198,-5.862661 3.042419,0 4.534372,2.417804 4.534372,6.143342 h -7.696965 c 0,2.196422 1.027447,3.465809 3.062579,3.465809 1.672221,0 2.659344,-1.289548 2.71983,-2.075453 0.591008,-1.47e-4 1.182021,-1.47e-4 1.773425,0 z m -1.879372,-2.800478 c -0.100568,-1.632295 -0.785511,-3.14362 -2.941215,-3.14362 -1.632294,0 -2.921843,1.511325 -2.921843,3.14362 1.954487,-1.98e-4 3.90897,-1.98e-4 5.862663,0 z m 11.8202,6.103809 c -0.591008,-1.97e-4 -1.182021,-1.97e-4 -1.773029,0 v -6.487274 c 0,-1.833514 -0.523807,-2.760551 -2.256909,-2.760551 -1.007682,0 -2.780711,0.644775 -2.780711,3.506133 v 5.744064 c -0.591008,-1.97e-4 -1.182021,-1.97e-4 -1.773424,0 V 48.290628 h 1.672615 v 1.491164 h 0.04002 c 0.38299,-0.564128 1.370985,-1.793192 3.183942,-1.793192 1.632297,0 3.687589,0.664935 3.687589,3.667029 v 7.175139"
     id="path28"
     inkscape:connector-curvature="0"
     style="fill:#a3a1a1;fill-rule:evenodd;stroke-width:0.39532444" />
  <path
     d="m 23.790207,59.224511 c -4.502746,0 -6.716562,-2.742761 -7.582323,-5.609654 0.97487,4.652969 6.242173,9.207106 22.865566,11.235121 15.702286,1.918905 25.937236,-2.892194 29.388419,-5.131311 0,0 2.33202,-1.026263 0.932571,0.559779 0,0 -9.89102,9.143854 -29.293542,9.234779 C 20.694421,69.606679 5.3004875,59.811963 5.3953654,49.920946 5.3021479,40.029928 20.694421,30.233789 40.100898,30.328666 c 19.406475,0.09338 29.293542,9.234779 29.293542,9.234779 1.399449,1.586042 -0.932571,0.55978 -0.932571,0.55978 -3.451974,-2.239118 -13.642648,-6.649357 -29.388419,-5.131312 -15.488812,1.492746 -20.541058,6.756095 -22.221187,10.298202 -0.646355,1.364265 -0.9385,2.650651 -1.011635,3.946919 0.418253,-3.382396 2.520588,-7.368847 7.949974,-7.368847 6.151249,0 8.032993,5.119451 8.032993,8.673418 0,3.557129 -1.88214,8.673418 -8.032993,8.673418 z m 62.540327,-3.419557 h 8.195073 v 2.983514 H 82.891209 V 42.311346 h 3.442487 v 13.496376 z m -12.642476,-5.89824 h 6.886551 v 8.88294 h -2.29486 c -0.115116,-0.688655 -0.229759,-1.376915 -0.344403,-2.06557 -0.872088,1.009659 -2.134755,2.501613 -5.139219,2.501613 -3.969056,0 -7.574415,-2.845941 -7.574415,-8.629933 0,-4.498792 2.502007,-8.744576 8.05671,-8.720857 5.048292,0 7.044683,3.281589 7.230485,5.554309 h -3.442883 c 0,-0.642403 -1.170553,-2.707973 -3.602986,-2.707973 -2.455755,0 -4.72808,1.698314 -4.72808,5.921961 0,4.498791 2.455755,5.668952 4.795285,5.668952 0.757442,0 3.281588,-0.298431 3.992778,-3.626311 -1.277292,-1.98e-4 -2.555378,-1.98e-4 -3.832669,0 V 49.908691 Z M 23.798113,43.818717 c -3.580453,0 -5.736157,2.823012 -5.736157,6.70075 0,3.878923 2.157285,6.700749 5.736157,6.700749 3.580454,0 5.736158,-2.822616 5.736158,-6.700749 0,-3.878528 -2.157285,-6.70075 -5.736158,-6.70075 z m 9.266405,4.403915 h 1.672222 c 1.98e-4,0.496923 1.98e-4,0.994241 0,1.490769 h 0.04016 c 0.423392,-0.604452 1.229064,-1.792797 3.143225,-1.792797 2.800873,0 4.795285,2.373528 4.795285,5.33688 0,2.518612 -1.452027,5.807316 -5.040387,5.807316 -1.410517,0 -2.337158,-0.664936 -2.800478,-1.410518 -0.01352,-1.46e-4 -0.02684,-1.46e-4 -0.04056,0 1.98e-4,1.759589 1.98e-4,3.519179 0,5.277582 -0.59101,-1.98e-4 -1.18202,-1.98e-4 -1.77303,0 V 48.221841 Z m 4.479026,9.30989 c 1.934322,0 3.245614,-1.676175 3.245614,-3.992776 0,-1.350033 -0.545153,-4.024403 -3.285542,-4.024403 -2.558935,0 -2.841196,2.760155 -2.841196,4.471119 0,2.800874 1.752868,3.546456 2.881124,3.546456 z m 15.903902,-2.075453 c -0.06029,0.503644 -0.543966,1.994807 -1.873443,2.88152 -0.48348,0.322347 -1.168577,0.72542 -2.860961,0.72542 -2.96177,0 -4.716222,-2.236745 -4.716222,-5.277581 0,-3.264194 1.571812,-5.862661 5.056199,-5.862661 3.042419,0 4.534372,2.417409 4.534372,6.143341 -2.56526,-1.46e-4 -5.13131,-1.46e-4 -7.696968,0 0,2.196423 1.027845,3.46581 3.062973,3.46581 1.672225,0 2.659349,-1.289549 2.719835,-2.075454 h 1.773029 z m -1.878977,-2.800478 c -0.100572,-1.631899 -0.78551,-3.143225 -2.94161,-3.143225 -1.631898,0 -2.921843,1.511326 -2.921843,3.143225 h 5.862663 z M 63.38867,58.7604 h -1.77303 v -6.487274 c 0,-1.83391 -0.523806,-2.760155 -2.256908,-2.760155 -1.007682,0 -2.780712,0.644774 -2.780712,3.505737 v 5.744064 H 54.804991 V 48.223423 h 1.672221 v 1.490768 h 0.04002 c 0.382989,-0.564128 1.370985,-1.792796 3.183941,-1.792796 1.632294,0 3.687589,0.66454 3.687589,3.666634 v 7.171185"
     id="path30"
     inkscape:connector-curvature="0"
     style="fill:#9c9a9b;fill-rule:evenodd;stroke-width:0.39532444" />
  <path
     d="m 23.750674,59.184979 c -4.502745,0 -6.716562,-2.742761 -7.582322,-5.609654 0.97487,4.652968 6.242173,9.207106 22.861612,11.23512 15.702287,1.918905 25.937237,-2.892193 29.38842,-5.131311 0,0 2.332411,-1.026262 0.932966,0.55978 0,0 -9.891019,9.143854 -29.293543,9.234778 C 20.651331,69.567147 5.2573972,59.772431 5.352275,49.881413 5.2590575,39.990396 20.651331,30.194256 40.057807,30.289134 c 19.406477,0.0929 29.293543,9.234779 29.293543,9.234779 1.399445,1.586042 -0.932966,0.559779 -0.932966,0.559779 -3.451578,-2.239513 -13.642648,-6.649357 -29.38842,-5.131311 -15.488811,1.492745 -20.541058,6.756095 -22.221187,10.298202 -0.64596,1.364265 -0.938105,2.651046 -1.011635,3.946919 0.418649,-3.382396 2.520589,-7.372801 7.949975,-7.372801 6.151248,0 8.032992,5.119452 8.032992,8.673418 0,3.55713 -1.88214,8.677372 -8.032992,8.677372 z m 62.540328,-3.419557 c 2.731297,-1.98e-4 5.463381,-1.98e-4 8.195073,0 v 2.983514 c -3.878525,-1.98e-4 -7.756264,-1.98e-4 -11.634398,0 V 42.271813 h 3.442487 V 55.768189 Z M 73.64062,49.91462 c 2.294856,-1.97e-4 4.589715,-1.97e-4 6.886551,0 v 8.882941 c -0.764952,-1.98e-4 -1.529908,-1.98e-4 -2.294859,0 -0.114644,-0.688655 -0.229764,-1.377311 -0.344407,-2.06557 -0.872085,1.009658 -2.134356,2.501612 -5.139215,2.501612 -3.969061,0 -7.57442,-2.84594 -7.57442,-8.629932 0,-4.498792 2.501616,-8.744577 8.056714,-8.720857 5.048292,0 7.044679,3.281588 7.230485,5.554308 h -3.442882 c 0,-0.642402 -1.170554,-2.707972 -3.603382,-2.707972 -2.45536,0 -4.72808,1.698313 -4.72808,5.92196 0,4.498792 2.45536,5.668952 4.795285,5.668952 0.758232,0 3.282774,-0.29843 3.992778,-3.626311 H 73.642515 V 49.916992 Z M 23.750674,43.826624 c -3.580453,0 -5.736157,2.823012 -5.736157,6.70075 0,3.878923 2.157285,6.700748 5.736157,6.700748 3.580454,0 5.736158,-2.823011 5.736158,-6.700748 0,-3.878529 -2.157286,-6.70075 -5.736158,-6.70075 z m 9.266405,4.403914 h 1.672223 v 1.491164 c 0.01352,-1.97e-4 0.02704,-1.97e-4 0.04036,0 0.422997,-0.604451 1.229064,-1.793192 3.143225,-1.793192 2.800873,0 4.795285,2.373924 4.795285,5.33688 0,2.518613 -1.452026,5.807316 -5.040386,5.807316 -1.410518,0 -2.337159,-0.664935 -2.800874,-1.410517 -0.01336,-1.98e-4 -0.02665,-1.98e-4 -0.04036,0 1.98e-4,1.759589 1.98e-4,3.519178 0,5.277581 h -1.77303 c 1.98e-4,-4.902023 1.98e-4,-9.807999 0,-14.710022 z m 4.479026,9.309891 c 1.934323,0 3.245614,-1.676176 3.245614,-3.992777 0,-1.350033 -0.545152,-4.024403 -3.285937,-4.024403 -2.558935,0 -2.840801,2.760156 -2.840801,4.47112 0,2.801269 1.752868,3.546455 2.881124,3.546455 z m 15.903903,-2.075453 c -0.0608,0.503643 -0.544361,1.994807 -1.873838,2.881124 -0.483484,0.322189 -1.168581,0.72542 -2.860965,0.72542 -2.96177,0 -4.716219,-2.236745 -4.716219,-5.277581 0,-3.264194 1.571809,-5.862661 5.0562,-5.862661 3.042415,0 4.534372,2.417804 4.534372,6.147295 H 45.84259 c 0,2.196422 1.027845,3.465809 3.062973,3.465809 1.672225,0 2.659349,-1.289548 2.719835,-2.075453 0.591008,-1.98e-4 1.182412,-1.98e-4 1.773424,0 z m -1.879372,-2.800874 c -0.100768,-1.631899 -0.78551,-3.143225 -2.941215,-3.143225 -1.632293,0 -2.921843,1.510931 -2.921843,3.143225 h 5.862663 z m 11.820201,6.103809 c -0.591013,-1.97e-4 -1.182021,-1.97e-4 -1.77303,0 v -6.487274 c 0,-1.833515 -0.523806,-2.760155 -2.256908,-2.760155 -1.007682,0 -2.780712,0.644379 -2.780712,3.505737 v 5.744064 c -0.591012,-1.98e-4 -1.182021,-1.98e-4 -1.773029,0 V 48.230934 h 1.672221 v 1.491163 c 0.01332,-1.97e-4 0.02718,-1.97e-4 0.04051,0 0.382989,-0.564128 1.370194,-1.793191 3.183151,-1.793191 1.632293,0 3.687585,0.664936 3.687585,3.667029 v 7.175139"
     id="path32"
     inkscape:connector-curvature="0"
     style="fill:#989696;fill-rule:evenodd;stroke-width:0.39532444" />
  <path
     d="m 23.711142,59.145446 c -4.502745,0 -6.716562,-2.742761 -7.582323,-5.609653 0.97487,4.652968 6.242173,9.207105 22.865566,11.23512 15.702287,1.918905 25.937237,-2.892194 29.38842,-5.131311 0,0 2.332411,-1.026263 0.932966,0.559779 0,0 -9.89102,9.143854 -29.293542,9.234779 C 20.615752,69.527615 5.221818,59.732898 5.3166958,49.841881 5.2232807,39.954817 20.615752,30.158677 40.022229,30.249602 c 19.406475,0.09389 29.293542,9.234778 29.293542,9.234778 1.399445,1.586042 -0.932966,0.55978 -0.932966,0.55978 -3.451579,-2.239118 -13.642648,-6.649357 -29.38842,-5.131312 -15.488812,1.492746 -20.541058,6.756095 -22.221187,10.302156 -0.646355,1.364264 -0.9385,2.65065 -1.011635,3.946919 0.418649,-3.382396 2.520984,-7.372801 7.949974,-7.372801 6.151249,0 8.032993,5.119451 8.032993,8.677372 0,3.557524 -1.88214,8.677371 -8.032993,8.677371 z m 62.500795,-3.39979 c 2.731294,-1.98e-4 5.463382,-1.98e-4 8.195074,0 v 2.983513 c -3.878529,-1.97e-4 -7.756264,-1.97e-4 -11.638351,0 V 42.248093 h 3.442882 V 55.74447 Z M 73.569462,49.847415 h 6.886551 v 8.88294 c -0.764952,-1.97e-4 -1.529908,-1.97e-4 -2.29486,0 -0.114643,-0.688655 -0.229763,-1.37731 -0.344407,-2.06557 -0.872085,1.009659 -2.134355,2.501613 -5.139215,2.501613 -3.969061,0 -7.574419,-2.84594 -7.574419,-8.629932 0,-4.498792 2.501615,-8.744577 8.056713,-8.720857 5.048293,0 7.04468,3.281983 7.230486,5.554308 h -3.442883 c 0,-0.642797 -1.170553,-2.708368 -3.603382,-2.708368 -2.455359,0 -4.728079,1.698314 -4.728079,5.92196 0,4.498793 2.455359,5.668953 4.795285,5.668953 0.757441,0 3.281983,-0.29843 3.992777,-3.626311 -1.277295,-1.98e-4 -2.555377,-1.98e-4 -3.832673,0 V 49.848997 Z M 23.679516,43.787092 c -3.580454,0 -5.736158,2.822616 -5.736158,6.700749 0,3.878923 2.157681,6.700749 5.736158,6.700749 3.580453,0 5.736157,-2.823012 5.736157,-6.700749 0,-3.878923 -2.157285,-6.700749 -5.736157,-6.700749 z m 9.266405,4.403914 h 1.672618 c 2.01e-4,0.496527 2.01e-4,0.993846 0,1.490768 h 0.04016 c 0.423393,-0.604451 1.229064,-1.793191 3.14362,-1.793191 2.800479,0 4.795286,2.373923 4.795286,5.336879 0,2.518612 -1.452027,5.807317 -5.040387,5.807317 -1.410517,0 -2.337553,-0.664936 -2.800478,-1.410123 -0.01332,-1.97e-4 -0.02684,-1.97e-4 -0.04036,0 v 5.277582 c -0.59101,-2.02e-4 -1.18202,-2.02e-4 -1.773425,0 1.98e-4,-4.902023 1.98e-4,-9.808 0,-14.710023 z m 4.479026,9.30989 c 1.934322,0 3.245613,-1.676175 3.245613,-3.992776 0,-1.350033 -0.545152,-4.024403 -3.285936,-4.024403 -2.558935,0 -2.841197,2.760155 -2.841197,4.475073 0,2.800478 1.753264,3.54606 2.88152,3.54606 z m 15.903902,-2.075453 c -0.0608,0.503644 -0.544361,1.994807 -1.873837,2.88152 -0.483484,0.322387 -1.168582,0.725025 -2.860966,0.725025 -2.96177,0 -4.716218,-2.23635 -4.716218,-5.277581 0,-3.264194 1.571809,-5.862662 5.0562,-5.862662 3.042415,0 4.534371,2.417805 4.534371,6.147295 -2.565259,-1.97e-4 -5.131313,-1.97e-4 -7.696968,0 0,2.196423 1.027846,3.46581 3.062579,3.46581 1.672224,0 2.659743,-1.289549 2.719834,-2.075454 h 1.773424 z M 51.449478,52.624965 C 51.34871,50.993066 50.663967,49.48174 48.507867,49.48174 c -1.631898,0 -2.921447,1.51093 -2.921447,3.143225 1.954483,-1.98e-4 3.908966,-1.98e-4 5.862662,0 z m 11.8202,6.103809 c -0.591012,-1.97e-4 -1.182021,-1.97e-4 -1.773029,0 V 52.2415 c 0,-1.83391 -0.523807,-2.760155 -2.256909,-2.760155 -1.007682,0 -2.780711,0.644379 -2.780711,3.505737 v 5.744064 c -0.591013,-1.97e-4 -1.182021,-1.97e-4 -1.773029,0 v -10.53935 h 1.67222 v 1.490769 h 0.04051 c 0.38299,-0.564128 1.370195,-1.793192 3.183151,-1.793192 1.632294,0 3.687585,0.664936 3.687585,3.66703 v 7.175139"
     id="path34"
     inkscape:connector-curvature="0"
     style="fill:#918f90;fill-rule:evenodd;stroke-width:0.39532444" />
  <path
     d="m 23.67161,59.105914 c -4.502746,0 -6.716563,-2.742761 -7.582323,-5.609654 0.97487,4.652969 6.242173,9.207106 22.865565,11.23512 15.702288,1.918905 25.937237,-2.892193 29.388421,-5.131311 0,0 2.332016,-1.026262 0.932571,0.55978 0,0 -9.89102,9.143854 -29.293544,9.234778 C 20.575824,69.488003 5.1818902,59.693366 5.276768,49.802348 5.1835506,39.911331 20.575824,30.115191 39.9823,30.210069 c 19.406477,0.09338 29.293544,9.234779 29.293544,9.234779 1.399445,1.586042 -0.932571,0.55978 -0.932571,0.55978 C 64.891299,37.76551 54.700625,33.35527 38.954852,34.873316 23.466041,36.366061 18.413795,41.629411 16.733666,45.175471 c -0.646356,1.36387 -0.9385,2.650651 -1.01124,3.946524 0.418253,-3.382396 2.520588,-7.372801 7.949974,-7.372801 6.151249,0 8.032993,5.119452 8.032993,8.673418 0,3.55713 -1.88214,8.677372 -8.032993,8.677372 z m 62.540327,-3.419557 c 2.731294,-1.46e-4 5.463382,-1.46e-4 8.195074,0 v 2.983514 c -3.878529,-1.98e-4 -7.756264,-1.98e-4 -11.634398,0 V 42.192748 H 86.2151 v 13.496376 z m -12.642475,-5.89824 h 6.886551 v 8.88294 c -0.764952,-1.98e-4 -1.529908,-1.98e-4 -2.29486,0 -0.115116,-0.688655 -0.229763,-1.37731 -0.344407,-2.06557 -0.872085,1.010054 -2.134751,2.501613 -5.139215,2.501613 -3.969061,0 -7.574419,-2.845941 -7.574419,-8.629933 0,-4.498792 2.501615,-8.744577 8.056713,-8.720857 5.048293,0 7.04468,3.281588 7.230486,5.554309 h -3.442883 c 0,-0.642403 -1.170553,-2.707973 -3.602987,-2.707973 -2.456545,0 -4.728079,1.698314 -4.728079,5.92196 0,4.498792 2.45536,5.668952 4.795285,5.668952 0.757442,0 3.281588,-0.29843 3.992778,-3.62631 H 73.571752 V 49.790489 Z M 23.679516,43.739653 c -3.580454,0 -5.736158,2.823012 -5.736158,6.700749 0,3.878923 2.157286,6.700749 5.736158,6.700749 3.580453,0 5.736157,-2.823011 5.736157,-6.700749 0,-3.878528 -2.15768,-6.700749 -5.736157,-6.700749 z m 9.266405,4.403914 h 1.672223 c 1.45e-4,0.497318 1.45e-4,0.994241 0,1.491164 h 0.04013 c 0.423392,-0.604451 1.229063,-1.793192 3.143224,-1.793192 2.800874,0 4.795285,2.373528 4.795285,5.33688 0,2.518612 -1.452026,5.807316 -5.040386,5.807316 -1.410518,0 -2.337554,-0.664936 -2.800874,-1.410517 -0.01348,-1.98e-4 -0.02704,-1.98e-4 -0.04052,0 1.94e-4,1.759588 1.94e-4,3.519178 0,5.277581 h -1.77303 V 48.142776 Z m 4.479026,9.309891 c 1.934322,0 3.245218,-1.675781 3.245218,-3.992777 0,-1.350033 -0.545548,-4.024403 -3.285937,-4.024403 -2.558935,0 -2.840801,2.760155 -2.840801,4.471119 0,2.800874 1.753264,3.546456 2.88152,3.546456 z m 15.903902,-2.075454 c -0.06029,0.503644 -0.543966,1.994808 -1.873442,2.88152 -0.483484,0.32215 -1.168581,0.72542 -2.860965,0.72542 -2.96177,0 -4.716219,-2.236745 -4.716219,-5.277581 0,-3.264194 1.571809,-5.862661 5.0562,-5.862661 3.042415,0 4.534372,2.417804 4.534372,6.143341 h -7.696969 c 0,2.196423 1.027451,3.465415 3.062974,3.465415 1.672225,0 2.659348,-1.289549 2.719834,-2.075454 0.591009,-1.97e-4 1.182412,-1.97e-4 1.77303,0 z m -1.878976,-2.800478 c -0.100572,-1.632295 -0.78551,-3.143225 -2.941611,-3.143225 -1.631898,0 -2.921842,1.51093 -2.921842,3.143225 1.954483,-1.5e-4 3.909365,-1.5e-4 5.862662,0 z m 11.8202,6.103809 c -0.591012,-1.97e-4 -1.18202,-1.97e-4 -1.773029,0 v -6.487274 c 0,-1.833515 -0.523807,-2.760155 -2.256909,-2.760155 -1.007682,0 -2.780711,0.644379 -2.780711,3.505737 v 5.744064 c -0.591012,-1.98e-4 -1.182021,-1.98e-4 -1.773029,0 V 48.144358 h 1.672221 v 1.491163 h 0.04051 c 0.382989,-0.564128 1.370194,-1.793191 3.18315,-1.793191 1.632294,0 3.687585,0.664936 3.687585,3.666634 v 7.175139"
     id="path36"
     inkscape:connector-curvature="0"
     style="fill:#8b8889;fill-rule:evenodd;stroke-width:0.39532444" />
  <path
     d="m 23.632077,59.066381 c -4.502745,0 -6.716562,-2.742761 -7.582323,-5.609653 0.975266,4.652968 6.242173,9.207106 22.865566,11.23512 15.702288,1.918905 25.937237,-2.892194 29.388421,-5.131311 0,0 2.332411,-1.026262 0.932962,0.559779 0,0 -9.891016,9.143854 -29.293539,9.234779 C 20.536687,69.44855 5.1427531,59.653833 5.2376309,49.762816 5.1444134,39.871798 20.536687,30.075659 39.943164,30.170537 c 19.406476,0.09337 29.293539,9.234778 29.293539,9.234778 1.399449,1.586042 -0.932962,0.55978 -0.932962,0.55978 -3.451579,-2.239118 -13.642648,-6.649357 -29.388421,-5.131311 -15.488812,1.492745 -20.541058,6.756095 -22.221187,10.302155 -0.64596,1.363869 -0.9385,2.65065 -1.011635,3.946523 0.418649,-3.382395 2.520589,-7.3728 7.949974,-7.3728 6.151249,0 8.032993,5.119451 8.032993,8.673418 0,3.557525 -1.882139,8.673418 -8.032993,8.673418 z m 62.540328,-3.419556 c 2.731294,-1.98e-4 5.463382,-1.98e-4 8.195074,0 v 2.983514 H 82.733081 V 42.153216 h 3.442487 V 55.649592 Z M 73.529929,49.748584 h 6.886552 v 8.88294 h -2.29486 c -0.114643,-0.688655 -0.229763,-1.376915 -0.344407,-2.06557 -0.872085,1.009659 -2.134751,2.501613 -5.139219,2.501613 -3.969057,0 -7.574415,-2.84594 -7.574415,-8.629932 0,-4.498792 2.501615,-8.744577 8.056713,-8.720857 5.048293,0 7.04468,3.281588 7.230486,5.554308 h -3.442883 c 0,-0.642798 -1.170557,-2.708368 -3.603382,-2.708368 -2.455359,0 -4.728079,1.698314 -4.728079,5.92196 0,4.498792 2.455755,5.668953 4.795285,5.668953 0.758232,0 3.282773,-0.298431 3.992777,-3.626311 H 73.531824 V 49.750166 Z M 23.639983,43.68826 c -3.580453,0 -5.736157,2.823012 -5.736157,6.70075 0,3.878528 2.157285,6.700749 5.736157,6.700749 3.580454,0 5.736158,-2.823012 5.736158,-6.700749 0,-3.878528 -2.157285,-6.70075 -5.736158,-6.70075 z m 9.266405,4.403915 h 1.672223 c 1.98e-4,0.496922 1.98e-4,0.994241 0,1.491163 h 0.04032 c 0.423392,-0.60445 1.229063,-1.792796 3.143224,-1.792796 2.800874,0 4.795286,2.373528 4.795286,5.33688 0,2.519007 -1.452027,5.807316 -5.040387,5.807316 -1.410517,0 -2.337554,-0.664935 -2.800874,-1.410122 -0.01328,-1.98e-4 -0.02665,-1.98e-4 -0.04032,0 1.98e-4,1.759589 1.98e-4,3.519178 0,5.277581 -0.591011,-1.97e-4 -1.182021,-1.97e-4 -1.773031,0 V 48.092175 Z m 4.479027,9.30989 c 1.933926,0 3.245613,-1.676175 3.245613,-3.992777 0,-1.350032 -0.545548,-4.024402 -3.285937,-4.024402 -2.558935,0 -2.840801,2.760155 -2.840801,4.471119 0,2.800874 1.752868,3.546456 2.88152,3.546456 z m 15.903902,-2.075453 c -0.06029,0.503643 -0.54357,1.994807 -1.873837,2.88152 -0.483485,0.322387 -1.168582,0.725025 -2.860966,0.725025 -2.962165,0 -4.716219,-2.23635 -4.716219,-5.277581 0,-3.264194 1.57181,-5.862662 5.056201,-5.862662 3.042415,0 4.534371,2.417805 4.534371,6.143342 -2.565263,-1.98e-4 -5.131313,-1.98e-4 -7.696968,0 0,2.196422 1.027846,3.465809 3.062974,3.465809 1.672221,0 2.659348,-1.289548 2.719834,-2.075453 0.591008,-1.97e-4 1.182412,-1.97e-4 1.773029,0 z m -1.878976,-2.800478 c -0.100768,-1.6319 -0.78551,-3.143225 -2.941215,-3.143225 -1.632294,0 -2.921843,1.51093 -2.921843,3.143225 1.954483,-1.94e-4 3.908966,-1.94e-4 5.862663,0 z m 11.859732,6.087996 h -1.773029 v -6.487274 c 0,-1.83391 -0.523807,-2.760155 -2.256909,-2.760155 -1.007682,0 -2.780711,0.644379 -2.780711,3.505737 v 5.744064 h -1.773029 v -10.53935 h 1.672221 v 1.491164 h 0.04051 c 0.382989,-0.563732 1.370194,-1.792796 3.18315,-1.792796 1.632294,0 3.687585,0.66454 3.687585,3.66703 v 7.171185"
     id="path38"
     inkscape:connector-curvature="0"
     style="fill:#848182;fill-rule:evenodd;stroke-width:0.39532444" />
  <path
     d="m 23.592545,59.026849 c -4.502746,0 -6.716562,-2.742761 -7.582323,-5.609654 0.97487,4.652969 6.242173,9.207106 22.865565,11.235121 15.702289,1.9193 25.937238,-2.892194 29.388418,-5.131312 0,0 2.332415,-1.026262 0.932966,0.55978 0,0 -9.891016,9.143854 -29.29354,9.234779 C 20.497154,69.409017 5.1032206,59.614301 5.1980985,49.723283 5.1046833,39.832266 20.497154,30.036126 39.903631,30.131004 c 19.406477,0.09338 29.29354,9.234779 29.29354,9.234779 1.399449,1.586042 -0.932966,0.55978 -0.932966,0.55978 C 64.81263,37.68605 54.621561,33.276205 38.875787,34.794251 23.386976,36.286601 18.33473,41.546393 16.654601,45.092453 c -0.646356,1.364265 -0.9385,2.651046 -1.011635,3.946919 0.418648,-3.382396 2.520588,-7.372801 7.949974,-7.372801 6.151248,0 8.032993,5.119452 8.032993,8.677372 0,3.557524 -1.88214,8.677371 -8.032993,8.677371 z m 62.540324,-3.419556 c 2.731298,-1.98e-4 5.463385,-1.98e-4 8.195078,0 v 2.983513 c -3.878529,-1.98e-4 -7.756264,-1.98e-4 -11.638351,0 V 42.113683 h 3.442878 V 55.61006 Z M 73.490397,49.709052 h 6.886552 v 8.88294 c -0.764956,-1.98e-4 -1.529908,-1.98e-4 -2.29486,0 -0.114643,-0.688655 -0.229764,-1.37731 -0.344407,-2.06557 -0.872085,1.009658 -2.134356,2.501613 -5.139219,2.501613 -3.969057,0 -7.574415,-2.845941 -7.574415,-8.629933 0,-4.498792 2.501615,-8.744577 8.056713,-8.720857 5.048293,0 7.04468,3.281984 7.230481,5.554309 h -3.442878 c 0,-0.642403 -1.170558,-2.707973 -3.603382,-2.707973 -2.455359,0 -4.728079,1.698314 -4.728079,5.92196 0,4.498793 2.455359,5.668953 4.795285,5.668953 0.757441,0 3.281983,-0.29847 3.992777,-3.626311 -1.277295,-1.98e-4 -2.555377,-1.98e-4 -3.832673,0 V 49.711424 Z M 23.600451,43.648728 c -3.580453,0 -5.736158,2.823012 -5.736158,6.700749 0,3.878924 2.157681,6.70075 5.736158,6.70075 3.580454,0 5.736158,-2.823012 5.736158,-6.70075 0,-3.878528 -2.157286,-6.700749 -5.736158,-6.700749 z m 9.266405,4.403915 h 1.672618 v 1.491163 h 0.04013 c 0.423392,-0.604451 1.229064,-1.793587 3.14362,-1.793587 2.800478,0 4.795285,2.373924 4.795285,5.33688 0,2.518612 -1.452027,5.807316 -5.040387,5.807316 -1.410122,0 -2.337157,-0.664936 -2.800478,-1.410518 -0.01328,-1.97e-4 -0.02664,-1.97e-4 -0.04032,0 1.97e-4,1.75959 1.97e-4,3.519179 0,5.277582 -0.59101,-1.98e-4 -1.18202,-1.98e-4 -1.77303,0 1.97e-4,-4.902023 1.97e-4,-9.808 0,-14.710023 z m 4.479026,9.30989 c 1.934323,0 3.245614,-1.676176 3.245614,-3.992777 0,-1.349637 -0.545153,-4.024403 -3.285937,-4.024403 -2.558935,0 -2.841197,2.760156 -2.841197,4.47112 0,2.800873 1.753264,3.546455 2.88152,3.546455 z M 53.249785,55.28708 c -0.0608,0.503643 -0.544361,1.994807 -1.873837,2.881124 -0.483485,0.322387 -1.168582,0.725816 -2.860966,0.725816 -2.96177,0 -4.716219,-2.236746 -4.716219,-5.277581 0,-3.264194 1.57181,-5.862662 5.056201,-5.862662 3.042415,0 4.534371,2.4182 4.534371,6.147295 -2.565263,-2.02e-4 -5.131313,-2.02e-4 -7.696968,0 0,2.196423 1.027841,3.46581 3.062579,3.46581 1.67222,0 2.659743,-1.289549 2.71983,-2.075454 h 1.773428 z m -1.879371,-2.800479 c -0.100772,-1.631899 -0.785511,-3.143224 -2.941611,-3.143224 -1.631898,0 -2.921447,1.511325 -2.921447,3.143224 h 5.862662 z m 11.8202,6.10381 c -0.591012,-2.02e-4 -1.182021,-2.02e-4 -1.773033,0 v -6.487274 c 0,-1.833515 -0.523803,-2.760156 -2.256905,-2.760156 -1.007682,0 -2.780711,0.644775 -2.780711,3.506133 v 5.744064 c -0.591013,-2.02e-4 -1.182021,-2.02e-4 -1.773034,0 v -10.53935 h 1.672225 v 1.491164 h 0.04051 c 0.382994,-0.564128 1.369799,-1.793587 3.183155,-1.793587 1.632294,0 3.687585,0.664936 3.687585,3.66703 v 7.175138"
     id="path40"
     inkscape:connector-curvature="0"
     style="fill:#7d7b7b;fill-rule:evenodd;stroke-width:0.39532444" />
  <path
     d="m 23.553012,58.987316 c -4.502745,0 -6.716562,-2.742761 -7.582322,-5.609653 0.974869,4.652968 6.242172,9.207106 22.861612,11.23512 15.702285,1.918905 25.937234,-2.892194 29.388418,-5.131311 0,0 2.332415,-1.026262 0.932966,0.559779 0,0 -9.891015,9.143855 -29.29354,9.234779 C 20.453669,69.369406 5.0597349,59.574769 5.1546128,49.683751 5.0611976,39.796687 20.453669,29.996594 39.860146,30.091472 c 19.406477,0.0929 29.29354,9.234779 29.29354,9.234779 1.399449,1.585646 -0.932966,0.559384 -0.932966,0.559384 -3.451974,-2.239118 -13.642644,-6.649357 -29.388418,-5.131312 -15.488812,1.492746 -20.541058,6.756095 -22.221187,10.302155 -0.646355,1.364265 -0.9385,2.650651 -1.011635,3.946919 0.418649,-3.382395 2.520984,-7.3728 7.949974,-7.3728 6.151249,0 8.032993,5.119451 8.032993,8.677371 0,3.557525 -1.881744,8.673418 -8.032993,8.673418 z M 86.093337,55.56776 c 2.731298,-1.5e-4 5.463385,-1.5e-4 8.195078,0 v 2.983514 H 82.650064 V 42.074151 h 3.442878 V 55.570527 Z M 73.450861,49.669519 h 6.886556 v 8.88294 h -2.29486 c -0.11512,-0.688655 -0.229764,-1.376914 -0.344407,-2.065174 -0.872085,1.009658 -2.134751,2.501613 -5.139219,2.501613 -3.969057,0 -7.574415,-2.845941 -7.574415,-8.629933 0,-4.498792 2.501611,-8.744576 8.056713,-8.720857 5.048293,0 7.04468,3.281983 7.230481,5.554308 h -3.442878 c 0,-0.642402 -1.170558,-2.708367 -3.603382,-2.708367 -2.455755,0 -4.728079,1.699104 -4.728079,5.92196 0,4.498792 2.455359,5.668952 4.795285,5.668952 0.757046,0 3.281588,-0.29843 3.992773,-3.626311 -1.277291,-1.5e-4 -2.555373,-1.5e-4 -3.832669,0 V 49.671496 Z M 23.560919,43.581523 c -3.580454,0 -5.736158,2.822616 -5.736158,6.700749 0,3.878924 2.157286,6.700749 5.736158,6.700749 3.580453,0 5.736158,-2.823011 5.736158,-6.700749 0,-3.878923 -2.157286,-6.700749 -5.736158,-6.700749 z m 9.266404,4.403914 h 1.672618 c 1.98e-4,0.496528 1.98e-4,0.993846 0,1.490769 h 0.04013 c 0.422997,-0.604451 1.229064,-1.793192 3.143225,-1.793192 2.800874,0 4.795285,2.373528 4.795285,5.33688 0,2.519007 -1.452026,5.807316 -5.040386,5.807316 -1.410518,0 -2.337554,-0.664936 -2.800478,-1.410122 -0.01348,-1.98e-4 -0.027,-1.98e-4 -0.04052,0 1.98e-4,1.759589 1.98e-4,3.519178 0,5.277581 -0.59101,-1.98e-4 -1.18202,-1.98e-4 -1.77303,0 1.98e-4,-4.902023 1.98e-4,-9.808 0,-14.710022 z m 4.479027,9.309891 c 1.934322,0 3.245218,-1.676176 3.245218,-3.992777 0,-1.350033 -0.545153,-4.024403 -3.285937,-4.024403 -2.558935,0 -2.840801,2.760551 -2.840801,4.47112 0,2.800873 1.752868,3.546455 2.88152,3.546455 z m 15.903903,-2.075454 c -0.06029,0.503644 -0.54357,1.994808 -1.873837,2.88152 -0.483485,0.322348 -1.168582,0.725421 -2.860966,0.725421 -2.96177,0 -4.71622,-2.236351 -4.71622,-5.277582 0,-3.264194 1.571811,-5.862661 5.056201,-5.862661 3.042416,0 4.534368,2.417804 4.534368,6.147295 -2.565259,-1.98e-4 -5.131309,-1.98e-4 -7.696964,0 0,2.196423 1.027446,3.465414 3.062974,3.465414 1.67222,0 2.659348,-1.289548 2.71983,-2.075453 0.591012,-1.98e-4 1.182416,-1.98e-4 1.773033,0 z m -1.87898,-2.800478 c -0.100568,-1.631899 -0.785507,-3.143225 -2.941607,-3.143225 -1.631898,0 -2.921842,1.510931 -2.921842,3.143225 1.954483,-1.97e-4 3.908966,-1.97e-4 5.862658,0 z m 11.820204,6.10381 h -1.773033 v -6.487275 c 0,-1.83391 -0.524198,-2.76055 -2.256905,-2.76055 -1.007682,0 -2.780711,0.644379 -2.780711,3.505737 v 5.744064 H 54.567795 V 47.985833 h 1.672224 v 1.490768 h 0.04051 c 0.382476,-0.564128 1.370195,-1.793192 3.183155,-1.793192 1.632294,0 3.687585,0.664541 3.687585,3.66703 v 7.171185"
     id="path42"
     inkscape:connector-curvature="0"
     style="fill:#777475;fill-rule:evenodd;stroke-width:0.39532444" />
  <path
     d="m 23.473947,58.947784 c -4.502745,0 -6.716562,-2.742761 -7.582322,-5.609654 0.975265,4.652969 6.242172,9.207106 22.865565,11.235121 15.702286,1.918905 25.937235,-2.892194 29.388418,-5.131311 0,0 2.332416,-1.026263 0.933362,0.559383 0,0 -9.891016,9.143855 -29.293541,9.234779 C 20.378952,69.329557 4.9850186,59.534841 5.0798965,49.643823 4.986679,39.752806 20.378952,29.960619 39.785429,30.051544 c 19.406478,0.09338 29.293541,9.234779 29.293541,9.234779 1.399054,1.586042 -0.933362,0.559779 -0.933362,0.559779 C 64.69403,37.606985 54.502961,33.196745 38.75719,34.714791 23.268379,36.207536 18.216132,41.470886 16.536003,45.016946 c -0.646355,1.363869 -0.9385,2.65065 -1.011635,3.946524 0.418649,-3.382396 2.520589,-7.372801 7.949975,-7.372801 6.151248,0 8.032992,5.119452 8.032992,8.673418 0,3.55713 -1.882139,8.677372 -8.032992,8.677372 z m 62.540326,-3.419556 c 2.731297,-2.02e-4 5.463385,-2.02e-4 8.195078,0 v 2.983513 c -3.87853,-1.97e-4 -7.756268,-1.97e-4 -11.634399,0 V 42.034618 h 3.442483 V 55.530995 Z M 73.363892,49.637894 h 6.886551 v 8.882939 c -0.764952,-1.97e-4 -1.529904,-1.97e-4 -2.29486,0 -0.115116,-0.688655 -0.229759,-1.37731 -0.344403,-2.06557 -0.872089,1.009659 -2.134359,2.501613 -5.139219,2.501613 -3.969056,0 -7.574415,-2.84594 -7.574415,-8.629932 0,-4.498792 2.501611,-8.744577 8.056709,-8.720857 5.048293,0 7.044684,3.281983 7.230486,5.554308 h -3.442883 c 0,-0.642797 -1.170553,-2.708368 -3.603382,-2.708368 -2.455755,0 -4.728079,1.698314 -4.728079,5.921961 0,4.498792 2.455755,5.668952 4.795285,5.668952 0.758232,0 3.281983,-0.29843 3.992777,-3.626311 -1.277291,-1.98e-4 -2.555377,-1.98e-4 -3.832668,0 V 49.63987 Z M 23.473947,43.58943 c -3.580453,0 -5.736157,2.823011 -5.736157,6.700749 0,3.878923 2.157285,6.700749 5.736157,6.700749 3.580454,0 5.736158,-2.823012 5.736158,-6.700749 0,-3.878528 -2.157285,-6.700749 -5.736158,-6.700749 z m 9.266405,4.403914 h 1.672222 c 1.98e-4,0.497318 1.98e-4,0.994241 0,1.491163 h 0.04036 c 0.423392,-0.604451 1.229063,-1.793191 3.143224,-1.793191 2.800478,0 4.795286,2.373528 4.795286,5.33688 0,2.518612 -1.452027,5.807316 -5.040387,5.807316 -1.410517,0 -2.337553,-0.664936 -2.800873,-1.410518 -0.01332,-1.97e-4 -0.02684,-1.97e-4 -0.04036,0 1.98e-4,1.759589 1.98e-4,3.519178 0,5.277581 h -1.77303 V 47.992553 Z m 4.479026,9.30989 c 1.934322,0 3.245614,-1.676175 3.245614,-3.992777 0,-1.350033 -0.545153,-4.024402 -3.285937,-4.024402 -2.558935,0 -2.840801,2.760155 -2.840801,4.471119 0,2.800874 1.752868,3.546455 2.881124,3.546455 z M 53.12328,55.227781 c -0.06029,0.503643 -0.543571,1.994807 -1.873838,2.88152 -0.48348,0.32215 -1.168578,0.72542 -2.860962,0.72542 -2.962165,0 -4.716221,-2.236745 -4.716221,-5.277581 0,-3.264194 1.571808,-5.862662 5.056199,-5.862662 3.042419,0 4.534372,2.417805 4.534372,6.143342 -2.56526,-1.98e-4 -5.13131,-1.98e-4 -7.696969,0 0,2.196423 1.027846,3.465809 3.062974,3.465809 1.672225,0 2.659348,-1.289548 2.719834,-2.075453 h 1.773029 z m -1.878977,-2.800874 c -0.100609,-1.631899 -0.78551,-3.143224 -2.94161,-3.143224 -1.631899,0 -2.921843,1.511325 -2.921843,3.143224 h 5.862663 z m 11.8202,6.10381 c -0.591008,-1.98e-4 -1.18202,-1.98e-4 -1.773029,0 v -6.487275 c 0,-1.833514 -0.523807,-2.760155 -2.256908,-2.760155 -1.007683,0 -2.780712,0.644774 -2.780712,3.506133 v 5.744064 c -0.591008,-1.98e-4 -1.182021,-1.98e-4 -1.773029,0 v -10.53935 h 1.672221 v 1.491164 h 0.04051 c 0.382989,-0.564128 1.370194,-1.793191 3.183151,-1.793191 1.632297,0 3.687589,0.66454 3.687589,3.667029 v 7.175139"
     id="path44"
     inkscape:connector-curvature="0"
     style="fill:#706d6e;fill-rule:evenodd;stroke-width:0.39532444" />
  <path
     d="m 23.434415,58.908252 c -4.502746,0 -6.716562,-2.742762 -7.582323,-5.609654 0.975265,4.652968 6.242173,9.207106 22.865566,11.23512 15.702286,1.918905 25.937235,-2.892194 29.388418,-5.131311 0,0 2.332416,-1.026262 0.933362,0.559779 0,0 -9.89102,9.143855 -29.293541,9.23478 C 20.33942,69.29042 4.9454862,59.495704 5.040364,49.604686 4.9471465,39.713669 20.33942,29.917529 39.745897,30.012407 c 19.406478,0.09338 29.293541,9.234779 29.293541,9.234779 1.399054,1.586042 -0.933362,0.559779 -0.933362,0.559779 C 64.654498,37.567847 54.463429,33.157608 38.717658,34.675654 23.228846,36.168399 18.1766,41.431749 16.496471,44.973856 c -0.646356,1.364264 -0.9385,2.651045 -1.011635,3.946919 0.418648,-3.382791 2.520588,-7.372801 7.949974,-7.372801 6.151249,0 8.032993,5.119451 8.032993,8.673418 0,3.557525 -1.88214,8.673418 -8.032993,8.673418 z m 62.540326,-3.419557 h 8.195078 v 2.983514 c -3.87853,-1.98e-4 -7.756269,-1.98e-4 -11.638356,0 V 41.995086 h 3.442883 V 55.491462 Z M 73.332265,49.590454 h 6.886551 v 8.882941 c -0.764952,-1.98e-4 -1.529903,-1.98e-4 -2.294855,0 -0.114648,-0.688656 -0.229764,-1.376915 -0.344407,-2.06557 -0.872089,1.010053 -2.13436,2.501612 -5.139219,2.501612 -3.969057,0 -7.574415,-2.84594 -7.574415,-8.629932 0,-4.498792 2.501611,-8.744577 8.056709,-8.720857 5.048293,0 7.044683,3.281588 7.230485,5.554308 h -3.442882 c 0,-0.642798 -1.170554,-2.708368 -3.603382,-2.708368 -2.45536,0 -4.72808,1.698314 -4.72808,5.921961 0,4.498791 2.45536,5.668952 4.795285,5.668952 0.758233,0 3.282774,-0.298233 3.992778,-3.626311 H 73.334164 V 49.592036 Z M 23.442321,43.502458 c -3.580453,0 -5.736157,2.823012 -5.736157,6.70075 0,3.878527 2.157681,6.700748 5.736157,6.700748 3.580454,0 5.736158,-2.823011 5.736158,-6.700748 0,-3.878529 -2.157285,-6.70075 -5.736158,-6.70075 z m 9.266405,4.403914 h 1.672618 v 1.491164 h 0.04016 c 0.423392,-0.604451 1.229063,-1.793587 3.143619,-1.793587 2.800479,0 4.795286,2.373923 4.795286,5.33688 0,2.518612 -1.452027,5.807316 -5.040387,5.807316 -1.410122,0 -2.337157,-0.664936 -2.800478,-1.410517 h -0.04036 c 1.97e-4,1.759588 1.97e-4,3.519178 0,5.277581 h -1.773028 c 2.01e-4,-4.902023 2.01e-4,-9.808 0,-14.710023 z m 4.479026,9.309891 c 1.934323,0 3.245614,-1.67578 3.245614,-3.992777 0,-1.350033 -0.545548,-4.024403 -3.285937,-4.024403 -2.558935,0 -2.841197,2.760156 -2.841197,4.47112 0,2.800873 1.752869,3.54606 2.88152,3.54606 z M 53.091653,55.14081 c -0.0608,0.503643 -0.544361,1.994807 -1.873838,2.881519 -0.483875,0.32219 -1.168577,0.725025 -2.860961,0.725025 -2.962165,0 -4.716221,-2.236745 -4.716221,-5.277581 0,-3.264194 1.571812,-5.862661 5.056198,-5.862661 3.042419,0 4.534372,2.418199 4.534372,6.147295 -2.565259,-1.94e-4 -5.131309,-1.94e-4 -7.696964,0 0,2.196027 1.027841,3.465414 3.062578,3.465414 1.672221,0 2.65974,-1.289153 2.71983,-2.075454 0.591009,-1.97e-4 1.182021,-1.97e-4 1.773425,0 z m -1.879372,-2.800479 c -0.100767,-1.632294 -0.785905,-3.143224 -2.942005,-3.143224 -1.631899,0 -2.921448,1.51093 -2.921448,3.143224 1.954487,-1.97e-4 3.90897,-1.97e-4 5.862663,0 z m 11.820201,6.10381 c -0.591009,-1.98e-4 -1.182021,-1.98e-4 -1.773029,0 v -6.487275 c 0,-1.83391 -0.523807,-2.760155 -2.256909,-2.760155 -1.007682,0 -2.780712,0.644379 -2.780712,3.505737 v 5.744065 c -0.591008,-1.98e-4 -1.18202,-1.98e-4 -1.773029,0 v -10.53935 h 1.672221 v 1.491164 h 0.04051 c 0.382476,-0.564128 1.369799,-1.793587 3.183151,-1.793587 1.632297,0 3.687589,0.664936 3.687589,3.667425 v 7.171185"
     id="path46"
     inkscape:connector-curvature="0"
     style="fill:#6c696a;fill-rule:evenodd;stroke-width:0.39532444" />
  <path
     d="m 23.394882,58.868719 c -4.502745,0 -6.716562,-2.742761 -7.582322,-5.609654 0.97487,4.652969 6.242172,9.207106 22.865565,11.235121 15.702287,1.918905 25.937236,-2.892194 29.388419,-5.131311 0,0 2.332811,-1.026263 0.932966,0.559779 0,0 -9.891019,9.143854 -29.293541,9.234779 C 20.299492,69.250848 4.9055584,59.456171 5.0004363,49.565154 4.9072188,39.674136 20.299492,29.877997 39.705969,29.972874 c 19.406475,0.09338 29.293541,9.234779 29.293541,9.234779 1.399845,1.586042 -0.932966,0.55978 -0.932966,0.55978 -3.451578,-2.239118 -13.642647,-6.649357 -29.388419,-5.131311 -15.488811,1.492349 -20.541058,6.756094 -22.221186,10.298201 -0.646356,1.364265 -0.938501,2.651046 -1.01124,3.94692 0.418253,-3.382396 2.520588,-7.372801 7.949974,-7.372801 6.151248,0 8.032993,5.119451 8.032993,8.677371 0,3.557525 -1.88214,8.673418 -8.032993,8.673418 z m 62.540327,-3.419556 h 8.195074 v 2.983513 H 82.491931 V 41.955553 h 3.442883 V 55.45193 Z M 73.292733,49.550922 h 6.886551 v 8.88294 h -2.294859 l -0.344403,-2.065175 c -0.872089,1.009659 -2.13436,2.501613 -5.139219,2.501613 -3.969057,0 -7.574416,-2.84594 -7.574416,-8.629932 0,-4.498792 2.501612,-8.744577 8.05671,-8.720857 5.048293,0 7.044683,3.281983 7.230485,5.554308 H 76.6707 c 0,-0.642402 -1.170554,-2.707972 -3.603382,-2.707972 -2.45536,0 -4.72808,1.698314 -4.72808,5.92196 0,4.498792 2.45536,5.668952 4.795285,5.668952 0.757047,0 3.281588,-0.298628 3.992778,-3.626311 H 73.294632 V 49.553294 Z M 23.402789,43.502458 c -3.580453,0 -5.736158,2.823012 -5.736158,6.70075 0,3.878527 2.157681,6.700748 5.736158,6.700748 3.580453,0 5.736158,-2.823011 5.736158,-6.700748 0,-3.878529 -2.157681,-6.70075 -5.736158,-6.70075 z m 9.266405,4.403914 h 1.672618 v 1.491164 h 0.04013 c 0.423392,-0.604451 1.229063,-1.793587 3.143224,-1.793587 2.800874,0 4.795285,2.373923 4.795285,5.33688 0,2.518612 -1.452026,5.807316 -5.040386,5.807316 -1.410517,0 -2.337553,-0.664936 -2.800478,-1.410517 h -0.04052 v 5.277581 h -1.77303 V 47.905186 Z m 4.479026,9.309891 c 1.934322,0 3.245218,-1.676176 3.245218,-3.992777 0,-1.350033 -0.545548,-4.024403 -3.285937,-4.024403 -2.558935,0 -2.841196,2.760551 -2.841196,4.475073 0,2.800873 1.753263,3.546455 2.88152,3.546455 z M 53.052121,55.14081 c -0.0608,0.503643 -0.544361,1.994807 -1.874233,2.881519 -0.48348,0.322348 -1.168577,0.725421 -2.860961,0.725421 -2.96177,0 -4.716222,-2.236746 -4.716222,-5.277582 0,-3.264194 1.571812,-5.862661 5.056199,-5.862661 3.042814,0 4.534372,2.4182 4.534372,6.147295 h -7.696968 c 0,2.196027 1.02745,3.465414 3.062973,3.465414 1.672225,0 2.659744,-1.289548 2.719834,-2.075453 h 1.773425 z m -1.879372,-2.800874 c -0.100572,-1.632295 -0.78551,-3.143225 -2.94161,-3.143225 -1.631898,0 -2.921843,1.511326 -2.921843,3.143225 h 5.862663 z m 11.820201,6.103809 h -1.77303 v -6.487274 c 0,-1.833515 -0.524202,-2.76055 -2.256908,-2.76055 -1.007682,0 -2.780712,0.644774 -2.780712,3.506132 v 5.744064 H 54.409271 V 47.906768 h 1.672221 v 1.491163 h 0.04051 c 0.382476,-0.564128 1.370194,-1.793587 3.183151,-1.793587 1.632297,0 3.687589,0.664936 3.687589,3.667425 v 7.171186"
     id="path48"
     inkscape:connector-curvature="0"
     style="fill:#656263;fill-rule:evenodd;stroke-width:0.39532444" />
  <path
     d="m 23.394882,58.868719 c -4.502745,0 -6.716562,-2.742761 -7.582322,-5.609654 0.97487,4.652969 6.242172,9.207106 22.865565,11.235121 15.702287,1.918905 25.937236,-2.892194 29.388419,-5.131311 0,0 2.332811,-1.026263 0.932966,0.559779 0,0 -9.891019,9.143854 -29.293541,9.234779 C 20.299492,69.250848 4.9055584,59.456171 5.0004363,49.565154 4.9072188,39.674136 20.299492,29.877997 39.705969,29.972874 c 19.406475,0.09338 29.293541,9.234779 29.293541,9.234779 1.399845,1.586042 -0.932966,0.55978 -0.932966,0.55978 -3.451578,-2.239118 -13.642647,-6.649357 -29.388419,-5.131311 -15.488811,1.492349 -20.541058,6.756094 -22.221186,10.298201 -0.646356,1.364265 -0.938501,2.651046 -1.01124,3.94692 0.418253,-3.382396 2.520588,-7.372801 7.949974,-7.372801 6.151248,0 8.032993,5.119451 8.032993,8.677371 0,3.557525 -1.88214,8.673418 -8.032993,8.673418 z m 62.540327,-3.419556 h 8.195074 v 2.983513 H 82.491931 V 41.955553 h 3.442883 V 55.45193 Z M 73.292733,49.550922 h 6.886551 v 8.88294 h -2.294859 l -0.344403,-2.065175 c -0.872089,1.009659 -2.13436,2.501613 -5.139219,2.501613 -3.969057,0 -7.574416,-2.84594 -7.574416,-8.629932 0,-4.498792 2.501612,-8.744577 8.05671,-8.720857 5.048293,0 7.044683,3.281983 7.230485,5.554308 H 76.6707 c 0,-0.642402 -1.170554,-2.707972 -3.603382,-2.707972 -2.45536,0 -4.72808,1.698314 -4.72808,5.92196 0,4.498792 2.45536,5.668952 4.795285,5.668952 0.757047,0 3.281588,-0.298628 3.992778,-3.626311 H 73.294632 V 49.553294 Z M 23.402789,43.502458 c -3.580453,0 -5.736158,2.823012 -5.736158,6.70075 0,3.878527 2.157681,6.700748 5.736158,6.700748 3.580453,0 5.736158,-2.823011 5.736158,-6.700748 0,-3.878529 -2.157681,-6.70075 -5.736158,-6.70075 z m 9.266405,4.403914 h 1.672618 v 1.491164 h 0.04013 c 0.423392,-0.604451 1.229063,-1.793587 3.143224,-1.793587 2.800874,0 4.795285,2.373923 4.795285,5.33688 0,2.518612 -1.452026,5.807316 -5.040386,5.807316 -1.410517,0 -2.337553,-0.664936 -2.800478,-1.410517 h -0.04052 v 5.277581 h -1.77303 V 47.905186 Z m 4.479026,9.309891 c 1.934322,0 3.245218,-1.676176 3.245218,-3.992777 0,-1.350033 -0.545548,-4.024403 -3.285937,-4.024403 -2.558935,0 -2.841196,2.760551 -2.841196,4.475073 0,2.800873 1.753263,3.546455 2.88152,3.546455 z M 53.052121,55.14081 c -0.0608,0.503643 -0.544361,1.994807 -1.874233,2.881519 -0.48348,0.322348 -1.168577,0.725421 -2.860961,0.725421 -2.96177,0 -4.716222,-2.236746 -4.716222,-5.277582 0,-3.264194 1.571812,-5.862661 5.056199,-5.862661 3.042814,0 4.534372,2.4182 4.534372,6.147295 h -7.696968 c 0,2.196027 1.02745,3.465414 3.062973,3.465414 1.672225,0 2.659744,-1.289548 2.719834,-2.075453 h 1.773425 z m -1.879372,-2.800874 c -0.100572,-1.632295 -0.78551,-3.143225 -2.94161,-3.143225 -1.631898,0 -2.921843,1.511326 -2.921843,3.143225 h 5.862663 z m 11.820201,6.103809 h -1.77303 v -6.487274 c 0,-1.833515 -0.524202,-2.76055 -2.256908,-2.76055 -1.007682,0 -2.780712,0.644774 -2.780712,3.506132 v 5.744064 H 54.409271 V 47.906768 h 1.672221 v 1.491163 h 0.04051 c 0.382476,-0.564128 1.370194,-1.793587 3.183151,-1.793587 1.632297,0 3.687589,0.664936 3.687589,3.667425 v 7.171186"
     id="path50"
     inkscape:connector-curvature="0"
     style="fill:#4386b5;fill-rule:evenodd;stroke-width:0.39532444" />
</svg>
