<?xml version="1.0" encoding="UTF-8" standalone="no"?>
<!-- Created with Inkscape (http://www.inkscape.org/) -->

<svg
   xmlns:dc="http://purl.org/dc/elements/1.1/"
   xmlns:cc="http://creativecommons.org/ns#"
   xmlns:rdf="http://www.w3.org/1999/02/22-rdf-syntax-ns#"
   xmlns:svg="http://www.w3.org/2000/svg"
   xmlns="http://www.w3.org/2000/svg"
   xmlns:sodipodi="http://sodipodi.sourceforge.net/DTD/sodipodi-0.dtd"
   xmlns:inkscape="http://www.inkscape.org/namespaces/inkscape"
   version="1.1"
   id="svg292"
   xml:space="preserve"
   width="100"
   height="100"
   viewBox="0 0 100 100"
   sodipodi:docname="php-icon.svg"
   inkscape:version="0.92.4 (5da689c313, 2019-01-14)"><metadata
     id="metadata298"><rdf:RDF><cc:Work
         rdf:about=""><dc:format>image/svg+xml</dc:format><dc:type
           rdf:resource="http://purl.org/dc/dcmitype/StillImage" /><dc:title></dc:title></cc:Work></rdf:RDF></metadata><defs
     id="defs296"><clipPath
       clipPathUnits="userSpaceOnUse"
       id="clipPath310"><path
         d="m 2764.8,0 c 1526.93,0 2764.81,651.164 2764.81,1454.39 0,803.24 -1237.88,1454.4 -2764.81,1454.4 C 1237.87,2908.79 0,2257.63 0,1454.39 0,651.164 1237.87,0 2764.8,0"
         id="path308"
         inkscape:connector-curvature="0" /></clipPath></defs><sodipodi:namedview
     pagecolor="#ffffff"
     bordercolor="#666666"
     borderopacity="1"
     objecttolerance="10"
     gridtolerance="10"
     guidetolerance="10"
     inkscape:pageopacity="0"
     inkscape:pageshadow="2"
     inkscape:window-width="1882"
     inkscape:window-height="1080"
     id="namedview294"
     showgrid="false"
     fit-margin-top="0"
     fit-margin-left="0"
     fit-margin-right="0"
     fit-margin-bottom="0"
     inkscape:zoom="11.313709"
     inkscape:cx="-5.6952604"
     inkscape:cy="-7.1477943"
     inkscape:window-x="38"
     inkscape:window-y="0"
     inkscape:window-maximized="1"
     inkscape:current-layer="g300" /><g
     id="g300"
     inkscape:groupmode="layer"
     inkscape:label="ink_ext_XXXXXX"
     transform="matrix(1.3333333,0,0,-1.3333333,256.48471,-60.51518)"><g
       id="g3883"
       transform="matrix(5.2933954,0,0,5.2933954,828.2708,535.89086)"><path
         d="m -185.72849,-120.12724 c 3.52125,0 6.37587,1.44665 6.37587,3.23114 0,1.78449 -2.85462,3.23115 -6.37587,3.23115 -3.52125,0 -6.37587,-1.44666 -6.37587,-3.23115 0,-1.78449 2.85462,-3.23114 6.37587,-3.23114"
         style="fill:#617cbe;fill-opacity:1;fill-rule:nonzero;stroke:none;stroke-width:0.00239983"
         id="path1190"
         inkscape:connector-curvature="0" /><path
         d="m -184.43695,-117.94044 c 0,0 0.3163,1.62767 0.3163,1.62769 0.0714,0.36739 0.012,0.64145 -0.17641,0.81457 -0.18244,0.16756 -0.49221,0.24901 -0.947,0.24901 h -0.54769 l 0.15678,0.80649 c 0.006,0.0304 -0.002,0.0618 -0.0218,0.0857 -0.0197,0.0239 -0.0491,0.0377 -0.08,0.0377 h -0.75595 c -0.0496,0 -0.0923,-0.0352 -0.10175,-0.0839 l -0.33585,-1.72802 c -0.0306,0.19443 -0.10579,0.3616 -0.22624,0.49948 -0.22172,0.2538 -0.57248,0.38248 -1.04251,0.38248 h -1.46521 c -0.0496,0 -0.0923,-0.0352 -0.10176,-0.0839 l -0.67983,-3.49777 c -0.006,-0.0304 0.002,-0.0618 0.0218,-0.0857 0.0197,-0.0239 0.049,-0.0377 0.08,-0.0377 h 0.76195 c 0.0496,0 0.0923,0.0352 0.10176,0.0839 l 0.16443,0.84606 h 0.56715 c 0.2977,0 0.54767,0.0323 0.74292,0.0958 0.19964,0.0649 0.38332,0.17497 0.54526,0.32654 0.13082,0.12023 0.23896,0.25481 0.32216,0.4 l -0.13586,-0.69895 c -0.006,-0.0304 0.002,-0.0618 0.0218,-0.0857 0.0197,-0.0239 0.049,-0.0377 0.08,-0.0377 h 0.75595 c 0.0496,0 0.0923,0.0352 0.10177,0.0839 l 0.37311,1.91999 h 0.51869 c 0.22105,0 0.28575,-0.044 0.30332,-0.063 0.016,-0.0173 0.0492,-0.0781 0.012,-0.26986 l -0.30075,-1.54763 c -0.006,-0.0304 0.002,-0.0618 0.0218,-0.0857 0.0197,-0.0239 0.049,-0.0377 0.08,-0.0377 h 0.76794 c 0.0496,0 0.0923,0.0352 0.10178,0.0839 z m -3.50466,1.34489 c -0.0475,-0.24399 -0.13696,-0.41805 -0.26595,-0.51738 -0.13108,-0.10091 -0.34073,-0.1521 -0.62317,-0.1521 h -0.33768 l 0.24421,1.25658 h 0.43658 c 0.32078,0 0.44999,-0.0686 0.50187,-0.12607 0.0719,-0.0797 0.0872,-0.23919 0.0441,-0.46103"
         style="fill:#ffffff;fill-opacity:1;fill-rule:nonzero;stroke:none;stroke-width:0.00239983"
         id="path1192"
         inkscape:connector-curvature="0" /><path
         d="m -181.20423,-115.63165 c -0.22172,0.2538 -0.57248,0.38248 -1.04249,0.38248 h -1.46522 c -0.0497,0 -0.0923,-0.0352 -0.10177,-0.0839 l -0.67983,-3.49777 c -0.006,-0.0304 0.002,-0.0618 0.0218,-0.0857 0.0197,-0.0239 0.049,-0.0377 0.08,-0.0377 h 0.76195 c 0.0496,0 0.0923,0.0352 0.10172,0.0839 l 0.16446,0.84606 h 0.56718 c 0.29768,0 0.54764,0.0323 0.74292,0.0958 0.19961,0.0649 0.3833,0.17497 0.54524,0.32654 0.13508,0.12414 0.24624,0.2635 0.33045,0.41414 0.0841,0.15049 0.1445,0.31846 0.17963,0.49921 0.0867,0.44565 0.0173,0.80126 -0.20602,1.05694 z m -0.79022,-0.9639 c -0.0475,-0.24399 -0.13696,-0.41805 -0.26595,-0.51738 -0.13108,-0.10091 -0.34075,-0.1521 -0.62314,-0.1521 h -0.33773 l 0.24421,1.25658 h 0.4366 c 0.32076,0 0.44999,-0.0686 0.50188,-0.12607 0.0719,-0.0797 0.0872,-0.23919 0.0441,-0.46103"
         style="fill:#ffffff;fill-opacity:1;fill-rule:nonzero;stroke:none;stroke-width:0.00239983"
         id="path1194"
         inkscape:connector-curvature="0" /><path
         d="m -188.48762,-115.9048 c 0.28949,0 0.48241,-0.0534 0.57886,-0.16029 0.0964,-0.10686 0.11934,-0.29033 0.0689,-0.55026 -0.0527,-0.27074 -0.15409,-0.46395 -0.30447,-0.57975 -0.15037,-0.11576 -0.37919,-0.1736 -0.6864,-0.1736 h -0.46345 l 0.2845,1.4639 z m -1.85649,-2.94579 h 0.76195 l 0.18073,0.92993 h 0.65263 c 0.28798,0 0.52487,0.0302 0.71086,0.0908 0.18598,0.0604 0.355,0.1619 0.50715,0.30428 0.1277,0.11735 0.23099,0.2468 0.31011,0.38839 0.079,0.14142 0.13518,0.2976 0.16837,0.46842 0.0806,0.41462 0.0198,0.73756 -0.18234,0.96893 -0.20211,0.23135 -0.52364,0.34702 -0.96442,0.34702 h -1.46521 l -0.67983,-3.49775"
         style="fill:#08090d;fill-opacity:1;fill-rule:nonzero;stroke:none;stroke-width:0.00239983"
         id="path1196"
         inkscape:connector-curvature="0" /><path
         d="m -186.49272,-114.42291 h 0.75595 l -0.18073,-0.92993 h 0.67344 c 0.42374,0 0.71601,-0.074 0.87687,-0.2217 0.16089,-0.14783 0.20905,-0.38733 0.14476,-0.71844 l -0.3163,-1.62768 h -0.76794 l 0.30072,1.54763 c 0.0342,0.17605 0.0217,0.29613 -0.0378,0.36016 -0.0594,0.064 -0.18589,0.0961 -0.3793,0.0961 h -0.60415 l -0.38942,-2.00386 h -0.75595 l 0.67982,3.49775"
         style="fill:#08090d;fill-opacity:1;fill-rule:nonzero;stroke:none;stroke-width:0.00239983"
         id="path1198"
         inkscape:connector-curvature="0" /><path
         d="m -182.54046,-115.9048 c 0.28947,0 0.48239,-0.0534 0.57886,-0.16029 0.0964,-0.10686 0.11935,-0.29033 0.0689,-0.55026 -0.0527,-0.27074 -0.15409,-0.46395 -0.30446,-0.57975 -0.15038,-0.11576 -0.3792,-0.1736 -0.68638,-0.1736 h -0.46348 l 0.2845,1.4639 z m -1.85648,-2.94579 h 0.76194 l 0.18073,0.92993 h 0.65264 c 0.28798,0 0.52486,0.0302 0.71085,0.0908 0.18599,0.0604 0.35501,0.1619 0.50716,0.30428 0.12767,0.11735 0.23098,0.2468 0.3101,0.38839 0.079,0.14142 0.13518,0.2976 0.16835,0.46842 0.0806,0.41462 0.0198,0.73756 -0.18231,0.96893 -0.20212,0.23135 -0.52362,0.34702 -0.96445,0.34702 h -1.46519 l -0.67982,-3.49775"
         style="fill:#08090d;fill-opacity:1;fill-rule:nonzero;stroke:none;stroke-width:0.00239983"
         id="path1200"
         inkscape:connector-curvature="0" /></g></g></svg>