<?xml version="1.0" encoding="UTF-8" standalone="no"?>
<!-- Created with Inkscape (http://www.inkscape.org/) -->

<svg
   xmlns:dc="http://purl.org/dc/elements/1.1/"
   xmlns:cc="http://creativecommons.org/ns#"
   xmlns:rdf="http://www.w3.org/1999/02/22-rdf-syntax-ns#"
   xmlns:svg="http://www.w3.org/2000/svg"
   xmlns="http://www.w3.org/2000/svg"
   xmlns:sodipodi="http://sodipodi.sourceforge.net/DTD/sodipodi-0.dtd"
   xmlns:inkscape="http://www.inkscape.org/namespaces/inkscape"
   width="56"
   height="8"
   viewBox="0 0 14.816667 2.1166666"
   version="1.1"
   id="svg1012"
   inkscape:version="0.92.4 (5da689c313, 2019-01-14)"
   sodipodi:docname="progress-clip.svg">
  <defs
     id="defs1006" />
  <sodipodi:namedview
     id="base"
     pagecolor="#ffffff"
     bordercolor="#666666"
     borderopacity="1.0"
     inkscape:pageopacity="0.0"
     inkscape:pageshadow="2"
     inkscape:zoom="1.979899"
     inkscape:cx="123.06887"
     inkscape:cy="-9.2230721"
     inkscape:document-units="px"
     inkscape:current-layer="layer1"
     showgrid="false"
     inkscape:snap-page="true"
     inkscape:snap-smooth-nodes="true"
     inkscape:window-width="1882"
     inkscape:window-height="1080"
     inkscape:window-x="38"
     inkscape:window-y="0"
     inkscape:window-maximized="1"
     fit-margin-top="0"
     fit-margin-left="0"
     fit-margin-right="0"
     fit-margin-bottom="0"
     units="px" />
  <metadata
     id="metadata1009">
    <rdf:RDF>
      <cc:Work
         rdf:about="">
        <dc:format>image/svg+xml</dc:format>
        <dc:type
           rdf:resource="http://purl.org/dc/dcmitype/StillImage" />
        <dc:title></dc:title>
      </cc:Work>
    </rdf:RDF>
  </metadata>
  <g
     inkscape:label="Layer 1"
     inkscape:groupmode="layer"
     id="layer1"
     transform="translate(0,-294.88333)">
    <path
       id="circle1565"
       style="opacity:1;fill:#4d4d4d;fill-opacity:1;fill-rule:nonzero;stroke:none;stroke-width:0.84000003;stroke-linecap:round;stroke-linejoin:miter;stroke-miterlimit:4;stroke-dasharray:none;stroke-dashoffset:9;stroke-opacity:1;paint-order:normal"
       d="M 14.816666,295.94167 A 1.0583333,1.0583333 0 0 1 13.758333,297 1.0583333,1.0583333 0 0 1 12.7,295.94167 a 1.0583333,1.0583333 0 0 1 1.058333,-1.05834 1.0583333,1.0583333 0 0 1 1.058333,1.05834 z m -3.175001,0 A 1.0583333,1.0583333 0 0 1 10.583332,297 a 1.0583333,1.0583333 0 0 1 -1.0583332,-1.05833 1.0583333,1.0583333 0 0 1 1.0583332,-1.05834 1.0583333,1.0583333 0 0 1 1.058333,1.05834 z m -3.1749979,0 A 1.0583333,1.0583333 0 0 1 7.4083338,297 a 1.0583333,1.0583333 0 0 1 -1.0583334,-1.05833 1.0583333,1.0583333 0 0 1 1.0583334,-1.05834 1.0583333,1.0583333 0 0 1 1.0583333,1.05834 z m -3.1750005,0 A 1.0583333,1.0583333 0 0 1 4.2333333,297 1.0583333,1.0583333 0 0 1 3.175,295.94167 a 1.0583333,1.0583333 0 0 1 1.0583333,-1.05834 1.0583333,1.0583333 0 0 1 1.0583333,1.05834 z m -3.175,0 A 1.0583333,1.0583333 0 0 1 1.0583333,297 1.0583333,1.0583333 0 0 1 0,295.94167 a 1.0583333,1.0583333 0 0 1 1.0583333,-1.05834 1.0583333,1.0583333 0 0 1 1.0583333,1.05834 z"
       inkscape:connector-curvature="0" />
  </g>
</svg>
