<?xml version="1.0" encoding="UTF-8" standalone="no"?>
<!-- Generator: Adobe Illustrator 20.0.0, SVG Export Plug-In . SVG Version: 6.00 Build 0)  -->

<svg
   xmlns:dc="http://purl.org/dc/elements/1.1/"
   xmlns:cc="http://creativecommons.org/ns#"
   xmlns:rdf="http://www.w3.org/1999/02/22-rdf-syntax-ns#"
   xmlns:svg="http://www.w3.org/2000/svg"
   xmlns="http://www.w3.org/2000/svg"
   xmlns:sodipodi="http://sodipodi.sourceforge.net/DTD/sodipodi-0.dtd"
   xmlns:inkscape="http://www.inkscape.org/namespaces/inkscape"
   version="1.1"
   id="Layer_1"
   x="0px"
   y="0px"
   viewBox="0 0 100 99.999998"
   xml:space="preserve"
   sodipodi:docname="qt-icon.svg"
   width="100"
   height="100"
   inkscape:version="0.92.4 (5da689c313, 2019-01-14)"><metadata
     id="metadata17"><rdf:RDF><cc:Work
         rdf:about=""><dc:format>image/svg+xml</dc:format><dc:type
           rdf:resource="http://purl.org/dc/dcmitype/StillImage" /><dc:title></dc:title></cc:Work></rdf:RDF></metadata><defs
     id="defs15" /><sodipodi:namedview
     pagecolor="#ffffff"
     bordercolor="#666666"
     borderopacity="1"
     objecttolerance="10"
     gridtolerance="10"
     guidetolerance="10"
     inkscape:pageopacity="0"
     inkscape:pageshadow="2"
     inkscape:window-width="1882"
     inkscape:window-height="1080"
     id="namedview13"
     showgrid="false"
     fit-margin-top="0"
     fit-margin-left="0"
     fit-margin-right="0"
     fit-margin-bottom="0"
     inkscape:zoom="0.98159511"
     inkscape:cx="-1.5281223"
     inkscape:cy="108.05"
     inkscape:window-x="38"
     inkscape:window-y="0"
     inkscape:window-maximized="1"
     inkscape:current-layer="Layer_1" /><style
     type="text/css"
     id="style2">
	.st0{fill:#41CD52;}
	.st1{fill:#FFFFFF;}
</style><g
     id="g10"
     transform="matrix(0.30674847,0,0,0.30674847,4.9999995,16.855828)"
     style="stroke-width:6.11250019"><polygon
       class="st0"
       points="40.7,0 0,40.7 0,176.8 0,187.9 0,216.1 28.2,216.1 38.4,216.1 252.7,216.1 293.4,175.4 293.4,39.3 293.4,28.2 293.4,0 265.2,0 255,0 "
       id="polygon4"
       style="fill:#41cd52;stroke-width:37.36265564" /><path
       class="st1"
       d="M 109.2,169.2 C 89.9,169.2 76.4,164 68.8,153.6 61.2,143.2 57.4,126.7 57.4,104.3 57.4,81.8 61.3,65.1 69,54.2 76.7,43.3 90.2,37.8 109.2,37.8 c 19.1,0 32.5,5.4 40.1,16.3 7.7,10.8 11.5,27.5 11.5,50.1 0,14.9 -1.6,26.9 -4.7,36 -3.2,9.2 -8.3,16.2 -15.5,21 l 15.6,25.1 -19.1,8.9 -16.5,-27.1 c -2.4,0.8 -6.2,1.1 -11.4,1.1 z M 85.1,140.3 c 4.2,7.2 12.3,10.9 24.2,10.9 11.9,0 19.9,-3.6 24.1,-10.7 4.1,-7.1 6.2,-19.2 6.2,-36.1 0,-17 -2.1,-29.3 -6.4,-37 -4.3,-7.7 -12.2,-11.5 -23.9,-11.5 -11.6,0 -19.6,3.8 -24,11.5 -4.3,7.7 -6.5,19.9 -6.5,36.8 0,16.8 2.1,28.9 6.3,36.1 z"
       id="path6"
       inkscape:connector-curvature="0"
       style="fill:#ffffff;stroke-width:37.36265564" /><path
       class="st1"
       d="m 232.4,89.2 h -25.6 v 40.9 c 0,7.6 0.6,12.6 1.7,15.1 1.1,2.5 4,3.7 8.5,3.7 l 15.2,-0.6 0.9,16.2 c -8.3,1.6 -14.6,2.4 -19,2.4 -10.5,0 -17.7,-2.4 -21.6,-7.2 -3.9,-4.8 -5.9,-13.9 -5.9,-27.3 V 89.3 H 172.5 V 72 h 14.2 V 45.1 h 20.1 V 72 h 25.6 z"
       id="path8"
       inkscape:connector-curvature="0"
       style="fill:#ffffff;stroke-width:37.36265564" /></g></svg>