<?xml version="1.0" encoding="UTF-8" standalone="no"?>
<!-- Page 1 -->

<svg
   xmlns:dc="http://purl.org/dc/elements/1.1/"
   xmlns:cc="http://creativecommons.org/ns#"
   xmlns:rdf="http://www.w3.org/1999/02/22-rdf-syntax-ns#"
   xmlns:svg="http://www.w3.org/2000/svg"
   xmlns="http://www.w3.org/2000/svg"
   xmlns:xlink="http://www.w3.org/1999/xlink"
   xmlns:sodipodi="http://sodipodi.sourceforge.net/DTD/sodipodi-0.dtd"
   xmlns:inkscape="http://www.inkscape.org/namespaces/inkscape"
   x="0"
   y="0"
   width="100"
   height="100"
   viewBox="0 0 100 99.999999"
   version="1.1"
   style="display:block"
   id="svg542"
   sodipodi:docname="think-logo.svg"
   inkscape:version="0.92.1 r15371">
  <metadata
     id="metadata546">
    <rdf:RDF>
      <cc:Work
         rdf:about="">
        <dc:format>image/svg+xml</dc:format>
        <dc:type
           rdf:resource="http://purl.org/dc/dcmitype/StillImage" />
        <dc:title></dc:title>
      </cc:Work>
    </rdf:RDF>
  </metadata>
  <sodipodi:namedview
     pagecolor="#ffffff"
     bordercolor="#666666"
     borderopacity="1"
     objecttolerance="10"
     gridtolerance="10"
     guidetolerance="10"
     inkscape:pageopacity="0"
     inkscape:pageshadow="2"
     inkscape:window-width="1640"
     inkscape:window-height="1050"
     id="namedview544"
     showgrid="false"
     inkscape:zoom="4.4132813"
     inkscape:cx="117.29795"
     inkscape:cy="46.579533"
     inkscape:window-x="1920"
     inkscape:window-y="0"
     inkscape:window-maximized="1"
     inkscape:current-layer="svg542"
     fit-margin-top="0"
     fit-margin-left="0"
     fit-margin-right="0"
     fit-margin-bottom="0" />
  <defs
     id="defs338">
    <style
       type="text/css"
       id="style336"><![CDATA[
text { white-space: pre; }
path, image { pointer-events: none; }
text::-moz-selection {
	color: transparent;
	background: rgba(0, 106, 173, 0.4);
}
text::selection {
	color: transparent;
	background: rgba(0, 106, 173, 0.4);
}

.s1_1{
font-size: 122.28px;
font-family: CompactaBlkBT_7;
fill: TRANSPARENT;
}
.s2_1{
font-size: 45.83px;
font-family: CompactaBT_a;
fill: TRANSPARENT;
}
.s3_1{
font-size: 122.32px;
font-family: CompactaBlkBT_7;
fill: TRANSPARENT;
}
.s4_1{
font-size: 51.88px;
font-family: CompactaBT_a;
fill: TRANSPARENT;
}

.g0_1{
fill: none;
stroke: #000000;
stroke-width: 3.0555556;
stroke-linecap: butt;
stroke-linejoin: round;
}

]]></style>
  </defs>
  <path
     style="fill:#085296;fill-opacity:1;stroke-width:0.15200154"
     d="m 16.177915,56.378761 c -0.04443,-0.115808 0.02047,-0.355209 0.144362,-0.532005 0.222684,-0.317938 0.213706,-0.321459 -0.819558,-0.321459 -1.227517,0 -2.669923,-0.243114 -3.263499,-0.550073 -0.57542,-0.297552 -0.581382,-0.979814 -0.01215,-1.394435 l 0.408872,-0.297846 -0.484877,-0.250742 C 11.521814,52.706805 11.47048,52.012507 12.047676,51.63429 L 12.4292,51.384302 11.93368,51.136778 c -0.351521,-0.175591 -0.509617,-0.370139 -0.543998,-0.669447 -0.04264,-0.371489 0.03432,-0.458541 0.644348,-0.728386 0.97411,-0.430889 2.900449,-0.826385 6.211605,-1.275297 1.567675,-0.212537 2.904364,-0.386429 2.970402,-0.386429 0.06604,0 0.207114,-0.632704 0.313495,-1.406011 0.318467,-2.315097 1.078061,-6.043608 1.471149,-7.221254 0.202535,-0.606751 0.735553,-1.83797 1.184498,-2.736029 1.796086,-3.592858 2.538692,-6.058581 2.539322,-8.431571 0.0011,-4.498218 -2.945832,-8.278975 -7.382265,-9.470695 -1.456693,-0.391288 -3.918233,-0.463502 -5.302442,-0.155543 -1.868198,0.415634 -3.446989,1.297718 -4.8909245,2.732609 -2.1746054,2.160982 -3.2609352,4.532093 -3.256131,7.107099 0.0045,2.442842 0.5940937,4.472759 2.1462662,7.38996 2.3824053,4.477564 2.8897393,5.76987 3.5120263,8.945946 l 0.338076,1.72548 h 2.168541 2.168553 l -0.0022,-2.394027 c -0.0023,-2.056198 -0.273242,-5.00752 -0.535324,-5.833276 -0.0594,-0.186987 -0.266897,-0.249706 -0.826363,-0.249706 -1.954002,0 -3.79691,-1.935227 -3.79691,-3.987116 0,-2.170308 1.789458,-3.610486 3.27592,-2.636512 0.493732,0.323508 1.012652,1.503607 1.510243,3.434513 0.231594,0.898712 0.471042,1.634017 0.532107,1.634017 0.212424,0 0.880723,-1.012472 1.960517,-2.970199 1.286063,-2.331691 1.890957,-3.018665 2.65801,-3.018665 1.011584,0 1.613711,1.024983 1.302353,2.216939 -0.362994,1.389654 -2.077652,3.46256 -4.132624,4.996091 -0.643999,0.480569 -1.238543,0.897643 -1.321231,0.926814 -0.0963,0.03397 -0.07032,0.623333 0.07222,1.63881 0.146306,1.042578 0.208373,2.526485 0.181204,4.332044 l -0.04128,2.746278 -2.876971,0.0414 c -1.582382,0.02283 -2.932301,-0.01383 -2.999869,-0.08134 -0.06761,-0.06761 -0.228511,-0.736025 -0.357674,-1.485471 C 10.274173,42.652385 9.3746174,40.122322 7.8661174,37.536369 6.0068405,34.349088 5.1444884,31.78532 5.020715,29.077011 4.927791,27.04473 5.1306284,26.014021 5.9749014,24.226451 8.6463212,18.570567 14.386548,16.21245 20.535749,18.244775 c 4.152594,1.372442 7.091158,5.500522 7.091158,9.961581 0,2.649978 -0.599438,4.683642 -2.671735,9.064219 -1.304413,2.757348 -1.542183,3.601463 -2.290471,8.131564 -0.305169,1.847487 -0.578748,3.387386 -0.607943,3.421991 -0.02914,0.03465 -1.248071,0.21778 -2.708601,0.407051 -2.962482,0.38392 -6.172162,0.950766 -6.36095,1.123387 -0.06795,0.0621 0.216902,0.158131 0.633008,0.213324 0.543153,0.07211 1.305267,-0.01125 2.701763,-0.293492 2.548434,-0.516007 4.920141,-0.664351 5.201494,-0.325341 0.808025,0.973615 -1.35272,1.622745 -5.404987,1.623757 -1.352259,3.04e-4 -1.878548,0.06558 -2.547826,0.316026 -0.463931,0.173577 -0.810703,0.368687 -0.770608,0.433566 0.199824,0.323316 2.048819,0.288565 3.816374,-0.07178 2.33366,-0.475676 4.010281,-0.621825 4.447729,-0.387712 0.378328,0.20248 0.433285,0.65192 0.112276,0.918322 -0.320571,0.266052 -2.31809,0.570165 -4.553085,0.693196 -1.906653,0.104962 -3.432781,0.443331 -3.54716,0.786481 -0.07144,0.214449 1.204702,0.349405 3.319177,0.350991 1.659161,0.0011 1.818102,-0.02577 2.660023,-0.452759 1.279978,-0.649085 2.187442,-0.578794 2.187442,0.169448 0,0.44107 -0.709215,0.852745 -1.78686,1.037178 -0.708361,0.121243 -1.271045,0.337391 -1.820836,0.699462 -0.843575,0.55556 -1.324043,0.658948 -1.456627,0.313461 z m 1.963341,-19.765367 c 1.411108,-1.129024 2.535666,-2.424751 3.044867,-3.508325 0.435253,-0.926207 0.445603,-1.167532 0.0648,-1.512111 -0.283187,-0.256276 -0.310109,-0.25235 -0.658366,0.09585 -0.1997,0.1997 -0.62304,0.839458 -0.940754,1.42166 -1.212375,2.221677 -1.823265,3.192895 -2.405783,3.824868 -0.331427,0.359553 -0.539992,0.653731 -0.463457,0.653731 0.0765,0 0.687908,-0.439068 1.358637,-0.975719 z m -2.860906,0.54384 c 0.152843,-0.09698 0.09664,-0.501349 -0.263803,-1.89944 -0.717215,-2.781626 -1.220295,-3.526786 -2.099297,-3.109464 -1.023959,0.486149 -1.24445,2.345955 -0.424308,3.578918 0.681608,1.024702 2.19921,1.803252 2.787408,1.429986 z"
     id="path569"
     inkscape:connector-curvature="0" />
  <use
     height="100%"
     width="100%"
     y="0"
     x="0"
     style="fill:#000000"
     id="use444"
     transform="matrix(5.1680527,0,0,5.1680527,32.657553,53.488483)"
     xlink:href="#f1_19" />
  <g
     id="g504"
     transform="matrix(0.15200154,0,0,0.15200154,-20.862188,-39.931671)"
     style="fill:#000000">
    <use
       xlink:href="#f1_29"
       transform="matrix(34,0,0,34,362.9,614.6)"
       id="use454"
       x="0"
       y="0"
       width="100%"
       height="100%" />
    <use
       xlink:href="#f1_1x"
       transform="matrix(34,0,0,34,388.7,614.6)"
       id="use456"
       x="0"
       y="0"
       width="100%"
       height="100%" />
    <use
       xlink:href="#f1_23"
       transform="matrix(34,0,0,34,405.9,614.6)"
       id="use458"
       x="0"
       y="0"
       width="100%"
       height="100%" />
    <use
       xlink:href="#f1_25"
       transform="matrix(34,0,0,34,423.3,614.6)"
       id="use460"
       x="0"
       y="0"
       width="100%"
       height="100%" />
    <use
       xlink:href="#f1_2a"
       transform="matrix(34,0,0,34,432.9,614.6)"
       id="use462"
       x="0"
       y="0"
       width="100%"
       height="100%" />
    <use
       xlink:href="#f1_21"
       transform="matrix(34,0,0,34,450.6,614.6)"
       id="use464"
       x="0"
       y="0"
       width="100%"
       height="100%" />
    <use
       xlink:href="#f1_i"
       transform="matrix(34,0,0,34,467.6,614.6)"
       id="use466"
       x="0"
       y="0"
       width="100%"
       height="100%" />
    <use
       xlink:href="#f1_19"
       transform="matrix(34,0,0,34,487.4,614.6)"
       id="use468"
       x="0"
       y="0"
       width="100%"
       height="100%" />
    <use
       xlink:href="#f1_2a"
       transform="matrix(34,0,0,34,498.3,614.6)"
       id="use470"
       x="0"
       y="0"
       width="100%"
       height="100%" />
    <use
       xlink:href="#f1_25"
       transform="matrix(34,0,0,34,516,614.6)"
       id="use472"
       x="0"
       y="0"
       width="100%"
       height="100%" />
    <use
       xlink:href="#f1_2g"
       transform="matrix(34,0,0,34,525.6,614.6)"
       id="use474"
       x="0"
       y="0"
       width="100%"
       height="100%" />
    <use
       xlink:href="#f1_25"
       transform="matrix(34,0,0,34,536.7,614.6)"
       id="use476"
       x="0"
       y="0"
       width="100%"
       height="100%" />
    <use
       xlink:href="#f1_1x"
       transform="matrix(34,0,0,34,546.3,614.6)"
       id="use478"
       x="0"
       y="0"
       width="100%"
       height="100%" />
    <use
       xlink:href="#f1_2g"
       transform="matrix(34,0,0,34,563.5,614.6)"
       id="use480"
       x="0"
       y="0"
       width="100%"
       height="100%" />
    <use
       xlink:href="#f1_21"
       transform="matrix(34,0,0,34,574.8,614.6)"
       id="use482"
       x="0"
       y="0"
       width="100%"
       height="100%" />
    <use
       xlink:href="#f1_i"
       transform="matrix(34,0,0,34,591.8,614.6)"
       id="use484"
       x="0"
       y="0"
       width="100%"
       height="100%" />
    <use
       xlink:href="#f1_19"
       transform="matrix(34,0,0,34,611.6,614.6)"
       id="use486"
       x="0"
       y="0"
       width="100%"
       height="100%" />
    <use
       xlink:href="#f1_2a"
       transform="matrix(34,0,0,34,622.4,614.6)"
       id="use488"
       x="0"
       y="0"
       width="100%"
       height="100%" />
    <use
       xlink:href="#f1_1z"
       transform="matrix(34,0,0,34,640.2,614.6)"
       id="use490"
       x="0"
       y="0"
       width="100%"
       height="100%" />
    <use
       xlink:href="#f1_2h"
       transform="matrix(34,0,0,34,657.2,614.6)"
       id="use492"
       x="0"
       y="0"
       width="100%"
       height="100%" />
    <use
       xlink:href="#f1_1y"
       transform="matrix(34,0,0,34,674.9,614.6)"
       id="use494"
       x="0"
       y="0"
       width="100%"
       height="100%" />
    <use
       xlink:href="#f1_1x"
       transform="matrix(34,0,0,34,692.5,614.6)"
       id="use496"
       x="0"
       y="0"
       width="100%"
       height="100%" />
    <use
       xlink:href="#f1_2g"
       transform="matrix(34,0,0,34,709.8,614.6)"
       id="use498"
       x="0"
       y="0"
       width="100%"
       height="100%" />
    <use
       xlink:href="#f1_21"
       transform="matrix(34,0,0,34,720.9,614.6)"
       id="use500"
       x="0"
       y="0"
       width="100%"
       height="100%" />
    <use
       xlink:href="#f1_i"
       transform="matrix(34,0,0,34,737.9,614.6)"
       id="use502"
       x="0"
       y="0"
       width="100%"
       height="100%" />
  </g>
  <defs
     id="defs538">
    <path
       d="M 263,0 V 958 H 14 v 283 H 993 V 958 H 744 V 0 Z"
       id="f0_1k"
       transform="matrix(0.001,0,0,-0.001,0,0)"
       inkscape:connector-curvature="0" />
    <path
       d="M 55,0 V 1241 H 416 V 920 c 0,0 47,30 99,45 0,0 52,16 112,16 0,0 122,0 186,-73 0,0 64,-73 64,-211 V 0 H 516 v 680 c 0,0 0,38 -12,57 0,0 -12,18 -38,18 0,0 -27,0 -38,-18 0,0 -12,-18 -12,-57 V 0 Z"
       id="f0_24"
       transform="matrix(0.001,0,0,-0.001,0,0)"
       inkscape:connector-curvature="0" />
    <path
       d="M 57,0 V 1241 H 541 V 0 Z"
       id="f0_19"
       transform="matrix(0.001,0,0,-0.001,0,0)"
       inkscape:connector-curvature="0" />
    <path
       d="M 57,0 V 1241 H 535 L 726,729 v 512 h 441 V 0 H 710 L 499,583 V 0 Z"
       id="f0_1e"
       transform="matrix(0.001,0,0,-0.001,0,0)"
       inkscape:connector-curvature="0" />
    <path
       d="M 60,0 V 1241 H 535 V 739 l 156,502 h 493 L 997,665 1195,0 H 707 L 535,567 V 0 Z"
       id="f0_1b"
       transform="matrix(0.001,0,0,-0.001,0,0)"
       inkscape:connector-curvature="0" />
    <path
       d="M 74,0 V 290 H 435 V 0 Z m 0,520 V 811 H 435 V 520 Z"
       id="f0_u"
       transform="matrix(0.001,0,0,-0.001,0,0)"
       inkscape:connector-curvature="0" />
    <path
       d="m 279,615 v 210 c 0,0 0,28 -7,40 0,0 -6,11 -21,11 0,0 -17,0 -23,-10 0,0 -7,-11 -7,-41 V 615 Z M 247,-5 c 0,0 -127,0 -168,37 0,0 -40,39 -40,156 v 634 c 0,0 0,120 41,158 0,0 41,38 170,38 0,0 130,0 171,-39 0,0 41,-40 41,-157 V 475 H 221 V 186 c 0,0 0,-29 7,-40 0,0 6,-12 22,-12 0,0 15,0 22,10 0,0 7,11 7,42 V 375 H 462 V 188 c 0,0 0,-118 -41,-156 0,0 -41,-37 -174,-37 z"
       id="f1_21"
       transform="matrix(0.001,0,0,-0.001,0,0)"
       inkscape:connector-curvature="0" />
    <path
       d="m 51,0 v 1010 h 181 v -42 c 0,0 24,24 51,37 0,0 26,13 53,13 0,0 74,0 105,-49 0,0 31,-48 31,-188 V 0 H 290 v 818 c 0,0 0,27 -6,37 0,0 -7,11 -23,11 0,0 -16,0 -22,-10 0,0 -7,-11 -7,-38 V 0 Z"
       id="f1_2a"
       transform="matrix(0.001,0,0,-0.001,0,0)"
       inkscape:connector-curvature="0" />
    <path
       d="m 237,-1 c 0,0 -104,0 -141,35 0,0 -37,36 -37,170 V 871 H 11 v 141 h 48 v 229 h 182 v -229 h 71 V 871 H 241 V 185 c 0,0 0,-27 10,-38 0,0 11,-10 38,-10 h 23 V -1 Z"
       id="f1_2g"
       transform="matrix(0.001,0,0,-0.001,0,0)"
       inkscape:connector-curvature="0" />
    <path
       d="m 247,-5 c 0,0 -127,0 -168,37 0,0 -40,39 -40,156 v 634 c 0,0 0,120 41,158 0,0 41,38 170,38 0,0 130,0 171,-39 0,0 41,-39 41,-157 V 599 H 279 v 226 c 0,0 0,29 -7,40 0,0 -7,11 -22,11 0,0 -16,0 -23,-10 0,0 -6,-10 -6,-41 V 186 c 0,0 0,-29 7,-40 0,0 6,-12 22,-12 0,0 15,0 22,10 0,0 7,11 7,42 V 434 H 462 V 188 c 0,0 0,-118 -41,-156 0,0 -41,-37 -174,-37 z"
       id="f1_1z"
       transform="matrix(0.001,0,0,-0.001,0,0)"
       inkscape:connector-curvature="0" />
    <path
       d="M 51,0 V 1012 H 232 V 0 Z m 0,1095 v 146 h 181 v -146 z"
       id="f1_25"
       transform="matrix(0.001,0,0,-0.001,0,0)"
       inkscape:connector-curvature="0" />
    <path
       d="m 251,134 c 0,0 15,0 21,11 0,0 7,11 7,41 v 280 l -31,-18 c 0,0 -14,-8 -20,-21 0,0 -7,-12 -7,-30 V 186 c 0,0 0,-28 7,-40 0,0 7,-12 23,-12 z M 167,-5 c 0,0 -70,0 -99,45 0,0 -29,47 -29,181 v 173 c 0,0 0,59 19,92 0,0 20,33 68,63 l 153,89 v 187 c 0,0 0,29 -7,40 0,0 -7,11 -22,11 0,0 -16,0 -22,-11 0,0 -7,-12 -7,-40 V 671 H 39 v 151 c 0,0 0,120 41,158 0,0 41,38 170,38 0,0 130,0 171,-39 0,0 41,-39 41,-157 V 0 H 279 v 41 c 0,0 -23,-22 -52,-35 0,0 -29,-11 -60,-11 z"
       id="f1_1x"
       transform="matrix(0.001,0,0,-0.001,0,0)"
       inkscape:connector-curvature="0" />
    <path
       d="m 187,-4 c 0,0 -75,0 -106,48 0,0 -30,48 -30,187 v 781 H 232 V 193 c 0,0 0,-27 6,-38 0,0 7,-10 23,-10 0,0 17,0 23,10 0,0 6,11 6,38 v 819 H 472 V 0 H 290 v 42 c 0,0 -21,-22 -48,-35 0,0 -28,-11 -55,-11 z"
       id="f1_2h"
       transform="matrix(0.001,0,0,-0.001,0,0)"
       inkscape:connector-curvature="0" />
    <path
       d="M 54,0 V 1241 H 266 V 0 Z"
       id="f1_19"
       transform="matrix(0.001,0,0,-0.001,0,0)"
       inkscape:connector-curvature="0" />
    <path
       d="m 54,0 v 1012 h 178 v -49 c 0,0 24,28 52,41 0,0 28,14 63,14 0,0 28,0 57,-15 0,0 28,-16 50,-43 0,0 24,28 54,43 0,0 31,15 65,15 0,0 72,0 102,-50 0,0 31,-49 31,-175 V 0 H 528 v 818 c 0,0 0,27 -7,37 0,0 -7,11 -22,11 0,0 -17,0 -23,-10 0,0 -7,-10 -7,-38 V 0 H 290 v 818 c 0,0 0,27 -6,38 0,0 -7,10 -23,10 0,0 -16,0 -22,-10 0,0 -7,-11 -7,-38 V 0 Z"
       id="f1_29"
       transform="matrix(0.001,0,0,-0.001,0,0)"
       inkscape:connector-curvature="0" />
    <path
       d="m 249,148 c 0,0 17,0 24,9 0,0 7,10 7,39 v 621 c 0,0 0,27 -7,38 0,0 -7,10 -23,10 0,0 -15,0 -22,-10 0,0 -7,-11 -7,-38 V 196 c 0,0 0,-27 6,-38 0,0 7,-10 22,-10 z M 47,-236 v 140 h 181 c 0,0 6,0 12,1 0,0 7,1 7,1 0,0 18,0 26,8 0,0 7,9 7,34 v 94 c 0,0 -22,-22 -49,-35 0,0 -28,-11 -55,-11 0,0 -74,0 -106,48 0,0 -31,48 -31,187 v 551 c 0,0 0,140 31,188 0,0 32,48 107,48 0,0 26,0 53,-13 0,0 27,-13 50,-37 v 42 H 461 V -62 c 0,0 0,-99 -38,-136 0,0 -38,-38 -146,-38 z"
       id="f1_23"
       transform="matrix(0.001,0,0,-0.001,0,0)"
       inkscape:connector-curvature="0" />
    <path
       d="M 59,0 V 219 H 234 V 0 Z"
       id="f1_i"
       transform="matrix(0.001,0,0,-0.001,0,0)"
       inkscape:connector-curvature="0" />
    <path
       d="m 261,147 c 0,0 16,0 23,10 0,0 6,11 6,38 v 622 c 0,0 0,26 -6,37 0,0 -6,11 -21,11 0,0 -17,0 -24,-10 0,0 -7,-10 -7,-38 V 195 c 0,0 0,-27 6,-38 0,0 7,-10 23,-10 z M 341,-5 c 0,0 -31,0 -58,11 0,0 -28,13 -51,36 V 0 H 51 V 1241 H 232 V 969 c 0,0 24,24 51,36 0,0 26,13 53,13 0,0 74,0 105,-49 0,0 31,-48 31,-187 V 232 c 0,0 0,-136 -30,-187 0,0 -31,-50 -101,-50 z"
       id="f1_1y"
       transform="matrix(0.001,0,0,-0.001,0,0)"
       inkscape:connector-curvature="0" />
  </defs>
  <!-- Any embedded fonts defined here -->
  <style
     type="text/css"
     id="style540"><![CDATA[

@font-face {
	font-family: CompactaBT_a;
	src: url("fonts/CompactaBT_a.woff") format("woff");
}

@font-face {
	font-family: CompactaBlkBT_7;
	src: url("fonts/CompactaBlkBT_7.woff") format("woff");
}

]]></style>
  <g
     id="g1399"
     transform="matrix(0.15200154,0,0,0.15200154,-20.862188,-39.931671)">
    <use
       xlink:href="#f0_u"
       transform="matrix(80.1,0,0,80.1,727.4,534.9)"
       id="use442"
       style="fill:#000000"
       x="0"
       y="0"
       width="100%"
       height="100%" />
    <use
       xlink:href="#f0_1k"
       transform="matrix(80.1,0,0,80.1,331.9,534.9)"
       id="use428"
       style="fill:#000000"
       x="0"
       y="0"
       width="100%"
       height="100%" />
    <use
       xlink:href="#f0_24"
       transform="matrix(80.1,0,0,80.1,412.6,534.9)"
       id="use430"
       style="fill:#000000"
       x="0"
       y="0"
       width="100%"
       height="100%" />
    <use
       xlink:href="#f0_19"
       transform="matrix(80.1,0,0,80.1,486.9,534.9)"
       id="use434"
       style="fill:#085296"
       x="0"
       y="0"
       width="100%"
       height="100%" />
    <use
       xlink:href="#f0_1e"
       transform="matrix(80.1,0,0,80.1,534.7,534.9)"
       id="use436"
       style="fill:#085296"
       x="0"
       y="0"
       width="100%"
       height="100%" />
    <use
       xlink:href="#f0_1b"
       transform="matrix(80.1,0,0,80.1,632.7,534.9)"
       id="use438"
       style="fill:#085296"
       x="0"
       y="0"
       width="100%"
       height="100%" />
  </g>
</svg>
