<?xml version="1.0" encoding="UTF-8" standalone="no"?>
<!-- Created with Inkscape (http://www.inkscape.org/) -->

<svg
   xmlns:dc="http://purl.org/dc/elements/1.1/"
   xmlns:cc="http://creativecommons.org/ns#"
   xmlns:rdf="http://www.w3.org/1999/02/22-rdf-syntax-ns#"
   xmlns:svg="http://www.w3.org/2000/svg"
   xmlns="http://www.w3.org/2000/svg"
   xmlns:sodipodi="http://sodipodi.sourceforge.net/DTD/sodipodi-0.dtd"
   xmlns:inkscape="http://www.inkscape.org/namespaces/inkscape"
   width="100"
   height="100"
   viewBox="0 0 26.458333 26.458334"
   version="1.1"
   id="svg8"
   inkscape:version="0.92.4 (5da689c313, 2019-01-14)"
   sodipodi:docname="timeips-logo.svg">
  <defs
     id="defs2" />
  <sodipodi:namedview
     id="base"
     pagecolor="#ffffff"
     bordercolor="#666666"
     borderopacity="1.0"
     inkscape:pageopacity="0.0"
     inkscape:pageshadow="2"
     inkscape:zoom="2.8"
     inkscape:cx="51.196126"
     inkscape:cy="109.48652"
     inkscape:document-units="px"
     inkscape:current-layer="layer1"
     showgrid="false"
     units="px"
     inkscape:window-width="2498"
     inkscape:window-height="1417"
     inkscape:window-x="1974"
     inkscape:window-y="-8"
     inkscape:window-maximized="1" />
  <metadata
     id="metadata5">
    <rdf:RDF>
      <cc:Work
         rdf:about="">
        <dc:format>image/svg+xml</dc:format>
        <dc:type
           rdf:resource="http://purl.org/dc/dcmitype/StillImage" />
        <dc:title />
      </cc:Work>
    </rdf:RDF>
  </metadata>
  <g
     inkscape:label="Layer 1"
     inkscape:groupmode="layer"
     id="layer1"
     transform="translate(0,-270.54166)">
    <g
       id="g907"
       transform="matrix(0.13658597,0,0,0.13658597,2.4225559,260.38827)">
      <path
         d="m 46.982441,156.12827 v -12.56771 h 8.069791 8.069792 v 1.32292 1.32292 h -6.482292 -6.482291 v 4.10104 4.10104 h 6.217708 6.217708 v 1.32292 1.32291 l -6.283854,-2.6e-4 -6.283854,-2.7e-4 0.07821,4.49826 0.07821,4.49826 h 6.470227 6.470229 v 1.32291 1.32292 h -8.069792 -8.069791 v -12.56771 z m -29.36875,-0.01 v -12.57729 l 2.528954,0.0757 2.528953,0.0757 1.270596,3.0427 c 0.698828,1.67349 2.373558,5.72162 3.721624,8.99584 1.348068,3.27422 2.717255,6.59375 3.042639,7.37675 0.325385,0.783 0.653608,1.31878 0.729388,1.19063 0.07578,-0.12816 0.877276,-2.01895 1.781106,-4.20176 0.90383,-2.18281 2.339996,-5.63562 3.191483,-7.67292 0.851488,-2.03729 2.011863,-4.83526 2.578613,-6.2177 l 1.030457,-2.51354 2.556426,-0.0757 2.556428,-0.0757 v 12.57729 12.57729 h -1.455209 -1.455208 v -11.1566 c 0,-6.13613 -0.08485,-11.07175 -0.188553,-10.96804 -0.103703,0.1037 -0.388519,0.68909 -0.632925,1.30087 -0.244407,0.61177 -1.157875,2.83872 -2.029934,4.94877 -0.872056,2.11005 -2.242923,5.4438 -3.046367,7.40833 -0.803447,1.96453 -1.91932,4.64344 -2.47972,5.95313 l -1.018906,2.38125 -1.34457,0.0785 c -0.871511,0.0509 -1.437031,-0.0422 -1.607375,-0.26458 -0.144545,-0.18869 -2.277094,-5.22464 -4.739,-11.191 l -4.476191,-10.84791 -0.06902,11.17864 -0.06902,11.17865 h -1.452335 -1.452338 v -12.57729 z m -5.820833,0.01 v -12.56771 h 1.455208 1.455209 v 12.56771 12.56771 H 13.248066 11.792858 Z M 0.07488306,168.53148 c -0.10355262,-0.10355 -0.18827485,-5.16906 -0.18827485,-11.25668 v -11.0684 h -3.96874991 -3.96875 v -1.32622 -1.32622 l 9.5911457,0.0695 9.591146,0.0695 v 1.19062 1.19063 l -4.0320306,0.073 -4.0320304,0.073 -0.069011,11.17177 -0.069011,11.17177 -1.3330793,0.078 c -0.73319479,0.0429 -1.41780416,-0.007 -1.52135414,-0.11024 z"
         style="fill:#000000;stroke-width:0.26458332"
         id="path890"
         inkscape:connector-curvature="0" />
      <path
         d="m 397.57227,545.5918 v 46.02734 46.02734 l 14.25,-0.27734 14.25,-0.27734 0.28125,-11.25 0.2832,-11.25 h 28.41797 c 16.40353,0 30.52734,-0.45289 33.40625,-1.07032 6.83123,-1.46502 13.34826,-7.27458 15.94336,-14.21289 3.89431,-10.41176 3.66105,-30.87064 -0.44336,-39.00781 -2.24466,-4.45005 -6.24331,-8.56069 -10.42188,-10.71094 -6.70949,-3.45263 -14.31691,-3.99804 -55.65039,-3.99804 z m 29.12304,23 19.68946,0.0234 c 21.47259,0.0261 26.77701,0.75312 29.4375,4.03711 2.75493,3.4006 2.38691,12.08558 -0.66211,15.63282 l -2.41211,2.80664 -22.8711,0.30078 c -12.57898,0.16554 -23.08088,0.0926 -23.33789,-0.16211 -0.25701,-0.25482 -0.32822,-5.45274 -0.15625,-11.55078 z m -70.43025,68.35959 c -0.3815,-0.38147 -0.69363,-21.09362 -0.69363,-46.02694 V 545.5911 h 14.51009 14.51009 l -0.26003,45.75001 -0.26003,45.75001 -13.55637,0.27704 c -7.45601,0.15231 -13.86852,-0.034 -14.25001,-0.41669 z m 179.80635,0.9908 c -15.96514,-2.37626 -21.61406,-8.09654 -22.3192,-22.60108 l -0.42543,-8.74998 h 14.10327 14.10327 l 0.63803,2.74998 c 0.35074,1.51249 1.26984,3.76252 2.04211,5.00001 1.39503,2.23552 1.56435,2.24999 26.3096,2.24999 21.29794,0 25.13291,-0.22752 26.47544,-1.56994 3.82325,-3.82325 2.69302,-9.66236 -2.23786,-11.56157 -1.47908,-0.56969 -16.18919,-1.41351 -32.68921,-1.87514 -30.7776,-0.86105 -34.81701,-1.38459 -40.56356,-5.25721 -6.31532,-4.25586 -7.43644,-7.60823 -7.43644,-22.23613 0,-12 0.19237,-13.34616 2.5,-17.50001 3.04747,-5.48545 10.22502,-9.41877 20.00002,-10.96002 8.84972,-1.39537 58.65528,-1.32851 66.91808,0.09 14.79515,2.53965 20.12516,7.90424 20.88442,21.0198 l 0.45445,7.85039 H 610.9067 596.985 l -0.95678,-3.25002 c -1.43577,-4.87695 -4.92598,-5.62787 -26.46339,-5.69356 -24.0743,-0.0733 -26.94459,0.7321 -26.97808,7.57112 -0.0265,5.64672 0.74865,5.81299 30.38635,6.50713 14.90407,0.34923 30.18655,1.15329 33.96109,1.78719 17.15792,2.88151 22.40822,10.51121 21.45563,31.17918 -0.68217,14.80123 -4.37382,20.1061 -16.35738,23.50537 -4.9649,1.40833 -11.55908,1.73269 -39.46099,1.94105 -18.42501,0.13758 -34.85001,0.0491 -36.50004,-0.19653 z"
         style="fill:#000000;stroke-width:0.99999994"
         transform="scale(0.26458333)"
         id="path886"
         inkscape:connector-curvature="0" />
      <path
         id="path882"
         transform="scale(0.26458333)"
         d="m 297.69336,538.71484 c -16.32313,-0.16742 -32.16533,8.13947 -41.31445,22.29493 -18.24948,28.23549 -3.11043,66.24207 29.54101,74.16211 24.91549,6.04357 50.53938,-9.12812 58.23438,-34.48047 1.81909,-5.9935 1.80106,-19.20422 -0.0352,-26.25391 -4.33106,-16.62811 -19.88899,-31.10141 -37.34766,-34.74219 -3.01627,-0.62901 -6.05532,-0.94946 -9.07812,-0.98047 z m -0.35742,2.9375 c 1.11559,-0.0665 2.20472,0.30824 3.03515,1.13868 0.85917,0.85916 1.20118,7.32638 1.20118,22.76953 v 21.57031 l 9.5664,9.48047 c 11.05795,10.9567 11.92314,12.19722 10.4336,14.98047 -2.20512,4.12032 -5.18964,2.42236 -17.30469,-9.84375 l -11.69531,-11.8418 v -22.58594 c 0,-19.19932 0.2345,-22.82236 1.57031,-24.1582 0.93576,-0.93581 2.07776,-1.44323 3.19336,-1.50977 z"
         style="fill:#376ab3;fill-opacity:1;stroke-width:0.99999994"
         inkscape:connector-curvature="0" />
    </g>
  </g>
</svg>
