<?xml version="1.0" encoding="UTF-8" standalone="no"?>
<svg
   xmlns:dc="http://purl.org/dc/elements/1.1/"
   xmlns:cc="http://creativecommons.org/ns#"
   xmlns:rdf="http://www.w3.org/1999/02/22-rdf-syntax-ns#"
   xmlns:svg="http://www.w3.org/2000/svg"
   xmlns="http://www.w3.org/2000/svg"
   xmlns:sodipodi="http://sodipodi.sourceforge.net/DTD/sodipodi-0.dtd"
   xmlns:inkscape="http://www.inkscape.org/namespaces/inkscape"
   id="Logo_FIXED"
   data-name="Logo — FIXED"
   viewBox="0 0 100 100"
   version="1.1"
   sodipodi:docname="twitter-icon.svg"
   width="100"
   height="100"
   inkscape:version="0.92.4 (5da689c313, 2019-01-14)">
  <metadata
     id="metadata15">
    <rdf:RDF>
      <cc:Work
         rdf:about="">
        <dc:format>image/svg+xml</dc:format>
        <dc:type
           rdf:resource="http://purl.org/dc/dcmitype/StillImage" />
        <dc:title>Twitter_Logo_Blue</dc:title>
      </cc:Work>
    </rdf:RDF>
  </metadata>
  <sodipodi:namedview
     pagecolor="#ffffff"
     bordercolor="#666666"
     borderopacity="1"
     objecttolerance="10"
     gridtolerance="10"
     guidetolerance="10"
     inkscape:pageopacity="0"
     inkscape:pageshadow="2"
     inkscape:window-width="1041"
     inkscape:window-height="760"
     id="namedview13"
     showgrid="false"
     inkscape:zoom="1.668772"
     inkscape:cx="90.319631"
     inkscape:cy="53.832086"
     inkscape:window-x="365"
     inkscape:window-y="156"
     inkscape:window-maximized="0"
     inkscape:current-layer="Logo_FIXED" />
  <defs
     id="defs4">
    <style
       id="style2">.cls-1{fill:none;}.cls-2{fill:#1da1f2;}</style>
  </defs>
  <title
     id="title6">Twitter_Logo_Blue</title>
  <path
     class="cls-2"
     d="m 33.3032,86.564829 c 33.9624,0 52.5384,-28.1376 52.5384,-52.5384 0,-0.7992 0,-1.5948 -0.054,-2.3868 a 37.5696,37.5696 0 0 0 9.2124,-9.558 36.8568,36.8568 0 0 1 -10.6056,2.9052 18.5292,18.5292 0 0 0 8.118,-10.2132 37.0044,37.0044 0 0 1 -11.7252,4.482 18.4824,18.4824 0 0 0 -31.4676,16.8408 52.4232,52.4232 0 0 1 -38.0556,-19.2924 18.4788,18.4788 0 0 0 5.7168,24.6492 18.3276,18.3276 0 0 1 -8.3808,-2.3112 c 0,0.0756 0,0.1548 0,0.234 a 18.4716,18.4716 0 0 0 14.814,18.1008 18.4356,18.4356 0 0 1 -8.3376,0.3168 18.486,18.486 0 0 0 17.2512,12.8232 37.0512,37.0512 0 0 1 -22.932,7.92 37.5876,37.5876 0 0 1 -4.3956,-0.2664 52.2756,52.2756 0 0 0 28.3032,8.28"
     id="path10"
     inkscape:connector-curvature="0"
     style="fill:#1da1f2;stroke-width:0.36000001" />
</svg>
