<?xml version="1.0" encoding="UTF-8" standalone="no"?>
<svg
   xmlns:dc="http://purl.org/dc/elements/1.1/"
   xmlns:cc="http://creativecommons.org/ns#"
   xmlns:rdf="http://www.w3.org/1999/02/22-rdf-syntax-ns#"
   xmlns:svg="http://www.w3.org/2000/svg"
   xmlns="http://www.w3.org/2000/svg"
   xmlns:sodipodi="http://sodipodi.sourceforge.net/DTD/sodipodi-0.dtd"
   xmlns:inkscape="http://www.inkscape.org/namespaces/inkscape"
   id="Layer_1"
   data-name="Layer 1"
   viewBox="0 0 100 99.999996"
   version="1.1"
   sodipodi:docname="vch-logo.svg"
   width="100"
   height="100"
   inkscape:version="0.92.4 (5da689c313, 2019-01-14)">
  <metadata
     id="metadata967">
    <rdf:RDF>
      <cc:Work
         rdf:about="">
        <dc:format>image/svg+xml</dc:format>
        <dc:type
           rdf:resource="http://purl.org/dc/dcmitype/StillImage" />
        <dc:title>Wichita Hutchinson Hosp</dc:title>
      </cc:Work>
    </rdf:RDF>
  </metadata>
  <sodipodi:namedview
     pagecolor="#ffffff"
     bordercolor="#666666"
     borderopacity="1"
     objecttolerance="10"
     gridtolerance="10"
     guidetolerance="10"
     inkscape:pageopacity="0"
     inkscape:pageshadow="2"
     inkscape:window-width="1640"
     inkscape:window-height="1050"
     id="namedview965"
     showgrid="false"
     inkscape:zoom="3.302866"
     inkscape:cx="48.13378"
     inkscape:cy="27.549718"
     inkscape:window-x="1920"
     inkscape:window-y="0"
     inkscape:window-maximized="1"
     inkscape:current-layer="Layer_1" />
  <defs
     id="defs922">
    <style
       id="style920">.cls-1{fill:#0081c6;}.cls-2{fill:#008a5e;}.cls-3{fill:#c1d82f;}.cls-4{fill:#717073;}</style>
  </defs>
  <title
     id="title924">Wichita Hutchinson Hosp</title>
  <path
     id="path944"
     style="fill:#0081c6;stroke-width:0.25854763"
     d="m 93.327252,72.21372 a 0.15512858,0.15512858 0 0 1 -0.15513,-0.15513 v 0 -9.41372 a 0.15512858,0.15512858 0 0 1 0.15513,-0.15513 h 1.40392 a 0.15512858,0.15512858 0 0 1 0.11117,0.0465 v 0 a 0.15512858,0.15512858 0 0 1 0.0465,0.11117 v 0 9.41372 a 0.16029953,0.16029953 0 0 1 -0.0465,0.11118 v 0 a 0.15512858,0.15512858 0 0 1 -0.11117,0.0439 h -1.40133 z m -0.0905,-11.47176 a 0.15512858,0.15512858 0 0 1 -0.15513,-0.15513 v 0 -1.55129 a 0.15771405,0.15771405 0 0 1 0.0465,-0.11117 v 0 a 0.15771405,0.15771405 0 0 1 0.11117,-0.0465 h 1.603 a 0.15771405,0.15771405 0 0 1 0.11118,0.0465 v 0 a 0.15512858,0.15512858 0 0 1 0.0465,0.11117 v 0 1.55129 a 0.15771405,0.15771405 0 0 1 -0.0465,0.11117 v 0 a 0.16029953,0.16029953 0 0 1 -0.11118,0.0465 h -1.603 z m -4.24535,11.63464 a 2.9345157,2.9345157 0 0 1 -2.00116,-0.65154 v 0 c -0.5171,-0.45763 -0.81443,-1.17381 -0.81443,-2.1537 v 0 c 0,0 0,0 0,-0.0233 v 0 -5.50965 h -1.15312 a 0.15771405,0.15771405 0 0 1 -0.11118,-0.0465 v 0 a 0.15512858,0.15512858 0 0 1 -0.0465,-0.11118 v 0 -1.23845 a 0.15771405,0.15771405 0 0 1 0.15771,-0.15771 h 1.15571 v -2.68114 a 0.15512858,0.15512858 0 0 1 0.15513,-0.15513 h 1.39615 a 0.15512858,0.15512858 0 0 1 0.11118,0.0465 v 0 a 0.15512858,0.15512858 0 0 1 0.0465,0.11118 v 0 2.68372 h 2.83109 a 0.15771405,0.15771405 0 0 1 0.11118,0.0465 v 0 a 0.15512858,0.15512858 0 0 1 0.0465,0.11118 v 0 1.23844 a 0.15771405,0.15771405 0 0 1 -0.0465,0.11117 v 0 a 0.15771405,0.15771405 0 0 1 -0.11118,0.0465 h -2.82592 v 5.3416 c 0.0207,1.07814 0.51709,1.38581 1.42718,1.40908 v 0 a 2.7871434,2.7871434 0 0 0 1.29274,-0.31026 v 0 a 0.15512858,0.15512858 0 0 1 0.14996,0 v 0 a 0.15512858,0.15512858 0 0 1 0.0724,0.13186 v 0 1.20225 a 0.15771405,0.15771405 0 0 1 -0.0853,0.13962 v 0 a 3.6817185,3.6817185 0 0 1 -1.76071,0.41884 v 0 z m -12.92739,-1.39616 a 0.15771405,0.15771405 0 0 1 -0.0336,-0.21718 v 0 l 0.71101,-1.00058 a 0.1525431,0.1525431 0 0 1 0.10342,-0.0646 v 0 a 0.15512858,0.15512858 0 0 1 0.11893,0.0285 v 0 a 5.346765,5.346765 0 0 0 3.16462,1.17122 v 0 c 1.0859,0 1.79174,-0.53778 1.79174,-1.33669 v 0 -0.0362 0 c 0,-0.40333 -0.22235,-0.6748 -0.63344,-0.91784 v 0 a 7.1643548,7.1643548 0 0 0 -1.603,-0.5869 v 0 a 7.740916,7.740916 0 0 1 -2.1537,-0.85838 v 0 a 2.2286806,2.2286806 0 0 1 -1.07297,-1.95203 v 0 -0.0362 a 2.6294294,2.6294294 0 0 1 0.96179,-2.06838 v 0 a 3.7282568,3.7282568 0 0 1 2.39933,-0.77565 v 0 a 6.5877935,6.5877935 0 0 1 3.47229,1.05747 v 0 a 0.15771405,0.15771405 0 0 1 0.0465,0.212 v 0 l -0.63603,1.05488 a 0.16029953,0.16029953 0 0 1 -0.0982,0.0724 v 0 a 0.15512858,0.15512858 0 0 1 -0.11894,-0.0207 v 0 a 5.1709526,5.1709526 0 0 0 -2.70182,-0.88423 v 0 c -1.06263,0 -1.66246,0.53519 -1.66246,1.21 v 0 0.0362 c 0,0.36714 0.23011,0.62568 0.6593,0.86355 v 0 a 9.3077147,9.3077147 0 0 0 1.65212,0.60758 v 0 a 7.3013852,7.3013852 0 0 1 2.10199,0.89975 v 0 a 2.2726337,2.2726337 0 0 1 1.03419,1.94686 v 0 0.0362 a 2.730263,2.730263 0 0 1 -1.03419,2.20283 v 0 a 3.9454369,3.9454369 0 0 1 -2.47689,0.77564 v 0 a 6.6265758,6.6265758 0 0 1 -3.98939,-1.41426 z m -3.78772,1.23069 a 0.15771405,0.15771405 0 0 1 -0.15771,-0.15771 v 0 -9.41114 a 0.15512858,0.15512858 0 0 1 0.15513,-0.15771 h 1.40132 a 0.15512858,0.15512858 0 0 1 0.11118,0.0465 v 0 a 0.15512858,0.15512858 0 0 1 0.0465,0.11117 v 0 9.41372 a 0.15512858,0.15512858 0 0 1 -0.0465,0.11118 v 0 a 0.15512858,0.15512858 0 0 1 -0.11118,0.0465 h -1.40132 z m -0.0905,-11.47176 a 0.15512858,0.15512858 0 0 1 -0.15513,-0.15513 v 0 -1.55128 a 0.15771405,0.15771405 0 0 1 0.0465,-0.11118 v 0 a 0.15771405,0.15771405 0 0 1 0.11117,-0.0465 h 1.603 a 0.1525431,0.1525431 0 0 1 0.11118,0.0465 v 0 a 0.15512858,0.15512858 0 0 1 0.0465,0.11118 v 0 1.55128 a 0.1525431,0.1525431 0 0 1 -0.0465,0.11118 v 0 a 0.15512858,0.15512858 0 0 1 -0.11118,0.0465 h -1.603 z m -7.41256,11.47176 a 0.15512858,0.15512858 0 0 1 -0.11118,-0.0465 v 0 a 0.1525431,0.1525431 0 0 1 -0.0465,-0.11117 v 0 -9.41114 a 0.15771405,0.15771405 0 0 1 0.15772,-0.15771 h 1.40133 a 0.15512858,0.15512858 0 0 1 0.11117,0.0465 v 0 a 0.15512858,0.15512858 0 0 1 0.0465,0.11117 v 0 1.80983 c 0.74462,-1.25654 1.97531,-2.1356 3.52401,-2.1356 h 0.17064 a 0.15771405,0.15771405 0 0 1 0.14995,0.15772 v 0 1.5125 a 0.15512858,0.15512858 0 0 1 -0.0465,0.11117 v 0 a 0.15771405,0.15771405 0 0 1 -0.11118,0.0466 h -0.11376 c -1.9753,0 -3.5602,1.38323 -3.57313,4.16003 v 0 3.75152 a 0.1525431,0.1525431 0 0 1 -0.0465,0.11118 v 0 a 0.1525431,0.1525431 0 0 1 -0.11117,0.0465 h -1.40133 z m -4.38756,0 a 0.15512858,0.15512858 0 0 1 -0.11117,-0.0465 v 0 a 0.1525431,0.1525431 0 0 1 -0.0465,-0.11117 v 0 -5.49931 c -0.0155,-1.69349 -0.86872,-2.6708 -2.44845,-2.68373 v 0 c -1.55128,0 -2.65786,1.10141 -2.66562,2.79232 v 0 5.39072 a 0.1525431,0.1525431 0 0 1 -0.0465,0.11117 v 0 a 0.15512858,0.15512858 0 0 1 -0.11118,0.0465 h -1.40133 a 0.15771405,0.15771405 0 0 1 -0.15771,-0.15771 v 0 -13.29194 a 0.15512858,0.15512858 0 0 1 0.15771,-0.15771 h 1.40133 a 0.15512858,0.15512858 0 0 1 0.11118,0.0465 v 0 a 0.15512858,0.15512858 0 0 1 0.0465,0.11117 v 0 5.00807 a 3.6662054,3.6662054 0 0 1 3.06379,-1.48665 v 0 a 3.658449,3.658449 0 0 1 2.7768,1.104 v 0 a 4.0669542,4.0669542 0 0 1 0.99024,2.83109 v 0 5.84577 a 0.15512858,0.15512858 0 0 1 -0.0465,0.11117 v 0 a 0.15771405,0.15771405 0 0 1 -0.11118,0.0465 h -1.40133 z m -14.20202,0.22494 v 0 a 6.4223233,6.4223233 0 0 1 -4.68747,-1.95204 v 0 a 6.8023882,6.8023882 0 0 1 -1.85637,-4.7702 v 0 0 -0.0259 a 6.8515123,6.8515123 0 0 1 1.85896,-4.75469 v 0 a 6.4636907,6.4636907 0 0 1 4.74176,-1.9934 v 0 c 2.34244,0 3.78255,0.84804 5.06754,2.06838 v 0 a 0.15771405,0.15771405 0 0 1 0,0.21977 v 0 l -0.98248,1.05487 a 0.15512858,0.15512858 0 0 1 -0.10859,0.0491 v 0 a 0.15512858,0.15512858 0 0 1 -0.11376,-0.0439 v 0 c -1.06264,-1.00575 -2.21317,-1.70383 -3.89632,-1.70383 v 0 c -2.73285,0 -4.77279,2.21317 -4.77796,5.06754 v 0 0.0362 c 0,2.87505 2.06838,5.10373 4.77796,5.10632 v 0 c 1.70383,0 2.79232,-0.64379 4.0049,-1.79432 v 0 a 0.15771405,0.15771405 0 0 1 0.21718,0 v 0 l 0.94629,0.92819 a 0.15512858,0.15512858 0 0 1 0.0465,0.11117 v 0 a 0.15512858,0.15512858 0 0 1 -0.044,0.11117 v 0 c -1.33927,1.35997 -2.84402,2.28557 -5.1968,2.28557 v 0 z m 0,0 z m -19.26955,-0.0285 a 4.2350102,4.2350102 0 0 1 -2.51309,-0.77564 v 0 a 2.8026563,2.8026563 0 0 1 -1.15829,-2.31142 v 0 a 0.07497881,0.07497881 0 0 1 0,-0.0207 v 0 -0.0207 a 2.8647078,2.8647078 0 0 1 1.18156,-2.42259 v 0 c 0.74462,-0.54295 1.7814,-0.80925 2.99399,-0.80925 v 0 a 9.9463273,9.9463273 0 0 1 2.71733,0.35162 v 0 -0.0853 0 c -0.0181,-1.60041 -0.91267,-2.37088 -2.62943,-2.39156 v 0 a 6.3835407,6.3835407 0 0 0 -2.78714,0.65929 v 0 a 0.15512858,0.15512858 0 0 1 -0.12669,0 v 0 a 0.15771405,0.15771405 0 0 1 -0.0853,-0.0905 v 0 l -0.41885,-1.14795 a 0.15512858,0.15512858 0 0 1 0.0827,-0.1965 v 0 a 7.8650188,7.8650188 0 0 1 3.48522,-0.81442 v 0 c 1.35479,0 2.43552,0.3723 3.14652,1.08331 v 0 c 0.69033,0.68774 1.0342,1.64953 1.0342,2.87764 v 0 5.75268 a 0.15512858,0.15512858 0 0 1 -0.0465,0.11118 v 0 a 0.15512858,0.15512858 0 0 1 -0.11118,0.0465 h -1.38323 a 0.15771405,0.15771405 0 0 1 -0.15513,-0.15772 v 0 -0.97989 a 4.2944762,4.2944762 0 0 1 -3.22409,1.33669 v 0 z m -1.93653,-3.19823 v 0.0362 c 0,1.06781 0.98249,1.71159 2.21059,1.71935 v 0 c 1.67539,0 2.9733,-0.99283 2.97588,-2.37347 v 0 -0.75755 a 9.4809416,9.4809416 0 0 0 -2.58547,-0.36196 v 0 c -1.71159,0 -2.58548,0.72134 -2.58548,1.73744 z m -5.52774,2.99656 a 0.15512858,0.15512858 0 0 1 -0.15772,-0.15771 v 0 -9.41372 a 0.15512858,0.15512858 0 0 1 0.15772,-0.15513 h 1.40132 a 0.15771405,0.15771405 0 0 1 0.11118,0.0465 v 0 a 0.15771405,0.15771405 0 0 1 0.0465,0.11118 v 0 9.41113 a 0.15512858,0.15512858 0 0 1 -0.0465,0.11118 v 0 a 0.15771405,0.15771405 0 0 1 -0.11118,0.0465 z m -0.0905,-11.47176 a 0.15512858,0.15512858 0 0 1 -0.15513,-0.15512 v 0 -1.55129 a 0.15771405,0.15771405 0 0 1 0.0465,-0.11118 v 0 a 0.15771405,0.15771405 0 0 1 0.11117,-0.0465 h 1.603 a 0.15771405,0.15771405 0 0 1 0.11117,0.0465 v 0 a 0.15512858,0.15512858 0 0 1 0.0465,0.11118 v 0 1.55129 a 0.15512858,0.15512858 0 0 1 -0.0465,0.11117 v 0 a 0.15512858,0.15512858 0 0 1 -0.11117,0.0465 h -1.603 z M 10.635928,72.2964 a 0.15512858,0.15512858 0 0 1 -0.144786,-0.0957 v 0 l -5.4786211,-12.83689 0.144787,-0.062 -0.144787,0.062 a 0.15771405,0.15771405 0 0 1 0.01292,-0.14737 v 0 a 0.15771405,0.15771405 0 0 1 0.131858,-0.0698 h 1.602994 a 0.15771405,0.15771405 0 0 1 0.144787,0.0957 v 0 l 4.3953081,10.63147 4.400484,-10.62372 a 0.15771405,0.15771405 0 0 1 0.14478,-0.0957 h 1.55129 a 0.15771405,0.15771405 0 0 1 0.13186,0.0698 v 0 a 0.15771405,0.15771405 0 0 1 0.0129,0.14737 v 0 L 12.0605,72.20845 a 0.15512858,0.15512858 0 0 1 -0.144789,0.0957 h -1.274639 z"
     inkscape:connector-curvature="0" />
  <g
     id="g999"
     transform="matrix(0.28641731,0,0,0.28641731,37.835362,-60.28008)">
    <path
       style="fill:#008a5e;stroke-width:0.90269554"
       inkscape:connector-curvature="0"
       id="path946"
       d="m 20.359731,293.49582 c 2.265766,-1.8054 6.716055,32.49704 5.325904,49.09761 -0.451348,5.41617 -0.613833,4.97385 -1.146424,0.0542 -0.713129,-6.49941 -4.513478,-11.96974 -8.86447,-15.72496 -1.651933,-1.42626 -5.416174,-3.38511 -15.15625846,-2.45533 -9.24360254,0.9027 -4.69401694,0 0.0541617,-2.02204 C 11.775096,317.67 13.905458,314.85359 17.462078,306.19674 c 2.437278,-5.95779 1.724149,-11.73504 2.90668,-12.6919"
       class="cls-2" />
    <path
       style="fill:#c1d82f;stroke-width:0.90269554"
       inkscape:connector-curvature="0"
       id="path948"
       d="m 86.906447,291.40156 c -12.150282,2.78933 -31.657533,4.56764 -39.989413,1.80539 -6.824378,-2.26576 -17.259539,-19.71487 -22.892359,-27.08086 -3.610783,-4.73916 -1.931769,0 -1.931769,0 0,0 11.509369,29.78895 12.27666,51.28213 v 0 c 0,0 0,1.39918 0.902695,1.71512 a 1.5345825,1.5345825 0 0 0 1.95885,-0.51453 c 12.502333,-13.91054 47.526921,-25.16716 50.207927,-25.74488 2.681004,-0.57773 2.419222,-2.36506 -0.523564,-1.39918"
       class="cls-3" />
    <path
       style="fill:#0081c6;stroke-width:0.90269554"
       inkscape:connector-curvature="0"
       id="path950"
       d="m 80.497309,315.19662 a 14.984746,14.984746 0 0 1 1.86858,-1.05616 c 9.514409,-4.36002 8.900576,-6.19249 3.610782,-6.45427 -66.104396,-3.23165 -52.356342,75.67297 -51.706402,82.56054 0.902696,8.33188 3.863537,5.53352 3.358028,1.99495 1.354043,-54.30616 36.486954,-73.93076 42.841931,-77.03604"
       class="cls-1" />
  </g>
  <path
     id="path962"
     style="fill:#717073;stroke-width:0.25854763"
     d="m 67.316282,78.32061 h 1.11176 v 2.6346 h 3.02242 v -2.6346 h 1.11434 v 6.33442 h -1.11434 v -2.66821 h -3.02242 v 2.67079 h -1.11176 z m -6.11724,1.0316 h -2.00374 v -1.03418 h 5.13993 v 1.03418 h -2.00892 v 5.30282 h -1.1221 z m -8.06409,-1.0316 h 1.11433 v 5.32091 h 3.3301 v 1.01351 h -4.44443 z m -6.71449,-0.0465 h 1.03419 l 2.78714,6.38096 h -1.17638 l -0.64379,-1.5306 h -2.99657 l -0.65154,1.5306 h -1.14019 z m 1.59266,3.86529 -1.09625,-2.53377 -1.0859,2.53377 z m -11.70963,-3.81875 h 4.69781 v 0.99541 h -3.58347 v 1.65212 h 3.17755 v 0.9954 h -3.17755 v 1.70125 h 3.61967 v 0.99541 h -4.73401 z m -8.86818,0 h 1.11175 v 2.6346 h 3.02242 v -2.6346 h 1.11435 v 6.33442 h -1.11435 v -2.66821 h -3.01983 v 2.67079 h -1.11176 z"
     inkscape:connector-curvature="0" />
</svg>
