<?xml version="1.0" encoding="UTF-8" standalone="no"?>
<!-- Created with Inkscape (http://www.inkscape.org/) -->

<svg
   xmlns:dc="http://purl.org/dc/elements/1.1/"
   xmlns:cc="http://creativecommons.org/ns#"
   xmlns:rdf="http://www.w3.org/1999/02/22-rdf-syntax-ns#"
   xmlns:svg="http://www.w3.org/2000/svg"
   xmlns="http://www.w3.org/2000/svg"
   xmlns:sodipodi="http://sodipodi.sourceforge.net/DTD/sodipodi-0.dtd"
   xmlns:inkscape="http://www.inkscape.org/namespaces/inkscape"
   version="1.1"
   id="svg34"
   xml:space="preserve"
   width="100"
   height="100"
   viewBox="0 0 100 100"
   sodipodi:docname="wsu-logo.svg"
   inkscape:version="0.92.1 r15371"><metadata
     id="metadata40"><rdf:RDF><cc:Work
         rdf:about=""><dc:format>image/svg+xml</dc:format><dc:type
           rdf:resource="http://purl.org/dc/dcmitype/StillImage" /><dc:title></dc:title></cc:Work></rdf:RDF></metadata><defs
     id="defs38" /><sodipodi:namedview
     pagecolor="#ffffff"
     bordercolor="#666666"
     borderopacity="1"
     objecttolerance="10"
     gridtolerance="10"
     guidetolerance="10"
     inkscape:pageopacity="0"
     inkscape:pageshadow="2"
     inkscape:window-width="1640"
     inkscape:window-height="1050"
     id="namedview36"
     showgrid="false"
     fit-margin-top="0"
     fit-margin-left="0"
     fit-margin-right="0"
     fit-margin-bottom="0"
     inkscape:zoom="2.8705691"
     inkscape:cx="170.33405"
     inkscape:cy="24.135402"
     inkscape:window-x="1920"
     inkscape:window-y="0"
     inkscape:window-maximized="1"
     inkscape:current-layer="g42" /><g
     id="g42"
     inkscape:groupmode="layer"
     inkscape:label="ink_ext_XXXXXX"
     transform="matrix(1.3333333,0,0,-1.3333333,-1.2311445e-4,100.00006)"><path
       inkscape:connector-curvature="0"
       id="path46"
       style="fill:#fcd006;fill-opacity:1;fill-rule:nonzero;stroke:none;stroke-width:0.1"
       d="m 72.360968,58.227573 h -3.6762 l -1.5309,4e-4 h -20.1754 c -0.6574,0 -1.3277,-0.086 -1.9886,-0.2485 -2.4047,-0.5906 -4.6868,-2.1922 -5.8305,-4.341 h -0.2055 c -12.5894,-0.1039 -22.9656,-2.8207 -28.50662,-11.4269 H 8.7253777 c -0.482816,0 -0.943363,-0.3739 -1.042972,-0.8461 l -0.3371099,-1.595 c -0.1324221,-0.6281 0.3039059,-1.2226 0.9433599,-1.2824 0.00234,-4e-4 0.311722,-0.0371 0.556252,-0.191 0.15234,-0.0953 0.31015,-0.2344 0.20469,-0.6848 l -1.158599,-5.4933 c -1.189062,-5.5969 2.1851593,-8.02542 4.9507793,-8.05706 1.41797,-0.01562 2.83907,0.57774 3.92578,1.79063 2.51561,-2.53672 6.28671,-2.23281 8.43051,0.02695 0.9265,-0.91758 2.0261,-1.4375 3.1332,-1.67031 0.0781,-1.43086 0.6207,-2.88633 1.7078,-4.21055 3.7105,-4.525 12.0304,-4.56875 16.0054,1.65 0.8215,1.28438 1.3555,2.6668 1.5473,4.09532 1.0277,-1.14336 2.4344,-1.66719 3.6996,-1.68204 1.4223,-0.01562 2.8465,0.58086 3.9344,1.79883 2.7996,-2.75469 7.475,-2.30703 9.4191,1.29963 0.0692,0.1265 0.1278,0.3613 0.1278,0.5055 v 1.5328 c 0,1.1011 -1.3063,1.5136 -1.9387,0.6125 -0.2914,-0.4161 -1.4766,-0.6996 -1.1016,1.2429 l 1.6282,7.5809 c 0.5714,2.3914 -1.2758,3.573 -2.875,3.573 l -14.193,0.0012 c -0.275,1.0852 -0.7152,1.9871 -1.2754,2.7195 0.6535,-0.1586 1.3156,-0.2421 1.9613,-0.2421 l 18.1942,-0.002 0.857,0.002 1.5629,-0.002 c 1.9152,-0.016 3.1965,1.05 3.7223,2.9102 0.1957,0.6953 -0.2157,1.2398 -0.9375,1.2398 h -3.6754 -1.6742 l -0.3454,0.5164 1.4758,-8e-4 0.8567,0.0016 1.5625,-0.0016 c 1.9136,-0.0168 3.1968,1.0496 3.723,2.9102 0.1965,0.6945 -0.216,1.239 -0.9383,1.2398 h -3.6754 -1.5297 -1.521 c 0.139,0.1864 0.2695,0.3793 0.3918,0.5789 l 2.1265,-0.0011 0.8598,0.0011 1.5594,-0.0011 c 1.9144,-0.0168 3.1992,1.0488 3.7257,2.9101 0.1961,0.6945 -0.216,1.2395 -0.9382,1.2395 z m -19.1485,-27.7145 1.7098,8.018 0.5683,-0.1235 c 0.4536,-0.1125 0.5286,-0.4074 0.4536,-0.7617 l -1.5829,-7.3765 c -0.1128,-0.5438 -0.4859,-0.8137 -0.7933,-0.7582 -0.3387,0.0601 -0.4809,0.4925 -0.3555,1.0019 z m -35.7254,7.1328 -1.58279,-7.3765 c -0.1125,-0.5438 -0.48476,-0.8137 -0.79218,-0.7582 -0.33946,0.0601 -0.48125,0.4925 -0.35665,1.0019 l 1.71016,8.018 0.56797,-0.1235 c 0.45349,-0.1125 0.52849,-0.4074 0.45349,-0.7617 z m 15.9668,-13.72614 c -0.2465,1.22148 0.7098,1.91367 1.5942,1.64648 0.3988,-0.12031 0.9988,-0.54375 1.6226,-1.27578 l 0.2906,-0.37383 c 0.5829,-0.79375 1.7168,-0.53125 1.9036,0.43164 l 0.8921,4.60153 c 0.4583,-0.7203 0.6946,-1.4675 0.6704,-2.33317 -0.0172,-0.62539 -0.3106,-1.5793 -0.5547,-2.13359 -1.7356,-3.94727 -5.9864,-2.70469 -6.4188,-0.56328 z m -2.5582,6.24454 1.3617,6.334 c 0.5739,-1.0289 1.452,-1.9949 2.6246,-2.9356 0.3563,-0.3234 1.2098,-1.0484 2.0559,-1.7761 l 0.5945,-0.5145 c -2.5304,0.7613 -4.9566,0.0992 -6.6367,-1.1078 z m -7.7047,0.3488 1.7098,8.018 0.5687,-0.1235 c 0.4536,-0.1125 0.5286,-0.4074 0.4536,-0.7617 l -1.5832,-7.3765 c -0.1137,-0.5438 -0.486,-0.8137 -0.7934,-0.7582 -0.3387,0.0601 -0.4809,0.4925 -0.3555,1.0019 z m 17.2582,16.9125 c -3.8277,0.4305 -8.1398,-1.9504 -8.7855,-5.8933 -0.507,0.416 -1.1453,0.6753 -1.8215,0.6753 l -8.6734,4e-4 c 1.4773,0.6985 2.9722,1.2641 4.4066,1.7219 2.3363,0.7465 4.4652,1.1961 6.0168,1.4801 l 1.8766,0.3223 0.5632,0.105 c 0.6887,0.1551 0.9153,0.6418 0.959,0.8297 0.1469,0.6383 -0.2781,1.2008 -0.9316,1.234 -2.857,0.1481 -5.5984,0.0508 -8.1918,-0.3211 3.7641,1.1211 8.1953,1.5856 13.3676,1.627 0.2988,-0.6532 0.7105,-1.2528 1.214,-1.7813 z m 7.0789,-9.6933 -1.189,-5.6231 -0.0582,-0.3445 c -0.7016,1.1762 -1.6746,2.3156 -2.936,3.3941 -1.4332,1.2254 -2.9625,2.5742 -4.1906,3.8821 -0.3172,0.3378 -0.5441,0.65 -0.5285,1.1914 0.0219,0.8058 0.6906,1.4507 1.5055,1.4507 0.65,0 1.1949,-0.389 1.3933,-0.9371 0.1446,-0.3988 -0.041,-0.8515 -0.3621,-1.0804 -0.8922,-0.6368 -0.4769,-1.9344 0.6203,-1.9344 l 5.7453,0.0012 v 0" /><path
       inkscape:connector-curvature="0"
       id="path48"
       style="fill:#231f20;fill-opacity:1;fill-rule:nonzero;stroke:none;stroke-width:0.1"
       d="m 29.852768,30.385373 c -0.2516,-1.1985 0.0554,-2.0461 0.5609,-2.5274 1.6277,2.395 4.9629,3.6489 8.3258,1.7403 l 0.132,-0.0836 -1.0531,-4.96369 c 0,0 -0.1953,0.26562 -0.3317,0.42539 -0.6754,0.79218 -1.4441,1.4039 -2.13,1.61054 -1.67,0.50396 -3.3508,-0.88007 -2.9477,-2.87851 0.6938,-3.43594 6.4004,-4.29258 8.4395,0.34492 0.2687,0.61172 0.6214,1.71055 0.6449,2.53281 0.048,1.72774 -0.734,3.04644 -1.9043,4.26484 -0.5871,0.6113 -3.2934,2.8684 -3.9988,3.5074 -2.1657,1.7289 -3.0891,3.3973 -3.0602,5.2106 0.1305,8.3367 12.2918,9.1203 12.8269,1.5738 l 6.6938,0.002 c 1.0879,0 2.1051,-1.1079 1.8543,-2.2657 l -1.6586,-7.6437 c -0.7422,-3.5848 2.6523,-3.4168 3.168,-1.0903 l 1.5668,7.2293 c 0.4039,1.993 -1.7035,2.17 -1.7035,2.17 l 0.3421,1.5976 h 4.8657 c 1.1523,0 2.1964,-0.7594 1.8375,-2.2629 l -1.6332,-7.6043 c -0.6504,-3.3234 2.2039,-3.2355 3.0168,-2.0761 v -1.5328 c -1.7754,-3.29341 -6.4039,-3.41411 -8.5422,-0.0395 -0.9364,-1.73555 -2.4289,-2.51407 -3.8606,-2.49805 -2.0832,0.02344 -4.8773,1.83475 -3.9191,6.77035 l 1.3,6.1535 c 0.1187,0.5066 -0.2781,0.7472 -0.5836,0.7472 l -6.3192,-0.0023 c 0.6418,0.4582 1.0797,1.3895 0.745,2.3121 -0.3578,0.9883 -1.3172,1.6402 -2.3957,1.6402 -1.3918,0 -2.5317,-1.1128 -2.5703,-2.4957 -0.004,-0.1511 0.0078,-0.3078 0.0363,-0.4683 0.0863,-0.4778 0.325,-0.9903 0.7797,-1.4738 1.273,-1.3551 2.839,-2.7352 4.2754,-3.9629 4.5507,-3.8903 4.8691,-8.41137 2.4941,-12.12582 -3.5941,-5.621093 -11.0422,-5.498437 -14.2832,-1.54805 -1.1785,1.43711 -1.5934,3.00586 -1.4488,4.46094 -1.5621,0.09805 -3.175,0.78321 -4.2567,2.49063 -1.6371,-3.03555 -6.1601,-3.60469 -8.44333,0 -0.93594,-1.73555 -2.42852,-2.51407 -3.86094,-2.49844 -2.0832,0.02383 -4.9703113,1.82264 -3.9195303,6.77074 l 1.1562503,5.4824 c 0.45938,1.9652 -1.7015603,2.1683 -1.7015603,2.1683 l 0.33672,1.5957 h 4.9949203 c 1.34648,0 2.01289,-1.0097 1.73555,-2.2937 l -1.65157,-7.6164 c -0.68867,-3.518 2.66602,-3.4731 3.15938,-1.0899 l 1.57691,7.2719 c 0.4391,1.8942 -1.71285,2.1274 -1.71285,2.1274 l 0.34141,1.5976 h 4.88634 c 1.0254,0 2.0918,-1.0164 1.8734,-2.0605 l -1.6812,-7.8067 c -0.7168,-3.6636 2.659,-3.4441 3.1695,-1.0539 l 1.5484,7.1946 c 0.4227,1.8957 -1.7058,2.1261 -1.7058,2.1261 l 0.3379,1.5985 4.2461,0.0015 c 1.0777,0 2.084,-1.1109 1.8347,-2.2625 l -1.8257,-8.4937 v 0" /><path
       inkscape:connector-curvature="0"
       id="path50"
       style="fill:#231f20;fill-opacity:1;fill-rule:nonzero;stroke:none;stroke-width:0.1"
       d="m 16.653888,43.746273 c 4.96598,2.511 10.94378,3.4528 17.34488,3.1223 -0.264,-0.0309 -8.8265,-1.1254 -15.0398,-4.661 h -7.16289 c 5.48047,7.8754 15.48519,10.3184 27.92419,10.3184 1.0442,2.7293 4.2793,4.727 7.2582,4.727 h 3.3418 c -0.0449,-0.4008 -0.1246,-0.7903 -0.2383,-1.1657 1.0551,0.7348 2.3383,1.1657 3.7223,1.1657 h 3.3406 c -0.0441,-0.4008 -0.1242,-0.7903 -0.2379,-1.1657 1.0559,0.7348 2.3391,1.1657 3.7231,1.1657 h 4.4758 2.048 1.5309 3.6762 c -0.418,-1.4797 -1.3493,-2.2129 -2.7821,-2.2004 l -1.5664,0.0011 -0.8586,-0.0011 -2.6992,0.0011 c -0.5164,-1.0273 -1.2973,-1.8996 -2.2519,-2.5281 l 3.9542,4e-4 h 1.5297 l 3.6754,-4e-4 c -0.4179,-1.4793 -1.3465,-2.2133 -2.7808,-2.2008 l -1.5664,0.0016 -0.8579,-0.0016 -3.8621,0.0016 c 0.9137,-0.6234 1.6602,-1.4715 2.1598,-2.466 h 0.7176 1.5297 l 3.6754,-4e-4 c -0.4188,-1.4793 -1.3465,-2.2133 -2.7801,-2.2012 l -1.5684,0.0024 -0.8566,-0.0024 -4.5422,0.0024 c -1.384,0 -2.6672,0.4308 -3.7231,1.166 0.1137,-0.3762 0.1938,-0.7653 0.2379,-1.166 h -3.3406 c -1.384,0 -2.6672,0.4308 -3.7223,1.166 0.1133,-0.3762 0.1934,-0.7653 0.2383,-1.166 h -3.3418 c -2.9562,0 -6.1754,1.9679 -6.9754,4.6652 -10.2152,0 -17.9296,-1.5465 -23.34918,-6.5801 z m 40.83598,6.6321 -1.2102,3e-4 0.3246,-0.4644 c 0.8856,-1.2688 2.359,-2.1012 4.0258,-2.1012 h 1.2102 l -0.3243,0.4645 c -0.8867,1.2699 -2.3605,2.1008 -4.0261,2.1008 z m -6.825,0 -1.2102,3e-4 0.3242,-0.4644 c 0.886,-1.2688 2.3594,-2.1012 4.0254,-2.1012 h 1.211 l -0.3247,0.4645 c -0.8863,1.2699 -2.3601,2.1008 -4.0257,2.1008 z m -6.8246,0 -1.2114,3e-4 0.3246,-0.4644 c 0.8868,-1.2688 2.3598,-2.1012 4.025,-2.1012 h 1.2114 l -0.3246,0.4645 c -0.8868,1.2699 -2.3602,2.1008 -4.025,2.1008 z m 16.7898,4.7222 c -1.6668,0 -3.1402,-0.8312 -4.0258,-2.1008 l -0.3246,-0.464 h 1.2102 c 1.6656,0 3.1394,0.8308 4.0254,2.1004 l 0.3242,0.4644 z m -6.8258,0 c -1.666,0 -3.1394,-0.8312 -4.0254,-2.1008 l -0.3254,-0.464 h 1.2114 c 1.6656,0 3.1386,0.8308 4.0254,2.1004 l 0.3242,0.4644 z m -6.8258,0 c -1.6652,0 -3.1382,-0.8312 -4.025,-2.1008 l -0.3246,-0.464 h 1.2114 c 1.6652,0 3.1382,0.8308 4.025,2.1004 l 0.3246,0.4644 h -1.2114 v 0" /></g></svg>