<?xml version="1.0" encoding="UTF-8" standalone="no"?>
<!-- Created with Inkscape (http://www.inkscape.org/) -->

<svg
   xmlns:dc="http://purl.org/dc/elements/1.1/"
   xmlns:cc="http://creativecommons.org/ns#"
   xmlns:rdf="http://www.w3.org/1999/02/22-rdf-syntax-ns#"
   xmlns:svg="http://www.w3.org/2000/svg"
   xmlns="http://www.w3.org/2000/svg"
   xmlns:sodipodi="http://sodipodi.sourceforge.net/DTD/sodipodi-0.dtd"
   xmlns:inkscape="http://www.inkscape.org/namespaces/inkscape"
   width="100mm"
   height="100mm"
   viewBox="0 0 100 100"
   version="1.1"
   id="svg8"
   inkscape:version="0.92.4 (5da689c313, 2019-01-14)"
   sodipodi:docname="wave-icon.svg">
  <defs
     id="defs2" />
  <sodipodi:namedview
     id="base"
     pagecolor="#ffffff"
     bordercolor="#666666"
     borderopacity="1.0"
     inkscape:pageopacity="0.0"
     inkscape:pageshadow="2"
     inkscape:zoom="1.8101934"
     inkscape:cx="364.58297"
     inkscape:cy="207.33486"
     inkscape:document-units="mm"
     inkscape:current-layer="layer1"
     showgrid="false"
     inkscape:snap-bbox="true"
     showguides="true"
     inkscape:guide-bbox="true"
     inkscape:snap-bbox-edge-midpoints="true"
     inkscape:snap-object-midpoints="true"
     inkscape:snap-center="true"
     inkscape:snap-smooth-nodes="true"
     inkscape:snap-intersection-paths="true"
     inkscape:snap-global="true"
     inkscape:window-width="2498"
     inkscape:window-height="1417"
     inkscape:window-x="1974"
     inkscape:window-y="-8"
     inkscape:window-maximized="1"
     inkscape:snap-page="true"
     inkscape:bbox-paths="true"
     inkscape:bbox-nodes="true" />
  <metadata
     id="metadata5">
    <rdf:RDF>
      <cc:Work
         rdf:about="">
        <dc:format>image/svg+xml</dc:format>
        <dc:type
           rdf:resource="http://purl.org/dc/dcmitype/StillImage" />
        <dc:title />
      </cc:Work>
    </rdf:RDF>
  </metadata>
  <g
     inkscape:label="Layer 1"
     inkscape:groupmode="layer"
     id="layer1"
     transform="translate(0,-197)">
    <g
       style="font-style:normal;font-weight:normal;font-size:35px;line-height:125%;font-family:Sans;letter-spacing:0px;word-spacing:0px;fill:#ffffff;fill-opacity:1;stroke:#000000;stroke-width:1.15172935;stroke-linecap:butt;stroke-linejoin:miter;stroke-miterlimit:4;stroke-dasharray:none;stroke-opacity:1"
       id="g4480"
       transform="matrix(2.2826983,0,0,2.2826983,-405.57079,-1865.2951)">
      <path
         d="m 206.03186,922.70074 v -5.00732 q 0,-0.20508 0.10254,-0.47852 0.10254,-0.27343 0.29053,-0.51269 0.20507,-0.25635 0.47851,-0.42725 0.29053,-0.1709 0.64942,-0.1709 0.71777,0 1.11084,0.41016 0.39306,0.39307 0.52978,1.14502 l 1.1792,13.62061 q 0,1.52099 -0.3418,2.70019 -0.34179,1.1792 -0.93994,2.08496 -0.59814,0.88867 -1.40136,1.521 -0.80323,0.61523 -1.72608,1.0083 -0.90576,0.37598 -1.87988,0.56396 -0.97412,0.1709 -1.91406,0.1709 -0.97413,0 -1.6919,-0.15381 -0.70068,-0.17089 -1.21338,-0.39306 -0.51269,-0.23926 -0.88867,-0.49561 -0.35889,-0.27344 -0.6665,-0.4956 L 186.276,928.04987 q -0.37598,-0.30762 -0.59814,-0.66651 -0.20508,-0.35888 -0.20508,-0.75195 0,-0.18799 0.0684,-0.42725 0.0684,-0.25635 0.20508,-0.46142 0.1538,-0.22217 0.39306,-0.35889 0.23926,-0.15381 0.58106,-0.15381 0.39306,0 0.6665,0.11963 0.29053,0.11963 0.49561,0.25635 l 5.53711,4.78515 q 0.11962,0.0855 0.23925,0.0855 0.13672,0 0.30762,-0.13672 0.18799,-0.1538 0.18799,-0.44433 0,-0.11963 -0.0513,-0.18799 -0.0342,-0.0684 -0.11963,-0.15381 l -8.04932,-8.2373 q -0.25634,-0.27344 -0.37597,-0.56397 -0.11963,-0.30761 -0.11963,-0.56396 0,-0.0855 0.0684,-0.30762 0.0684,-0.22217 0.22217,-0.46143 0.1538,-0.23925 0.39306,-0.41015 0.25635,-0.18799 0.63233,-0.18799 0.37597,0 0.61523,0.11963 0.23926,0.10254 0.29053,0.15381 l 7.69043,6.93847 q 0.0684,0.0342 0.13672,0.0513 0.0855,0.0171 0.11963,0.0171 0.18798,0 0.27343,-0.10254 0.10254,-0.10253 0.10254,-0.23925 0,-0.0854 -0.0684,-0.18799 -0.0342,-0.0513 -0.0513,-0.0854 l -7.10937,-8.54492 q -0.41016,-0.41016 -0.41016,-1.04248 0,-0.25635 0.10254,-0.5127 0.11963,-0.25635 0.30762,-0.44433 0.20508,-0.18799 0.44433,-0.30762 0.25635,-0.11963 0.52979,-0.11963 0.23926,0 0.4956,0.0684 0.27344,0.0684 0.5127,0.30762 l 8.32275,8.4082 q 0.10254,0.11963 0.27344,0.11963 0.15381,0 0.27344,-0.10254 0.11963,-0.10254 0.11963,-0.27344 0,-0.15381 -0.0854,-0.29053 l -5.12695,-7.3999 q -0.10254,-0.18799 -0.20508,-0.42724 -0.0855,-0.23926 -0.0855,-0.42725 0,-0.22217 0.0684,-0.47852 0.0684,-0.27343 0.22217,-0.4956 0.17089,-0.23926 0.44433,-0.37598 0.27344,-0.15381 0.66651,-0.15381 0.6665,0 1.12793,0.54688 l 7.98095,9.70703 q 0.22217,0.22217 0.54688,0.22217 0.30761,0 0.52978,-0.20508 0.22217,-0.22217 0.22217,-0.56397 z"
         id="path4482"
         inkscape:connector-curvature="0"
         style="fill:#ffffff;fill-opacity:1;stroke:#000000;stroke-width:1.15172935;stroke-miterlimit:4;stroke-dasharray:none;stroke-opacity:1" />
    </g>
    <path
       style="color:#000000;font-style:normal;font-variant:normal;font-weight:normal;font-stretch:normal;font-size:medium;line-height:normal;font-family:sans-serif;text-indent:0;text-align:start;text-decoration:none;text-decoration-line:none;text-decoration-style:solid;text-decoration-color:#000000;letter-spacing:normal;word-spacing:normal;text-transform:none;writing-mode:lr-tb;direction:ltr;baseline-shift:baseline;text-anchor:start;white-space:normal;clip-rule:nonzero;display:inline;overflow:visible;visibility:visible;opacity:1;isolation:auto;mix-blend-mode:normal;color-interpolation:sRGB;color-interpolation-filters:linearRGB;solid-color:#000000;solid-opacity:1;fill:#000000;fill-opacity:1;fill-rule:nonzero;stroke:none;stroke-width:1.92857146;stroke-linecap:round;stroke-linejoin:round;stroke-miterlimit:4;stroke-dasharray:none;stroke-dashoffset:0;stroke-opacity:1;color-rendering:auto;image-rendering:auto;shape-rendering:auto;text-rendering:auto;enable-background:accumulate"
       d="m 14.333601,264.29493 a 1.8376181,1.8376181 0 0 1 1.808731,1.86327 c 0,8.14006 6.559415,14.69948 14.699475,14.69948 a 1.8376181,1.8376181 0 1 1 0,3.67487 c -10.126106,0 -18.374344,-8.24824 -18.374344,-18.37435 a 1.8376181,1.8376181 0 0 1 1.866138,-1.86327 z"
       id="path4488"
       inkscape:connector-curvature="0" />
    <path
       inkscape:connector-curvature="0"
       id="path4494"
       d="m 86.195595,229.17587 a 1.8376181,1.8376181 0 0 1 -1.808731,-1.86327 c 0,-8.14006 -6.559415,-14.69948 -14.699475,-14.69948 a 1.8376181,1.8376181 0 1 1 0,-3.67487 c 10.126106,0 18.374344,8.24824 18.374344,18.37435 a 1.8376181,1.8376181 0 0 1 -1.866138,1.86327 z"
       style="color:#000000;font-style:normal;font-variant:normal;font-weight:normal;font-stretch:normal;font-size:medium;line-height:normal;font-family:sans-serif;text-indent:0;text-align:start;text-decoration:none;text-decoration-line:none;text-decoration-style:solid;text-decoration-color:#000000;letter-spacing:normal;word-spacing:normal;text-transform:none;writing-mode:lr-tb;direction:ltr;baseline-shift:baseline;text-anchor:start;white-space:normal;clip-rule:nonzero;display:inline;overflow:visible;visibility:visible;opacity:1;isolation:auto;mix-blend-mode:normal;color-interpolation:sRGB;color-interpolation-filters:linearRGB;solid-color:#000000;solid-opacity:1;fill:#000000;fill-opacity:1;fill-rule:nonzero;stroke:none;stroke-width:1.92857146;stroke-linecap:round;stroke-linejoin:round;stroke-miterlimit:4;stroke-dasharray:none;stroke-dashoffset:0;stroke-opacity:1;color-rendering:auto;image-rendering:auto;shape-rendering:auto;text-rendering:auto;enable-background:accumulate" />
    <path
       inkscape:connector-curvature="0"
       id="path835"
       d="m 20.154427,258.47417 a 1.8376181,1.8376181 0 0 1 1.808731,1.86327 c 0,8.14006 6.559415,14.69948 14.699475,14.69948 a 1.8376181,1.8376181 0 1 1 0,3.67487 c -10.126106,0 -18.374344,-8.24824 -18.374344,-18.37435 a 1.8376181,1.8376181 0 0 1 1.866138,-1.86327 z"
       style="color:#000000;font-style:normal;font-variant:normal;font-weight:normal;font-stretch:normal;font-size:medium;line-height:normal;font-family:sans-serif;text-indent:0;text-align:start;text-decoration:none;text-decoration-line:none;text-decoration-style:solid;text-decoration-color:#000000;letter-spacing:normal;word-spacing:normal;text-transform:none;writing-mode:lr-tb;direction:ltr;baseline-shift:baseline;text-anchor:start;white-space:normal;clip-rule:nonzero;display:inline;overflow:visible;visibility:visible;opacity:1;isolation:auto;mix-blend-mode:normal;color-interpolation:sRGB;color-interpolation-filters:linearRGB;solid-color:#000000;solid-opacity:1;fill:#000000;fill-opacity:1;fill-rule:nonzero;stroke:none;stroke-width:1.92857146;stroke-linecap:round;stroke-linejoin:round;stroke-miterlimit:4;stroke-dasharray:none;stroke-dashoffset:0;stroke-opacity:1;color-rendering:auto;image-rendering:auto;shape-rendering:auto;text-rendering:auto;enable-background:accumulate" />
    <path
       style="color:#000000;font-style:normal;font-variant:normal;font-weight:normal;font-stretch:normal;font-size:medium;line-height:normal;font-family:sans-serif;text-indent:0;text-align:start;text-decoration:none;text-decoration-line:none;text-decoration-style:solid;text-decoration-color:#000000;letter-spacing:normal;word-spacing:normal;text-transform:none;writing-mode:lr-tb;direction:ltr;baseline-shift:baseline;text-anchor:start;white-space:normal;clip-rule:nonzero;display:inline;overflow:visible;visibility:visible;opacity:1;isolation:auto;mix-blend-mode:normal;color-interpolation:sRGB;color-interpolation-filters:linearRGB;solid-color:#000000;solid-opacity:1;fill:#000000;fill-opacity:1;fill-rule:nonzero;stroke:none;stroke-width:1.92857146;stroke-linecap:round;stroke-linejoin:round;stroke-miterlimit:4;stroke-dasharray:none;stroke-dashoffset:0;stroke-opacity:1;color-rendering:auto;image-rendering:auto;shape-rendering:auto;text-rendering:auto;enable-background:accumulate"
       d="m 79.845603,235.52579 a 1.8376181,1.8376181 0 0 1 -1.808731,-1.86327 c 0,-8.14006 -6.559415,-14.69948 -14.699475,-14.69948 a 1.8376181,1.8376181 0 1 1 0,-3.67487 c 10.126106,0 18.374344,8.24824 18.374344,18.37435 a 1.8376181,1.8376181 0 0 1 -1.866138,1.86327 z"
       id="path837"
       inkscape:connector-curvature="0" />
  </g>
</svg>
